<svg width="32" height="32" viewBox="0 0 32 32" fill="none" xmlns="http://www.w3.org/2000/svg">
<rect x="-0.25" y="0.25" width="31.5" height="31.5" transform="matrix(-1 0 0 1 31.5 0)" stroke="white" stroke-width="0.5"/>
<path d="M7.626 23.875C7.49339 23.875 7.36621 23.9277 7.27245 24.0214C7.17868 24.1152 7.126 24.2424 7.126 24.375C7.126 24.5076 7.17868 24.6348 7.27245 24.7286C7.36621 24.8223 7.49339 24.875 7.626 24.875L24.5 24.877C24.6326 24.877 24.7598 24.8243 24.8536 24.7306C24.9473 24.6368 25 24.5096 25 24.377C25 24.2444 24.9473 24.1172 24.8536 24.0234C24.7598 23.9297 24.6326 23.877 24.5 23.877L7.626 23.875ZM7.626 15.438C7.49339 15.438 7.36621 15.4907 7.27245 15.5844C7.17868 15.6782 7.126 15.8054 7.126 15.938C7.126 16.0706 7.17868 16.1978 7.27245 16.2916C7.36621 16.3853 7.49339 16.438 7.626 16.438L17.626 16.439C17.7586 16.439 17.8858 16.3863 17.9796 16.2926C18.0733 16.1988 18.126 16.0716 18.126 15.939C18.126 15.8064 18.0733 15.6792 17.9796 15.5854C17.8858 15.4917 17.7586 15.439 17.626 15.439L7.626 15.438ZM7.626 7C7.49339 7 7.36621 7.05268 7.27245 7.14645C7.17868 7.24021 7.126 7.36739 7.126 7.5C7.126 7.63261 7.17868 7.75979 7.27245 7.85355C7.36621 7.94732 7.49339 8 7.626 8L24.5 8.001C24.6326 8.001 24.7598 7.94832 24.8536 7.85455C24.9473 7.76079 25 7.63361 25 7.501C25 7.36839 24.9473 7.24121 24.8536 7.14745C24.7598 7.05368 24.6326 7.001 24.5 7.001L7.626 7Z" fill="white"/>
</svg>
