<svg width="110" height="110" viewBox="0 0 110 110" fill="none" xmlns="http://www.w3.org/2000/svg">
<path d="M50.09 105.94C49.77 105.89 49.46 105.84 49.14 105.79C49.1267 104.903 49.4733 104.507 50.18 104.6C50.55 104.65 50.92 104.7 51.3 104.75C51.33 104.87 51.33 105 51.34 105.13C51.34 105.19 51.36 105.24 51.36 105.3C51.36 105.3 51.36 105.32 51.36 105.33C52.06 105.62 52.64 106.26 53.4 106.42C53.65 106.47 53.91 106.47 54.21 106.39C54.51 105.96 54.98 105.96 55.43 105.88C55.43 106.25 55.63 106.45 55.98 106.5C56.07 106.66 56.14 106.84 56.25 106.99C56.44 107.26 56.6 107.48 56.76 107.69C60.16 107.5 63.43 106.78 66.52 105.62C66.06 105.23 65.8 104.74 65.97 103.99C66.05 103.65 65.92 103.27 65.89 102.91C65.44 102.68 65.25 102.32 65.32 101.82C65.32 101.63 65.31 101.43 65.3 101.24C65.26 100.87 65.22 100.51 65.18 100.14C64.35 99.68 64.07 99.03 64.06 98.3C64.06 97.96 64.11 97.59 64.2 97.22C64.16 97.01 64.13 96.81 64.09 96.6C64.25 96.38 64.41 96.15 64.57 95.93C64.51 95.82 64.5 95.7 64.55 95.58C63.74 94.3 63.76 94.29 64.7 93.33C64.89 93.14 65.03 92.9 65.19 92.69C64.53 91.82 64.42 90.84 64.62 89.8C64.21 89.48 64.04 89.06 64.07 88.55C63.87 88.17 63.67 87.79 63.46 87.4C63.42 87.28 63.37 87.15 63.33 87.03C63.2 86.67 63.09 86.3 63.02 85.93C62.94 85.5 62.92 85.07 63.02 84.6C63.02 84.56 63.04 84.53 63.05 84.5C63.15 84.13 63.33 83.84 63.6 83.63C63.74 83.52 63.89 83.42 64.07 83.34C64.13 83.66 64.34 83.83 64.63 83.94C64.7 84.64 64.77 85.34 64.84 86.04C65.11 86.21 65.24 86.46 65.22 86.78C65.37 86.91 65.42 87.08 65.38 87.27C65.66 87.4 65.8 87.63 65.81 87.94L65.83 87.97C66.48 88.26 66.82 88.78 66.88 89.47C66.94 90.11 66.96 90.76 67 91.4C67.41 92.14 67.82 92.88 68.22 93.62C68.43 93.83 68.63 94.05 68.84 94.26C68.82 94.34 68.81 94.42 68.8 94.51C68.75 94.91 68.75 95.34 68.23 95.51V95.54C68.01 95.69 67.79 95.84 67.58 96C66.76 96.66 66.77 96.84 67.58 97.92C67.76 97.86 67.95 97.8 68.13 97.74C68.42 97.33 68.87 97.2 69.33 97.11C69.36 97.14 69.39 97.16 69.42 97.18C69.52 97.27 69.64 97.34 69.79 97.35C69.79 97.65 69.8 97.96 69.81 98.26C69.65 98.27 69.5 98.32 69.36 98.39C69.36 98.57 69.35 98.74 69.31 98.91C69.29 99.55 69.58 100.07 69.97 100.54C70.72 100.57 71.48 100.59 72.23 100.62C72.25 100.62 72.28 100.63 72.3 100.64C72.45 100.67 72.59 100.7 72.74 100.74C72.75 100.81 72.74 100.88 72.74 100.95C72.74 101.06 72.76 101.16 72.75 101.27C72.75 101.27 72.77 101.27 72.8 101.28C72.88 101.3 73.02 101.35 73.02 101.35H73.05L73.29 101.31C73.47 101.46 73.64 101.62 73.8 101.79C77.94 98.97 81.5 95.25 84.28 90.89C84.01 90.89 83.66 90.85 83.19 90.79C83.01 90.59 82.83 90.39 82.66 90.18C82.81 89.66 82.95 89.15 83.1 88.64C83.29 87.99 83.84 87.94 84.38 87.87L84.4 87.88C84.55 88.43 84.98 88.72 85.41 89.02C88.74 83.09 90.66 76.12 90.66 68.66C90.66 50.46 78.42 30.7 63.42 12.77C63.33 12.95 63.17 13.11 62.89 13.22C62.36 13.19 61.84 13.17 61.31 13.14C61.27 13.11 61.23 13.09 61.19 13.06C61.03 12.95 60.87 12.84 60.71 12.74C60.68 12.72 60.66 12.7 60.63 12.69C60.24 12.54 60.11 12.23 60.07 11.84C60.03 11.47 59.9 11.13 59.54 10.94C59.44 10.86 59.33 10.79 59.21 10.75C59.18 10.66 59.14 10.57 59.14 10.48C59.07 9.53001 59.27 9.26 59.87 9.53C60.04 9.61 60.18 9.75 60.35 9.84C60.73 10.03 60.99 10.14 61.2 10.18C60.68 9.56999 60.16 8.97 59.63 8.37C59.19 8.66 58.75 8.85998 58.27 8.16998C58.11 8.14998 57.95 8.09001 57.81 8.01001C57.77 7.85001 57.73 7.69 57.69 7.53C57.57 7.04 57.44 6.55999 57.3 6.07999C57.26 5.92999 57.23 5.77998 57.22 5.63998C56.43 4.74998 55.63 3.87 54.83 3C49.59 8.72 44.45 14.72 39.78 20.87C39.85 20.99 39.89 21.14 39.91 21.32C39.91 21.62 39.71 21.94 39.35 22.11C39.15 22.2 38.95 22.24 38.76 22.24C32.1 31.17 26.48 40.39 22.95 49.53C22.95 49.56 22.95 49.59 22.94 49.63C22.89 49.8 22.81 49.97 22.72 50.13C20.36 56.41 19 62.64 19 68.7C19 72.56 19.52 76.28 20.48 79.8C20.57 79.82 20.65 79.83 20.74 79.83C20.73 80.03 20.72 80.23 20.71 80.42C21.35 80.42 22.04 80.3 22.4 81.05C23.2 82.05 22.4 82.64 21.82 83.29C21.75 83.29 21.68 83.31 21.61 83.32C22.67 86.19 24.04 88.89 25.67 91.37C26.2 91.5 26.62 91.87 26.85 92.37C26.93 92.55 26.92 92.85 26.83 93.04C32.69 101.04 41.36 106.49 51.21 107.57C50.84 107.03 50.46 106.5 50.09 105.96V105.94ZM66.97 55.55C67.06 55.09 67.18 54.64 67.61 54.36C67.75 54.41 67.9 54.44 68.04 54.47C68.25 54.85 68.47 55.23 68.68 55.61C68.26 56.29 67.65 56.09 67.05 55.95C67.23 56.1 67.39 56.22 67.54 56.33C67.38 56.25 67.22 56.13 67.05 55.95C67.08 55.8 67.05 55.67 66.96 55.54L66.97 55.55ZM68.16 32.37C68.16 32.37 68.09 32.33 68.05 32.32C68.02 32.3 68 32.28 67.97 32.26C67.67 32.04 67.63 31.69 67.64 31.32C67.81 31.26 67.97 31.25 68.14 31.3C68.14 31.66 68.15 32.02 68.16 32.38V32.37ZM67.65 67.05C67.35 66.1 67.62 65.34 68.47 64.84C68.81 64.64 69.22 64.69 69.53 64.98C69.87 65.29 69.81 65.66 69.58 66C69.13 66.7 68.47 67.03 67.65 67.06V67.05ZM72.21 69.95C71.19 70.15 70.23 70.04 69.34 69.44C68.91 69.15 68.84 68.72 68.78 68.27C69.45 67.84 70.08 67.43 70.66 68.44C70.85 68.78 71.3 68.8 71.69 68.74C72.19 69 72.31 69.43 72.21 69.95ZM71.14 60.13C71.13 60.03 71.14 59.96 71.16 59.89C71.19 59.81 71.24 59.74 71.31 59.69C71.39 59.63 71.48 59.57 71.6 59.54C71.69 59.68 71.78 59.81 71.87 59.95C71.63 60.01 71.39 60.08 71.14 60.14V60.13ZM73.18 58.64C73.27 58.54 73.35 58.45 73.44 58.35L73.47 58.37C73.37 58.46 73.28 58.55 73.18 58.64ZM73.45 48.31C73.26 48.55 73.02 48.66 72.71 48.62C72.38 48.57 72.19 48.35 72.18 48.06C72.18 47.69 72.26 47.32 72.31 46.96C72.31 46.96 72.31 46.96 72.3 46.96C72.3 46.96 72.31 46.94 72.32 46.94C72.32 46.94 72.33 46.94 72.34 46.94C72.52 46.94 72.71 46.92 72.88 46.96C73.78 47.15 73.98 47.65 73.45 48.3V48.31ZM76.26 99.1C76.26 99.4 76.26 99.71 76.26 100.01C76.13 100.01 75.99 99.99 75.86 99.98C75.48 99.95 75.1 99.93 74.72 99.9C74.72 99.89 74.72 99.87 74.72 99.86C74.72 99.64 74.72 99.43 74.73 99.21C74.73 99.13 74.73 99.05 74.73 98.98C75.24 98.98 75.75 98.96 76.26 98.96C76.26 98.96 76.26 99.06 76.26 99.1ZM74.74 50.04C75.04 49.7 75.61 49.8 75.9 50.26C76.28 50.84 75.79 51.05 75.41 51.29C75.33 51.34 75.25 51.37 75.16 51.41V51.42C75.11 51.35 75.06 51.27 75 51.2C74.71 50.86 74.31 50.52 74.75 50.04H74.74ZM76.04 60.57C75.66 60.73 75.35 60.42 75.15 60.07C75.13 59.69 75.1 59.3 75.08 58.92C75.49 58.44 75.99 58.15 76.49 58.68C77.01 59.22 76.75 60.26 76.04 60.57ZM86.29 60.98C86.71 60.76 87.13 60.55 87.57 60.38C87.83 60.28 88.12 60.25 88.4 60.23C89.01 60.17 89.56 60.59 89.58 61.16C89.61 61.77 89.18 61.95 88.67 62C88.48 62.02 88.29 62 88.11 61.98C87.98 62.73 89.63 63.47 88.34 64.1C87.43 64.55 87.26 63.29 86.8 62.75C86.74 62.68 86.71 62.58 86.67 62.5C85.58 61.75 85.5 61.41 86.29 60.99V60.98ZM85.47 73.39C85.58 72.49 86.07 71.97 86.85 71.91C87.53 71.86 88.09 72.64 87.8 73.23C87.72 73.4 87.62 73.56 87.51 73.7C86.97 74.39 86.29 74.68 85.86 74.37C85.54 74.14 85.42 73.79 85.47 73.39ZM79.28 47.8C79.59 47.62 79.94 47.51 80.27 47.37C80.47 46.99 80.67 46.61 80.87 46.24C80.83 45.76 80.79 45.28 80.75 44.81C80.64 43.71 80.71 43.66 82.04 44V43.99C82.13 44.29 82.33 44.46 82.64 44.51C82.84 44.71 83.04 44.91 83.24 45.11C83.77 45.28 84.31 45.43 84.82 45.63C85.09 45.73 85.25 45.99 85.21 46.29C85.17 46.6 84.95 46.76 84.66 46.82C84.39 46.87 84.11 46.9 83.83 46.94C83.47 47.78 83.1 48.61 82.75 49.45C82.4 50.3 81.72 50.39 80.94 50.3C80.92 50.14 80.87 49.99 80.81 49.84C80.58 49.68 80.35 49.52 80.12 49.37C79.81 49.19 79.48 49.03 79.19 48.82C78.68 48.47 78.74 48.1 79.25 47.82L79.28 47.8ZM75.97 35.1C76.53 34.59 77.09 34.03 77.93 34.49C78.87 35.01 78.85 35.84 78.57 36.71C78.54 36.8 78.52 36.88 78.48 36.97C77.19 37.04 76.61 35.93 75.74 35.31C75.82 35.25 75.89 35.18 75.97 35.11V35.1ZM75.04 40.23C75.04 40.23 75.04 40.19 75.04 40.17C75.04 40.05 75.03 39.92 75.02 39.8C75.06 39.64 75.1 39.49 75.15 39.34C75.25 39.34 75.36 39.34 75.46 39.34C75.54 39.34 75.63 39.34 75.71 39.34C76.53 39.71 76.23 40.36 76.11 40.96C76.21 41.03 76.32 41.09 76.43 41.15C76.74 41.73 77.12 42.28 77.34 42.89C77.58 43.53 77.56 44.19 76.9 44.65C75.92 45.09 75.71 45.03 75.62 44.21C75.59 43.94 75.68 43.66 75.72 43.39L75.65 41.73C75.67 41.52 75.68 41.31 75.69 41.1C75.66 41.09 75.63 41.08 75.59 41.07C75.48 41.03 75.37 40.99 75.26 40.96C74.86 40.96 74.46 40.97 74.06 40.98C74.06 40.98 74.06 40.97 74.06 40.96C74.06 40.86 74.05 40.77 74.04 40.67C74.02 40.45 74.01 40.22 74 40C74.18 39.95 74.35 39.94 74.53 39.96C74.65 40.07 74.77 40.18 74.9 40.29C74.95 40.33 75 40.38 75.05 40.42C75.05 40.36 75.05 40.31 75.05 40.25L75.04 40.23ZM74.54 34.7C74.56 34.81 74.59 34.92 74.63 35.03C74.66 35.1 74.68 35.16 74.72 35.22C74.34 36.0733 73.71 36.2767 72.83 35.83C72.83 35.83 72.85 35.75 72.87 35.7C73.17 34.6 73.24 34.58 74.55 34.7H74.54ZM73.33 31.65C72.77 31.79 72.3 32.08 71.92 32.52C71.4 33.12 70.73 33.41 69.96 33.5C69.18 32.57 69.02 31.64 69.96 30.71C70.62 30.68 71.28 30.68 71.93 30.6C72.92 30.47 72.92 30.45 73.32 31.65H73.33ZM66.93 24.8C66.96 24.45 66.93 24.07 67.05 23.76C67.34 23.07 67.77 23.14 68.2 23.66C68.83 24.06 68.9 24.68 68.85 25.34C69.02 25.55 69.19 25.77 69.36 25.98C69.86 26.03 70.24 26.21 70.33 26.76C70.4 27.22 70.43 27.71 70.08 28.06C69.92 28.22 69.51 28.36 69.36 28.27C68.91 27.98 68.53 27.58 68.12 27.22C67.95 27.21 67.79 27.16 67.65 27.07C66.11 26.69 66.03 26.45 66.92 24.8H66.93ZM67.55 34.08C67.44 34.08 67.33 34.08 67.21 34.07C66.77 34.05 66.33 34.04 65.89 34.02C65.89 33.67 65.87 33.33 65.86 32.98C66.82 32.98 67.3833 33.3467 67.55 34.08ZM65.31 64.82C65.64 64.85 65.96 64.89 66.29 64.92C66.34 65.26 66.39 65.61 66.43 65.95C66.24 66.49 66.02 66.3 65.78 65.99C65.21 65.77 65.24 65.3 65.31 64.82ZM64.84 81.93C64.94 81.73 65.25 81.58 65.49 81.54C65.79 81.49 66.01 81.67 66.01 82.02C65.89 82.44 65.62 82.66 65.18 82.56C64.87 82.49 64.7 82.19 64.84 81.93ZM62.04 20.5C62.26 20 62.67 19.81 63.18 19.93C63.57 20.03 63.85 20.3 63.73 20.75C63.57 21.35 62.96 21.79 62.52 21.68C62.15 21.59 61.87 20.91 62.05 20.49L62.04 20.5ZM61.18 30.1C61.21 29.42 61.47 28.98 62.25 29.1C62.28 29.13 62.3 29.15 62.32 29.18C63.23 30.22 63.21 30.26 62.42 31.18C62.01 30.82 61.59 30.46 61.18 30.09V30.1ZM58.53 14.04C58.53 14.04 58.58 14.01 58.6 14C59.51 13.47 59.7 13.59 59.9 14.78C59.9 14.82 59.91 14.85 59.92 14.89C59.67 14.98 59.42 15.08 59.17 15.17C58.57 15.39 58.34 15.13 58.4 14.55C58.42 14.37 58.49 14.2 58.53 14.03V14.04ZM57.95 28.02C58.04 27.84 58.42 27.71 58.67 27.72C59.18 27.74 59.52 28.04 59.52 28.59C59.52 28.86 59.46 29.14 59.42 29.41L59.4 29.42C59.05 29.35 58.65 29.35 58.35 29.19C57.9 28.95 57.72 28.48 57.95 28.02ZM58.08 58.97C58.5 58.73 58.91 58.57 59.17 59.14C59.3 59.44 59.07 59.66 58.84 59.79C58.3 60.11 58.02 59.85 57.9 59.32C57.88 59.23 57.87 59.14 57.85 59.06H57.83C57.91 59.03 58.01 59.01 58.08 58.96V58.97ZM58.82 85.56C58.82 85.56 58.73 85.66 58.68 85.7C58.59 85.79 58.51 85.88 58.42 85.97C58.38 86.01 58.33 86.06 58.29 86.1C57.93 85.92 57.66 85.61 57.98 85.27C58.3 84.94 58.62 85.2 58.82 85.55V85.56ZM57.91 99.71C58.07 99.79 58.21 99.91 58.31 100.09H58.33C58.67 100.14 58.85 100.33 58.86 100.67C58.68 100.48 58.5 100.29 58.33 100.1C58.53 100.27 58.71 100.46 58.86 100.67C58.95 100.79 59 100.93 59 101.09C59.16 101.33 59.33 101.57 59.49 101.81C59.66 102.01 59.83 102.21 60 102.41C60.79 103 61.79 103.44 61.7 104.69C60.02 105.71 59.65 105.59 58.77 103.74C58.35 103.4 58.25 102.94 58.29 102.44C58.12 102.42 57.94 102.4 57.77 102.38C57.62 102.02 57.4 101.68 57.29 101.31C57.23 101.11 57.2 100.9 57.24 100.66C57.16 100.48 57.16 100.31 57.24 100.13C57.24 100.06 57.22 99.99 57.21 99.92C57.2 99.82 57.19 99.72 57.17 99.62C57.17 99.58 57.17 99.54 57.16 99.51C57.41 99.56 57.67 99.61 57.89 99.72L57.91 99.71ZM52.7 89.67C52.62 89.87 52.28 90.12 52.07 90.11C51.34 90.08 50.78 89.27 50.92 88.5C50.95 88.35 51.14 88.24 51.26 88.11C52.03 87.93 52.98 88.93 52.7 89.67ZM52.06 31.16C52.05 30.44 52.03 29.71 52.02 28.99V28.97C52.36 28.97 52.71 28.99 53.05 29C53.05 29 53.05 29.01 53.05 29.02C53.08 29.58 53.13 30.13 53.12 30.69C53.11 31.44 53.07 31.44 52.06 31.17V31.16ZM55.9 73.14C55.88 73.81 55.43 74.22 54.81 74.13C54.29 74.06 53.94 73.76 53.84 73.24C53.74 72.71 54.24 72.33 55 72.3C55.55 72.28 55.91 72.62 55.9 73.14ZM54.83 13.91V13.9C55.02 14.14 55.2 14.37 55.39 14.61C55.37 14.76 55.39 14.91 55.43 15.06C55.43 15.63 55.43 16.2 55.44 16.77C55.21 16.73 54.98 16.68 54.76 16.64C54.71 16.64 54.67 16.64 54.62 16.64C54.6 16.64 54.59 16.64 54.57 16.64C54.54 16.64 54.51 16.64 54.48 16.63C54.42 16.62 54.35 16.6 54.29 16.56C54.29 16.7 54.27 16.83 54.25 16.97C54.03 16.74 53.82 16.52 53.6 16.29C52.86 14.72 53.11 14.22 54.82 13.92L54.83 13.91ZM52 22.57C52 22.19 52.02 21.82 52.03 21.44C52.18 21.4 52.34 21.37 52.49 21.35C52.84 20.94 53.25 20.75 53.47 21.39C53.68 21.99 53.64 22.64 53.17 23.17C53.08 23.57 52.87 23.82 52.58 24C52.4 24.11 52.21 24.19 51.98 24.25C51.98 23.69 51.98 23.13 51.99 22.58L52 22.57ZM51.69 74.32C51.51 74.43 51.11 74.37 50.91 74.24C50.34 73.87 50.66 73.43 50.91 73.02C50.94 73.02 50.97 73.02 51 73.02C51.24 73.02 51.47 73.02 51.71 73.02C51.77 73.02 51.82 73.02 51.88 73.02C51.9 73.11 51.92 73.21 51.94 73.3C52.02 73.69 52.07 74.12 51.7 74.34L51.69 74.32ZM51.93 65.5C51.86 65.77 51.68 65.99 51.33 65.91C50.94 65.82 50.77 65.53 50.84 64.95C50.86 64.78 51 64.56 51.3 64.5C51.7 64.42 52.07 64.98 51.93 65.5ZM51.8 44.07C51.76 44.37 51.52 44.58 51.21 44.55C50.81 44.51 50.45 44.34 50.51 43.85C50.55 43.55 50.79 43.39 51.11 43.36C51.47 43.46 51.85 43.58 51.79 44.07H51.8ZM49.21 26.88C49.39 26.12 50.32 25.78 50.99 26.15C51.39 26.37 51.38 26.76 51.13 27.07C50.91 27.35 50.59 27.55 50.31 27.79L50.26 27.82C49.71 27.73 49.04 27.65 49.22 26.88H49.21ZM48.57 53.34C48.57 53.34 48.59 53.33 48.6 53.32C48.77 53.25 48.94 53.16 49.11 53.1C50.17 52.76 50.76 53.08 50.91 54.04C51.02 54.73 50.79 55.26 50.42 55.75C50.34 55.86 50.26 55.96 50.17 56.06C49.63 56.06 49.1 56.05 48.56 56.04C48.44 55.9 48.35 55.73 48.21 55.63C48.03 55.51 47.9 55.39 47.8 55.26C47.45 54.83 47.5 54.34 47.88 53.78C47.92 53.75 47.96 53.73 48.01 53.7L48.58 53.34H48.57ZM44.34 25.76C44.45 25.57 44.58 25.39 44.72 25.21C44.81 25.09 44.9 24.97 44.99 24.85C45.1 24.73 45.16 24.59 45.18 24.43C46.44 23.6 46.92 23.57 47.51 24.35C47.76 24.68 47.78 25.08 47.45 25.34C47.09 25.63 46.66 25.82 46.25 26.03C45.9 26.21 45.69 26.49 45.55 26.83C45.51 26.92 45.48 27.02 45.45 27.12C45.31 27.15 45.18 27.22 45.07 27.31C44.82 27.2 44.63 27.11 44.47 27.02C43.92 26.7 43.95 26.45 44.33 25.78L44.34 25.76ZM41.61 39.44C41.79 39.38 41.97 39.3 42.15 39.26C42.6 39.16 43.15 38.81 43.47 39.3C43.91 39.99 43.21 40.26 42.79 40.59C42.67 40.58 42.55 40.56 42.44 40.53C42.1 40.45 41.83 40.31 41.7 40.02C41.63 39.87 41.6 39.69 41.62 39.45L41.61 39.44ZM42 54.28C42.33 54.26 42.56 54.1 42.7 53.81C43.07 53.84 43.44 53.87 43.82 53.89C43.82 54.15 43.83 54.4 43.84 54.65C43.84 54.74 43.84 54.83 43.84 54.92C43.67 54.95 43.5 54.97 43.33 54.99C43.26 55 43.19 55.02 43.13 55.05C42.92 55.14 42.78 55.3 42.71 55.55C42.34 55.53 41.97 55.52 41.59 55.5C41.44 55 41.55 54.58 41.99 54.28H42ZM39.26 40.72C39.35 40.12 39.74 40.01 40.25 40.04C40.25 40.15 40.25 40.26 40.26 40.37C40.29 41.15 40.31 41.94 40.34 42.72C40.17 42.79 40 42.83 39.81 42.82C39.49 42.15 39.13 41.5 39.26 40.72ZM38.78 54.32C39.25 53.52 39.8 52.77 40.32 52C41.12 52.39 40.9 53.14 40.96 53.79C40.7 54.28 40.52 54.84 40.16 55.25C39.85 55.6 39.33 55.65 38.9 55.33C38.53 55.05 38.6 54.63 38.78 54.32ZM34.5 57.8C33.78 58.3 33.05 58.62 32.3 57.84C32.93 56.4 33.35 56.39 34.5 57.8ZM31.64 56.15H31.65C31.65 56.15 31.64 56.15 31.63 56.15C31.63 56.15 31.63 56.16 31.62 56.17C31.59 56.25 31.56 56.33 31.51 56.39C31.18 56.87 30.83 57.3 30.16 56.93C30.09 56.89 30.02 56.76 30.03 56.69C30.2 55.88 30.81 56.08 31.36 56.12C31.45 56.12 31.53 56.13 31.62 56.14L31.64 56.15ZM30.56 46.81C30.66 46.96 30.77 47.1 30.86 47.25C31.58 48.47 31.51 48.57 29.96 48.58C29.87 48.41 29.77 48.25 29.69 48.08C29.21 47.06 29.25 47.01 30.56 46.81ZM26.01 66.59C26.18 66.62 26.34 66.61 26.49 66.54C26.74 66.68 27.02 66.79 27.23 66.98C27.61 67.31 27.53 67.65 27.13 67.9C26.67 68.18 26.19 68.17 25.8 67.81C25.28 67.33 25.8 66.97 26.02 66.59H26.01ZM27.28 75.03C26.89 75.13 26.56 74.95 26.38 74.57C26.28 74.35 26.34 74.15 26.57 74.12C26.93 74.07 27.29 74.05 27.65 74.09C27.74 74.09 27.8 74.37 27.9 74.58C27.7 74.73 27.51 74.97 27.28 75.03ZM28.79 57.25C28.53 57.17 28.22 57.15 28.02 56.99C27.78 56.8 27.78 56.47 28.09 56.32C28.2 56.26 28.5 56.36 28.56 56.47C28.69 56.7 28.72 56.99 28.79 57.26V57.25ZM32.55 89.97C32.45 89.9 32.41 89.75 32.38 89.59C32.36 89.46 32.34 89.32 32.33 89.19C32.31 89.01 32.38 88.82 32.41 88.63C32.44 88.63 32.47 88.62 32.5 88.61C32.57 88.6 32.64 88.58 32.7 88.56C32.74 88.55 32.79 88.54 32.83 88.53C33.01 88.74 33.19 88.95 33.37 89.15C33.37 89.17 33.37 89.18 33.37 89.19C33.37 89.35 33.4 89.5 33.44 89.65C33.21 89.98 32.9 90.25 32.53 89.97H32.55ZM33.88 97.46C33.54 97.55 33.07 97.15 33.17 96.84C33.28 96.46 33.55 96.22 33.96 96.2C34.28 96.18 34.46 96.38 34.51 96.8C34.51 97.11 34.28 97.36 33.89 97.46H33.88ZM34.1 86.27C34.1 86.27 34.1 86.27 34.1 86.28C34.28 86.28 34.47 86.27 34.65 86.3C35.11 86.37 35.28 86.69 35.19 87.11C35.16 87.26 35 87.48 34.87 87.5C34.41 87.56 34.2 87.24 34.13 86.84C34.1 86.66 34.11 86.47 34.1 86.29C34.1 86.29 34.09 86.29 34.08 86.29L34.09 86.28L34.1 86.27ZM35.67 91.92C35.52 91.94 35.36 91.95 35.21 91.95C35.12 91.64 34.66 91.41 34.88 91.06C34.96 90.94 35.26 90.97 35.51 90.95C35.54 90.95 35.57 90.95 35.6 90.95C35.62 91.28 35.65 91.6 35.67 91.93V91.92ZM39.14 98.68C38.76 99.32 38.12 99.8 37.94 100.57C37.33 100.67 36.83 100.48 36.4 100.05C36.52 99.6 36.71 99.16 36.76 98.7C36.89 97.5 37.15 97.18 38.14 97.14C39 97.11 39.56 97.95 39.14 98.68ZM46.02 92.71C45.18 93.98 43.46 94.33 42.19 93.49C36.8 89.88 32.28 83.53 30.6 76.53C29.94 77.46 29.87 77.48 29.04 76.9C29.01 76.88 28.98 76.86 28.95 76.84C29.15 76.34 29.34 75.85 29.54 75.36C29.64 75.34 29.73 75.32 29.83 75.29C29.89 75.27 29.94 75.25 30 75.23C30.03 75.04 30.04 74.85 30.03 74.66H30.01C30.07 74.59 30.14 74.52 30.2 74.45C29.84 72.09 29.79 69.68 30.18 67.3C30.36 66.1 31.3 65.15 32.51 64.97C34.01 64.73 35.43 65.75 35.67 67.26C35.72 67.57 35.72 67.89 35.66 68.2C34.47 75.6 39.57 85.06 45.27 88.88C46.54 89.72 46.89 91.44 46.05 92.71H46.02ZM44.9 59.37C45.09 59.37 45.3 59.71 45.45 59.85C45.45 60.45 45.33 60.9 44.82 61.11C44.56 61.22 44.09 60.73 44.14 60.37C44.21 59.91 44.3 59.38 44.9 59.37ZM44.35 44.02C44.44 43.81 44.71 43.63 44.94 43.53C45.04 43.49 45.3 43.63 45.4 43.76C45.78 44.29 46.14 44.83 46.17 45.51C46.18 45.8 46.1 46.04 45.73 46.15C44.79 46.2 43.95 44.99 44.36 44.02H44.35ZM46.72 77.55C46.69 77.74 46.68 77.93 46.63 78.11C46.53 78.49 46.39 78.88 45.89 78.8C45.77 78.78 45.63 78.54 45.6 78.37C45.51 77.94 45.66 77.62 46.15 77.56C46.34 77.54 46.53 77.56 46.72 77.55ZM43.86 37.59C43.83 37.45 43.76 37.3 43.7 37.15C43.59 36.88 43.53 36.61 43.94 36.39C44.5 36.09 45.05 35.62 45.75 36.12C46.12 36.38 46.52 36.52 46.96 36.49C47.09 36.49 47.22 36.46 47.35 36.42C48.11 36.95 47.89 37.79 48 38.51C48.06 38.9 47.59 39.26 47.26 39.11C46.12 38.61 45 38.09 43.87 37.58L43.86 37.59ZM47.97 59.26C47.59 58.93 47.37 58.51 47.62 58C48 57.23 48.57 57.66 49.09 57.8C49.09 58 49.09 58.19 49.1 58.39C49.42 58.46 49.59 58.66 49.69 58.95C49.64 59.23 49.6 59.52 49.47 59.76C49.39 59.9 49.28 60.03 49.1 60.12C48.72 59.83 48.32 59.57 47.96 59.26H47.97Z" fill="#355442"/>
<path d="M83.1802 45.74C83.1802 45.74 83.1802 45.79 83.1802 45.81C83.2102 45.81 83.2402 45.79 83.2602 45.78C83.2302 45.77 83.2102 45.75 83.1802 45.74Z" fill="#355442"/>
<path d="M65.3699 92.3899C65.2999 92.4699 65.24 92.5699 65.21 92.6799C65.29 92.6199 65.3599 92.5599 65.4399 92.4999L65.3699 92.3899Z" fill="#355442"/>
</svg>
