<svg width="180" height="170" viewBox="0 0 180 170" fill="none" xmlns="http://www.w3.org/2000/svg">
<path d="M28.5008 151.75C28.2077 150.773 28.452 149.747 28.9405 148.867C30.9924 145.399 33.3375 142.174 35.5848 138.803C39.0535 140.464 38.1253 143.738 38.3696 146.522C37.2459 148.672 36.4642 151.066 34.9497 152.825C34.1192 153.802 32.8978 154.144 31.6765 153.997C32.9955 154.925 34.3146 155.902 35.6825 156.733C45.2581 162.449 55.9574 165.869 66.9497 167.774C66.6077 166.846 66.6077 165.82 67.1939 164.696C67.3405 164.403 67.4871 164.159 67.6825 163.964C67.5359 163.329 67.4871 162.693 67.536 161.96C67.5848 161.13 67.8291 160.348 67.9756 159.567C68.8062 159.567 69.6856 159.664 70.5161 159.713C71.2001 159.469 71.884 159.42 72.568 159.615C73.4963 159.518 74.3756 159.469 75.3039 159.371C76.8184 160.886 78.1375 162.547 76.8673 164.745C76.1833 165.918 75.3039 166.504 74.3268 166.797C75.255 167.188 75.8901 167.872 76.2321 168.898C76.2321 168.898 76.2321 169.045 76.2321 169.142C79.0657 169.435 81.9482 169.679 84.7817 169.826C107.988 170.95 133.344 166.309 151.322 152.629C151.713 151.212 152.348 149.991 153.716 149.063C154.107 149.209 154.547 149.258 154.937 149.356C159.139 145.594 163.047 141.442 166.125 136.507C169.838 130.498 172.281 123.902 174.089 117.063C174.089 117.063 174.089 117.063 174.04 117.063C174.04 117.063 174.089 117.014 174.089 116.965C174.089 116.965 174.089 117.014 174.089 117.063C176.434 108.122 177.557 98.7422 178.534 89.5086C179.218 83.304 179.805 77.0017 180 70.6994C179.121 70.4063 177.948 69.8689 176.287 68.9895C176.287 68.9895 176.385 68.6476 176.434 68.4522C177.362 65.0812 177.802 64.0551 180 63.9574C179.805 55.701 178.583 47.6399 175.554 39.9696C173.893 35.7681 171.646 32.1041 169.154 28.6354C166.907 29.0263 164.66 28.0003 163.731 25.753C163.292 24.6293 163.389 23.3591 163.878 22.2354C156.354 14.4186 146.779 8.94677 136.079 5.47807C134.956 7.13914 133.099 8.21405 131.634 7.87206C130.266 7.53008 129.24 5.38049 129.435 3.62171C124.305 2.40033 119.029 1.5209 113.704 1.13006C73.4474 -4.92795 29.1848 13.6858 9.64284 49.3988C-8.43348 82.5224 -0.518929 128.544 28.5497 151.799L28.5008 151.75ZM153.374 61.3681H151.908C150.003 61.2216 148.098 61.1727 146.192 61.075C146.192 59.5605 146.095 58.0949 146.095 56.5804C150.231 56.5804 152.657 58.1763 153.374 61.3681ZM155.524 53.698C155.524 53.698 155.279 53.5514 155.182 53.4537C153.863 52.4766 153.716 50.9621 153.765 49.3499C154.498 49.1056 155.182 49.0568 155.914 49.2522C155.914 50.8156 155.914 52.3789 155.963 53.9422C155.768 53.8934 155.67 53.7957 155.524 53.698ZM172.281 46.3209C176.58 45.7835 176.58 45.6857 178.29 50.8643C175.847 51.4995 173.844 52.7208 172.183 54.6261C169.936 57.2154 167.053 58.4857 163.731 58.8277C160.36 54.8216 159.676 50.7667 163.731 46.7606C166.565 46.614 169.398 46.614 172.232 46.272L172.281 46.3209ZM150.687 21.2094C150.834 19.6949 150.687 18.0827 151.224 16.7148C152.495 13.7346 154.351 14.0277 156.208 16.3239C158.895 18.0827 159.237 20.7209 158.992 23.6034C159.725 24.5316 160.458 25.4597 161.191 26.388C163.34 26.5834 165.002 27.4139 165.392 29.759C165.685 31.762 165.832 33.8629 164.318 35.3774C163.634 36.0614 161.826 36.6476 161.191 36.2568C159.237 34.9865 157.624 33.2767 155.866 31.7133C155.133 31.6644 154.449 31.4201 153.814 31.0293C147.169 29.3682 146.828 28.3422 150.687 21.2094ZM140.818 42.901C144.531 41.4353 147.951 43.5361 152.446 42.901C151.664 47.6888 149.173 49.8384 146.632 51.8903C144.385 53.6979 141.16 53.1116 138.913 50.8154C136.324 48.1773 137.399 44.269 140.77 42.9499L140.818 42.901ZM130.412 39.8231C130.412 39.8231 130.608 40.0674 130.705 40.1651C134.614 44.6598 134.565 44.8064 131.145 48.8125C129.337 47.2492 127.579 45.6857 125.771 44.1223C125.918 41.191 127.041 39.2857 130.412 39.8231ZM122.302 67.817C123.817 67.3773 124.598 68.4522 125.087 69.527C126.846 73.6308 128.556 77.7345 130.266 81.8384C131.829 81.8384 132.708 82.62 132.953 84.1345C134.027 86.9681 133.05 89.7529 132.806 92.5376C132.611 94.7849 134.076 97.8628 131.096 98.9376C127.53 100.208 126.602 96.5438 124.794 94.5896C122.449 92.9774 122.693 90.4369 122.302 88.043C121.423 82.5713 122.889 76.8063 120.202 71.4811C119.469 70.0643 120.397 68.3544 122.253 67.817H122.302ZM118.589 37.6247C118.589 38.7972 118.296 40.0185 118.15 41.191H118.101C116.586 40.9467 114.876 40.9468 113.557 40.214C111.603 39.1881 110.821 37.1361 111.847 35.1331C112.238 34.3514 113.899 33.814 114.925 33.814C117.124 33.8629 118.589 35.2308 118.589 37.5758V37.6247ZM107.988 29.759C109.307 28.9773 110.528 27.8536 111.994 27.4628C113.118 27.1208 114.29 28.0491 114.486 29.3193C114.583 30.0033 114.339 31.127 113.899 31.3713C112.531 32.153 111.017 32.5926 109.551 33.1789C109.502 33.1789 109.453 33.1789 109.405 33.1789C109.307 33.1789 109.16 33.1789 109.014 33.0812C108.77 33.0324 108.525 32.9347 108.281 32.9347C108.232 32.0553 108.134 31.1758 108.086 30.2476C108.086 30.101 108.086 29.9055 108.086 29.759H107.988ZM58.9375 113.545C54.8337 113.741 51.2673 108.513 53.026 104.312C53.4169 103.383 54.5894 102.602 55.5665 102.211C56.0062 102.016 57.1298 102.651 57.5207 103.188C59.1818 105.435 60.7451 107.829 60.8429 110.761C60.8429 112.031 60.5497 113.057 58.9375 113.496V113.545ZM49.3131 98.3513C47.652 97.4231 47.5543 95.6643 48.3848 94.2476C49.3131 92.6842 51.023 92.5376 52.5375 93.417C53.9054 94.1498 55.2733 95.1757 54.4428 97.0811C53.0749 99.0841 51.2673 99.4262 49.3131 98.3513ZM86.1008 11.5849C86.1008 9.97272 86.1985 8.31166 86.1985 6.69944C86.8825 6.50402 87.5176 6.40638 88.2016 6.30867C89.7161 4.54989 91.4748 3.71935 92.4519 6.45523C93.3802 9.04454 93.1848 11.8293 91.1817 14.1255C90.7909 15.8354 89.8626 16.959 88.6412 17.6918C87.8596 18.1804 87.029 18.5223 86.0519 18.7666C86.0519 16.3727 86.052 13.9301 86.1008 11.5362V11.5849ZM86.3451 48.7147C86.2962 45.588 86.1985 42.4614 86.1497 39.3347C86.1497 39.3347 86.1497 39.2857 86.1497 39.2369C87.6153 39.2369 89.1298 39.3347 90.5955 39.3347C90.5955 39.3347 90.5955 39.3835 90.5955 39.4323C90.6932 41.8262 90.9375 44.2201 90.8886 46.614C90.8886 47.0048 90.8886 47.2002 90.8398 47.4444C92.11 48.1773 92.5497 49.7407 92.5008 51.7437C92.11 51.8903 91.8168 51.988 91.4748 52.0857C91.1329 52.1834 90.7909 52.2811 90.4977 52.3788C88.2016 53.014 87.7619 52.5255 87.7619 49.5453C87.7619 49.3988 87.7619 49.2033 87.7619 49.0567C87.2733 48.959 86.9314 48.8613 86.2474 48.7147H86.3451ZM89.9115 59.9025C90.7421 59.756 91.6214 59.6582 92.4519 59.5116C92.8916 60.0002 93.1848 60.5865 93.2825 61.2705C93.9665 62.2476 95.3344 63.2247 95.2855 64.1529C94.9435 70.3086 96.0672 76.2201 97.142 82.2293C97.1909 82.6201 97.0931 83.011 97.0443 83.4507C96.8489 85.2583 95.7741 86.6261 94.0641 86.7239C93.1359 86.7727 91.6214 85.8445 91.2305 84.9651C90.3023 82.7667 89.4718 80.3727 89.4229 78.0277C89.3252 74.3147 88.9344 70.7483 87.0779 67.475C85.2214 66.9865 83.6092 66.2048 82.6321 64.4949C81.9481 64.4949 81.313 64.3483 80.629 64.1529C80.5802 62.6384 80.5314 61.1238 80.4336 59.6582C81.1665 59.4628 81.8504 59.1697 82.4855 58.8277C82.5344 59.414 82.681 60.0002 82.8276 60.5864C83.023 60.4887 83.1696 60.44 83.365 60.3911C85.4657 59.414 87.6153 59.3651 89.8626 60.0002L89.9115 59.9025ZM87.5664 104.361C87.5664 106.217 87.3222 107.634 86.0519 107.976C85.4657 108.122 84.7329 108.025 83.7069 107.634C82.6321 107.243 81.5085 107.048 80.3848 106.754C79.5054 105.435 78.0886 104.067 78.9192 102.357C79.9451 100.257 81.997 99.6705 84.1955 100.403C85.368 100.794 86.3939 101.527 87.5176 102.113V103.481C87.5665 103.774 87.5665 104.116 87.6153 104.409L87.5664 104.361ZM81.7528 27.072C83.5115 28.0491 83.4138 29.7102 82.339 31.0782C81.3619 32.2995 79.994 33.1788 78.7726 34.2048L78.5283 34.3514C76.1344 33.9605 73.252 33.6185 74.0337 30.2476C74.8154 26.9743 78.8214 25.5087 81.7038 27.072H81.7528ZM70.7604 139.438C71.5909 135.481 72.4214 131.573 73.3008 127.615C73.3985 127.615 73.4963 127.518 73.594 127.469C74.0337 127.273 74.5222 127.078 74.913 126.834C75.4504 123.463 74.7176 119.212 80.7268 120.434C81.4107 120.58 82.0947 120.434 82.6809 120.043C83.7069 119.408 84.6352 118.235 85.3191 117.112C90.5466 118.528 90.6932 118.822 90.1069 124.391C89.0321 125.124 87.9573 125.808 86.9314 126.492C84.4886 128.104 82.1924 129.863 80.5314 132.403C80.3848 135.481 80.1894 138.559 79.994 141.637C79.994 141.637 79.9939 141.686 79.9451 141.734C79.4565 142.321 78.968 142.907 78.4306 143.445C79.9939 144.031 81.0199 145.399 81.4107 147.695C81.8993 150.675 80.8734 152.971 79.31 155.072C78.968 155.512 78.626 156 78.2352 156.44C75.8902 156.44 73.5939 156.391 71.2489 156.342C70.7604 155.756 70.3695 154.974 69.7344 154.583C69.0016 154.095 68.4154 153.558 67.9268 152.971C66.4123 151.115 66.6077 148.965 68.2688 146.571C68.4642 146.474 68.6107 146.327 68.8062 146.229C69.4413 145.838 70.0764 145.448 70.6627 145.057C69.8321 143.493 70.3696 141.393 70.7604 139.487V139.438ZM52.9772 25.3621C53.4658 24.5315 54.0031 23.7499 54.5894 22.9682C54.9802 22.4308 55.3711 21.9422 55.7619 21.4048C56.2016 20.8674 56.4947 20.2812 56.5924 19.5972C62.0153 15.982 64.1161 15.8842 66.6565 19.2552C67.7313 20.7208 67.7803 22.4308 66.4123 23.5545C64.8978 24.7758 62.9924 25.6063 61.2336 26.5345C59.7191 27.3162 58.7909 28.5377 58.2047 30.0033C58.0581 30.3942 57.9115 30.785 57.765 31.2247C57.1787 31.3713 56.5924 31.6643 56.1528 32.0552C55.0779 31.5666 54.2474 31.1759 53.5634 30.785C51.2184 29.4171 51.3161 28.2934 52.9772 25.411V25.3621ZM49.8505 74.6079C49.8505 74.6079 50.0947 74.6079 50.1924 74.559C49.7039 73.4354 49.5085 72.2628 51.2673 71.3346C53.71 70.0644 56.0551 68.0125 59.0841 70.1621C60.11 70.8949 61.2337 71.2858 62.4062 71.53C62.3573 70.7484 62.4062 70.0154 62.6016 69.2826C63.9207 69.0383 64.8978 68.3545 65.3375 67.0842V67.1819C70.3207 69.9178 70.6627 70.5041 68.0734 73.9728C68.0245 74.0216 67.9757 74.1192 67.9268 74.1681C68.6596 76.1712 68.4153 78.4675 68.7573 80.5682C69.0016 82.2293 66.9985 83.7926 65.5329 83.1575C63.9207 82.4736 62.3573 81.7407 60.794 81.0079C56.739 82.7178 53.2703 81.985 48.9711 78.5652C48.4825 78.1743 48.1894 77.0506 48.3359 76.3666C48.4825 75.6827 49.1665 74.9498 49.8016 74.6567L49.8505 74.6079ZM41.1543 84.5255C41.9359 84.2812 42.7177 83.8903 43.4993 83.7438C45.4535 83.3041 47.8474 81.7896 49.2154 83.8903C51.1207 86.8705 48.0917 88.0429 46.2352 89.4597C45.6978 89.4109 45.2093 89.3132 44.7207 89.2155C43.2551 88.8735 42.0825 88.2383 41.4963 87.017C41.2031 86.3819 41.0565 85.6002 41.1543 84.5742V84.5255ZM42.8642 148.721C44.281 148.623 45.3069 147.939 45.8932 146.669C47.5054 146.767 49.1176 146.913 50.7299 147.011C50.7299 148.134 50.7787 149.209 50.8276 150.333C50.8276 150.724 50.8276 151.115 50.8276 151.505C50.0948 151.652 49.3619 151.75 48.6291 151.799C48.336 151.847 48.0428 151.945 47.7985 152.043C46.8703 152.434 46.284 153.118 45.9909 154.193L41.1543 153.997C40.5191 151.847 40.9588 150.04 42.913 148.721H42.8642ZM35.1451 56.8247C35.6825 57.3621 36.3665 57.8506 36.8062 58.4857C37.7833 59.9025 38.0276 61.5635 36.562 62.7361C35.1452 63.9086 33.6795 63.0781 32.4093 62.0522C32.507 59.8537 32.8001 57.8018 35.1451 56.8247ZM31.0413 90.0949C31.4322 87.5055 33.1421 87.017 35.3406 87.1635V88.5804C35.4871 91.9514 35.5849 95.3711 35.7314 98.7421C34.9986 99.0841 34.2658 99.1819 33.4352 99.1819C32.0673 96.2995 30.5039 93.5147 31.0413 90.0949Z" fill="#50795F"/>
<path d="M83.5606 63.4668C83.5606 63.4668 83.5606 63.3202 83.5606 63.2713C83.2674 63.6621 82.9743 64.004 82.6812 64.3949C82.9743 64.1017 83.3163 63.7599 83.6094 63.4668H83.5606Z" fill="#50795F"/>
</svg>
