<svg width="110" height="110" viewBox="0 0 110 110" fill="none" xmlns="http://www.w3.org/2000/svg">
<path d="M51.3008 51.5183C51.3008 51.5183 51.3008 51.5683 51.3008 51.5883C51.3308 51.5883 51.3609 51.5683 51.3809 51.5583C51.3509 51.5483 51.3308 51.5283 51.3008 51.5183Z" fill="#355442"/>
<path d="M60.1011 10.3183L91.891 42.1083C92.601 42.8183 93.7511 42.8183 94.4711 42.1083L109.221 27.3583C109.901 26.6483 109.901 25.5283 109.221 24.8183L107.641 23.2383C107.611 23.3983 107.571 23.5483 107.511 23.7083C107.591 23.8983 107.581 24.0783 107.461 24.2483C107.121 25.1983 106.031 25.0583 105.401 25.7083C104.701 26.4383 103.581 26.1783 102.701 25.7383C102.331 25.5483 102.381 25.1083 102.791 24.8383L102.821 24.8083C103.021 24.3083 103.451 24.2183 103.921 24.1883C104.551 23.8183 105.161 23.4683 105.181 22.5883C105.181 22.1383 105.361 21.7083 105.771 21.4183C105.771 21.4183 105.781 21.4183 105.791 21.4083L97.5811 13.1983C96.7711 13.1583 96.6911 13.0083 96.6211 12.2983C96.6211 12.2783 96.6211 12.2583 96.6211 12.2383L94.0811 9.69827C93.7511 9.82827 93.401 9.87827 93.031 9.84827C92.521 10.3383 91.9511 10.2983 91.3511 10.0583C90.4311 10.0983 90.021 9.73827 90.281 9.12827C90.571 8.44827 91.081 8.07827 91.821 8.00827C91.941 7.92827 92.051 7.84826 92.171 7.77826L91.8711 7.47827C91.5311 7.13827 91.061 6.94827 90.571 6.94827C77.141 6.94827 69.8311 0.498261 69.8311 0.498261C69.1611 -0.141739 68.121 -0.161725 67.411 0.418275C67.421 0.468275 67.441 0.518279 67.441 0.578279C67.391 0.858279 67.281 1.09828 66.941 1.07828C66.871 1.07828 66.821 1.05828 66.761 1.04828L60.0911 7.71826C60.0911 7.71826 60.0911 7.71827 60.0811 7.72827C59.3711 8.44827 59.3711 9.59826 60.0911 10.3083L60.1011 10.3183ZM100.061 29.0583C100.121 29.0383 100.181 29.0183 100.241 29.0083C100.991 28.8083 101.581 29.1483 102.141 29.6283C102.841 31.0283 102.741 31.1883 101.121 31.2183C100.811 30.9183 100.391 30.6683 100.121 30.3483C99.8611 30.0283 99.761 29.6483 100.051 29.0583H100.061ZM94.811 28.8883C94.841 28.9683 94.851 29.0683 94.911 29.1383C95.3977 29.7116 95.3543 30.2083 94.781 30.6283C94.511 30.1983 94.0811 30.1083 93.6111 30.0683C93.6777 29.3416 94.0777 28.9449 94.811 28.8783V28.8883ZM88.661 22.0983C89.081 21.9783 89.561 22.0983 90.011 22.1183C90.011 22.1183 90.031 22.1383 90.041 22.1483C90.171 22.2883 90.311 22.4283 90.441 22.5783C90.471 22.6083 90.501 22.6483 90.531 22.6783C90.371 23.2183 90.1811 23.7283 89.6211 24.0083C88.9911 24.3283 88.281 24.0883 88.021 23.4383C87.821 22.9383 88.071 22.2683 88.651 22.0983H88.661ZM87.2311 16.7883V17.9283C86.8011 17.9083 86.2111 18.0483 86.2111 17.3783C86.2111 16.7283 86.7811 16.7983 87.2311 16.7883ZM85.431 14.4083C85.561 14.5383 85.6911 14.6683 85.8311 14.7983C85.8511 14.8183 85.871 14.8383 85.901 14.8683C85.971 14.9383 86.0411 14.9983 86.1011 15.0683C86.0511 15.1483 86.0211 15.2383 85.9611 15.2983C85.5611 15.6183 84.9711 16.1983 84.6211 15.7283C84.0611 14.9883 84.931 14.7283 85.441 14.4183L85.431 14.4083ZM82.7411 27.4183C83.5911 27.0783 84.391 27.5583 85.431 27.4183C85.251 28.5283 84.6711 29.0283 84.0911 29.4983C83.5711 29.9183 82.831 29.7783 82.311 29.2483C81.711 28.6383 81.9611 27.7383 82.7411 27.4283V27.4183ZM76.3711 11.6583C76.4311 11.7183 76.481 11.7883 76.541 11.8483C76.401 11.9183 76.2711 11.9983 76.1211 12.0383C76.0911 12.0383 76.0111 11.9183 75.9611 11.8583C76.1011 11.7883 76.2311 11.7283 76.3711 11.6583ZM75.531 13.4483C76.221 13.3583 76.191 13.9383 76.191 14.4083C75.851 14.3983 75.511 14.3883 75.171 14.3783C75.151 14.0083 75.081 13.5083 75.531 13.4483ZM75.151 24.3783C75.461 24.1883 75.741 23.9383 76.071 23.8383C76.331 23.7583 76.601 23.9783 76.641 24.2683C76.671 24.4183 76.6111 24.6883 76.5011 24.7483C76.1911 24.9283 75.8311 25.0283 75.4911 25.1683C75.4811 25.1683 75.4711 25.1683 75.4611 25.1683C75.4311 25.1583 75.4011 25.1583 75.3711 25.1483C75.3111 25.1383 75.2611 25.1083 75.2011 25.1083C75.1811 24.8983 75.171 24.6983 75.151 24.4883C75.151 24.4483 75.151 24.4083 75.151 24.3683V24.3783Z" fill="#355442"/>
<path d="M69.5011 32.1783C69.5011 32.1783 69.5011 32.1483 69.4911 32.1383C69.4211 32.2283 69.361 32.3083 69.291 32.3983C69.361 32.3283 69.4311 32.2583 69.5011 32.1883V32.1783Z" fill="#355442"/>
<path d="M20.071 87.6682C21.101 88.6982 22.491 89.2782 23.941 89.2782C25.411 89.2582 26.821 88.6482 27.831 87.5782L39.071 75.7982C38.511 75.7482 37.9711 75.5782 37.4611 75.2282C37.0311 74.9382 36.961 74.5082 36.901 74.0582C37.571 73.6282 38.201 73.2182 38.781 74.2282C38.971 74.5682 39.421 74.5882 39.811 74.5282C39.931 74.5882 40.0211 74.6582 40.0911 74.7383L67.661 45.8282C67.731 45.5982 67.8711 45.4182 68.1211 45.3382L78.2311 34.7383C78.1711 34.4983 78.1011 34.2582 77.9811 34.0282C77.8811 33.8382 77.931 33.6182 78.071 33.4482L68.061 23.4382L44.3811 46.0282C44.3611 46.2582 44.2811 46.4983 44.2411 46.7383C44.3411 46.8083 44.451 46.8683 44.561 46.9283C44.871 47.5083 45.2511 48.0582 45.4711 48.6682C45.7111 49.3082 45.691 49.9683 45.031 50.4283C44.051 50.8683 43.8411 50.8083 43.7511 49.9883C43.7211 49.7183 43.8111 49.4382 43.8511 49.1682C43.8311 48.6182 43.811 48.0582 43.781 47.5082C43.801 47.2982 43.811 47.0882 43.821 46.8782C43.791 46.8682 43.7611 46.8582 43.7311 46.8482C43.6811 46.8282 43.6411 46.8182 43.5911 46.7982L14.701 74.3582C13.631 75.3782 13.0211 76.7882 13.0011 78.2682C12.9711 79.7383 13.5611 81.1682 14.6111 82.1982L20.0911 87.6783L20.071 87.6682ZM70.5011 28.4082C71.3911 28.2282 71.591 28.7483 71.581 29.4883C71.491 29.5183 71.4211 29.5382 71.3411 29.5682C71.2611 29.5982 71.1911 29.6182 71.1211 29.6282C70.5911 29.7682 70.4911 29.6582 70.4911 28.9682C70.4911 28.8082 70.4911 28.6282 70.4911 28.4082H70.5011ZM68.791 31.2682C68.961 31.2282 69.111 31.1582 69.261 31.0782C69.271 31.2182 69.3011 31.3483 69.3411 31.4883C69.3811 31.4683 69.4211 31.4582 69.4611 31.4382C69.9411 31.2182 70.4511 31.1982 70.9611 31.3482C71.1611 31.3182 71.351 31.2882 71.551 31.2582C71.651 31.3782 71.7211 31.5082 71.7511 31.6582C71.9111 31.8782 72.2311 32.1082 72.2211 32.3182C72.1411 33.7382 72.401 35.1182 72.651 36.4982C72.671 36.5882 72.6411 36.6882 72.6311 36.7782C72.5811 37.1982 72.341 37.5182 71.941 37.5382C71.721 37.5482 71.371 37.3282 71.291 37.1282C71.081 36.6182 70.8811 36.0682 70.8711 35.5182C70.8511 34.6582 70.751 33.8382 70.331 33.0682C69.901 32.9582 69.531 32.7782 69.301 32.3782C69.141 32.3782 68.9911 32.3382 68.8411 32.2982C68.8311 31.9482 68.811 31.5982 68.801 31.2582L68.791 31.2682ZM68.421 41.1582C68.661 40.6682 69.131 40.5383 69.641 40.7083C69.911 40.7983 70.151 40.9682 70.401 41.0982C70.401 41.2082 70.401 41.3082 70.411 41.4182C70.411 41.4882 70.411 41.5582 70.411 41.6282C70.421 42.0582 70.351 42.3883 70.061 42.4583C69.931 42.4883 69.751 42.4682 69.521 42.3782C69.281 42.2782 69.011 42.2382 68.761 42.1682C68.551 41.8582 68.231 41.5482 68.421 41.1582ZM61.3611 35.1482C61.3911 34.9982 61.551 34.8182 61.701 34.7482C62.171 34.5482 62.6711 34.5882 63.0911 34.8382C64.0711 35.4182 64.1511 34.3882 64.6111 34.0382C64.5911 33.8582 64.611 33.6882 64.651 33.5182C64.961 33.4682 65.181 33.3082 65.281 33.0082V33.0282C66.431 33.6582 66.511 33.7982 65.921 34.5982C65.891 34.6382 65.871 34.6682 65.831 34.7182C65.801 34.8982 65.791 35.0882 65.801 35.2682C65.561 35.4282 65.321 35.5782 65.081 35.7482C63.731 36.6982 62.7711 36.6882 61.4911 35.6582C61.3711 35.5682 61.3111 35.3082 61.3511 35.1482H61.3611ZM61.3711 39.2982C61.5811 38.9382 61.981 38.9082 62.331 39.0982C62.641 39.2782 62.971 39.4982 62.771 39.9482C62.461 40.4082 62.0311 40.4883 61.5911 40.2383C61.2011 40.0283 61.1811 39.6182 61.3811 39.2882L61.3711 39.2982ZM47.401 53.5882C47.711 53.4082 48.061 53.2982 48.391 53.1582C48.591 52.7782 48.7911 52.3982 48.9911 52.0282C48.9511 51.5482 48.9111 51.0682 48.8711 50.5982C48.7611 49.4982 48.831 49.4482 50.161 49.7882V49.7782C50.251 50.0782 50.451 50.2482 50.761 50.2982C50.961 50.4982 51.1611 50.6982 51.3611 50.8982C51.8911 51.0682 52.431 51.2182 52.941 51.4182C53.211 51.5182 53.371 51.7782 53.331 52.0782C53.291 52.3882 53.071 52.5482 52.781 52.6082C52.511 52.6582 52.231 52.6882 51.951 52.7282C51.591 53.5682 51.2211 54.3983 50.8711 55.2383C50.5211 56.0882 49.841 56.1782 49.061 56.0882C49.041 55.9282 48.991 55.7682 48.931 55.6282C48.701 55.4682 48.4711 55.3082 48.2411 55.1582C47.9311 54.9782 47.601 54.8182 47.301 54.6082C46.791 54.2582 46.8511 53.8882 47.3711 53.6082L47.401 53.5882ZM41.291 64.4182C41.381 64.3182 41.461 64.2282 41.551 64.1282L41.571 64.1482C41.471 64.2382 41.381 64.3282 41.281 64.4182H41.291ZM44.6111 64.4682C45.1311 65.0082 44.871 66.0482 44.161 66.3582C43.781 66.5182 43.471 66.2082 43.271 65.8582C43.251 65.4782 43.221 65.0883 43.201 64.7083C43.611 64.2283 44.1111 63.9382 44.6111 64.4682ZM42.8611 55.8182C43.1611 55.4782 43.731 55.5782 44.021 56.0382C44.401 56.6182 43.911 56.8282 43.531 57.0682C43.451 57.1182 43.361 57.1482 43.281 57.1882V57.1982C43.231 57.1282 43.1811 57.0482 43.1211 56.9782C42.8311 56.6382 42.4311 56.2982 42.8711 55.8182H42.8611ZM40.421 52.7282C40.421 52.7282 40.431 52.7083 40.441 52.7083C40.441 52.7083 40.4511 52.7083 40.4611 52.7083C40.6411 52.7083 40.8311 52.6882 41.0011 52.7282C41.9011 52.9182 42.101 53.4182 41.571 54.0682C41.381 54.3082 41.141 54.4182 40.831 54.3782C40.501 54.3282 40.311 54.1082 40.301 53.8182C40.301 53.4482 40.381 53.0782 40.431 52.7182C40.431 52.7182 40.431 52.7182 40.421 52.7182V52.7282ZM39.271 65.6682C39.301 65.5882 39.351 65.5182 39.421 65.4682C39.501 65.4082 39.5911 65.3482 39.7111 65.3182C39.8011 65.4582 39.8911 65.5882 39.9811 65.7282C39.7411 65.7882 39.5011 65.8582 39.2511 65.9182C39.2411 65.8182 39.251 65.7483 39.271 65.6783V65.6682ZM37.651 70.7482C37.991 71.0582 37.931 71.4282 37.701 71.7682C37.251 72.4683 36.591 72.7982 35.771 72.8282C35.471 71.8782 35.7411 71.1182 36.5911 70.6182C36.9311 70.4182 37.341 70.4682 37.651 70.7582V70.7482ZM35.7211 60.1482C35.8611 60.1982 36.011 60.2282 36.151 60.2582C36.361 60.6382 36.581 61.0182 36.791 61.3982C36.371 62.0782 35.761 61.8783 35.161 61.7383C35.341 61.8883 35.501 62.0082 35.651 62.1182C35.491 62.0382 35.331 61.9183 35.161 61.7383C35.191 61.5882 35.161 61.4582 35.071 61.3282C35.161 60.8682 35.2811 60.4182 35.7111 60.1382L35.7211 60.1482ZM33.431 70.5982C33.761 70.6282 34.081 70.6682 34.411 70.6982C34.461 71.0382 34.511 71.3882 34.551 71.7282C34.361 72.2682 34.141 72.0783 33.901 71.7682C33.331 71.5482 33.361 71.0782 33.431 70.5982ZM26.191 64.7482C26.611 64.5082 27.021 64.3482 27.281 64.9182C27.411 65.2182 27.181 65.4382 26.951 65.5682C26.411 65.8882 26.131 65.6282 26.011 65.0982C25.991 65.0082 25.9811 64.9182 25.9611 64.8382H25.941C26.021 64.8082 26.121 64.7882 26.191 64.7383V64.7482ZM23.1211 78.0882C23.6711 78.0682 24.031 78.4083 24.021 78.9283C24.001 79.5983 23.551 80.0082 22.931 79.9182C22.411 79.8482 22.0611 79.5482 21.9611 79.0282C21.8611 78.4982 22.3611 78.1182 23.1211 78.0882ZM18.9611 70.7282C18.9811 70.5582 19.121 70.3382 19.421 70.2782C19.821 70.1982 20.191 70.7582 20.051 71.2782C19.981 71.5482 19.801 71.7682 19.451 71.6882C19.061 71.5982 18.8911 71.3082 18.9611 70.7282ZM19.021 78.7882C19.021 78.7882 19.0811 78.7882 19.1111 78.7882C19.3511 78.7882 19.581 78.7882 19.821 78.7882C19.881 78.7882 19.9311 78.7882 19.9911 78.7882C20.0111 78.8782 20.031 78.9782 20.051 79.0682C20.131 79.4582 20.181 79.8882 19.811 80.1082C19.631 80.2182 19.231 80.1582 19.031 80.0282C18.461 79.6582 18.781 79.2182 19.031 78.8082L19.021 78.7882Z" fill="#355442"/>
</svg>
