<svg width="148" height="140" viewBox="0 0 148 140" fill="none" xmlns="http://www.w3.org/2000/svg">
<g clip-path="url(#clip0_190_4337)">
<path d="M23.473 124.98C23.2316 124.175 23.4328 123.33 23.8351 122.606C25.5251 119.749 27.4564 117.093 29.3073 114.317C32.1641 115.685 31.3996 118.381 31.6008 120.674C30.6754 122.445 30.0316 124.416 28.7843 125.865C28.1003 126.67 27.0944 126.951 26.0884 126.831C27.1748 127.595 28.2612 128.4 29.3878 129.084C37.2742 133.791 46.086 136.608 55.1392 138.177C54.8575 137.413 54.8575 136.568 55.3403 135.642C55.461 135.401 55.5818 135.2 55.7427 135.039C55.622 134.516 55.5818 133.993 55.622 133.389C55.6622 132.705 55.8634 132.061 55.9841 131.418C56.6681 131.418 57.3924 131.498 58.0764 131.538C58.6397 131.337 59.203 131.297 59.7663 131.458C60.5308 131.377 61.2551 131.337 62.0196 131.257C63.2669 132.504 64.3533 133.872 63.3072 135.683C62.7439 136.648 62.0196 137.131 61.2149 137.372C61.9794 137.694 62.5024 138.258 62.7841 139.103C62.7841 139.103 62.7841 139.224 62.7841 139.304C65.1178 139.545 67.4917 139.746 69.8255 139.867C88.9378 140.793 109.82 136.97 124.628 125.704C124.949 124.537 125.473 123.531 126.599 122.767C126.921 122.887 127.283 122.928 127.605 123.008C131.065 119.91 134.284 116.49 136.819 112.426C139.877 107.477 141.889 102.045 143.378 96.4118C143.378 96.4118 143.378 96.4118 143.338 96.4118C143.338 96.4118 143.378 96.3716 143.378 96.3313C143.378 96.3313 143.378 96.3715 143.378 96.4118C145.309 89.0485 146.235 81.3232 147.039 73.7185C147.603 68.6084 148.085 63.4179 148.246 58.2274C147.522 57.986 146.556 57.5434 145.188 56.8191C145.188 56.8191 145.269 56.5375 145.309 56.3766C146.074 53.6002 146.436 52.7552 148.246 52.6748C148.085 45.8748 147.079 39.2358 144.585 32.9186C143.217 29.4583 141.366 26.4406 139.314 23.5839C137.463 23.9058 135.612 23.0608 134.848 21.2099C134.485 20.2845 134.566 19.2383 134.968 18.3129C128.772 11.8751 120.886 7.36848 112.074 4.51169C111.148 5.87973 109.619 6.76501 108.412 6.48336C107.286 6.2017 106.441 4.43132 106.602 2.9828C102.377 1.97689 98.0312 1.2526 93.6454 0.930705C60.4906 -4.05862 24.0363 11.2715 7.94176 40.6844C-6.94574 67.9647 -0.427385 105.867 23.5133 125.02L23.473 124.98ZM126.317 50.5422H125.11C123.541 50.4215 121.972 50.3813 120.403 50.3008C120.403 49.0535 120.322 47.8465 120.322 46.5991C123.729 46.5991 125.727 47.9134 126.317 50.5422ZM128.088 44.2252C128.088 44.2252 127.887 44.1044 127.806 44.0239C126.72 43.2192 126.599 41.9719 126.639 40.6441C127.243 40.4429 127.806 40.4027 128.41 40.5637C128.41 41.8512 128.41 43.1388 128.45 44.4263C128.289 44.3861 128.209 44.3057 128.088 44.2252ZM141.889 38.1494C145.43 37.7068 145.43 37.6263 146.838 41.8914C144.826 42.4145 143.177 43.4203 141.809 44.9896C139.958 47.1221 137.584 48.1683 134.848 48.45C132.071 45.1506 131.508 41.8109 134.848 38.5116C137.181 38.3908 139.515 38.3908 141.849 38.1092L141.889 38.1494ZM124.104 17.4678C124.225 16.2205 124.104 14.8928 124.547 13.7662C125.593 11.3117 127.122 11.5531 128.651 13.4442C130.864 14.8927 131.146 17.0656 130.945 19.4395C131.548 20.204 132.152 20.9684 132.755 21.7329C134.526 21.8938 135.894 22.5779 136.216 24.5092C136.457 26.1589 136.578 27.8892 135.33 29.1365C134.767 29.6998 133.278 30.1826 132.755 29.8607C131.146 28.8146 129.818 27.4063 128.37 26.1188C127.766 26.0785 127.203 25.8773 126.68 25.5554C121.207 24.1874 120.926 23.3424 124.104 17.4678ZM115.977 35.3328C119.035 34.1257 121.851 35.8559 125.553 35.3328C124.909 39.276 122.857 41.0464 120.765 42.7363C118.914 44.2251 116.258 43.7422 114.407 41.8511C112.275 39.6784 113.16 36.4595 115.936 35.3731L115.977 35.3328ZM107.406 32.7979C107.406 32.7979 107.567 32.9991 107.648 33.0796C110.867 36.7814 110.826 36.9022 108.01 40.2015C106.521 38.914 105.073 37.6263 103.584 36.3388C103.705 33.9246 104.63 32.3553 107.406 32.7979ZM100.727 55.8535C101.974 55.4913 102.618 56.3766 103.021 57.2618C104.469 60.6416 105.877 64.0214 107.286 67.4013C108.573 67.4013 109.297 68.0451 109.499 69.2924C110.384 71.6261 109.579 73.9196 109.378 76.2131C109.217 78.064 110.424 80.5989 107.97 81.4841C105.032 82.5302 104.268 79.5126 102.779 77.9031C100.848 76.5753 101.049 74.483 100.727 72.5114C100.003 68.0049 101.21 63.257 98.9969 58.8712C98.3934 57.7043 99.1578 56.2961 100.687 55.8535H100.727ZM97.6691 30.9874C97.6691 31.953 97.4277 32.9589 97.307 33.9245H97.2667C96.0194 33.7234 94.6111 33.7234 93.5247 33.1199C91.9153 32.2749 91.2715 30.585 92.1164 28.9353C92.4383 28.2915 93.8064 27.8489 94.6514 27.8489C96.462 27.8892 97.6691 29.0157 97.6691 30.9471V30.9874ZM88.9378 24.5092C90.0242 23.8654 91.0301 22.94 92.2371 22.6181C93.1626 22.3364 94.1283 23.101 94.2892 24.1471C94.3697 24.7104 94.1685 25.6359 93.8064 25.8371C92.6798 26.4809 91.4324 26.843 90.2253 27.3258C90.1851 27.3258 90.1449 27.3258 90.1046 27.3258C90.0241 27.3258 89.9035 27.3259 89.7828 27.2454C89.5816 27.2052 89.3804 27.1247 89.1792 27.1247C89.139 26.4004 89.0585 25.6761 89.0183 24.9116C89.0183 24.7909 89.0183 24.6299 89.0183 24.5092H88.9378ZM48.5404 93.5149C45.1605 93.6758 42.2232 89.3705 43.6718 85.9101C43.9937 85.1456 44.9593 84.5019 45.7641 84.18C46.1262 84.019 47.0516 84.542 47.3735 84.9846C48.7416 86.8355 50.0291 88.8072 50.1096 91.2214C50.1096 92.2675 49.8682 93.1125 48.5404 93.4746V93.5149ZM40.6138 81.0013C39.2458 80.2368 39.1653 78.7883 39.8493 77.6214C40.6138 76.3338 42.022 76.2131 43.2694 76.9373C44.396 77.5409 45.5226 78.3858 44.8386 79.9551C43.712 81.6048 42.2233 81.8865 40.6138 81.0013ZM70.9119 9.54125C70.9119 8.21344 70.9923 6.8454 70.9923 5.5176C71.5556 5.35665 72.0787 5.27623 72.642 5.19576C73.8893 3.74725 75.3378 3.06322 76.1426 5.31647C76.9071 7.449 76.7461 9.74251 75.0964 11.6336C74.7745 13.0419 74.01 13.9673 73.0041 14.5708C72.3603 14.9732 71.6763 15.2548 70.8716 15.456C70.8716 13.4844 70.8716 11.4727 70.9119 9.50109V9.54125ZM71.113 40.121C71.0728 37.5459 70.9923 34.9708 70.9521 32.3957C70.9521 32.3957 70.9521 32.3553 70.9521 32.3151C72.1592 32.3151 73.4065 32.3957 74.6136 32.3957C74.6136 32.3957 74.6136 32.4358 74.6136 32.4761C74.6941 34.4477 74.8953 36.4193 74.855 38.3909C74.855 38.7127 74.855 38.8736 74.8148 39.0748C75.861 39.6784 76.2231 40.9659 76.1828 42.6156C75.8609 42.7363 75.6195 42.8168 75.3378 42.8973C75.0562 42.9778 74.7745 43.0583 74.5331 43.1387C72.642 43.6618 72.2799 43.2595 72.2799 40.8051C72.2799 40.6844 72.2799 40.5234 72.2799 40.4027C71.8775 40.3222 71.5959 40.2417 71.0326 40.121H71.113ZM74.0503 49.3352C74.7343 49.2145 75.4585 49.1339 76.1426 49.0132C76.5047 49.4156 76.7462 49.8985 76.8266 50.4618C77.3899 51.2665 78.5165 52.0712 78.4763 52.8357C78.1946 57.9055 79.1201 62.7742 80.0053 67.7233C80.0455 68.0452 79.965 68.3671 79.9248 68.7292C79.7638 70.2179 78.8786 71.3445 77.4704 71.425C76.7059 71.4652 75.4585 70.7008 75.1366 69.9765C74.3722 68.1659 73.6881 66.1942 73.6479 64.2629C73.5674 61.2049 73.2456 58.2676 71.7166 55.5718C70.1876 55.1694 68.8598 54.5257 68.055 53.1174C67.4917 53.1174 66.9687 52.9967 66.4053 52.8357C66.3651 51.5884 66.3249 50.341 66.2444 49.1339C66.848 48.973 67.4113 48.7316 67.9343 48.45C67.9746 48.9328 68.0953 49.4156 68.216 49.8984C68.377 49.818 68.4977 49.7778 68.6586 49.7376C70.3888 48.9328 72.1591 48.8925 74.01 49.4156L74.0503 49.3352ZM72.1189 85.9504C72.1189 87.4794 71.9177 88.6462 70.8716 88.9278C70.3887 89.0486 69.7852 88.9681 68.9403 88.6462C68.0551 88.3243 67.1296 88.1634 66.2042 87.9219C65.4799 86.8355 64.3131 85.709 64.9971 84.3007C65.8421 82.5705 67.532 82.0877 69.3426 82.6912C70.3083 83.0131 71.1533 83.6166 72.0787 84.0994V85.226C72.1189 85.4675 72.1189 85.7491 72.1592 85.9905L72.1189 85.9504ZM67.3308 22.2963C68.7793 23.101 68.6988 24.4691 67.8136 25.5957C67.0089 26.6016 65.8823 27.3258 64.8764 28.1708L64.6752 28.2915C62.7036 27.9696 60.3297 27.6879 60.9735 24.9116C61.6172 22.2158 64.9166 21.0087 67.2905 22.2963H67.3308ZM58.2776 114.84C58.9616 111.581 59.6456 108.362 60.3699 105.103C60.4503 105.103 60.5309 105.022 60.6113 104.982C60.9735 104.821 61.3758 104.66 61.6977 104.459C62.1403 101.683 61.5367 98.1822 66.4858 99.1881C67.0491 99.3088 67.6124 99.1882 68.0953 98.8663C68.9402 98.3432 69.7048 97.3775 70.2681 96.452C74.5734 97.6189 74.6941 97.8603 74.2112 102.447C73.326 103.051 72.4408 103.614 71.5959 104.178C69.5841 105.505 67.6929 106.954 66.3249 109.046C66.2042 111.581 66.0433 114.116 65.8823 116.651C65.8823 116.651 65.8823 116.691 65.842 116.731C65.4397 117.214 65.0373 117.697 64.5947 118.14C65.8823 118.622 66.7272 119.749 67.0491 121.64C67.4515 124.095 66.6066 125.986 65.319 127.716C65.0373 128.078 64.7557 128.48 64.4338 128.842C62.5024 128.842 60.6113 128.802 58.6799 128.762C58.2776 128.279 57.9557 127.635 57.4326 127.313C56.8291 126.911 56.3463 126.469 55.9439 125.986C54.6966 124.457 54.8575 122.686 56.2255 120.715C56.3865 120.634 56.5072 120.514 56.6681 120.433C57.1912 120.111 57.7143 119.789 58.1971 119.467C57.5131 118.18 57.9557 116.45 58.2776 114.88V114.84ZM43.6315 20.888C44.0339 20.2039 44.4765 19.5602 44.9593 18.9164C45.2812 18.4738 45.6031 18.0714 45.925 17.6288C46.2871 17.1862 46.5285 16.7034 46.609 16.1401C51.0753 13.1626 52.8054 13.0821 54.8977 15.8584C55.7829 17.0655 55.8232 18.4738 54.6966 19.3992C53.4492 20.4051 51.88 21.0891 50.4315 21.8536C49.1841 22.4974 48.4197 23.5034 47.9368 24.7105C47.8161 25.0324 47.6954 25.3543 47.5747 25.7164C47.0919 25.8371 46.609 26.0784 46.2469 26.4003C45.3617 25.998 44.6777 25.6762 44.1144 25.3543C42.183 24.2277 42.2635 23.3022 43.6315 20.9282V20.888ZM41.0564 61.4464C41.0564 61.4464 41.2576 61.4464 41.338 61.4061C40.9357 60.4807 40.7747 59.515 42.2232 58.7505C44.2351 57.7043 46.1664 56.0145 48.6611 57.7849C49.5061 58.3884 50.4315 58.7103 51.3972 58.9115C51.3569 58.2677 51.3972 57.6641 51.5581 57.0605C52.6445 56.8593 53.4492 56.2961 53.8114 55.2499V55.3304C57.9155 57.5836 58.1971 58.0665 56.0646 60.9233C56.0244 60.9635 55.9841 61.0439 55.9439 61.0842C56.5474 62.7339 56.3463 64.6251 56.6279 66.3552C56.8291 67.7233 55.1794 69.0108 53.9723 68.4878C52.6445 67.9245 51.3569 67.3209 50.0693 66.7174C46.7297 68.1256 43.8729 67.5221 40.3321 64.7055C39.9298 64.3836 39.6883 63.4582 39.809 62.8948C39.9297 62.3315 40.4931 61.728 41.0161 61.4865L41.0564 61.4464ZM33.8943 69.6144C34.5381 69.4132 35.1819 69.0913 35.8257 68.9706C37.4351 68.6085 39.4067 67.3611 40.5333 69.0913C42.1025 71.5457 39.6079 72.5113 38.0789 73.6782C37.6363 73.638 37.2339 73.5575 36.8316 73.4771C35.6245 73.1954 34.6588 72.6723 34.176 71.6664C33.9345 71.1433 33.8138 70.4995 33.8943 69.6545V69.6144ZM35.3026 122.485C36.4694 122.405 37.3144 121.841 37.7972 120.795C39.125 120.876 40.4528 120.996 41.7806 121.077C41.7806 122.002 41.8209 122.887 41.8611 123.813C41.8611 124.135 41.8611 124.457 41.8611 124.778C41.2576 124.899 40.654 124.98 40.0505 125.02C39.8091 125.06 39.5676 125.141 39.3664 125.221C38.6019 125.543 38.1191 126.106 37.8777 126.992L33.8943 126.831C33.3712 125.06 33.7333 123.572 35.3428 122.485H35.3026ZM28.9452 46.8003C29.3878 47.2429 29.9511 47.6452 30.3132 48.1683C31.118 49.3351 31.3192 50.7032 30.1121 51.6688C28.9452 52.6345 27.7381 51.9506 26.692 51.1056C26.7724 49.295 27.0138 47.605 28.9452 46.8003ZM25.5654 74.2013C25.8872 72.0687 27.2955 71.6664 29.1062 71.7871V72.954C29.2269 75.7303 29.3074 78.5468 29.4281 81.3231C28.8245 81.6048 28.221 81.6853 27.537 81.6853C26.4103 79.3114 25.1227 77.0178 25.5654 74.2013Z" fill="white"/>
<path d="M68.8195 52.2722C68.8195 52.2722 68.8195 52.1515 68.8195 52.1113C68.5781 52.4332 68.3366 52.7147 68.0952 53.0366C68.3366 52.7952 68.6183 52.5137 68.8597 52.2722H68.8195Z" fill="white"/>
<path d="M122.039 79.0995H122.015C122.015 79.0702 122.015 79.0386 122.015 79.0094C121.825 78.3517 121.621 77.6989 121.401 77.0535C120.985 77.0632 120.546 76.8684 120.198 76.5103C119.594 75.8868 119.789 74.9929 120.507 74.6056C119.195 71.2906 117.538 68.1486 115.58 65.2257C115.327 64.8433 115.066 64.4658 114.801 64.0931C114.479 64.0566 114.155 64.0274 113.831 64.0055C110.036 63.4355 106.1 63.7351 102.405 64.8068C101.938 64.9432 101.472 65.0918 101.012 65.2525C98.7664 66.032 96.6327 67.1037 94.6964 68.4433C94.5307 68.5578 94.3651 68.6747 94.1995 68.794C93.9973 68.9426 93.7951 69.0936 93.5979 69.2471C93.0498 69.6733 92.5188 70.1215 92.0122 70.594C91.793 70.7962 91.5762 71.0032 91.3643 71.2151C90.9917 71.5902 90.6312 71.9775 90.2853 72.377C90.0076 72.6936 89.7421 73.02 89.484 73.3512C88.97 74.021 88.4926 74.7201 88.0542 75.4508C87.9178 75.6822 87.7838 75.916 87.6547 76.1523C87.3649 76.6833 87.1018 77.2264 86.8656 77.7793C86.2274 79.27 85.7793 80.8386 85.5138 82.4413C85.2385 84.1024 85.1606 85.7976 85.2751 87.4807C85.2824 87.6025 85.2897 87.7243 85.3019 87.8461C85.5308 90.6203 86.281 93.3459 87.5159 95.7986H103.782C103.889 95.7548 103.993 95.7085 104.088 95.6476C104.225 94.8024 104.04 93.7307 105.547 94.0327C105.723 94.0668 105.886 94.023 106.039 93.928C106.302 93.7697 106.527 93.4701 106.702 93.1924C107.708 93.4677 107.966 93.57 107.966 94.2349C107.966 94.4395 107.942 94.6952 107.908 95.0265C107.642 95.2092 107.372 95.3821 107.104 95.5599C106.987 95.6379 106.872 95.7158 106.76 95.7986H123.922C123.973 94.8731 124 93.9402 124 93C124 88.1773 123.316 83.513 122.042 79.0995H122.039ZM113.412 70.6379C113.697 70.5526 113.985 70.7864 114.038 71.108C114.065 71.276 114.002 71.561 113.885 71.6292C113.546 71.8265 113.159 71.9385 112.791 72.0847C112.779 72.0774 112.764 72.0798 112.752 72.0749C112.723 72.0652 112.691 72.0652 112.66 72.0579C112.599 72.0408 112.538 72.0189 112.472 72.0189H112.47C112.453 71.7948 112.436 71.5707 112.416 71.3491C112.414 71.3052 112.409 71.2638 112.406 71.22C112.74 71.0178 113.052 70.745 113.412 70.6379ZM106.897 66.6506C106.907 66.2414 106.916 65.8298 106.926 65.4206H106.931C107.096 65.3719 107.265 65.3402 107.435 65.3256C107.637 65.0893 107.859 64.9188 108.059 64.9188C108.234 64.9188 108.39 65.0479 108.504 65.3694C108.738 66.0247 108.685 66.7261 108.18 67.3034C108.088 67.7369 107.849 68.0122 107.537 68.2022C107.345 68.3215 107.131 68.4141 106.885 68.4725C106.889 67.866 106.892 67.2595 106.897 66.6506ZM106.965 75.9964C106.948 75.2097 106.933 74.4229 106.919 73.6362V73.6118C107.291 73.6216 107.664 73.6313 108.037 73.6411V73.6606C108.066 74.2646 108.127 74.8687 108.115 75.4727C108.115 75.5653 108.102 75.614 108.1 75.6871C108.419 75.8673 108.531 76.2595 108.521 76.7709C108.424 76.8026 108.346 76.827 108.263 76.8538C108.178 76.8806 108.095 76.9049 108.024 76.9244C107.452 77.0803 107.342 76.9609 107.34 76.2083C107.34 76.1742 107.34 76.1255 107.34 76.089C107.221 76.0597 107.126 76.0402 106.965 75.9964ZM105.798 70.5429C106.237 70.784 106.222 71.2102 105.947 71.5512C105.703 71.8533 105.355 72.0749 105.053 72.3307L104.997 72.3648C104.393 72.2625 103.665 72.1748 103.867 71.3369C104.066 70.5088 105.075 70.1434 105.798 70.5429ZM93.0449 86.4017C93.1497 85.7538 93.5735 85.6271 94.1264 85.6661C94.1288 85.7855 94.1337 85.9024 94.1361 86.0217C94.1654 86.8742 94.1922 87.7292 94.219 88.5816C94.0509 88.6547 93.878 88.6913 93.6953 88.6913H93.6466C93.347 88.0701 93.0182 87.4588 93.0182 86.7549C93.0182 86.6404 93.0255 86.521 93.0449 86.4017ZM94.0728 78.0326C94.2116 78.1715 94.3797 78.2933 94.4869 78.454C94.7305 78.8121 94.7889 79.2261 94.4309 79.5184C94.0704 79.8107 93.7002 79.6085 93.3811 79.3504C93.4006 78.7999 93.4736 78.2786 94.0728 78.0326ZM96.4915 86.1776C96.1212 86.0948 95.8241 85.9365 95.6804 85.6174C95.6097 85.4566 95.5732 85.2569 95.5951 84.9987C95.79 84.9305 95.9824 84.8429 96.1846 84.799C96.6693 84.6894 97.2733 84.3046 97.6192 84.838C98.099 85.5882 97.3391 85.8829 96.8739 86.2409C96.7399 86.2263 96.6132 86.2044 96.4915 86.1776ZM97.5583 83.4959C97.4316 83.3936 97.3659 83.1111 97.4024 82.9406C97.439 82.7725 97.6143 82.5777 97.7775 82.5095C97.8043 82.4973 97.8335 82.5046 97.8628 82.4924C97.7434 82.205 97.6874 81.92 98.1307 81.6862C98.1867 81.657 98.2427 81.6253 98.2987 81.5936C98.8541 81.2794 99.407 80.9043 100.096 81.3939C100.357 81.5814 100.642 81.6837 100.937 81.7398C100.92 81.5449 100.937 81.3549 100.983 81.1674C101.317 81.1114 101.558 80.9384 101.672 80.612L101.679 80.6315C102.929 81.3208 103.012 81.467 102.366 82.3414C102.354 82.3584 102.34 82.3755 102.33 82.3925C102.515 82.8943 102.456 83.4715 102.539 84.0001C102.605 84.4239 102.096 84.8161 101.733 84.6553C101.331 84.4775 100.934 84.2948 100.535 84.1146C99.6944 84.4726 98.9515 84.4093 98.1112 83.8905C97.931 83.7809 97.7458 83.6494 97.5559 83.4959H97.5583ZM98.5691 70.1215C98.6909 69.912 98.8322 69.7147 98.9759 69.5199C99.0733 69.3883 99.1732 69.2568 99.2657 69.1253C99.3826 68.9938 99.4508 68.8428 99.4728 68.6674H99.4752C99.4752 68.6674 99.4801 68.6649 99.4849 68.6625C100.235 68.1656 100.734 67.9342 101.136 67.9659C101.468 67.9903 101.733 68.1924 102.018 68.5724C102.293 68.9353 102.305 69.3689 101.957 69.6514C101.891 69.705 101.826 69.7537 101.755 69.8C101.412 70.0362 101.019 70.2092 100.649 70.4065C100.267 70.6062 100.035 70.9107 99.8868 71.276C99.8454 71.3759 99.8089 71.4782 99.7772 71.5853C99.6262 71.6243 99.4898 71.6925 99.368 71.7924C99.0952 71.6706 98.8858 71.5707 98.7177 71.4733C98.1258 71.1274 98.1477 70.8498 98.5691 70.1215ZM97.685 88.5013C97.6703 88.4964 97.6582 88.4891 97.6435 88.4818C97.6216 88.4696 97.6021 88.4574 97.5827 88.4428C97.2173 88.2065 97.21 87.7925 97.4097 87.4515C97.4998 87.298 97.6192 87.2006 97.7556 87.1495C97.9699 87.0666 98.2208 87.1056 98.4522 87.2347C98.7932 87.4247 99.1464 87.6731 98.932 88.1603C98.8882 88.226 98.8419 88.2845 98.7908 88.3356C98.479 88.6669 98.0942 88.7107 97.685 88.5013ZM100.069 92.301C99.0416 92.3545 98.138 91.0393 98.5789 89.9846C98.6763 89.7532 98.971 89.5608 99.217 89.4512C99.329 89.4025 99.6116 89.5632 99.7139 89.7021C100.126 90.2745 100.52 90.8639 100.547 91.6092C100.559 91.9307 100.469 92.1889 100.069 92.301ZM106.88 90.8907C106.736 90.9223 106.546 90.9029 106.285 90.803C106.02 90.6983 105.733 90.6496 105.457 90.5765C105.279 90.3134 105.021 90.0455 105.021 89.7362C105.021 89.6534 105.041 89.5657 105.087 89.4731C105.35 88.9421 105.859 88.7984 106.414 88.9835C106.707 89.081 106.97 89.2661 107.245 89.4098C107.25 89.5267 107.252 89.6412 107.257 89.7557C107.26 89.8312 107.262 89.9091 107.265 89.987C107.277 90.4547 107.199 90.8152 106.88 90.8907ZM109.656 84.7211C109.603 85.1765 109.342 85.5224 108.909 85.5443C108.67 85.5565 108.29 85.3178 108.2 85.0986C108.146 84.9719 108.095 84.8404 108.046 84.7089C107.881 84.2656 107.749 83.8028 107.737 83.3498C107.715 82.412 107.613 81.5206 107.155 80.69C106.69 80.5731 106.281 80.3758 106.03 79.9398C105.862 79.9276 105.694 79.9008 105.53 79.8545C105.513 79.477 105.499 79.0995 105.484 78.7219C105.664 78.6732 105.835 78.6026 106 78.5125C106.013 78.6635 106.042 78.8121 106.088 78.9558C106.132 78.9338 106.176 78.9241 106.22 78.9022C106.746 78.661 107.291 78.6464 107.852 78.8072C108.068 78.778 108.283 78.7463 108.497 78.7146C108.611 78.8389 108.682 78.985 108.711 79.1531C108.887 79.3893 109.218 79.6329 109.218 79.8618V79.874C109.15 81.087 109.313 82.2732 109.515 83.4545C109.569 83.776 109.627 84.0975 109.683 84.419C109.7 84.514 109.669 84.6212 109.656 84.7211ZM114.971 74.0892L114.954 74.1039C114.803 74.0722 114.647 74.0551 114.491 74.0332C114.25 73.9967 114.011 73.9553 113.809 73.8481C113.32 73.5899 113.127 73.0784 113.376 72.5742C113.473 72.3794 113.89 72.2405 114.155 72.2479C114.408 72.2576 114.62 72.3307 114.779 72.4646C114.969 72.623 115.076 72.8714 115.078 73.1953C115.081 73.4925 115.01 73.7921 114.971 74.0892ZM118.223 88.6377C117.324 88.9592 117.088 88.0312 116.637 87.5416C116.053 87.1348 116.109 86.4967 116.011 85.8951C115.785 84.514 116.157 83.0672 115.48 81.7252C115.302 81.3695 115.531 80.9336 116.001 80.7996C116.379 80.6875 116.576 80.953 116.698 81.2331C117.144 82.261 117.568 83.2962 117.999 84.3314L118.008 84.3362C118.405 84.3289 118.625 84.5262 118.683 84.9135C118.956 85.6223 118.703 86.3238 118.649 87.0252C118.605 87.5903 118.968 88.3722 118.223 88.6377ZM118.237 76.0232C117.787 75.6286 117.336 75.234 116.886 74.8419C116.92 74.099 117.205 73.624 118.052 73.7531C118.084 73.7897 118.103 73.8116 118.13 73.8457C119.119 74.9807 119.102 75.0172 118.237 76.0232Z" fill="#355442"/>
<path d="M106.261 79.706C106.258 79.6889 106.253 79.6743 106.251 79.6597C106.178 79.7547 106.105 79.8472 106.032 79.9398C106.11 79.8619 106.185 79.7839 106.263 79.7084L106.261 79.706Z" fill="#355442"/>
<path d="M114.798 64.0932C113.972 62.9313 113.098 61.806 112.18 60.7197C111.992 60.7709 111.797 60.8074 111.595 60.8293C111.157 60.3032 110.898 59.782 110.893 59.2583C110.192 58.4886 109.466 57.7433 108.716 57.0223C108.485 58.0843 107.888 58.5909 107.294 59.0732C106.731 59.5311 105.922 59.3825 105.355 58.7979C104.707 58.1306 104.975 57.1514 105.825 56.8177C106.689 56.4767 107.503 56.9078 108.524 56.8372C104.673 53.1593 100.237 50.0903 95.3683 47.7862C94.4939 47.3696 93.6049 46.9799 92.7012 46.6146C92.3749 46.4831 92.046 46.3564 91.7172 46.2322C91.4931 46.259 91.2715 46.2906 91.0474 46.3247C88.7627 46.6755 86.5219 47.3161 84.4053 48.2221C83.9011 48.4365 83.4066 48.6679 82.9195 48.9139C79.9796 50.3899 77.3393 52.4067 75.2397 54.8984C74.7039 55.5317 74.2045 56.1966 73.7418 56.8908C73.5469 57.1855 73.3569 57.49 73.1743 57.7969C73.089 57.9406 73.0038 58.0867 72.9234 58.2353C72.8844 58.3011 72.8454 58.3693 72.8089 58.4375C72.4557 59.0854 72.1415 59.7527 71.8663 60.4347C71.4546 61.4553 71.1307 62.5075 70.892 63.5792C70.5388 65.1624 70.3708 66.7895 70.3829 68.4141C70.3927 70.2409 70.6289 72.0652 71.082 73.8262C71.0942 73.8749 71.1063 73.9236 71.1185 73.9699C71.289 74.6129 71.4863 75.2462 71.7177 75.8673C71.8468 76.2302 71.9881 76.5858 72.1391 76.9366C72.6895 78.2251 73.3715 79.4527 74.1753 80.5877C74.6137 81.2064 75.0887 81.7982 75.6026 82.3585C76.158 82.9674 76.7572 83.5373 77.4002 84.0634C77.4538 84.1097 77.5074 84.1536 77.5634 84.1974C77.4927 83.9538 77.5488 83.6908 77.6754 83.4764C78.1918 82.6093 78.7885 81.7885 79.3512 80.9482C80.0186 81.2721 80.0356 81.8275 80.0356 82.3901C80.0356 82.5606 80.0356 82.7311 80.0478 82.8967C79.7677 83.4326 79.5704 84.0415 79.1831 84.4872C78.9736 84.7259 78.6692 84.8209 78.3574 84.782C78.6911 85.0182 79.0151 85.2594 79.3682 85.4713C81.2047 86.5771 83.2142 87.337 85.2992 87.8461C85.9373 88.0068 86.5852 88.1408 87.2355 88.2528C87.1503 88.019 87.1527 87.7633 87.294 87.4758C87.333 87.4003 87.3744 87.3443 87.4158 87.2883C87.3817 87.1349 87.3646 86.9692 87.3768 86.789C87.3914 86.5844 87.4474 86.3847 87.4864 86.1825C87.6983 86.1922 87.9102 86.2044 88.1221 86.2142C88.222 86.1776 88.3243 86.1606 88.4266 86.1606C88.4972 86.1606 88.5654 86.1679 88.6361 86.1849C88.865 86.1654 89.0915 86.146 89.3205 86.1265C89.5933 86.4017 89.8442 86.6964 89.8442 87.0447C89.8442 87.1811 89.8076 87.3224 89.7199 87.4758C89.5519 87.7681 89.3254 87.9143 89.0745 87.9874C89.3083 88.0848 89.4715 88.2553 89.5568 88.511C89.5519 88.5305 89.5494 88.55 89.5446 88.5695C90.2631 88.645 90.9792 88.7059 91.6977 88.74C93.6268 88.835 95.6143 88.7716 97.5726 88.5159C97.6092 88.5135 97.6481 88.5086 97.6847 88.5013C98.0549 88.455 98.4227 88.399 98.7905 88.3357C102.161 87.7608 105.399 86.6014 108.046 84.7089C108.18 84.6139 108.312 84.5189 108.441 84.419C108.541 84.0659 108.701 83.7492 109.037 83.5227C109.14 83.5592 109.244 83.5787 109.349 83.6031C109.405 83.5544 109.461 83.5032 109.515 83.4545C110.516 82.5484 111.432 81.5498 112.16 80.366C113.093 78.8486 113.709 77.1899 114.157 75.4679C114.157 75.4654 114.157 75.463 114.157 75.4606H114.143L114.16 75.4435V75.4508C114.282 74.9832 114.391 74.5106 114.489 74.0332C114.596 73.5144 114.691 72.9908 114.776 72.4646C114.798 72.3161 114.822 72.1699 114.844 72.0213C115.022 70.8595 115.156 69.6904 115.278 68.531C115.395 67.4398 115.504 66.334 115.575 65.2257C115.322 64.8433 115.061 64.4658 114.795 64.0932H114.798ZM109.076 58.4375C109.176 58.4009 109.276 58.3814 109.376 58.3814C109.456 58.3814 109.539 58.3936 109.62 58.418C109.627 58.8101 109.632 59.2023 109.639 59.5944C109.595 59.5774 109.559 59.5554 109.522 59.536C109.495 59.5165 109.466 59.4946 109.439 59.4751C109.439 59.4702 109.439 59.4678 109.439 59.4653C109.111 59.2242 109.067 58.8442 109.079 58.4375H109.076ZM108.979 61.4553L108.614 61.4407C108.134 61.4236 107.654 61.4066 107.174 61.3871C107.164 61.012 107.155 60.6345 107.142 60.2569C108.187 60.2602 108.799 60.6596 108.979 61.4553ZM103.211 56.0407C103.241 56.0748 103.262 56.0992 103.289 56.1333C104.276 57.2659 104.261 57.3049 103.394 58.3108C102.943 57.9162 102.495 57.5216 102.045 57.1271C102.079 56.3842 102.361 55.9092 103.211 56.0407ZM100.237 55.483C100.237 55.7801 100.167 56.0797 100.13 56.3769L100.113 56.389C99.7282 56.3111 99.302 56.3111 98.9683 56.1357C98.4763 55.8775 98.2839 55.366 98.5347 54.8619C98.6322 54.667 99.0487 54.5282 99.3142 54.5355C99.8719 54.5525 100.232 54.8862 100.237 55.483ZM83.7281 52.4091C83.8475 52.1996 83.9912 52.0023 84.1349 51.8075C84.2323 51.676 84.3297 51.5444 84.4247 51.4129C84.5392 51.2814 84.6099 51.1279 84.6318 50.955C84.6366 50.9526 84.6391 50.9526 84.6415 50.9501C85.2163 50.5702 85.6426 50.3436 85.9933 50.273C86.4732 50.1756 86.8069 50.3704 87.1771 50.8576C87.2453 50.9501 87.2989 51.0451 87.333 51.1425C87.4353 51.43 87.3768 51.7271 87.1162 51.939C86.7289 52.2508 86.2539 52.4578 85.8058 52.6916C85.4258 52.8938 85.1944 53.1983 85.0434 53.5636C85.0044 53.6635 84.9655 53.7658 84.9362 53.873C84.7828 53.9095 84.6464 53.9777 84.527 54.0776C84.2542 53.9582 84.0448 53.8559 83.8767 53.7585C83.2824 53.4151 83.3068 53.1349 83.7281 52.4091ZM92.8961 65.6374C92.8717 64.6996 92.7694 63.8082 92.3115 62.9776C91.8487 62.8607 91.4395 62.6634 91.1887 62.225C91.0182 62.2152 90.8525 62.186 90.6869 62.1422C90.6723 61.7646 90.6577 61.3847 90.6431 61.0071C90.8233 60.9584 90.9938 60.8902 91.157 60.8001C91.1716 60.9511 91.2008 61.0997 91.2471 61.2434C91.291 61.2215 91.3348 61.2093 91.3787 61.1898C91.9048 60.9487 92.4504 60.9341 93.0106 61.0948C93.2249 61.0631 93.4393 61.0315 93.656 61.0023C93.7681 61.1265 93.8411 61.2726 93.8679 61.4407H93.8704C94.0457 61.6794 94.3892 61.9303 94.377 62.1592C94.2893 63.7059 94.5767 65.2014 94.8422 66.7067C94.8593 66.8016 94.8276 66.9088 94.8154 67.0087C94.7618 67.4642 94.5012 67.81 94.0652 67.8319C93.997 67.8319 93.9167 67.8173 93.8338 67.7857C93.6341 67.7077 93.4222 67.5421 93.3564 67.3862C93.3491 67.3692 93.3418 67.3521 93.3345 67.3351C93.1153 66.7943 92.9131 66.2098 92.8961 65.6374ZM92.124 58.284H92.1215C92.1069 57.4973 92.0923 56.7105 92.0777 55.9238C92.0777 55.9141 92.0777 55.9068 92.0753 55.897C92.4504 55.9092 92.823 55.9189 93.1957 55.9287V55.9482C93.2249 56.5522 93.2834 57.1563 93.2712 57.7603C93.2712 57.8529 93.2614 57.9016 93.2566 57.9747C93.5781 58.1549 93.6901 58.5471 93.678 59.0586C93.5805 59.0902 93.5026 59.1146 93.4198 59.1414C93.3321 59.1682 93.2517 59.1901 93.1786 59.212C92.6087 59.3679 92.4966 59.2485 92.4966 58.4935C92.4966 58.4618 92.4991 58.4107 92.4991 58.3766C92.3797 58.3473 92.2847 58.3279 92.124 58.284ZM91.4444 73.0882C91.1789 72.9859 90.8915 72.9372 90.6138 72.8617C90.5091 72.7033 90.3727 72.545 90.2826 72.377C90.2217 72.2649 90.1803 72.148 90.1803 72.0238C90.1803 71.941 90.1998 71.8533 90.2461 71.7607C90.475 71.2979 90.8891 71.1274 91.3616 71.2151C91.4322 71.2297 91.5029 71.2468 91.5735 71.2712C91.8658 71.3686 92.1288 71.5513 92.4041 71.6974C92.4041 71.8119 92.4114 71.9264 92.4163 72.0433C92.4187 72.1188 92.4211 72.1967 92.4236 72.2722C92.4358 72.7423 92.3578 73.1028 92.0363 73.1759C91.8926 73.21 91.705 73.1905 91.4444 73.0882ZM85.7059 73.8968C85.7132 74.1209 85.6694 74.3158 85.5038 74.4522C85.4331 74.5082 85.343 74.5545 85.2261 74.5886C84.1982 74.6422 83.2946 73.3269 83.7379 72.2722C83.8353 72.0384 84.1276 71.846 84.376 71.7388C84.4881 71.6901 84.7706 71.8484 84.8705 71.9897C85.041 72.2259 85.2066 72.4671 85.3454 72.718C85.5476 73.076 85.6913 73.4584 85.7059 73.8968ZM84.0911 70.4479C83.7476 70.9496 83.2897 71.0349 82.8001 70.7694C82.3763 70.538 82.3568 70.0971 82.5687 69.7367C82.8001 69.3445 83.2337 69.3104 83.6112 69.5223C83.9498 69.7123 84.3054 69.9607 84.0911 70.4479ZM82.0304 68.5286C81.8965 68.5139 81.7698 68.492 81.648 68.4652C81.2778 68.3824 80.9807 68.2241 80.8394 67.905C80.7688 67.7418 80.7322 67.5445 80.7541 67.2864C80.949 67.2182 81.1414 67.1305 81.3411 67.0842C81.8283 66.977 82.4323 66.5897 82.7758 67.1256C83.2556 67.8758 82.4981 68.1681 82.0304 68.5286ZM78.204 68.6893C78.3063 68.039 78.7301 67.9148 79.283 67.9537C79.2879 68.0706 79.2903 68.19 79.2952 68.3093C79.322 69.1618 79.3512 70.0143 79.378 70.8693C79.2148 70.9423 79.0443 70.9789 78.8689 70.9789C78.847 70.9789 78.8275 70.9764 78.8056 70.9764C78.5036 70.3553 78.1747 69.7464 78.1747 69.0425C78.1747 68.928 78.1845 68.8111 78.204 68.6893ZM85.6962 66.3998C84.6732 66.8357 83.7988 66.6506 82.7149 65.7835C82.5882 65.6812 82.5249 65.3987 82.5614 65.2282C82.598 65.0601 82.7709 64.8653 82.9341 64.7946C82.9633 64.7825 82.9925 64.7898 83.0193 64.78C82.9024 64.4926 82.8464 64.2076 83.2897 63.9738C83.9011 63.6523 84.4929 63.1408 85.2529 63.6815C85.3844 63.7765 85.5208 63.8471 85.6621 63.9032H85.6645C85.8033 63.9592 85.9471 63.9982 86.0932 64.0274C86.0932 64.0274 86.0948 64.0266 86.0981 64.025C86.0786 63.8301 86.0981 63.6425 86.1443 63.455C86.478 63.399 86.7167 63.226 86.8336 62.8972L86.8385 62.9191C87.8493 63.4769 88.0978 63.6766 87.8128 64.2003C87.747 64.3221 87.652 64.4634 87.5278 64.629C87.5132 64.6461 87.501 64.6631 87.4888 64.6802C87.6764 65.1819 87.6179 65.7592 87.7008 66.2877C87.7641 66.7091 87.2575 67.1037 86.8921 66.9429C86.4926 66.7651 86.0956 66.58 85.6962 66.3998ZM98.5713 52.923C98.8562 52.8378 99.1412 53.0741 99.1948 53.3956C99.224 53.5612 99.1607 53.8486 99.0438 53.9168C98.7052 54.1117 98.318 54.2261 97.9502 54.3698C97.938 54.365 97.9234 54.3674 97.9112 54.3625C97.882 54.3528 97.8503 54.3528 97.8186 54.3431C97.7553 54.3284 97.6944 54.3041 97.6287 54.3041C97.6116 54.08 97.5921 53.8583 97.5751 53.6343C97.5702 53.5929 97.5678 53.5514 97.5653 53.5076C97.8966 53.3054 98.2084 53.0326 98.5713 52.923ZM93.2176 47.2065C93.3905 47.2065 93.5489 47.3355 93.6633 47.6571C93.8947 48.3025 93.846 48.9918 93.3589 49.5666C93.354 49.574 93.3467 49.5837 93.3394 49.591C93.2468 50.0246 93.0081 50.2974 92.6964 50.4898C92.5039 50.6067 92.2872 50.7017 92.0436 50.7601C92.0436 50.5482 92.046 50.3339 92.0485 50.122C92.0485 49.7274 92.0533 49.3328 92.0558 48.9382C92.068 48.529 92.0777 48.1174 92.0874 47.7082H92.0899C92.2555 47.6595 92.4236 47.6278 92.5965 47.6132C92.7987 47.377 93.0203 47.2065 93.22 47.2065H93.2176ZM90.9573 52.8305C91.3933 53.0716 91.3811 53.4954 91.1059 53.8364C90.8623 54.1409 90.514 54.3601 90.212 54.6183L90.1535 54.6524C89.5519 54.5501 88.8236 54.4624 89.0258 53.6245C89.0599 53.4808 89.1208 53.3493 89.1987 53.2348C89.3327 53.0375 89.5227 52.8865 89.7394 52.7915C90.117 52.621 90.5773 52.621 90.9573 52.8305ZM79.2318 60.3203C79.3707 60.4591 79.5363 60.5809 79.6435 60.7392C79.887 61.0997 79.9479 61.5137 79.5874 61.8036C79.2294 62.0959 78.8567 61.8962 78.5377 61.6355C78.5596 61.0875 78.6327 60.5663 79.2318 60.3203ZM82.6345 84.212C82.5541 84.2266 82.4859 84.2486 82.4177 84.2753C82.1912 84.3728 82.0378 84.5506 81.9622 84.8185H81.9574C81.5531 84.8015 81.1487 84.782 80.7444 84.7649C80.5788 84.2193 80.6957 83.7663 81.1853 83.4375H81.1877C81.5433 83.418 81.7942 83.2402 81.9476 82.9211C82.352 82.9503 82.7563 82.9796 83.1606 83.0112C83.1679 83.2889 83.1752 83.5666 83.1801 83.8442C83.1825 83.9441 83.1874 84.0415 83.1898 84.1414C83.0047 84.1755 82.8196 84.1974 82.6345 84.212ZM90.6553 79.3333C90.6114 80.1079 90.5676 80.8824 90.5262 81.657C90.5189 81.6643 90.514 81.6716 90.5067 81.6765C90.3825 81.8226 90.2558 81.9687 90.1316 82.1124C90.5237 82.261 90.7795 82.602 90.8769 83.1817C90.9987 83.927 90.7454 84.5116 90.341 85.0426C90.2558 85.1595 90.1632 85.2715 90.0658 85.3812C89.4813 85.3738 88.8967 85.3665 88.3121 85.3592C88.1855 85.2082 88.088 85.0158 87.9321 84.9135C87.7422 84.7844 87.5936 84.6504 87.4815 84.5116C87.104 84.044 87.1503 83.5057 87.5692 82.8967C87.6155 82.8675 87.6618 82.8383 87.7081 82.8091C87.8664 82.7092 88.0223 82.6093 88.1806 82.507C87.9687 82.11 88.1026 81.5863 88.2025 81.1041C88.4071 80.1127 88.6263 79.1238 88.8382 78.1325C88.8626 78.1252 88.8845 78.1082 88.9064 78.0984C89.0233 78.0521 89.1378 78.001 89.245 77.9352C89.3814 77.0876 89.1963 76.0159 90.704 76.3204C90.8769 76.3545 91.0425 76.3082 91.196 76.2156C91.4298 76.0719 91.6368 75.8162 91.8025 75.5604C91.8219 75.5336 91.839 75.5044 91.8561 75.4776C92.0363 75.5263 92.1922 75.5702 92.3286 75.614C92.9472 75.8089 93.1226 75.9769 93.1226 76.525C93.1226 76.7296 93.0983 76.9853 93.0642 77.3141C92.7987 77.4968 92.5259 77.6697 92.2579 77.8475C91.649 78.2543 91.0669 78.6927 90.6553 79.3333ZM103.379 70.9253C102.481 71.2468 102.244 70.3188 101.794 69.8292C101.782 69.8195 101.767 69.8097 101.755 69.8C101.212 69.3932 101.265 68.7697 101.168 68.1827C101.156 68.1096 101.146 68.039 101.136 67.9659C101.029 67.0696 101.134 66.1489 101.009 65.2525C100.953 64.8336 100.844 64.4171 100.639 64.0128C100.461 63.6572 100.69 63.2212 101.16 63.0848C101.538 62.9752 101.733 63.2407 101.855 63.5208C102.042 63.9494 102.222 64.3781 102.403 64.8068C102.656 65.4084 102.904 66.0149 103.158 66.619L103.167 66.6238C103.564 66.6141 103.784 66.8138 103.842 67.2011C104.115 67.9099 103.862 68.6114 103.808 69.3128C103.764 69.8779 104.127 70.6574 103.379 70.9253Z" fill="#355442"/>
<path d="M91.4174 61.9911C91.415 61.9741 91.4101 61.9595 91.4077 61.9449C91.3346 62.0398 91.2615 62.1324 91.1885 62.225C91.2664 62.147 91.3419 62.0691 91.4199 61.9936L91.4174 61.9911Z" fill="#355442"/>
<path d="M95.6315 55.0372C95.8629 54.1847 95.9774 53.9314 96.5279 53.8997C96.4743 51.827 96.1747 49.7883 95.4026 47.8665C95.3928 47.8397 95.3806 47.8129 95.3685 47.7861C94.494 47.3696 93.605 46.9799 92.7014 46.6146C92.6746 46.6535 92.6429 46.6901 92.6064 46.7266C92.4359 46.902 91.9828 47.0506 91.827 46.9507C91.5468 46.7729 91.2935 46.5537 91.0475 46.3247C90.8575 46.1518 90.6724 45.974 90.4824 45.8035C90.2973 45.7913 90.1244 45.7353 89.9685 45.6379C89.4448 45.5088 89.0771 45.3943 88.8481 45.2408C84.1569 43.7843 79.1686 43 73.9976 43C72.0515 43 70.1298 43.112 68.2421 43.3288C68.2153 43.4823 68.1325 43.626 67.9888 43.7429C67.6015 44.0571 67.1265 44.2617 66.6784 44.4955C66.2984 44.6977 66.067 45.0021 65.916 45.3675C65.877 45.4674 65.8381 45.5697 65.8088 45.6768C65.6554 45.7158 65.519 45.784 65.3996 45.8814C65.1244 45.7621 64.9174 45.6622 64.7493 45.5648C64.155 45.2189 64.1793 44.9388 64.6007 44.213C64.6738 44.0839 64.7566 43.9597 64.8443 43.8379C62.0189 44.3591 59.2787 45.1191 56.6433 46.0958C56.4557 46.2979 56.2755 46.5074 56.1001 46.7169C55.1819 47.8032 54.3708 48.9821 53.6815 50.2438C52.5294 52.3555 51.7938 54.6743 51.4626 57.054C51.3335 57.9674 51.2628 58.8929 51.2531 59.8161C51.2458 60.4274 51.2628 61.0412 51.3067 61.6501C51.3189 61.8426 51.3359 62.035 51.3554 62.2274C51.5503 64.2758 52.0301 66.2926 52.7803 68.1875C53.3722 69.6855 54.1321 71.108 55.0577 72.4062C55.4181 72.9201 55.8079 73.4146 56.2268 73.8871C56.407 74.0966 56.5946 74.3011 56.7846 74.5009H56.787C57.3034 75.0367 57.8514 75.5385 58.4335 76.0037C58.3629 75.7601 58.4214 75.4946 58.548 75.2803C58.6138 75.1683 58.682 75.0587 58.7526 74.9466C58.833 74.8151 58.9182 74.6836 59.0035 74.5545C59.3981 73.948 59.8194 73.3561 60.2238 72.7545C60.5916 72.9323 60.7621 73.1832 60.84 73.4633C60.9058 73.6922 60.9082 73.9431 60.9082 74.194C60.9082 74.3645 60.9082 74.535 60.9204 74.7006C60.7645 75.0002 60.633 75.3217 60.482 75.6237C60.3626 75.8649 60.2262 76.0938 60.0557 76.2911C59.8438 76.5298 59.5418 76.6248 59.23 76.5858C59.5613 76.8221 59.8876 77.0632 60.2408 77.2751C60.5818 77.4797 60.9277 77.6722 61.2784 77.8524C61.6389 78.0399 62.0067 78.2153 62.3769 78.3761C63.2343 78.756 64.1209 79.0751 65.0221 79.343C66.0305 79.6426 67.0632 79.8765 68.1057 80.0567C68.0229 79.8229 68.0253 79.5671 68.1666 79.2797C68.2056 79.2042 68.247 79.1506 68.2884 79.0946C68.2518 78.9387 68.2348 78.7731 68.2494 78.5928C68.264 78.3883 68.32 78.1885 68.3566 77.9864C68.5709 77.9985 68.7828 78.0083 68.9947 78.018C69.0946 77.9815 69.1969 77.9644 69.2992 77.9644C69.3698 77.9644 69.438 77.9717 69.5087 77.9888C69.7376 77.9693 69.9641 77.9498 70.1931 77.9328C70.4659 78.2056 70.7168 78.5003 70.7168 78.8486C70.7168 78.985 70.6802 79.1263 70.5925 79.2797C70.4245 79.572 70.198 79.7181 69.9471 79.7912C70.0664 79.8424 70.1663 79.9106 70.2491 80.0007C70.327 80.0859 70.3879 80.1907 70.4293 80.3149C70.4245 80.3344 70.4196 80.3539 70.4172 80.3733C70.4805 80.3807 70.5438 80.3855 70.6072 80.3928C70.6388 80.3953 70.6705 80.4001 70.7021 80.4026C71.3232 80.4635 71.9468 80.5146 72.5703 80.5463C73.1013 80.5731 73.6372 80.5853 74.1755 80.5877C74.5773 80.5877 74.9817 80.5828 75.386 80.5682C75.9608 80.5487 76.5356 80.5146 77.1105 80.4659C80.5399 80.1712 83.9426 79.326 86.863 77.7793C87.7252 77.3239 88.5436 76.805 89.3109 76.2229C89.3352 76.1425 89.362 76.0622 89.3937 75.9867C89.496 75.7309 89.6519 75.502 89.9101 75.329C90.0124 75.3631 90.1171 75.3826 90.2218 75.407C90.4995 75.1634 90.7699 74.9101 91.0329 74.6495C91.7807 73.9066 92.4627 73.093 93.0302 72.1699C93.1471 71.9799 93.2591 71.7899 93.3639 71.5951C93.7365 70.9253 94.0507 70.2311 94.3187 69.5174C94.3406 69.4639 94.3625 69.4103 94.382 69.3542C94.494 69.0547 94.5963 68.7502 94.6938 68.4433C94.8156 68.056 94.9276 67.6663 95.0299 67.2717V67.2669C95.0299 67.2669 95.0226 67.2669 95.0177 67.2669C95.0177 67.2669 95.0323 67.2498 95.0348 67.2474C95.0348 67.2498 95.0348 67.2522 95.0348 67.2547V67.2669C95.3271 66.1391 95.5463 64.987 95.7216 63.8252C95.8994 62.6658 96.031 61.4967 96.1552 60.3373C96.3208 58.7736 96.4767 57.1855 96.5254 55.6023C96.2989 55.5292 96.0115 55.388 95.595 55.1761C95.6096 55.1249 95.6193 55.0859 95.6339 55.0372H95.6315ZM86.6949 48.624C87.6254 48.2562 88.4949 48.7799 89.6251 48.6143C89.4351 49.8248 88.7994 50.3631 88.1661 50.877C87.9225 51.0768 87.6302 51.1596 87.3331 51.1425C86.9458 51.1255 86.5464 50.9331 86.2273 50.6018C86.1274 50.4995 86.0495 50.3875 85.9935 50.273C85.6768 49.647 85.9788 48.9041 86.6949 48.624ZM90.3948 51.3398C90.3655 51.3203 90.3387 51.2984 90.3119 51.2789C90.3095 51.2765 90.3095 51.2716 90.3095 51.2692C89.9807 51.0281 89.9369 50.6481 89.949 50.2438C90.1268 50.1756 90.3095 50.1683 90.4922 50.2218C90.4995 50.6164 90.5044 51.0086 90.5117 51.4007C90.4678 51.3837 90.4313 51.3618 90.3948 51.3398ZM89.8516 53.2592C89.7298 53.2567 89.608 53.2519 89.4862 53.247C89.3913 53.2421 89.2938 53.2397 89.1988 53.2348C88.814 53.2202 88.4316 53.2056 88.0467 53.191C88.0346 52.8159 88.0248 52.4383 88.0151 52.0608C89.3401 52.0681 89.5447 52.0681 89.7396 52.7915C89.7737 52.923 89.8102 53.0765 89.8516 53.2592ZM84.0278 58.4228L84.04 58.4277C84.437 58.4204 84.6563 58.6177 84.7147 59.005C84.9875 59.7138 84.7318 60.4152 84.6782 61.1167C84.6368 61.6818 84.9997 62.4637 84.2519 62.7292C83.3532 63.0507 83.1169 62.1227 82.6663 61.6331C82.0817 61.2263 82.1377 60.5882 82.0403 59.9866C81.8162 58.6055 82.1865 57.1587 81.5118 55.8166C81.3315 55.461 81.5629 55.025 82.033 54.8911C82.4105 54.779 82.6054 55.0445 82.7272 55.3246C83.1754 56.3525 83.5967 57.3877 84.0278 58.4228ZM84.0839 47.8446C84.1131 47.8787 84.1326 47.9031 84.1618 47.9372C84.2519 48.0419 84.3323 48.1345 84.4054 48.2221C85.1385 49.0868 85.0557 49.2013 84.2665 50.1147C83.8159 49.7201 83.3678 49.3255 82.9172 48.9334C82.9172 48.9261 82.9172 48.9212 82.9196 48.9139C82.9537 48.1832 83.2411 47.7155 84.0839 47.8446ZM81.1099 47.2868C81.1099 47.584 81.0392 47.8836 81.0027 48.1807L80.9857 48.1929C80.6008 48.1174 80.1746 48.115 79.8409 47.9396C79.3489 47.6814 79.1565 47.1699 79.4073 46.6657C79.5048 46.4709 79.9188 46.332 80.1843 46.3393C80.7445 46.3564 81.105 46.6925 81.1099 47.2868ZM79.4414 44.7293C79.7288 44.6441 80.0138 44.8779 80.0674 45.1994C80.0966 45.3651 80.0333 45.6525 79.914 45.7207C79.5754 45.918 79.1905 46.03 78.8228 46.1761C78.8081 46.1688 78.796 46.1713 78.7838 46.1664C78.7546 46.1567 78.7205 46.1567 78.6912 46.1494C78.6279 46.1323 78.567 46.1104 78.5012 46.1104C78.4842 45.8863 78.4647 45.6622 78.4477 45.4381C78.4428 45.3967 78.4404 45.3553 78.4355 45.3115C78.7692 45.1093 79.0809 44.8365 79.4414 44.7293ZM68.5709 58.0916C68.6367 58.5154 68.13 58.9075 67.7647 58.7468C67.4164 58.5909 67.0681 58.4326 66.7198 58.2743C66.6686 58.2523 66.6199 58.228 66.5688 58.2061C65.5653 58.6323 64.703 58.4618 63.6459 57.6312C63.6264 57.6191 63.607 57.602 63.5875 57.5874C63.4608 57.4851 63.3975 57.2026 63.434 57.0321C63.4681 56.864 63.6435 56.6691 63.8067 56.6009C63.8359 56.5888 63.8651 56.5961 63.8919 56.5839C63.775 56.2965 63.719 56.0115 64.1623 55.7777C64.7712 55.4562 65.3655 54.9471 66.1255 55.4854C66.3885 55.6729 66.6735 55.7752 66.9658 55.8313C66.9658 55.8313 66.9674 55.8304 66.9707 55.8288C66.9512 55.6364 66.9682 55.4464 67.0145 55.2589C67.3506 55.2028 67.5893 55.0299 67.7062 54.7011L67.7111 54.723C68.9606 55.4123 69.0434 55.5585 68.398 56.4329C68.3858 56.4499 68.3736 56.467 68.3614 56.484C68.5466 56.9858 68.4905 57.563 68.5709 58.0916ZM63.2392 58.6591C63.3951 58.6786 63.5363 58.7541 63.6484 58.9295C63.8018 59.1706 63.8286 59.3655 63.7775 59.5311C63.6703 59.8769 63.2197 60.0889 62.903 60.3324C62.7691 60.3178 62.6424 60.2959 62.5206 60.2691C62.1504 60.1863 61.8533 60.028 61.712 59.7089C61.6413 59.5481 61.6048 59.3484 61.6267 59.0902C61.8216 59.022 62.014 58.9343 62.2137 58.8905C62.5401 58.8174 62.9225 58.6177 63.2392 58.6591ZM60.46 53.6099C60.0996 53.9022 59.7293 53.7 59.4103 53.4418C59.4322 52.8914 59.5052 52.3701 60.102 52.1241C60.2433 52.263 60.4089 52.3847 60.5161 52.5455C60.7596 52.9035 60.8205 53.3176 60.46 53.6099ZM60.1556 59.7576C60.1604 59.8769 60.1629 59.9939 60.1678 60.1132C60.1945 60.9657 60.2213 61.8206 60.2506 62.6731C60.0825 62.7462 59.9071 62.7827 59.7269 62.7827H59.6782C59.3762 62.1616 59.0473 61.5503 59.0473 60.8464C59.0473 60.7319 59.0571 60.615 59.0766 60.4932C59.1789 59.8453 59.6027 59.7186 60.1556 59.7576ZM63.6727 62.5733C63.2489 62.3419 63.2294 61.901 63.4413 61.543C63.6727 61.1484 64.1063 61.1143 64.4838 61.3262C64.8224 61.5162 65.178 61.7646 64.9612 62.2518C64.6202 62.7535 64.1623 62.8388 63.6727 62.5733ZM71.1162 63.5646C71.126 63.5451 71.1357 63.5281 71.1479 63.511C71.4158 63.0239 71.9078 62.8972 72.4461 63.075C72.524 63.1018 72.5996 63.1335 72.6751 63.17C72.8212 63.2406 72.9625 63.3259 73.1062 63.4087C73.1622 63.4404 73.2182 63.472 73.2767 63.5013C73.2791 63.6157 73.284 63.7327 73.2864 63.8471C73.2913 63.9226 73.2937 64.0006 73.2937 64.0761V64.1078C73.3035 64.5632 73.2231 64.9091 72.9089 64.9822C72.7652 65.0138 72.5776 64.9943 72.317 64.8945C72.0515 64.7898 71.7641 64.741 71.4864 64.668C71.3111 64.4025 71.0529 64.137 71.0529 63.8277C71.0529 63.7424 71.0724 63.6547 71.1162 63.5646ZM72.9479 47.7033C73.323 47.7131 73.6956 47.7228 74.0658 47.7326C74.0658 47.7399 74.0658 47.7472 74.0658 47.752C74.0951 48.3561 74.1535 48.9602 74.1414 49.5642C74.1414 49.6568 74.1316 49.7055 74.1267 49.7785C74.4482 49.9588 74.5603 50.3509 74.5481 50.8624C74.4507 50.8941 74.3727 50.9185 74.2899 50.9452C74.2022 50.972 74.1219 50.9964 74.0488 51.0159C73.4764 51.1718 73.3668 51.0524 73.3668 50.2998C73.3668 50.2657 73.3668 50.217 73.3668 50.1804C73.2474 50.1512 73.15 50.1317 72.9893 50.0879C72.9747 49.3012 72.9576 48.5144 72.943 47.7277V47.7033H72.9479ZM73.8832 52.8987C74.0975 52.8694 74.3118 52.8378 74.5262 52.8061C74.6407 52.9303 74.7113 53.0765 74.7405 53.2445C74.9135 53.4784 75.2472 53.7244 75.2472 53.9509V53.9655C75.2301 54.2797 75.2277 54.589 75.2399 54.8984C75.2788 56.1162 75.5029 57.3122 75.7124 58.5105C75.7294 58.6055 75.7002 58.7127 75.688 58.8125C75.632 59.268 75.3738 59.6139 74.9378 59.6358C74.7016 59.648 74.3192 59.4093 74.229 59.1901C74.0001 58.6347 73.7833 58.0307 73.7687 57.4413C73.7638 57.2561 73.7565 57.0735 73.7419 56.8908C73.6907 56.1552 73.5519 55.4489 73.1841 54.7815C72.7213 54.6646 72.3097 54.4673 72.0613 54.0313C71.8908 54.0191 71.7227 53.9923 71.5595 53.946C71.5449 53.5685 71.5303 53.191 71.5132 52.8134C71.6935 52.7647 71.8664 52.6941 72.0296 52.604C72.0442 52.755 72.0734 52.9035 72.1197 53.0473C72.1636 53.0253 72.2074 53.0156 72.2488 52.9937C72.7774 52.7525 73.323 52.7379 73.8832 52.8987ZM69.8959 45.4284C70.0957 44.6003 71.104 44.2349 71.8299 44.6344C72.2659 44.8755 72.2512 45.3017 71.9785 45.6427C71.7349 45.9448 71.3866 46.1664 71.0846 46.4222L71.0261 46.4563C70.4245 46.354 69.6962 46.2663 69.8959 45.4284ZM63.5071 76.0183C63.4267 76.0305 63.3561 76.0524 63.2903 76.0816C63.0614 76.1766 62.9103 76.3569 62.8348 76.6224H62.83C62.4256 76.6053 62.0213 76.5858 61.617 76.5688C61.5829 76.4567 61.561 76.3471 61.5512 76.2448C61.5147 75.8429 61.6681 75.5019 62.0554 75.2413H62.0579C62.4159 75.2218 62.6643 75.044 62.8178 74.725C63.0979 74.7444 63.3804 74.7664 63.6605 74.7883C63.7848 74.798 63.909 74.8053 64.0332 74.8151C64.0405 75.0928 64.0478 75.3704 64.0527 75.6481C64.0527 75.748 64.0576 75.8454 64.06 75.9452C63.8773 75.9793 63.6922 76.0037 63.5071 76.0183ZM64.9953 65.8956C64.5618 65.4255 64.345 64.7045 64.6105 64.0761C64.7079 63.8447 65.0002 63.6523 65.2486 63.5427C65.3607 63.494 65.6432 63.6547 65.7431 63.7936C66.0475 64.2174 66.3447 64.6509 66.486 65.1527C66.5371 65.3256 66.5688 65.5083 66.5761 65.7007C66.5883 66.0222 66.4981 66.2804 66.0987 66.3924C65.6846 66.4144 65.29 66.2122 64.9953 65.8956ZM69.1847 77.1631C69.0581 77.0121 68.9606 76.8221 68.8023 76.7174C68.6123 76.5907 68.4662 76.4567 68.3541 76.3179C67.9766 75.8503 68.0229 75.312 68.4418 74.7006C68.4881 74.6714 68.5344 74.6421 68.5807 74.6129C68.7365 74.5131 68.8949 74.4132 69.0532 74.3133C68.8413 73.9163 68.9752 73.3902 69.0751 72.9104C69.2797 71.9166 69.4965 70.9277 69.7108 69.9364C69.7352 69.9291 69.7571 69.912 69.779 69.9023C69.8959 69.856 70.0104 69.8049 70.1176 69.7391C70.1906 69.2787 70.1712 68.7502 70.3831 68.4141C70.556 68.134 70.8897 67.9878 71.5741 68.1242C71.7495 68.1583 71.9151 68.1145 72.0686 68.0195C72.3292 67.8612 72.5557 67.5616 72.7286 67.2839C73.1695 67.4057 73.4691 67.4934 73.664 67.6103C73.9124 67.7589 73.9952 67.9537 73.9952 68.3288C73.9952 68.5334 73.9708 68.7892 73.9368 69.118C73.7906 69.2178 73.642 69.3153 73.4935 69.4127C73.4886 69.4176 73.4813 69.42 73.4764 69.4249C73.3595 69.5004 73.245 69.5759 73.1305 69.6514C72.6239 69.99 72.1368 70.3505 71.7519 70.8278C71.6716 70.9253 71.596 71.0276 71.5254 71.1372C71.484 71.9117 71.4402 72.6863 71.3963 73.4608C71.3914 73.4681 71.3866 73.4754 71.3793 73.4828C71.2818 73.5972 71.182 73.7117 71.0821 73.8262C71.0553 73.8554 71.031 73.8871 71.0042 73.9163C71.0431 73.9309 71.0821 73.948 71.1187 73.9699C71.4475 74.138 71.6618 74.4668 71.7495 74.9856C71.8031 75.3071 71.786 75.5994 71.7178 75.8673C71.6253 76.2254 71.445 76.5444 71.2136 76.8489C71.1284 76.9634 71.0358 77.0754 70.9384 77.1875C70.3538 77.1777 69.7693 77.1704 69.1847 77.1631ZM94.5988 51.5712C94.0313 52.2191 93.3079 52.5406 92.4675 52.6332C91.7661 51.7953 91.5225 50.9574 92.0486 50.122C92.1582 49.9466 92.2995 49.7737 92.4773 49.6007C92.772 49.5837 93.0643 49.5764 93.359 49.5666C93.7804 49.5496 94.1993 49.5301 94.6158 49.4765C95.6973 49.3401 95.6924 49.3133 96.1333 50.6237C95.5219 50.7821 95.0104 51.0987 94.5988 51.5712Z" fill="#355442"/>
<path d="M72.29 53.7974C72.2876 53.7804 72.2827 53.7658 72.2802 53.7512C72.2072 53.8462 72.1341 53.9387 72.061 54.0313C72.139 53.9533 72.2145 53.8754 72.2924 53.7999L72.29 53.7974Z" fill="#355442"/>
<path d="M72.9551 63.9372C72.9697 63.8837 72.9794 63.8471 72.994 63.7984C73.033 63.6523 73.0696 63.5232 73.1061 63.4087C73.1475 63.2723 73.1913 63.1578 73.2376 63.0653C73.3716 62.7852 73.547 62.6804 73.8879 62.6609C73.8441 61.0022 73.6444 59.3679 73.1719 57.7969C73.0549 57.4023 72.9185 57.0126 72.7627 56.6277C72.3413 55.5755 71.7786 54.6475 71.1575 53.7731C70.5876 53.8778 70.0298 53.6196 69.7984 53.0448C69.6864 52.7671 69.7083 52.4383 69.8398 52.1606C67.9497 50.1975 65.5335 48.8116 62.8518 47.9445C62.5717 48.3658 62.0992 48.6338 61.7289 48.5461C61.3855 48.4633 61.1298 47.9201 61.1809 47.4792C59.89 47.1723 58.5674 46.9458 57.218 46.8581C56.8454 46.8021 56.4727 46.7558 56.0976 46.7169C55.8102 46.6852 55.5203 46.6608 55.2305 46.6414C54.0857 47.1041 52.9653 47.6083 51.8668 48.1539C51.8765 48.1758 51.8863 48.1978 51.8936 48.2221C52.1274 48.8773 52.0738 49.5764 51.5696 50.1561C51.4771 50.5896 51.2408 50.8649 50.9266 51.0548C50.7342 51.1742 50.5199 51.2667 50.2739 51.3252C50.2787 50.7187 50.2812 50.1098 50.286 49.5033C50.2909 49.3231 50.2958 49.1428 50.3007 48.9626C48.6785 49.8346 47.1099 50.7991 45.5998 51.8416C45.6436 52.0851 45.5681 52.3263 45.3464 52.5041C44.9616 52.8183 44.4842 53.0229 44.0385 53.2567C43.6561 53.4589 43.4271 53.7633 43.2761 54.1287C43.2347 54.2286 43.1982 54.3309 43.1689 54.438C43.0155 54.4746 42.8791 54.5452 42.7573 54.6426C42.5454 54.5501 42.3725 54.4697 42.2263 54.3917C38.848 57.1733 35.8399 60.3909 33.2922 63.9592C31.5726 66.3632 30.0624 68.928 28.7861 71.6243C29.1856 74.8272 30.2768 77.9279 32.0134 80.5779C32.3033 81.0212 32.6126 81.4548 32.9414 81.8713C33.7744 82.9381 34.7268 83.9124 35.7936 84.7649C35.723 84.5189 35.7815 84.2558 35.9081 84.0415C36.4245 83.1744 37.0188 82.3536 37.5839 81.5157C38.2513 81.8396 38.2683 82.395 38.2683 82.9552C38.2683 83.1257 38.2683 83.2962 38.2805 83.4618C38.0004 84.0001 37.8006 84.6066 37.4134 85.0523C37.2039 85.291 36.9019 85.386 36.5901 85.347C36.9214 85.5833 37.2477 85.8244 37.5985 86.0363C38.2805 86.448 38.9868 86.8109 39.7102 87.1275C40.3898 87.4296 41.0864 87.6926 41.7928 87.9216C42.9887 88.3088 44.2187 88.6011 45.4658 88.8179C45.383 88.5841 45.3854 88.3283 45.5267 88.0409C45.5632 87.9654 45.6046 87.9118 45.646 87.8558C45.6119 87.6999 45.5949 87.5343 45.6071 87.354C45.6217 87.1494 45.6801 86.9497 45.7167 86.7476C45.931 86.7573 46.1429 86.7695 46.3548 86.7792C46.4547 86.7427 46.5545 86.7256 46.6568 86.7256C46.7275 86.7256 46.7981 86.7329 46.8688 86.75C47.0953 86.7305 47.3242 86.711 47.5532 86.694C47.826 86.9668 48.0769 87.2591 48.0769 87.6098C48.0769 87.7438 48.0379 87.8875 47.9502 88.0409C47.7846 88.3332 47.5581 88.4793 47.3072 88.5524C47.5386 88.6523 47.7042 88.8203 47.787 89.0761C47.7846 89.0956 47.7797 89.1151 47.7773 89.1345C48.4934 89.21 49.2119 89.2709 49.928 89.305C51.1069 89.3635 52.3077 89.3611 53.5085 89.2929C56.385 89.1321 59.2738 88.5938 61.9043 87.5879C61.9628 87.566 62.0188 87.544 62.0748 87.5221C62.8664 87.2128 63.6337 86.8596 64.3692 86.4601C65.1779 86.0242 65.9476 85.5321 66.671 84.9841C66.7733 84.6309 66.9316 84.3143 67.2702 84.0902C67.3725 84.1243 67.4772 84.1438 67.5819 84.1682C67.9424 83.8466 68.2956 83.513 68.6293 83.1646C69.2845 82.49 69.8837 81.7544 70.3903 80.9311C70.4682 80.8045 70.5462 80.6754 70.6192 80.5463C70.646 80.4976 70.6728 80.4513 70.6996 80.4026C71.3134 79.3041 71.7738 78.1398 72.1367 76.9366C72.2268 76.637 72.3121 76.3374 72.39 76.0329C72.39 76.0305 72.39 76.028 72.3924 76.028C72.3876 76.0256 72.3827 76.028 72.3778 76.028C72.3778 76.028 72.3924 76.011 72.3949 76.0086C72.3949 76.011 72.3949 76.0134 72.3949 76.0159V76.028C72.6871 74.9028 72.9039 73.7482 73.0817 72.5864C73.1621 72.0481 73.2352 71.5074 73.3009 70.9667C73.3643 70.4527 73.4227 69.9364 73.4763 69.4249C73.4763 69.4176 73.4763 69.4127 73.4763 69.4078C73.4885 69.3031 73.5007 69.2008 73.5104 69.0961C73.564 68.604 73.6152 68.1072 73.6614 67.6103C73.7662 66.5337 73.849 65.4474 73.8831 64.3635C73.7248 64.3123 73.5348 64.2271 73.2912 64.1077C73.1889 64.0566 73.0769 64.0006 72.9526 63.9372H72.9551ZM67.8718 60.1619C67.8304 60.1449 67.7938 60.1229 67.7549 60.101C67.7281 60.0815 67.7013 60.0596 67.672 60.0401C67.672 60.0401 67.672 60.0328 67.672 60.0304C67.3432 59.7893 67.3018 59.4093 67.3116 59.0025C67.4114 58.966 67.5137 58.9465 67.6136 58.9465C67.694 58.9465 67.7768 58.9587 67.8572 58.983C67.862 59.3776 67.8693 59.7698 67.8742 60.1619H67.8718ZM67.2141 62.0204H67.2117C67.0899 62.0155 66.9706 62.013 66.8488 62.0082C66.3689 61.9887 65.8891 61.9716 65.4068 61.9522C65.3971 61.5771 65.3874 61.1995 65.3776 60.822C66.4201 60.8269 67.0323 61.2263 67.2141 62.0204ZM71.9784 58.2377C72.4704 58.1768 72.7359 58.1354 72.9234 58.2353C73.1475 58.3522 73.2547 58.6713 73.4958 59.3849H73.4934C72.8844 59.5408 72.3705 59.8599 71.9589 60.3324C71.9272 60.369 71.8955 60.4031 71.8663 60.4347C71.3134 61.0144 70.6241 61.3067 69.8276 61.3944C68.9825 60.3811 68.8046 59.3703 69.8398 58.3619C70.5535 58.323 71.272 58.3278 71.9784 58.2377ZM66.5394 51.9244C66.5784 51.5469 66.5297 51.1328 66.671 50.7967C66.9852 50.044 67.4553 50.122 67.9254 50.6944C68.6049 51.1328 68.6877 51.8002 68.6268 52.5236C68.812 52.755 68.9971 52.9888 69.1822 53.2202C69.7229 53.2689 70.1418 53.4735 70.2368 54.0727C70.3172 54.5769 70.3416 55.1054 69.9689 55.4878C69.796 55.6632 69.3454 55.8118 69.187 55.7119C68.6975 55.3953 68.2858 54.9568 67.8425 54.5647C67.6574 54.5525 67.4869 54.4965 67.3311 54.3966H67.3286C66.3519 54.1555 65.9159 53.9679 65.9159 53.493C65.9159 53.1544 66.1376 52.6721 66.5394 51.9244ZM63.6458 57.6312C63.7628 57.5314 63.8992 57.4461 64.0575 57.3852C64.9879 57.0174 65.8575 57.5411 66.9876 57.3755C66.9316 57.7262 66.839 58.0209 66.7197 58.2742C66.4298 58.8954 65.9792 59.2729 65.5286 59.6382C65.0244 60.0474 64.323 59.9719 63.7774 59.5311C63.7116 59.4824 63.6507 59.4239 63.5898 59.363C63.3828 59.1487 63.2683 58.9027 63.2391 58.6591C63.1904 58.2791 63.3389 57.8967 63.6458 57.6312ZM61.4464 56.6058C61.4756 56.6399 61.4951 56.6643 61.5243 56.6984C62.5108 57.8334 62.4938 57.8699 61.6291 58.8759C61.1785 58.4813 60.7279 58.0867 60.2797 57.6946C60.3114 56.9492 60.5963 56.4767 61.4464 56.6058ZM59.3955 63.6523C59.7731 63.5402 59.9679 63.8057 60.0897 64.0858C60.5355 65.1137 60.9593 66.1489 61.3904 67.184L61.4026 67.1889C61.7874 67.1816 62.0066 67.3667 62.0675 67.7321C62.0724 67.7442 62.0724 67.754 62.0748 67.7662C62.2015 68.095 62.2161 68.4214 62.1869 68.7477C62.1552 69.1253 62.0699 69.5004 62.0407 69.8779C61.9969 70.443 62.3622 71.2224 61.6145 71.4903C60.8131 71.7778 60.5379 71.069 60.1677 70.5648V70.5599C60.1238 70.5015 60.0775 70.4454 60.0313 70.3943C59.795 70.2311 59.6659 70.0289 59.5855 69.8073C59.4662 69.4785 59.4637 69.1082 59.4053 68.7477C59.247 67.7735 59.3858 66.7675 59.2421 65.7859C59.2324 65.708 59.2177 65.6325 59.2031 65.5545C59.1398 65.2233 59.0375 64.8969 58.8767 64.5778C58.6965 64.2222 58.9255 63.7862 59.398 63.6523H59.3955ZM58.47 56.048C58.47 56.3452 58.4018 56.6448 58.3628 56.9419L58.3458 56.9541C57.9609 56.8762 57.5347 56.8762 57.201 56.7008C56.7114 56.4426 56.519 55.9311 56.7699 55.4269C56.8649 55.2321 57.2814 55.0932 57.5469 55.1005C58.1071 55.1176 58.4675 55.4513 58.47 56.048ZM56.804 53.4905C57.0889 53.4029 57.3764 53.6391 57.4299 53.9606C57.4567 54.1263 57.3958 54.4137 57.2765 54.4819C56.9379 54.6767 56.5506 54.7912 56.1829 54.9349C56.1707 54.93 56.1585 54.9325 56.1463 54.9276C56.1147 54.9179 56.083 54.9179 56.0513 54.9106C55.9904 54.8935 55.9295 54.8716 55.8638 54.8716C55.8443 54.6475 55.8272 54.4234 55.8078 54.1993C55.8078 54.1579 55.8029 54.1165 55.798 54.0727C56.1317 53.8705 56.4435 53.5977 56.804 53.4905ZM50.3104 56.4645C50.6831 56.4743 51.0557 56.484 51.4284 56.4938C51.4284 56.5011 51.4284 56.5059 51.4308 56.5132C51.4381 56.6935 51.4503 56.8737 51.4625 57.054C51.4868 57.4778 51.5161 57.9016 51.5063 58.3254C51.5063 58.418 51.4966 58.4667 51.4917 58.5397C51.8132 58.72 51.9228 59.1121 51.9131 59.6236C51.8157 59.6553 51.7377 59.6796 51.6549 59.7064C51.5672 59.7332 51.4844 59.7576 51.4138 59.7771C51.3553 59.7941 51.3017 59.8063 51.253 59.816C50.8195 59.9013 50.7318 59.7357 50.7318 59.0585V58.9416C50.6149 58.9124 50.5174 58.8929 50.3567 58.8491C50.3421 58.0623 50.325 57.2756 50.3104 56.4889V56.4645ZM51.2457 61.6599C51.2652 61.6574 51.2871 61.655 51.3066 61.6501C51.5015 61.6233 51.6939 61.5965 51.8887 61.5673C52.0032 61.6915 52.0738 61.8377 52.1031 62.0057C52.2784 62.2396 52.6097 62.4856 52.6097 62.7145V62.7267C52.5975 62.9289 52.5926 63.1286 52.5951 63.3283C52.6 64.6606 52.846 65.9637 53.0749 67.2717C53.092 67.3667 53.0603 67.4739 53.0481 67.5737C53.0189 67.8222 52.9288 68.039 52.7802 68.1875C52.6584 68.3118 52.4976 68.3848 52.3004 68.397C52.0641 68.4092 51.6817 68.1705 51.5916 67.9513C51.3602 67.3959 51.1458 66.7919 51.1312 66.2024C51.1069 65.2647 51.0046 64.3732 50.5467 63.5427C50.0814 63.4258 49.6722 63.2285 49.4238 62.7925C49.2533 62.7803 49.0852 62.7535 48.922 62.7072C48.9123 62.4247 48.8977 62.1421 48.8879 61.8596C48.8831 61.7646 48.8806 61.6696 48.8758 61.5722C49.056 61.5259 49.2289 61.4553 49.3921 61.3652C49.4043 61.5162 49.436 61.6647 49.4823 61.8084C49.5237 61.7865 49.5699 61.7743 49.6113 61.7549C50.1375 61.5137 50.6855 61.4991 51.2457 61.6599ZM48.4787 72.3258C48.5981 72.0847 48.7686 71.9239 48.9708 71.8362C49.134 71.7656 49.3215 71.7437 49.5188 71.7705C49.6113 71.7802 49.7088 71.8046 49.8062 71.8362C50.0961 71.9336 50.3591 72.1188 50.6343 72.2625C50.6392 72.3769 50.6441 72.4939 50.6465 72.6083C50.649 72.6838 50.6514 72.7618 50.6538 72.8373C50.666 73.3074 50.5905 73.6679 50.269 73.7409C50.1253 73.775 49.9377 73.7555 49.6771 73.6557C49.4116 73.5509 49.1242 73.5022 48.8465 73.4267C48.6687 73.1637 48.413 72.8982 48.413 72.5888C48.413 72.5036 48.4325 72.4159 48.4763 72.3258H48.4787ZM47.2585 54.1896C47.4582 53.3614 48.4666 52.9961 49.1924 53.3955C49.6284 53.6367 49.6138 54.0629 49.341 54.4015C49.095 54.706 48.7491 54.9276 48.4471 55.1834L48.3886 55.2175C47.787 55.1152 47.0587 55.0275 47.2585 54.1896ZM43.4612 75.1536C43.0934 75.1731 42.7427 75.0172 42.4626 74.7615C41.9584 74.2987 41.688 73.5144 41.973 72.8373C42.068 72.6059 42.3627 72.411 42.6087 72.3039C42.6087 72.3039 42.6136 72.3014 42.616 72.3014C42.7305 72.26 43.0082 72.4183 43.1056 72.5547C43.5172 73.1271 43.9118 73.7166 43.9386 74.4619C43.9508 74.7834 43.8607 75.0416 43.4612 75.1536ZM42.3237 71.0129C42.1752 71.2297 42.0071 71.3686 41.822 71.4319C41.7026 71.4782 41.5784 71.4903 41.4493 71.4733C41.3154 71.4587 41.1765 71.4124 41.0353 71.3345C40.6114 71.1031 40.592 70.6622 40.8014 70.3017C41.0328 69.9096 41.4664 69.8755 41.8463 70.0874C42.1849 70.2774 42.5381 70.5258 42.3237 71.0129ZM40.6675 68.8135C40.5311 68.9085 40.3898 68.9986 40.2656 69.0936C40.1316 69.079 40.005 69.0571 39.8832 69.0303C39.5129 68.9475 39.2158 68.7892 39.0745 68.4701C39.0575 68.4335 39.0429 68.3946 39.0307 68.3532C38.9893 68.2143 38.9722 68.0511 38.9868 67.8514C39.1841 67.7832 39.3741 67.6955 39.5763 67.6517C40.061 67.5421 40.6675 67.1548 41.0109 67.6907C41.3641 68.2436 41.045 68.548 40.6675 68.8135ZM37.1016 71.5439C37.0797 71.5439 37.0602 71.5439 37.0383 71.5439C36.7387 70.9228 36.4099 70.3139 36.4099 69.61C36.4099 69.4955 36.4196 69.3786 36.4391 69.2568C36.5414 68.6089 36.9652 68.4823 37.5181 68.5212C37.523 68.6381 37.5254 68.7575 37.5303 68.8768C37.5571 69.7293 37.5839 70.5843 37.6107 71.4368C37.4499 71.5098 37.2794 71.5464 37.1016 71.5464V71.5439ZM37.3427 62.5051C37.143 62.4734 36.9506 62.3443 36.7728 62.2006C36.7947 61.6526 36.8678 61.1313 37.4645 60.8853C37.6034 61.0242 37.7714 61.1459 37.8786 61.3067C38.1222 61.6647 38.1831 62.0788 37.8226 62.3687C37.8177 62.3735 37.8104 62.3784 37.8055 62.3833C37.6521 62.5026 37.4962 62.5319 37.3427 62.5051ZM38.9771 85.33C38.8139 84.7844 38.9308 84.3313 39.418 84.0025C39.776 83.983 40.0244 83.8052 40.1779 83.4862C40.5822 83.5154 40.9865 83.5471 41.3933 83.5763C41.3982 83.8539 41.4055 84.1316 41.4128 84.4093C41.4128 84.5092 41.4177 84.6066 41.4201 84.7064C41.2374 84.7405 41.0523 84.7649 40.8648 84.7771C40.7868 84.7917 40.7162 84.8136 40.6504 84.8428C40.4215 84.9378 40.2704 85.1181 40.1925 85.3836C39.7882 85.3665 39.3839 85.347 38.9771 85.33ZM45.1272 67.508C44.7278 67.3302 44.3283 67.1475 43.9289 66.9673C42.9083 67.4008 42.0339 67.2157 40.95 66.3486C40.8234 66.2463 40.7576 65.9637 40.7941 65.7933C40.8307 65.6252 41.006 65.4303 41.1692 65.3621C41.196 65.3475 41.2252 65.3573 41.2545 65.3451C41.1449 65.0796 41.0913 64.819 41.4274 64.5973C41.4566 64.5778 41.4883 64.5583 41.5248 64.5389C42.0436 64.2661 42.5527 63.8544 43.1616 64.0736C43.2664 64.1102 43.376 64.1662 43.488 64.2466C43.7511 64.4341 44.0336 64.534 44.3283 64.5924C44.3283 64.59 44.3283 64.59 44.3283 64.59C44.3113 64.3976 44.3283 64.2076 44.3746 64.0201C44.7107 63.964 44.9494 63.7911 45.0663 63.4623L45.0712 63.4842C46.3207 64.1735 46.4035 64.3197 45.7581 65.1941C45.7459 65.2111 45.7337 65.2282 45.7215 65.2452C45.9067 65.747 45.8482 66.3242 45.931 66.8528C45.9968 67.2766 45.4901 67.6687 45.1248 67.508H45.1272ZM48.8879 79.8984C48.8465 80.6729 48.8027 81.4475 48.7589 82.222C48.754 82.2293 48.7491 82.2366 48.7418 82.2439C48.6176 82.3877 48.4909 82.5338 48.3643 82.6775C48.7589 82.8261 49.0146 83.1671 49.1096 83.7468C49.2338 84.4945 48.9805 85.0767 48.5762 85.6077C48.4885 85.7246 48.3984 85.8366 48.3009 85.9486C47.7164 85.9389 47.1318 85.9316 46.5472 85.9243C46.4206 85.7733 46.3207 85.5833 46.1648 85.4786C45.9749 85.3495 45.8287 85.2179 45.7167 85.0791C45.3391 84.609 45.3854 84.0732 45.8044 83.4618L45.9432 83.3741C46.0991 83.2743 46.2574 83.1744 46.4133 83.0745C46.2038 82.6775 46.3378 82.1514 46.4376 81.6691C46.6422 80.6778 46.859 79.6889 47.0709 78.6976C47.0977 78.6903 47.1172 78.6732 47.1416 78.6635C47.2585 78.6172 47.3729 78.566 47.4801 78.5003C47.6141 77.6551 47.4314 76.5834 48.9367 76.8854C49.112 76.9195 49.2777 76.8757 49.4287 76.7807C49.6917 76.6224 49.9182 76.3228 50.0912 76.0451C51.0971 76.3203 51.3577 76.4226 51.3577 77.0924C51.3577 77.2946 51.3334 77.5504 51.2993 77.8792C51.0338 78.0619 50.761 78.2348 50.4931 78.4126C49.8841 78.8218 49.2996 79.2578 48.8879 79.8984Z" fill="#355442"/>
<path d="M49.6528 62.5562C49.6503 62.5392 49.6455 62.5246 49.643 62.5099C49.57 62.6049 49.4969 62.6975 49.4238 62.7901C49.5018 62.7121 49.5773 62.6342 49.6552 62.5587L49.6528 62.5562Z" fill="#355442"/>
<path d="M64.1306 78.7561C64.3619 77.906 64.4764 77.6527 65.0269 77.621C64.9733 75.5483 64.6762 73.5096 63.904 71.5878C63.4802 70.5356 62.9176 69.6076 62.2989 68.7332C62.2624 68.7405 62.2234 68.7453 62.1869 68.7478C61.8093 68.7868 61.4464 68.665 61.1907 68.3995C61.0884 68.2899 61.0031 68.1583 60.9398 68.0049C60.8278 67.7248 60.8497 67.3984 60.9788 67.1207C60.4283 66.5483 59.834 66.0271 59.2007 65.5546C57.6589 64.3952 55.893 63.5183 53.9907 62.9045C53.7106 63.3259 53.2406 63.5938 52.8703 63.5062C52.768 63.4818 52.6755 63.4185 52.5951 63.3284C52.4027 63.1116 52.2858 62.7511 52.3199 62.4393C52.0008 62.3638 51.6793 62.2932 51.3553 62.2274C50.5442 62.0642 49.721 61.9376 48.888 61.8596C48.7126 61.8426 48.5348 61.8304 48.357 61.8182C44.8618 61.2945 41.2447 61.5065 37.8055 62.3833C37.6521 62.4223 37.4962 62.4612 37.3428 62.5051C35.9568 62.8826 34.6002 63.3698 33.2946 63.9592C31.575 66.3632 30.0649 68.928 28.7886 71.6243C25.7172 78.1057 24 85.3519 24 93C24 93.9402 24.0268 94.8731 24.0779 95.7986H37.7519C37.903 95.085 38.0564 94.3713 38.2099 93.6577C38.2342 93.6504 38.2561 93.6333 38.2805 93.6236C38.3974 93.5773 38.5095 93.5261 38.6166 93.4604C38.753 92.6127 38.5679 91.541 40.0756 91.8455C40.2485 91.8796 40.4142 91.8333 40.5676 91.7408C40.8282 91.58 41.0548 91.2829 41.2277 91.0028C42.2336 91.278 42.4943 91.3827 42.4943 92.0501C42.4943 92.2547 42.4699 92.5104 42.4358 92.8393C42.1703 93.0219 41.8975 93.1949 41.632 93.3727C41.0231 93.7794 40.4385 94.2179 40.0269 94.8585C40.0098 95.1727 39.9904 95.4844 39.9757 95.7986H61.5877C62.4889 94.3056 63.0905 92.6809 63.5289 90.993C63.5289 90.9906 63.5289 90.9881 63.5289 90.9857H63.5143L63.5314 90.9687V90.976C63.8237 89.8531 64.0404 88.7059 64.2158 87.5465C64.2718 87.186 64.323 86.8231 64.3693 86.4602C64.4277 86.0242 64.4789 85.5906 64.5276 85.1571C64.5714 84.7893 64.6104 84.4215 64.6494 84.0561C64.6664 83.8856 64.6859 83.7151 64.7029 83.5446C64.8467 82.1539 64.9757 80.746 65.0196 79.3431V79.3236C64.7955 79.2505 64.5057 79.1092 64.0891 78.8973C64.1038 78.8437 64.1159 78.8072 64.1281 78.7561H64.1306ZM63.1173 73.1978C64.1963 73.0614 64.1939 73.0346 64.6323 74.345C64.2743 74.4376 63.9503 74.5837 63.6605 74.7883C63.4559 74.9271 63.2683 75.0952 63.0978 75.2925C62.6691 75.7845 62.1455 76.089 61.5512 76.2449C61.3636 76.296 61.1687 76.3325 60.9666 76.3545C60.762 76.1109 60.5988 75.8673 60.4819 75.6238C60.1263 74.9004 60.1799 74.1818 60.8399 73.4633C60.8813 73.417 60.9276 73.3683 60.9763 73.322C61.69 73.283 62.4085 73.2879 63.1173 73.1978ZM53.2138 82.7262C53.4866 83.435 53.2332 84.1365 53.1797 84.838C53.1456 85.2691 53.3502 85.8245 53.1163 86.1825C53.0433 86.2945 52.9288 86.3871 52.751 86.4504C51.8522 86.7719 51.6159 85.8439 51.1678 85.3544C50.5808 84.9476 50.6392 84.3095 50.5418 83.7078C50.3153 82.3268 50.6879 80.88 50.0108 79.5379C49.833 79.1823 50.062 78.7463 50.5321 78.6099C50.9096 78.5003 51.1044 78.7658 51.2287 79.0459C51.6744 80.0738 52.0982 81.1089 52.5293 82.1441L52.5391 82.149C52.9117 82.1392 53.1285 82.3146 53.1991 82.6581C53.2065 82.68 53.2113 82.7019 53.2138 82.7262ZM40.5603 77.7501C40.3898 77.7404 40.2242 77.7111 40.0586 77.6673C40.0439 77.2898 40.0293 76.9098 40.0147 76.5323C40.195 76.4836 40.3655 76.4154 40.5286 76.3252C40.5433 76.4762 40.5725 76.6248 40.6188 76.7685C40.6626 76.7466 40.7065 76.7344 40.7503 76.7149C41.2764 76.4738 41.822 76.4592 42.3822 76.62C42.5966 76.5883 42.8133 76.5566 43.0277 76.5274C43.1397 76.6516 43.2128 76.7978 43.242 76.9658C43.4174 77.1997 43.7486 77.4457 43.7486 77.6722V77.6844C43.6634 79.231 43.9484 80.7265 44.2139 82.2294C44.2309 82.3268 44.1992 82.434 44.1871 82.5338C44.1335 82.9893 43.8729 83.3352 43.4369 83.3571C43.2006 83.3693 42.8206 83.1306 42.7281 82.9114C42.4991 82.356 42.2848 81.752 42.2677 81.1625C42.2434 80.2248 42.1411 79.3333 41.6832 78.5028C41.2204 78.3858 40.8112 78.1885 40.5603 77.7501ZM41.4956 73.8092H41.4932C41.4786 73.0297 41.464 72.2528 41.4493 71.4733V71.4222C41.5736 71.427 41.6978 71.4295 41.822 71.4319C42.0704 71.4417 42.3189 71.4465 42.5673 71.4538V71.4733C42.5795 71.7486 42.599 72.0262 42.616 72.3015C42.6355 72.6303 42.6501 72.9567 42.6453 73.2855C42.6453 73.378 42.6331 73.4268 42.6282 73.4998C42.9497 73.6801 43.0618 74.0722 43.0496 74.5837C42.9522 74.6154 42.8742 74.6397 42.7914 74.6665C42.7037 74.6933 42.6233 74.7152 42.5527 74.7372C42.521 74.7469 42.4918 74.7542 42.4626 74.7615C41.9681 74.8784 41.8683 74.7323 41.8683 74.0186C41.8683 73.987 41.8707 73.9358 41.8707 73.9017C41.7514 73.8725 41.6564 73.853 41.4956 73.8092ZM52.6609 71.6584C53.6473 72.791 53.6327 72.83 52.7656 73.836C52.3174 73.4414 51.8668 73.0468 51.4162 72.6522C51.4503 71.9093 51.7329 71.4344 52.5829 71.5659C52.6121 71.6 52.6341 71.6243 52.6609 71.6584ZM59.0107 75.1196C58.9669 75.1025 58.9303 75.0806 58.8938 75.0611C58.867 75.0416 58.8378 75.0197 58.811 75.0002C58.8086 74.9953 58.8086 74.9929 58.8086 74.9905C58.7891 74.9759 58.7696 74.9612 58.7525 74.9466C58.4749 74.7031 58.4359 74.345 58.4481 73.9626C58.5479 73.9261 58.6478 73.9066 58.7477 73.9066C58.8305 73.9066 58.9109 73.9188 58.9937 73.9431C58.9937 74.1477 58.9985 74.3499 59.0034 74.5545C59.0034 74.742 59.0083 74.932 59.0107 75.1196ZM58.3506 76.9804C58.2289 76.9756 58.1071 76.9707 57.9853 76.9658C57.5055 76.9488 57.0256 76.9317 56.5458 76.9122C56.536 76.5347 56.5263 76.1596 56.5166 75.7821C57.559 75.7853 58.1704 76.1848 58.3506 76.9804ZM57.6784 66.8845C57.7149 66.5069 57.6686 66.0929 57.8099 65.7567C58.1241 65.0041 58.5918 65.0821 59.0619 65.6544C59.1276 65.6959 59.1861 65.7397 59.2397 65.786C59.7585 66.2195 59.8194 66.8285 59.7658 67.4837C59.9509 67.715 60.136 67.9489 60.3187 68.1803C60.6353 68.2095 60.9081 68.2899 61.1006 68.4701C61.2394 68.5992 61.3368 68.7819 61.3758 69.0328C61.4537 69.5369 61.4805 70.0655 61.1079 70.4455C60.9349 70.6233 60.4819 70.7718 60.326 70.672C60.2724 70.6379 60.2188 70.6013 60.1677 70.5648V70.5599C59.9119 70.3773 59.6757 70.1654 59.4418 69.9461C59.2884 69.8049 59.1374 69.6612 58.9839 69.5248C58.7988 69.5102 58.6283 69.4566 58.47 69.3567C57.4908 69.1156 57.0573 68.928 57.0573 68.4531C57.0573 68.1169 57.2765 67.6347 57.6808 66.8845H57.6784ZM55.1964 72.3429C55.8857 72.0725 56.5434 72.2893 57.2984 72.3526C57.5615 72.3745 57.8343 72.3794 58.1266 72.3356C57.9463 73.4657 57.3788 74.0138 56.7869 74.5009H56.7845C56.7455 74.535 56.7041 74.5667 56.6651 74.5983C56.3704 74.837 56.0099 74.9101 55.6519 74.8419C55.3231 74.7834 54.9991 74.6032 54.7263 74.3231C54.115 73.6947 54.322 72.7886 55.0576 72.4062C55.1014 72.3843 55.1477 72.3624 55.1964 72.3429ZM49.6089 71.0081C49.6114 71.2614 49.5602 71.5172 49.5212 71.7705C49.5139 71.8143 49.5066 71.8582 49.5018 71.902L49.4847 71.9142C49.3191 71.8801 49.1437 71.8606 48.9732 71.8362C48.7491 71.8021 48.5299 71.7607 48.3424 71.6609C47.8504 71.4027 47.6579 70.8912 47.9088 70.387C48.0062 70.1921 48.4227 70.0533 48.6882 70.0606C49.246 70.0777 49.6065 70.4114 49.6114 71.0081H49.6089ZM47.9429 68.4482C48.2279 68.3629 48.5129 68.5992 48.5664 68.9207C48.5957 69.0863 48.5323 69.3738 48.4154 69.442C48.0769 69.6368 47.6896 69.7513 47.3218 69.895C47.3096 69.8901 47.295 69.895 47.2828 69.8877C47.2536 69.8779 47.2219 69.8779 47.1903 69.8682C47.1269 69.8536 47.0661 69.8292 47.0003 69.8292C46.9832 69.6051 46.9638 69.3835 46.9467 69.1594C46.9418 69.118 46.9394 69.0766 46.937 69.0328C47.2707 68.8306 47.58 68.5578 47.9429 68.4482ZM41.4274 64.4634C41.4372 64.0542 41.4469 63.6426 41.4566 63.2334C41.6247 63.1846 41.7928 63.153 41.9633 63.1384C42.1654 62.9021 42.3871 62.7316 42.5868 62.7316C42.7597 62.7316 42.9181 62.8607 43.0325 63.1822C43.1373 63.4745 43.1836 63.7765 43.1592 64.0737C43.13 64.439 42.9887 64.7971 42.7086 65.1162C42.616 65.5497 42.3773 65.8225 42.0656 66.0149C41.8731 66.1318 41.6564 66.2268 41.4128 66.2853C41.4128 65.7226 41.4201 65.16 41.425 64.5974V64.4634H41.4274ZM38.3974 69.1497C38.4851 68.7868 38.7262 68.514 39.0307 68.3532C39.4228 68.1486 39.9197 68.1315 40.3289 68.3556C40.5433 68.4725 40.648 68.6357 40.6675 68.8135C40.6894 68.9938 40.6163 69.1886 40.4775 69.3616C40.2339 69.666 39.8856 69.8853 39.5836 70.1434L39.5251 70.1775C38.9235 70.0752 38.1952 69.9876 38.3974 69.1497ZM33.0998 67.9343C33.2216 67.7248 33.3628 67.5275 33.5065 67.3326C33.604 67.2011 33.7014 67.0696 33.7964 66.9381C33.9109 66.8065 33.9815 66.6531 34.0034 66.4801C34.0083 66.4777 34.0107 66.4777 34.0156 66.4753C35.382 65.5692 35.913 65.5424 36.5487 66.3827C36.8239 66.7481 36.8361 67.1816 36.4878 67.4642C36.1005 67.7759 35.6256 67.983 35.1799 68.2168C34.7974 68.419 34.5661 68.7234 34.4175 69.0888C34.3761 69.1886 34.3371 69.2909 34.3079 69.3981C34.1569 69.4346 34.018 69.5028 33.8987 69.6027C33.6259 69.4834 33.4164 69.3811 33.2483 69.2836C32.654 68.9402 32.6784 68.6601 33.0998 67.9343ZM32.3057 80.3198C32.335 80.3076 32.3642 80.3149 32.391 80.3052C32.2741 80.0178 32.218 79.7328 32.6613 79.499C33.2727 79.1774 33.8646 78.6659 34.6269 79.2067C34.8876 79.3942 35.1725 79.4941 35.4648 79.5525C35.4648 79.5525 35.4665 79.5517 35.4697 79.5501C35.4527 79.3552 35.4697 79.1677 35.516 78.9801C35.8497 78.9241 36.0884 78.7512 36.2053 78.4224L36.2102 78.4443C37.4597 79.1336 37.5449 79.2773 36.8995 80.1542C36.8848 80.1712 36.8727 80.1883 36.8605 80.2053C37.048 80.7071 36.9896 81.2843 37.0724 81.8129C37.1382 82.2342 36.6291 82.6288 36.2662 82.4681C35.8643 82.2903 35.4673 82.1051 35.0678 81.9249C34.3274 82.2415 33.6648 82.2318 32.9439 81.8713C32.6686 81.7349 32.3861 81.5474 32.0865 81.3087C31.9623 81.2064 31.8965 80.9238 31.9331 80.7533C31.9452 80.6949 31.9745 80.6364 32.0159 80.578C32.0865 80.4659 32.201 80.3661 32.3057 80.3198ZM28.2405 86.504C28.2186 86.504 28.1991 86.5016 28.1772 86.5016C27.8752 85.8805 27.5464 85.2716 27.5464 84.5676C27.5464 84.4532 27.5561 84.3362 27.5756 84.2145C27.6779 83.5641 28.1017 83.4399 28.6546 83.4789C28.6595 83.5958 28.6644 83.7151 28.6668 83.8345C28.6936 84.687 28.7228 85.5395 28.7496 86.3944C28.5864 86.4675 28.4159 86.504 28.2405 86.504ZM28.9615 77.3287C28.601 77.621 28.2284 77.4213 27.9093 77.1607C27.9312 76.6127 28.0043 76.0914 28.6035 75.8454C28.7423 75.9842 28.9079 76.106 29.0175 76.2643C29.2587 76.6248 29.3196 77.0389 28.9615 77.3287ZM31.0197 83.9904C30.6495 83.9076 30.3523 83.7492 30.211 83.4302C30.1404 83.267 30.1039 83.0697 30.1258 82.8115C30.3206 82.7433 30.5131 82.6556 30.7128 82.6093C31.1999 82.5022 31.804 82.1149 32.1474 82.6507C32.6272 83.4009 31.8697 83.6932 31.4045 84.0537C31.2681 84.0391 31.1439 84.0172 31.0197 83.9904ZM32.1718 86.2945C31.748 86.0632 31.7285 85.6223 31.9404 85.2618C32.1718 84.8697 32.6053 84.8356 32.9829 85.0475C33.3214 85.2375 33.677 85.4835 33.4627 85.973C33.1193 86.4748 32.6613 86.56 32.1718 86.2945ZM34.5977 90.1137C33.5723 90.1673 32.6662 88.852 33.1095 87.7949C33.2069 87.5635 33.4992 87.3711 33.7477 87.264C33.8597 87.2152 34.1422 87.3736 34.2421 87.5148C34.6562 88.0872 35.0508 88.6767 35.0776 89.422C35.0873 89.7411 34.9972 89.9992 34.5977 90.1137ZM41.4104 88.701C41.2642 88.7351 41.0767 88.7156 40.8161 88.6133C40.5506 88.511 40.2632 88.4623 39.9855 88.3868C39.8101 88.1238 39.5519 87.8583 39.5519 87.5489C39.5519 87.4661 39.5714 87.3784 39.6177 87.2859C39.6469 87.2299 39.6762 87.1763 39.7127 87.1276C39.9904 86.7281 40.4507 86.6282 40.9451 86.7963C41.2374 86.8937 41.5005 87.0764 41.7757 87.2225C41.7806 87.337 41.783 87.4515 41.7879 87.5684C41.7903 87.6439 41.7928 87.7219 41.7952 87.7974C41.7952 87.8388 41.7976 87.8802 41.7952 87.9216C41.7903 88.3284 41.7027 88.6353 41.4104 88.701Z" fill="#355442"/>
<path d="M40.7915 77.5163C40.789 77.4992 40.7841 77.4846 40.7817 77.47C40.7086 77.565 40.6356 77.6576 40.5625 77.7501C40.6404 77.6722 40.716 77.5942 40.7939 77.5187L40.7915 77.5163Z" fill="#355442"/>
<path d="M97.4605 79.8886C97.6895 79.0386 97.8064 78.7853 98.3569 78.7536C98.3033 76.6808 98.0037 74.6421 97.2316 72.7204C96.8102 71.6682 96.2475 70.7402 95.6264 69.8657C95.1344 69.9559 94.6522 69.7756 94.3818 69.3543C94.338 69.2885 94.299 69.2154 94.2673 69.135C94.2235 69.0254 94.1991 68.911 94.1967 68.794C94.1894 68.6114 94.2283 68.4238 94.3087 68.2533C94.1528 68.0926 93.9945 67.9367 93.8338 67.7857C93.6706 67.6273 93.5049 67.4788 93.3344 67.3351C91.7415 65.9565 89.8611 64.9237 87.8127 64.2003C87.6495 64.1443 87.4863 64.0883 87.3207 64.0347C87.0382 64.4585 86.5681 64.7264 86.1979 64.6387C85.9348 64.5754 85.7278 64.249 85.6644 63.9032H85.662C85.6425 63.7911 85.6376 63.6766 85.6498 63.5695C84.3589 63.265 83.0363 63.0385 81.6869 62.9508C78.8981 62.5319 76.0312 62.583 73.2399 63.0653C73.0524 63.0994 72.8648 63.1335 72.6773 63.17C72.1658 63.2699 71.6567 63.3819 71.1501 63.511C71.0649 63.5329 70.9796 63.5549 70.8944 63.5792C69.3818 63.9762 67.9033 64.5048 66.4882 65.1527C65.9816 65.3841 65.4847 65.6325 64.9975 65.8956C63.9794 66.4412 63.0003 67.055 62.0698 67.7321C61.7727 67.9464 61.4804 68.1681 61.193 68.3995C61.1638 68.4214 61.1321 68.4457 61.1029 68.4701C60.5767 68.8939 60.0701 69.3396 59.5854 69.8073C59.5367 69.8511 59.488 69.8974 59.4417 69.9461C58.672 70.6939 57.9559 71.4977 57.3007 72.3526C56.9208 72.847 56.5627 73.3585 56.229 73.8871C56.0293 74.1989 55.8369 74.5179 55.6542 74.8419C55.6055 74.9247 55.5592 75.0099 55.5129 75.0952C54.2391 77.4286 53.4767 80.0153 53.2015 82.658C53.0772 83.8272 53.0504 85.0085 53.1186 86.1825C53.1747 87.2274 53.3062 88.2699 53.5132 89.2929C53.9663 91.5897 54.7847 93.8038 55.9465 95.7986H71.323C71.3961 95.4625 71.4668 95.1264 71.5398 94.7902C71.5642 94.7805 71.5861 94.7659 71.6105 94.7561C71.7274 94.7099 71.8419 94.6587 71.949 94.593C72.083 93.7453 71.8979 92.6736 73.4056 92.9781C73.5809 93.0122 73.7441 92.9659 73.8976 92.8733C74.1606 92.7126 74.3872 92.413 74.5601 92.1353C75.566 92.4106 75.8242 92.5129 75.8242 93.1802C75.8242 93.3824 75.7999 93.6406 75.7658 93.9718C75.5003 94.1521 75.2299 94.3275 74.962 94.5053C74.4164 94.8706 73.8903 95.2603 73.4933 95.7986H95.5339C96.1087 94.6295 96.5301 93.3946 96.8613 92.1256V92.1183H96.8492C96.8492 92.1183 96.8638 92.1012 96.8638 92.0988H96.8662C96.8662 92.0988 96.8638 92.1061 96.8638 92.1085C96.8638 92.1134 96.8638 92.1158 96.8638 92.1183C97.1707 90.9394 97.3948 89.7313 97.575 88.5159C97.5774 88.4915 97.5823 88.4672 97.5847 88.4428C97.6481 88.0117 97.7065 87.5806 97.7577 87.1495C97.8405 86.4943 97.9111 85.8415 97.9818 85.1887C98.028 84.7576 98.0743 84.324 98.1157 83.8905C98.1912 83.1281 98.257 82.3609 98.3008 81.5936C98.3252 81.2137 98.3422 80.8361 98.3544 80.4562C98.1279 80.3831 97.8405 80.2418 97.424 80.0299C97.4362 79.9763 97.4483 79.9398 97.463 79.8886H97.4605ZM96.4448 74.3304C97.5238 74.194 97.5214 74.1672 97.9623 75.4776C97.3533 75.6335 96.8394 75.9501 96.4278 76.4226C95.8627 77.073 95.1369 77.3945 94.2966 77.487C93.4514 76.4714 93.2736 75.4605 94.3063 74.4546H94.3087C95.0224 74.4156 95.7409 74.4205 96.4473 74.3304H96.4448ZM85.9908 72.791C86.9773 73.9236 86.9602 73.9602 86.0956 74.9685C85.8983 74.7956 85.701 74.6227 85.5037 74.4522C85.2504 74.2281 84.9971 74.0064 84.7437 73.7848C84.7681 73.2392 84.9289 72.8397 85.3454 72.7179C85.4964 72.6717 85.6839 72.6644 85.9104 72.6985C85.9421 72.7326 85.9616 72.7569 85.9908 72.791ZM82.9365 72.1407C82.9389 72.4378 82.8683 72.7374 82.8293 73.0346L82.8122 73.0468C82.4274 72.9688 82.0011 72.9688 81.6675 72.7935C81.1779 72.5353 80.9855 72.0238 81.2339 71.5196C81.3313 71.3247 81.7478 71.1859 82.0133 71.1932C82.5735 71.2103 82.934 71.5439 82.9365 72.1407ZM89.8733 78.0448C89.8636 77.6673 89.8538 77.2922 89.8441 76.9147C90.8866 76.9179 91.4979 77.3174 91.6782 78.113C91.5564 78.1081 91.4346 78.1033 91.3153 78.0984C90.833 78.0814 90.3532 78.0643 89.8733 78.0448ZM91.7756 75.0952C91.8755 75.0587 91.9778 75.0392 92.0776 75.0392C92.158 75.0392 92.2408 75.0513 92.3212 75.0757C92.3212 75.2559 92.3261 75.4338 92.3285 75.614C92.3334 75.8259 92.3358 76.0402 92.3382 76.2521C92.2944 76.2351 92.2603 76.2132 92.2213 76.1937C92.1945 76.1742 92.1677 76.1523 92.1385 76.1304C92.1385 76.1279 92.1385 76.1255 92.1361 76.1231C91.9388 75.9769 91.8438 75.7821 91.8024 75.5604C91.7756 75.4143 91.7707 75.2559 91.7756 75.0952ZM84.4953 86.4869C83.9107 86.0778 83.9668 85.442 83.8693 84.8404C83.6452 83.4594 84.0155 82.0101 83.3383 80.6705C83.1605 80.3149 83.3895 79.8789 83.8596 79.7425C84.2396 79.6329 84.4344 79.896 84.5562 80.1785C84.8826 80.9311 85.1968 81.6862 85.511 82.4413C85.6255 82.7189 85.7399 82.999 85.8569 83.2767H85.869C86.2636 83.2718 86.4853 83.4716 86.5413 83.8588C86.8141 84.5676 86.5608 85.2691 86.5072 85.9706C86.4633 86.5357 86.8287 87.3151 86.0809 87.583C85.7253 87.7097 85.4744 87.6415 85.2723 87.4807C84.963 87.2396 84.7681 86.7841 84.4953 86.4869ZM91.0059 68.0171C91.0449 67.6371 90.9962 67.2255 91.1374 66.8893C91.4517 66.1367 91.9217 66.2122 92.3918 66.7846C93.0714 67.2255 93.1542 67.8928 93.0933 68.6162C93.2614 68.8257 93.4294 69.0352 93.5951 69.2471C93.6146 69.269 93.6316 69.2909 93.6487 69.3128C93.9068 69.3372 94.1382 69.3957 94.3185 69.5174C94.5158 69.649 94.6546 69.8536 94.7033 70.1653C94.7812 70.6695 94.808 71.1981 94.4354 71.578C94.2625 71.7558 93.8118 71.9044 93.6535 71.8046C93.5537 71.7412 93.4587 71.6706 93.3637 71.5951C92.9959 71.3126 92.6622 70.9691 92.309 70.6573C92.2043 70.65 92.1044 70.6281 92.0094 70.594C91.9364 70.5672 91.8633 70.5331 91.7951 70.4893C90.8184 70.2482 90.3824 70.0606 90.3824 69.5856C90.3824 69.2471 90.604 68.7648 91.0059 68.0171ZM88.5239 73.4755C88.8455 73.3488 89.1621 73.3293 89.4812 73.3512C90.0877 73.3902 90.7161 73.5753 91.4541 73.4681C91.3761 73.9577 91.2276 74.3377 91.0327 74.6495C90.7502 75.1098 90.3726 75.424 89.9951 75.7309C89.8149 75.877 89.6078 75.9599 89.3935 75.9867C88.938 76.0475 88.4411 75.8527 88.0563 75.4557C88.0563 75.4557 88.0547 75.4541 88.0514 75.4508C87.4084 74.7834 87.6788 73.8091 88.5239 73.4755ZM81.2704 69.5808C81.5554 69.4955 81.8428 69.7318 81.8964 70.0533C81.9232 70.2189 81.8599 70.5039 81.743 70.5745C81.4044 70.7694 81.0171 70.8839 80.6493 71.0276C80.6372 71.0227 80.625 71.0251 80.6128 71.0203C80.5811 71.0081 80.5495 71.0081 80.5178 71.0008C80.4569 70.9862 80.396 70.9618 80.3303 70.9618C80.3108 70.7377 80.2937 70.5161 80.2742 70.292C80.2718 70.2506 80.2669 70.2067 80.2645 70.1653C80.5982 69.9632 80.91 69.6904 81.2704 69.5808ZM74.7549 65.596C74.7647 65.1843 74.7744 64.7751 74.7842 64.3659H74.789C74.9547 64.3172 75.1227 64.2856 75.2932 64.2709C75.4978 64.0347 75.7195 63.8642 75.9192 63.8642C76.0921 63.8642 76.248 63.9933 76.3625 64.3148C76.5963 64.97 76.5427 65.669 76.0386 66.2487C75.946 66.6823 75.7073 66.9551 75.3955 67.1475C75.2031 67.2644 74.9888 67.357 74.7428 67.4179C74.7476 66.8114 74.7501 66.2025 74.7549 65.596ZM74.8231 74.9417C74.8085 74.155 74.7915 73.3683 74.7769 72.5816V72.5548C75.1495 72.5669 75.5222 72.5742 75.8949 72.5864C75.8949 72.5913 75.8949 72.5986 75.8973 72.6059C75.9241 73.21 75.985 73.814 75.9728 74.4181C75.9728 74.5106 75.9606 74.5593 75.9582 74.6324C76.2773 74.8126 76.3893 75.2048 76.3796 75.7163C76.2797 75.748 76.2017 75.7723 76.1214 75.7991C76.0337 75.8259 75.9509 75.8478 75.8802 75.8673C75.3079 76.0256 75.1982 75.9063 75.1982 75.1512V75.0319C75.0813 75.0051 74.9839 74.9856 74.8231 74.9417ZM64.732 85.1863C64.6614 85.179 64.5957 85.1692 64.5299 85.1571C64.469 85.1473 64.4081 85.1351 64.3496 85.123C63.9794 85.0401 63.6823 84.8818 63.541 84.5627C63.4679 84.3996 63.4338 84.2023 63.4533 83.9441C63.6506 83.8759 63.8406 83.7882 64.0427 83.7419C64.2522 83.6956 64.4836 83.5982 64.7053 83.5446C65 83.4716 65.2825 83.4789 65.4774 83.7833C65.9572 84.5335 65.1997 84.8258 64.732 85.1863ZM61.2782 77.8524C61.3416 77.4797 61.4999 77.1558 61.931 76.978C62.0698 77.1168 62.2379 77.2362 62.3451 77.3969C62.5667 77.7233 62.6349 78.0935 62.3767 78.3761C62.3524 78.4053 62.3231 78.4345 62.289 78.4613C61.9286 78.7536 61.5583 78.5539 61.2393 78.2933C61.2466 78.1422 61.2563 77.9937 61.2782 77.8524ZM72.9136 71.276H72.9111L72.8551 71.3101C72.4215 71.237 71.9247 71.1713 71.7517 70.8278C71.686 70.6963 71.6689 70.5185 71.7249 70.2823C71.9076 69.5199 72.7772 69.1497 73.4786 69.4078C73.4835 69.4103 73.4884 69.4103 73.4933 69.4127C73.5493 69.4346 73.6029 69.459 73.6564 69.4882C74.0949 69.7293 74.0803 70.1532 73.8075 70.4942C73.6638 70.672 73.4835 70.8205 73.3008 70.9667C73.1693 71.069 73.0378 71.1688 72.9136 71.276ZM67.1239 68.0682C67.2408 67.9391 67.309 67.7857 67.3334 67.6127C67.3358 67.6103 67.3382 67.6079 67.3431 67.6079C68.7095 66.6993 69.2405 66.675 69.8762 67.5153C70.1515 67.8807 70.1637 68.3142 69.8153 68.5967C69.4305 68.9085 68.9531 69.1156 68.5074 69.3494C68.125 69.5491 67.896 69.856 67.745 70.2214C67.7036 70.3188 67.6671 70.4235 67.6378 70.5307C67.4844 70.5672 67.348 70.6354 67.2262 70.7353C66.9534 70.6159 66.7439 70.5136 66.5759 70.4162C65.984 70.0728 66.0059 69.7927 66.4273 69.0668C66.5491 68.8574 66.6904 68.6601 66.8365 68.4652C66.9315 68.3337 67.0313 68.2022 67.1239 68.0682ZM61.5681 87.6366C61.5462 87.6366 61.5267 87.6342 61.5048 87.6342C61.2052 87.0131 60.8763 86.4017 60.8763 85.7002C60.8763 85.5857 60.8861 85.4664 60.9056 85.347C61.0079 84.6967 61.4317 84.5725 61.9846 84.609C61.987 84.7284 61.9919 84.8477 61.9968 84.9671C62.0236 85.8171 62.0503 86.6696 62.0771 87.5221V87.527C62.0211 87.5513 61.9651 87.5733 61.9066 87.5879C61.797 87.6195 61.6826 87.6366 61.5681 87.6366ZM65.5017 87.4247C65.0779 87.1957 65.0584 86.7549 65.2679 86.3944C65.4993 85.9998 65.9328 85.9681 66.3128 86.1801C66.6514 86.37 67.0046 86.616 66.7902 87.1056C66.4492 87.6074 65.9889 87.6926 65.5017 87.4247ZM67.9277 91.2463C66.8998 91.2999 65.9962 89.9846 66.437 88.9275C66.5345 88.6961 66.8292 88.5037 67.0752 88.3965C67.1872 88.3478 67.4722 88.5061 67.5721 88.6474C67.9837 89.2198 68.3783 89.8092 68.4051 90.5546C68.4173 90.8736 68.3271 91.1318 67.9277 91.2463ZM70.3999 82.9454C70.4657 83.3668 69.9591 83.7614 69.5937 83.5982C69.2722 83.4569 68.9507 83.3108 68.6316 83.1647C68.5537 83.1281 68.4733 83.094 68.3953 83.0575C67.3748 83.4935 66.4979 83.3059 65.4165 82.4413C65.2898 82.339 65.2241 82.0564 65.2606 81.8859C65.2971 81.7179 65.4725 81.523 65.6357 81.4524C65.6625 81.4402 65.6917 81.4475 65.7209 81.4377C65.6016 81.1503 65.548 80.8654 65.9913 80.6315C66.6002 80.31 67.1945 79.7985 67.9545 80.3392C68.2175 80.5268 68.5001 80.6267 68.7948 80.6851C68.7948 80.6827 68.7972 80.6827 68.7972 80.6802C68.7802 80.4878 68.7948 80.3003 68.8435 80.1127C69.1796 80.0567 69.4183 79.8838 69.5328 79.555L69.5401 79.5769C69.8421 79.7449 70.0784 79.8789 70.2489 80.0007C70.4486 80.1395 70.5655 80.2613 70.607 80.3928C70.6216 80.444 70.6264 80.4927 70.6216 80.5463C70.607 80.7363 70.4681 80.9603 70.227 81.2867C70.2148 81.3038 70.2026 81.3208 70.1905 81.3379C70.3756 81.8396 70.3171 82.4169 70.3999 82.9454ZM74.7379 89.8336C74.5942 89.8677 74.4066 89.8482 74.146 89.7459C73.8805 89.6412 73.5931 89.5949 73.3154 89.5194C73.1376 89.2563 72.8819 88.9908 72.8819 88.6815C72.8819 88.5963 72.9014 88.5086 72.9452 88.4185C73.2083 87.885 73.7173 87.7413 74.2751 87.9289C74.565 88.0263 74.828 88.209 75.1033 88.3551C75.1081 88.4696 75.1106 88.5841 75.1154 88.6986C75.1179 88.7765 75.1203 88.8544 75.1227 88.93C75.1349 89.4 75.057 89.7605 74.7379 89.8336ZM76.7668 84.4897C76.5306 84.5019 76.1482 84.2607 76.058 84.0415C75.834 83.5081 75.6269 82.9284 75.6026 82.3584C75.6001 82.3365 75.5977 82.317 75.5977 82.2951C75.5831 81.6984 75.5344 81.1211 75.3858 80.5682C75.3005 80.2491 75.1812 79.9398 75.0131 79.6353C74.5479 79.5184 74.1387 79.3211 73.8878 78.8827C73.7198 78.873 73.5517 78.8437 73.3885 78.7999C73.3715 78.4224 73.3569 78.0424 73.3422 77.6649C73.5225 77.6161 73.6954 77.5479 73.8586 77.4578C73.8708 77.6088 73.9025 77.7574 73.9487 77.9011C73.9901 77.8792 74.0364 77.867 74.0778 77.8475C74.6039 77.6064 75.1495 77.5918 75.7122 77.7525L76.3552 77.6575C76.4697 77.7842 76.5403 77.9303 76.5695 78.0984C76.7449 78.3322 77.0762 78.5782 77.0762 78.8048V78.8169C77.0445 79.3723 77.064 79.9203 77.1103 80.4659C77.1955 81.4377 77.3733 82.3974 77.5414 83.3619C77.5584 83.4594 77.5268 83.5641 77.5146 83.6664C77.4975 83.8126 77.4586 83.9465 77.4001 84.0634C77.2759 84.3094 77.0616 84.4751 76.7668 84.4897Z" fill="#355442"/>
<path d="M74.1196 78.6489C74.1171 78.6318 74.1123 78.6172 74.1098 78.6026C74.0368 78.6976 73.9637 78.7901 73.8906 78.8827C73.9686 78.8048 74.0441 78.7268 74.122 78.6513L74.1196 78.6489Z" fill="#355442"/>
<path d="M94.8471 94.6319C94.8471 95.024 94.8349 95.4137 94.8154 95.7986H53.1845C53.1626 95.4137 53.1528 95.024 53.1528 94.6319C53.1528 83.1183 62.4864 73.7823 74 73.7823C85.5135 73.7823 94.8495 83.1159 94.8495 94.6319H94.8471Z" fill="#FFF8E0"/>
<g clip-path="url(#clip1_190_4337)">
<path d="M74.0749 77.9223L72.9724 77.2448L72.7624 78.5451C72.4281 80.5985 71.0605 82.5064 69.552 83.8472C66.5989 86.4731 65.9523 89.3269 66.8666 91.6827C67.7416 93.9371 69.9624 95.4806 72.2164 95.7382L72.7379 95.7974C71.4481 94.9889 70.6204 93.0998 70.9091 91.6881C71.1944 90.3006 72.1674 89.0012 74.0364 87.8022L74.9788 87.1991L75.3305 88.2805C75.5379 88.9195 75.8966 89.4328 76.2615 89.9542C76.4365 90.2055 76.6141 90.4595 76.7769 90.7296C77.3395 91.6674 77.4883 92.7103 77.1251 93.745C76.7944 94.6855 76.2493 95.425 75.4976 95.8351L76.3464 95.7382C78.4621 95.4968 80.0153 94.7546 81.0241 93.5135C82.0243 92.2831 82.3751 90.6991 82.3751 89.0128C82.3751 87.4423 81.746 85.8233 81.004 84.4763C80.1343 82.8986 78.9994 81.5883 77.7604 80.3185C77.546 80.7582 77.5626 80.9359 77.1216 81.6422C76.5492 80.0823 75.4742 78.7698 74.0749 77.9223Z" fill="#355442"/>
</g>
<path d="M75.3599 23.8777C76.1848 23.9602 76.1161 24.8058 75.9786 25.2182C78.2987 23.6715 75.3599 21.3513 73.5037 23.1559C71.6476 24.9605 72.885 27.4868 73.9678 28.9821C75.0505 30.4773 76.7557 31.3022 77.1644 32.5912C77.8347 34.7051 76.1332 36.0456 74.9989 36.3034C73.8646 36.5612 72.3694 35.8394 71.2867 37.283C70.4205 38.438 71.0805 39.2079 71.493 39.5001C71.4414 39.036 71.264 38.9329 71.3383 38.4689C71.5445 37.1799 73.0913 37.3346 75.7208 37.283C78.3503 37.2315 80.5673 36.819 81.2376 34.602C81.9079 32.3849 79.1237 30.3741 78.505 29.9101C77.8863 29.4461 76.3395 28.054 75.3599 27.3322C74.3802 26.6103 74.0709 25.3729 74.1224 25.0636L74.1237 25.0561C74.1765 24.7387 74.3369 23.7754 75.3599 23.8777Z" fill="#355442"/>
<path d="M68.5028 22.1247C68.8328 20.3098 68.0903 18.6187 67.6778 18C70.5136 19.0827 70.1011 21.7122 69.8949 24.9089C69.6887 28.1055 70.6683 29.0336 71.6479 30.0648C72.6275 31.096 74.8446 31.9725 75.1023 33.2099C75.3086 34.1998 74.6727 34.7566 74.329 34.9113C74.4321 34.5504 74.6426 34.3442 74.5868 33.6739C74.4321 31.8178 71.1839 31.6115 69.7918 31.3538C68.3997 31.096 67.4201 30.4257 67.0591 28.6727C66.6982 26.9197 68.0903 24.3933 68.5028 22.1247Z" fill="#355442"/>
</g>
<defs>
<clipPath id="clip0_190_4337">
<rect width="148" height="140" fill="white"/>
</clipPath>
<clipPath id="clip1_190_4337">
<rect width="21" height="20" fill="white" transform="translate(64 76)"/>
</clipPath>
</defs>
</svg>
