<svg width="224" height="147" viewBox="0 0 224 147" fill="none" xmlns="http://www.w3.org/2000/svg">
<path d="M167.817 130.636C166.669 130.06 166.047 129.244 165.712 128.284C165.472 128.284 165.233 128.284 164.994 128.236C164.994 128.236 164.994 128.188 164.994 128.14C164.898 126.461 164.802 124.829 164.707 123.197C164.707 122.621 164.659 122.093 164.611 121.517C164.802 121.517 164.946 121.517 165.137 121.517C165.042 120.653 164.946 119.79 164.85 118.926C161.357 116.958 160.16 114.223 160.113 111.103C160.113 109.663 160.304 108.127 160.687 106.496C160.543 105.632 160.4 104.72 160.256 103.856C160.926 102.896 161.596 101.985 162.266 101.025C161.979 100.545 161.979 100.017 162.17 99.5369C158.725 94.0658 158.82 94.0655 162.792 89.9862C163.319 89.4582 163.702 88.8824 164.132 88.2585C163.654 87.2986 163.127 86.2909 162.649 85.331C160.591 81.0597 160.16 80.0999 162.218 79.1401C162.218 77.7963 162.218 76.4043 162.505 75.0125C160.783 73.6687 160.065 71.893 160.16 69.6854C159.778 68.9175 159.347 68.1977 158.964 67.4299C157.481 67.4299 155.949 67.4299 154.466 67.4299C155.327 66.278 155.949 65.6061 156.428 65.2701C156.858 64.9822 157.241 64.9822 157.672 65.2701C157.768 65.3181 157.863 65.4621 157.959 65.5581C157.816 65.3181 157.672 65.03 157.576 64.79C157.385 64.2621 157.193 63.7344 157.002 63.2065C156.476 61.6707 155.997 60.1348 155.71 58.551C155.375 56.7273 155.279 54.8557 155.71 52.936C155.71 52.792 155.806 52.6479 155.853 52.5039C156.284 50.9202 157.05 49.7206 158.198 48.8087C158.773 48.3288 159.395 47.8968 160.16 47.6089C160.4 48.9527 161.309 49.7204 162.505 50.1523C162.793 53.1279 163.08 56.1034 163.367 59.0789C164.515 59.7988 165.042 60.8548 164.994 62.2466C165.616 62.8225 165.855 63.4944 165.664 64.3583C166.86 64.9342 167.435 65.8939 167.482 67.2377L167.578 67.3818C170.354 68.6296 171.789 70.8374 172.029 73.7649C172.172 75.1087 172.22 76.5004 172.268 77.8442C172.364 77.8442 172.364 77.8923 172.459 77.9403C172.603 79.476 173.512 80.1958 174.948 80.2438C177.245 83.0754 177.963 85.907 176.192 88.7386C176.671 89.6025 177.149 90.5143 177.628 91.3781C178.489 92.29 179.351 93.2019 180.212 94.1137C180.116 94.4497 180.068 94.7855 180.068 95.1694C179.877 96.8972 179.829 98.6729 177.676 99.3928V99.5369C176.766 100.209 175.809 100.785 174.9 101.505C171.454 104.336 171.454 105.056 174.9 109.663C175.666 109.423 176.431 109.135 177.245 108.895C178.011 107.743 179.063 107.168 180.212 106.784C179.877 106.688 179.494 106.592 179.159 106.448C179.159 105.776 179.016 105.152 178.681 104.576C180.356 101.073 183.705 102.033 186.529 101.649C187.151 101.937 187.773 102.032 188.395 102.032C188.395 103.568 188.443 105.104 188.491 106.64C187.055 107.168 185.62 107.407 184.184 107.407C184.184 108.655 184.232 109.903 184.28 111.151C183.61 111.151 182.94 111.391 182.366 111.727C182.366 112.495 182.365 113.215 182.174 113.935C182.078 116.67 183.323 118.83 184.95 120.893C185.476 120.893 185.955 120.893 186.481 120.941C195.095 113.263 202.226 103.904 207.346 92.9139C208.973 89.3625 210.553 85.8108 212.084 82.2114C210.84 81.7794 209.739 80.8198 208.59 80.0519C208.064 79.716 207.681 78.7079 207.681 78.036C207.729 76.6922 208.734 76.0203 210.074 75.9244C211.27 75.8284 212.467 75.8766 213.663 75.8286C213.855 76.1165 214.046 76.4045 214.237 76.7404C216.295 71.5092 218.114 66.182 219.645 60.8069C218.879 60.8069 218.162 60.8069 217.396 60.8069C213.28 61.0468 210.983 58.6951 208.734 55.9115C209.452 49.0966 209.643 48.8567 216.391 48.5208C217.013 49.8166 218.018 50.3923 219.167 50.7282C219.645 50.8722 220.124 50.9682 220.65 51.0642C220.937 51.1122 221.224 51.1603 221.511 51.2083C221.511 51.2083 221.894 51.2083 222.086 51.1603C222.899 47.4649 223.521 43.7694 224 40.026C222.851 39.1141 221.99 37.7704 221.272 36.1866C221.224 35.3707 221.129 34.5548 221.081 33.7389C221.272 30.9074 221.176 28.2198 219.119 25.9642C219.31 25.1483 219.502 24.3804 219.693 23.5645C219.454 23.2766 219.214 23.0367 219.023 22.7007C218.832 22.4128 218.688 22.0767 218.544 21.7408H217.444L216.965 21.5489L216.439 21.3087C215.769 21.3087 215.099 21.4049 214.429 21.4529C214.285 21.4529 214.142 21.4529 213.998 21.4529C213.998 21.6448 213.998 21.7887 213.998 21.9807C213.998 24.2364 214.285 26.5402 212.562 28.1719C212.227 28.4599 211.892 28.7478 211.414 28.9877L211.27 28.8436C210.935 27.6918 210.218 27.0201 209.021 26.9241C208.255 26.6361 207.442 26.3002 206.676 26.0122C206.676 26.0122 206.724 25.8202 206.772 25.7243C207.968 21.6449 208.16 21.5487 213.855 21.3568C213.855 20.6849 213.711 20.0131 213.52 19.3412C211.079 17.1815 211.51 14.2539 211.318 11.4703C215.29 8.30279 219.262 7.82295 223.33 9.4547C222.756 6.33518 222.086 3.21555 221.177 0.0480395C208.878 0.144025 196.674 2.25584 184.998 6.19124C180.116 7.87098 175.426 9.64677 170.88 11.6625C169.923 14.2061 168.727 14.59 165.425 14.302C152.408 20.973 140.683 30.3315 129.581 46.313C129.054 47.0809 128.624 47.8487 128.097 48.6165C129.724 48.6165 131.351 48.5687 132.978 48.5208C132.978 48.5208 132.978 48.9047 132.978 49.1447C132.978 50.4405 132.978 51.7362 132.978 52.984C132.404 52.984 131.83 52.888 131.256 52.888C129.628 52.792 128.049 52.648 126.422 52.552C126.422 52.504 126.422 52.4081 126.422 52.3601C126.422 51.9762 126.422 51.5923 126.422 51.2083C120.297 60.9508 115.463 71.1731 112.113 81.6835C108.189 69.5894 102.59 57.6872 95.4116 46.265C79.8107 21.5008 55.4521 7.96676 29.5622 2.68757C32.0028 3.69542 34.0606 6.671 33.1514 9.02264C32.8164 9.8865 31.3807 10.9424 30.5193 10.8944C27.4087 10.7504 25.0638 7.29501 25.6381 4.03151C25.7338 3.4076 26.5951 2.92755 27.0737 2.39963C27.3129 2.35164 27.6001 2.39963 27.8394 2.39963C19.8953 0.863867 11.8555 0.0959852 3.81579 0C3.00224 2.78357 2.38017 5.56739 1.85376 8.35096C3.09801 8.20698 4.34225 8.1109 5.5865 8.25488C5.96934 8.25488 6.20863 9.40667 6.63933 10.3185C5.77793 10.9904 5.01222 11.9984 4.00725 12.2384C2.95442 12.4783 2.04513 12.2383 1.27944 11.6144C-2.11832 32.9231 1.66229 53.8478 7.78782 73.6208C12.047 87.3467 18.8425 99.3927 27.5523 109.519C27.983 107.935 28.4615 106.4 28.8922 104.864C29.1315 104 29.5622 103.424 30.0886 102.992C30.1365 102.992 30.1843 102.944 30.2322 102.896C31.3328 102.032 32.8164 101.793 34.2999 101.601H34.3478C35.0177 104.192 37.0755 105.44 39.0376 106.784C37.3626 113.934 37.1234 114.846 31.955 114.366C39.2769 121.853 47.6517 128.141 56.8878 133.132C57.7971 132.316 58.9935 131.836 60.3335 131.788C60.7163 131.788 61.0513 132.028 61.4341 132.22C61.5777 127.661 61.7691 127.564 68.421 126.653C68.421 126.653 68.421 126.749 68.421 126.797C68.8517 130.78 68.8517 134.715 68.5167 138.699C79.2364 142.97 90.7697 145.658 102.734 146.713C102.016 145.658 101.25 144.602 100.532 143.546C99.1923 143.354 97.8523 143.114 96.5124 142.922C96.4486 139.179 97.9161 137.499 100.915 137.883C102.494 138.075 104.074 138.315 105.653 138.555C105.748 139.083 105.796 139.611 105.844 140.139C105.844 140.378 105.94 140.619 105.94 140.859V140.955C107.328 141.53 108.572 142.442 109.864 143.258C110.39 141.146 112.018 139.994 113.98 139.467C115.655 138.987 117.521 141.002 117.712 144.17C117.617 144.458 117.521 144.938 117.377 145.514C117.569 145.514 117.76 145.514 117.952 145.418C119.196 143.594 121.206 143.594 123.12 143.258C123.12 144.842 123.982 145.658 125.465 145.898C125.561 146.042 125.656 146.186 125.704 146.377C134.462 145.37 143.028 143.546 151.116 140.81C150.685 139.611 151.307 137.931 151.451 136.443C150.685 134.812 149.919 133.18 149.154 131.548C148.101 131.404 147 131.308 145.947 131.02C148.149 132.7 150.015 134.667 149.776 138.171C142.693 142.49 141.114 142.01 137.381 134.139C135.61 132.7 135.18 130.732 135.323 128.62C134.606 128.572 133.84 128.476 133.122 128.38C132.5 126.844 131.543 125.405 131.064 123.821C130.825 122.957 130.681 122.045 130.873 121.086C130.538 120.318 130.538 119.598 130.873 118.83C130.873 118.542 130.777 118.254 130.777 117.966C130.729 117.534 130.681 117.15 130.633 116.718C130.633 116.574 130.633 116.382 130.586 116.238C131.638 116.478 132.739 116.67 133.696 117.15C134.366 117.486 134.94 117.966 135.419 118.734H135.515C136.95 118.974 137.716 119.742 137.764 121.181C136.998 120.365 136.233 119.55 135.515 118.782C136.376 119.502 137.094 120.317 137.764 121.181C138.147 121.709 138.338 122.285 138.338 122.957C139.056 123.965 139.726 125.021 140.444 126.029C141.066 126.749 141.688 127.517 142.31 128.236C142.215 127.804 142.167 127.373 142.262 126.797C142.693 124.301 144.56 123.773 146.761 123.821C147.574 123.821 148.388 123.965 149.154 124.013C150.063 124.781 150.924 125.549 151.834 126.365C151.834 127.133 151.929 127.9 151.977 128.668C152.216 128.716 152.456 128.812 152.647 128.908C153.556 129.292 154.178 129.964 154.418 131.068C155.853 131.26 156.571 132.22 157.05 133.467C157.672 133.707 158.342 133.851 159.012 133.851C159.825 134.763 160.639 135.723 161.453 136.635C163.606 135.675 165.712 134.619 167.77 133.515C167.674 132.556 167.53 131.548 167.435 130.54L167.817 130.636ZM201.891 26.492C201.891 26.492 201.891 26.5881 201.891 26.6361C202.465 31.8193 202.465 37.0025 201.747 42.1857C201.556 43.6735 200.886 44.4893 199.929 44.8733C199.211 45.1612 198.397 45.2572 197.44 45.2093C195.287 41.3219 194.712 37.1944 194.856 32.779C195.047 27.4519 194.856 27.4519 201.843 26.492H201.891ZM188.108 57.9271C188.443 57.7831 188.826 57.5913 189.161 57.4473C189.879 57.1114 190.597 56.7753 191.315 56.4394C191.458 56.3914 191.554 56.3435 191.697 56.2955C191.745 57.4474 191.841 58.599 191.937 59.7028V60.3748C190.549 60.5188 189.257 60.3748 188.3 59.511C187.965 59.175 187.678 58.791 187.438 58.2151C187.678 58.1191 187.917 58.0231 188.156 57.8791L188.108 57.9271ZM183.227 16.3176C184.375 15.8857 185.38 16.5575 185.907 17.7573C186.194 19.1971 185.428 20.0129 184.184 20.1089C183.562 20.1569 182.605 19.725 182.318 19.197C181.696 18.0932 182.078 16.7975 183.227 16.3176ZM163.415 41.5137C163.845 40.6979 165.137 40.0261 166.19 39.8341C167.435 39.5941 168.392 40.41 168.392 41.8978C167.865 43.6735 166.717 44.6332 164.898 44.2013C163.606 43.9133 162.888 42.6176 163.415 41.5137ZM44.9717 33.6909C47.8431 33.4989 50.2358 36.7626 48.9916 39.2582C48.6566 39.9781 48.2259 40.6499 47.7474 41.2738C45.4503 44.2014 42.5789 45.401 40.7604 44.1052C39.4204 43.1454 38.8941 41.6096 39.1333 39.9299C39.6119 36.1385 41.7175 33.8828 44.9717 33.6429V33.6909ZM33.1992 59.895C33.9649 59.991 34.7785 59.8948 35.5442 60.0388C37.5062 60.3748 38.1762 61.6707 37.8412 63.4944C37.6976 64.1183 37.0277 65.078 36.5013 65.126C34.5392 65.366 33.6778 64.0223 33.3428 62.2946C33.1993 61.5267 33.2471 60.7589 33.1992 59.943H33.1514L33.1992 59.895ZM11.7599 20.205C11.7599 20.205 11.5206 20.0611 11.377 19.9651C12.1905 17.8534 13.052 15.7418 13.8655 13.6781C14.2962 13.6301 14.6791 13.5341 15.0619 13.3901C15.3012 13.2941 15.5404 13.2462 15.7797 13.1022C15.8754 12.2863 15.9233 11.5184 15.9233 10.7026H15.8276L18.1725 8.11076C18.9382 7.82281 19.656 7.34292 20.4217 7.24693C23.1974 6.95898 24.7766 8.30299 23.8195 10.1747C22.5753 12.6703 20.661 14.8779 20.5653 17.8534C19.8953 17.9494 19.2253 18.1412 18.5554 18.2852C18.5554 18.2852 18.4118 18.4772 18.3161 18.6212C15.5404 22.5566 15.2533 22.6526 11.712 20.205H11.7599ZM42.7225 104.624C42.4354 104.624 42.1482 104.672 41.8132 104.72C41.1911 104.816 40.6169 104.864 39.9948 104.96C37.1234 102.752 33.9649 100.545 33.0078 96.8971C31.0457 89.6982 26.3559 84.1312 22.336 78.1321C20.996 77.9401 19.656 77.7002 18.3161 77.5082C18.2523 73.7648 19.7199 72.0851 22.7189 72.469C23.7238 72.613 24.7287 72.7568 25.7337 72.9008C25.7337 72.7568 25.6859 72.5649 25.6859 72.3729C25.5902 71.6051 25.8773 70.7892 26.0208 69.9733C26.1644 69.9733 26.2601 69.9252 26.4037 69.8772C26.6908 69.8292 26.978 69.7334 27.2651 69.6854C27.4566 69.6374 27.648 69.5895 27.8394 69.5415C28.6051 70.4054 29.3707 71.3172 30.1364 72.1811C30.1364 72.2291 30.1364 72.325 30.1364 72.3729C30.1364 73.0448 30.2322 73.6689 30.4236 74.3408C29.8972 75.1087 29.2272 75.7325 28.5094 76.0204C31.0936 77.3642 33.3906 79.5718 36.262 80.1477C36.3577 80.1477 36.5013 80.1477 36.597 80.1477C37.0277 79.7638 38.1283 79.812 39.0376 79.764C39.1812 79.764 39.3247 79.764 39.4205 79.764C39.4205 79.86 39.4205 79.956 39.4205 80.0519C39.5162 80.0519 39.5641 80.0519 39.6119 80.0519C40.8562 78.2282 42.8661 78.2282 44.7803 77.8922C44.7803 79.476 45.6417 80.2918 47.1252 80.5318C47.5081 81.2516 47.8431 81.9715 48.2738 82.6434C57.2228 95.2175 56.2657 91.0422 49.518 104.576C47.2209 105.104 44.876 105.872 42.5311 104.672L42.7225 104.624ZM54.5429 112.687C52.9636 115.422 50.188 117.438 49.4702 120.702C46.886 121.133 44.7325 120.317 42.9618 118.494C43.4882 116.574 44.2539 114.702 44.4931 112.783C45.0674 107.695 46.1681 106.304 50.3316 106.16C53.9686 106.016 56.3614 109.615 54.5429 112.687ZM63.2048 108.415C61.4819 108.415 60.3813 106.88 60.477 105.056C60.5727 102.992 62.1519 102.416 63.8747 102.608C65.119 102.752 66.0761 103.568 66.0761 105.104C65.8847 106.784 64.9276 108.367 63.2527 108.415H63.2048ZM59.1849 68.7255C57.3664 67.2857 56.9835 65.3181 57.1271 63.1584C56.4092 63.1105 55.6436 63.0145 54.9257 62.9185C54.3036 61.3828 53.3465 59.9429 52.8679 58.3592C52.6286 57.4953 52.4851 56.5834 52.6765 55.6236C52.3415 54.8557 52.3415 54.1359 52.6765 53.3681C52.6765 53.0801 52.5808 52.7919 52.5808 52.5039C52.5329 52.072 52.4851 51.6883 52.4372 51.2564C52.4372 51.1124 52.4372 50.9202 52.3894 50.7763C53.4422 51.0162 54.5429 51.2082 55.5 51.6881C56.17 52.0241 56.7442 52.5041 57.2228 53.272H57.3185C58.7542 53.5119 59.5199 54.2799 59.5677 55.7197C58.8021 54.9038 58.0364 54.0879 57.3185 53.32C58.1799 54.0399 58.8978 54.8558 59.5677 55.7197C59.9506 56.2476 60.142 56.8235 60.142 57.4954C60.8598 58.5032 61.5298 59.5111 62.2477 60.567C62.9655 61.4308 63.6833 62.2465 64.4011 63.1104C67.751 65.654 71.9624 67.4778 71.6274 72.757C64.5448 77.0763 62.9655 76.5963 59.2327 68.7255H59.1849ZM91.3439 102.56H91.4397V102.608C92.8275 102.752 93.5453 103.664 93.8803 104.96C95.5074 106.88 96.4167 108.943 95.1724 111.487C95.0767 111.679 94.9331 111.823 94.8374 112.015C95.3638 112.543 95.7467 113.167 95.6031 114.127C97.1823 116.526 97.0387 118.878 95.5074 121.229C93.3539 124.925 92.7317 128.716 94.5981 132.7C95.8423 135.339 96.273 138.075 95.6509 140.907C91.7268 141.626 89.8604 139.179 88.4247 136.107L88.2333 133.66C88.4247 130.828 88.329 128.14 86.2712 125.885C86.4627 125.069 86.6541 124.301 86.8455 123.485C86.6062 123.245 86.3669 122.957 86.1755 122.621C85.9841 122.333 85.8405 121.997 85.6969 121.661H84.5963L84.1177 121.469L83.5913 121.229C82.9214 121.229 82.2513 121.326 81.5813 121.374C81.4378 121.374 81.2942 121.374 81.1507 121.374C81.1507 121.565 81.1507 121.709 81.1507 121.901C81.1507 124.109 81.4378 126.461 79.6671 128.092C79.38 128.332 79.045 128.572 78.71 128.812C78.8536 129.484 78.9015 130.3 78.9493 131.596C75.7908 131.596 74.068 130.3 74.403 126.941C76.0779 127.037 76.9872 127.18 77.6094 127.468C77.2265 127.132 76.7479 126.893 76.1258 126.845C75.3601 126.557 74.5466 126.221 73.7809 125.933C73.7809 125.933 73.8287 125.741 73.8766 125.645C75.073 121.566 75.2644 121.469 80.9593 121.277C80.9593 120.606 80.8157 119.934 80.6242 119.262C78.375 117.246 78.5665 114.558 78.4707 111.967C77.9922 111.967 77.4658 111.967 76.9872 111.967C76.1737 111.199 74.8337 110.527 74.6902 109.663C74.2595 107.36 75.1687 104.48 74.1159 102.704C70.0481 95.7934 74.6423 93.1057 79.4278 90.2741C80.2414 89.4102 81.0071 88.5464 81.8206 87.6346C82.5863 87.6346 83.352 87.5867 84.1656 87.4907C84.1656 87.3468 84.2135 87.2507 84.2613 87.1067C84.4049 86.5788 84.5484 86.0508 84.6441 85.4748C84.9791 85.4748 85.3141 85.4748 85.6491 85.4748C86.7498 85.4748 87.8026 85.379 88.9033 85.331H88.999C88.999 85.331 89.0947 85.5711 89.1425 85.715C89.9082 87.5388 91.3439 87.9706 93.0188 87.7787C93.3538 87.7787 93.641 87.6826 93.976 87.6346C93.976 87.6346 94.0717 87.6346 94.0238 87.6346C95.3159 89.6982 96.5602 91.762 96.1295 94.3056C96.1295 94.4496 96.1295 94.5457 96.0816 94.6896C96.4645 94.8816 96.8473 95.1214 97.2302 95.4093C96.943 99.1048 92.9231 99.7768 91.3918 102.464L91.3439 102.56ZM109.146 124.733C105.031 127.565 101.011 127.565 97.0866 124.349C98.1394 118.11 98.5223 117.534 102.829 116.958C104.791 116.718 106.801 116.718 108.763 116.622C109.003 116.958 109.194 117.246 109.338 117.582C110.534 119.886 110.438 122.285 109.146 124.685V124.733ZM116.325 102.848C114.267 103.616 114.41 105.728 113.597 107.264C113.645 108.799 113.74 110.383 113.74 111.919C113.74 112.255 113.74 112.543 113.74 112.831C113.74 115.134 113.405 115.614 111.108 115.182C110.486 115.086 109.721 114.894 108.763 114.702C109.577 112.255 110.151 109.807 108.716 107.36C104.839 104.192 102.399 100.065 101.202 95.2175C101.154 94.8335 101.059 94.4016 101.011 94.0177C100.819 92.9138 100.676 91.81 100.389 90.7062C99.6708 87.7306 99.5273 87.0588 101.681 87.1548C102.303 87.1548 103.116 87.2506 104.169 87.3466C107.902 90.6101 110.486 95.0736 115.702 96.8013C118.765 97.8092 116.899 100.737 116.325 102.896V102.848ZM128.289 99.0088C124.652 99.2008 122.737 97.6651 122.594 94.3536C122.498 92.098 124.173 90.1302 126.135 90.3221C127.188 90.6101 128.384 90.9941 129.533 91.2821C131.83 91.858 134.893 92.1459 134.079 95.5054C133.457 98.097 130.873 98.8648 128.289 99.0088ZM137.285 57.5434C136.903 57.9273 136.568 58.3112 136.185 58.6952L135.61 59.2711C134.079 58.5032 132.931 57.1595 134.318 55.7677C135.706 54.3759 137.046 55.4317 137.86 56.9675L137.238 57.5911L137.285 57.5434ZM145.469 112.063H145.421C143.89 111.871 142.071 112.063 141.114 110.479C140.205 109.039 140.3 107.36 141.497 106.064C141.927 105.584 142.932 105.296 143.602 105.44C145.325 105.728 146.569 106.736 146.426 108.607C146.33 109.759 145.756 110.911 145.421 112.015L145.469 112.063ZM145.421 58.0232C145.421 58.0232 145.421 58.0232 145.421 57.9752C145.564 58.1671 145.708 58.311 145.899 58.503L145.421 58.0232ZM149.058 81.5397C148.005 82.1156 146.809 81.3955 146.474 80.0997C146.139 78.8039 146.904 77.8442 147.957 77.3163C149.297 76.6444 150.015 77.4602 150.589 79.044C150.206 79.7159 149.871 81.0597 149.058 81.4917V81.5397ZM150.589 53.0798C150.589 53.0798 150.541 53.1759 150.494 53.2239C149.728 53.1759 148.914 53.1278 148.149 53.0798C147.431 52.216 146.761 51.3522 146.043 50.4883C146.043 50.4403 145.947 50.3925 145.899 50.3445C144.894 48.2328 142.693 46.6009 143.459 43.8173C143.698 43.8173 143.985 43.8653 144.225 43.8653C145.325 43.9613 146.426 44.0573 147.527 44.1533C149.967 46.6489 153.269 48.9047 150.494 53.0321L150.589 53.0798Z" fill="#50795F"/>
</svg>
