<svg width="110" height="110" viewBox="0 0 110 110" fill="none" xmlns="http://www.w3.org/2000/svg">
<path d="M83.5199 30.2184L83.3198 30.4784C83.3898 30.4084 83.4599 30.3384 83.5299 30.2684C83.5299 30.2584 83.5299 30.2384 83.5299 30.2284L83.5199 30.2184Z" fill="#355442"/>
<path d="M48.1901 11.9984C48.0701 11.9484 47.9401 11.8984 47.8101 11.8684C47.8901 11.9284 47.9801 11.9884 48.0601 12.0484C48.1001 12.0284 48.1501 12.0184 48.1901 11.9984Z" fill="#355442"/>
<path d="M29.65 28.2084C29.84 28.4584 29.89 28.7484 29.77 28.9884C30.77 31.9284 32.3099 34.6784 34.6299 36.7484C37.6899 39.7884 41.6899 41.3184 45.6899 41.3184C49.0299 41.3184 52.37 40.2584 55.16 38.1384C55.26 38.2984 55.3599 38.4684 55.4599 38.6284C55.6799 38.4984 56.0199 38.5184 56.6799 38.5784C56.6999 38.6884 56.73 38.7984 56.77 38.9084C56.8 38.9784 56.8199 39.0384 56.8599 39.0984C56.6399 39.5984 56.4999 39.8984 56.3399 40.0484C56.9199 41.0584 57.4599 42.1484 57.9699 43.2784C58.3799 43.5184 58.4399 43.8384 58.3799 44.1984C58.5799 44.6884 58.7699 45.1984 58.9499 45.7084C59.1499 46.0484 59.3399 46.3984 59.4699 46.7584C59.5799 47.0384 59.6299 47.3284 59.5999 47.5984C60.6099 50.8884 61.2299 54.6084 61.2399 58.7984C60.8699 60.1784 60.5599 61.6284 60.3299 63.1284C60.1299 64.4284 61.0199 65.6384 62.3099 65.8384C63.6099 66.0384 64.82 65.1484 65.02 63.8584C65.53 60.6284 66.41 57.7084 67.53 55.0884C68.45 52.9384 69.52 51.0084 70.65 49.2884C73.44 51.4084 76.7799 52.4684 80.1099 52.4684C84.1099 52.4684 88.1099 50.9484 91.1699 47.8984C96.8299 42.8784 97.82 33.8184 97.77 27.7484C97.3 27.9184 96.7399 27.7584 96.3199 27.3284C95.7199 26.7184 95.9699 25.8184 96.7499 25.5084C97.0699 25.3784 97.3799 25.3684 97.6999 25.3984C97.5899 23.2784 97.3899 21.8284 97.3499 21.5984C97.2199 20.5684 96.4099 19.7084 95.3299 19.5484C95.2799 19.5484 76.9999 16.7084 68.9899 25.7284C65.9499 28.7884 64.4199 32.7884 64.4199 36.7884C64.4199 39.9484 65.3699 43.0984 67.2599 45.7984C66.5799 46.7684 65.9299 47.8184 65.2999 48.9184C65.3199 48.9384 65.3399 48.9584 65.3599 48.9784C65.8899 49.1484 66.4299 49.2984 66.9399 49.4984C67.2099 49.5984 67.3699 49.8584 67.3299 50.1584C67.2899 50.4684 67.07 50.6284 66.78 50.6884C66.51 50.7384 66.2299 50.7684 65.9499 50.8084C65.5899 51.6484 65.2199 52.4784 64.8699 53.3184C64.5199 54.1684 63.8399 54.2584 63.0599 54.1684C63.0399 54.0084 62.9899 53.8484 62.9299 53.7084C62.6999 53.5484 62.4699 53.3884 62.2399 53.2384C61.9299 53.0584 61.5999 52.8984 61.3099 52.6884C60.7999 52.3384 60.8599 51.9684 61.3699 51.6884C61.6799 51.5084 62.0299 51.3984 62.3599 51.2584C62.5599 50.8784 62.7599 50.4984 62.9599 50.1284C62.9199 49.6484 62.8799 49.1684 62.8399 48.6984C62.7299 47.5984 62.7999 47.5484 64.1299 47.8884V47.8784C64.2099 48.1584 64.3999 48.3084 64.6799 48.3684C64.4199 47.3084 64.13 46.2584 63.79 45.2684C62.42 41.1484 60.5199 37.6184 58.4699 34.6684C60.3599 31.9784 61.3099 28.8184 61.3099 25.6684C61.3099 21.6684 59.7899 17.6684 56.7399 14.6084C48.7299 5.58837 30.46 8.41838 30.4 8.42838C29.32 8.58838 28.5199 9.4484 28.3799 10.4784C28.2899 11.0984 27.0199 20.0484 29.3799 28.0084C29.4499 28.0784 29.5099 28.1484 29.5799 28.2384L29.65 28.2084ZM92.4799 31.2684C92.8299 31.1684 93.0099 31.4084 93.1199 31.6684C93.5299 32.6084 93.9199 33.5684 94.3199 34.5184H94.3299C94.6899 34.5184 94.8999 34.6984 94.9499 35.0584C95.1999 35.7084 94.9699 36.3584 94.9199 36.9984C94.8799 37.5184 95.21 38.2384 94.53 38.4784C93.7 38.7784 93.4899 37.9184 93.0699 37.4684C92.5299 37.0984 92.5799 36.5084 92.4899 35.9584C92.2799 34.6884 92.6199 33.3584 91.9999 32.1284C91.8399 31.7984 92.0499 31.3984 92.4799 31.2784V31.2684ZM89.1799 22.4684C89.4899 22.2784 89.7699 22.0284 90.0999 21.9284C90.3599 21.8484 90.6299 22.0684 90.6699 22.3584C90.6999 22.5084 90.64 22.7784 90.53 22.8384C90.22 23.0184 89.86 23.1184 89.52 23.2584C89.51 23.2584 89.4999 23.2584 89.4899 23.2584C89.4599 23.2484 89.43 23.2484 89.4 23.2384C89.34 23.2284 89.2899 23.1984 89.2299 23.1984C89.2099 22.9884 89.1999 22.7884 89.1799 22.5784C89.1799 22.5384 89.1799 22.4984 89.1799 22.4584V22.4684ZM84.53 26.4884C85.42 26.3084 85.6199 26.8284 85.6099 27.5684C85.5199 27.5984 85.4499 27.6184 85.3699 27.6484C85.2899 27.6784 85.22 27.6984 85.15 27.7084C84.62 27.8484 84.52 27.7384 84.52 27.0484C84.52 26.8884 84.52 26.7084 84.52 26.4884H84.53ZM82.8099 29.3584C82.9799 29.3184 83.13 29.2484 83.28 29.1684C83.29 29.3084 83.3199 29.4384 83.3599 29.5784C83.3999 29.5584 83.4399 29.5484 83.4799 29.5284C83.9599 29.3084 84.4699 29.2884 84.9799 29.4384C85.1799 29.4084 85.3699 29.3784 85.5699 29.3484C85.6699 29.4684 85.74 29.5984 85.77 29.7484C85.93 29.9684 86.2499 30.1984 86.2399 30.4084C86.1599 31.8284 86.4199 33.2084 86.6699 34.5884C86.6899 34.6784 86.66 34.7784 86.65 34.8684C86.6 35.2884 86.3599 35.6084 85.9599 35.6284C85.7399 35.6384 85.3899 35.4184 85.3099 35.2184C85.0999 34.7084 84.9 34.1584 84.89 33.6084C84.87 32.7484 84.7699 31.9284 84.3499 31.1584C83.9199 31.0484 83.5499 30.8684 83.3199 30.4684C83.1599 30.4684 83.0099 30.4284 82.8599 30.3884C82.8499 30.0384 82.8299 29.6884 82.8199 29.3484L82.8099 29.3584ZM82.4499 39.2384C82.6899 38.7484 83.1599 38.6184 83.6699 38.7884C83.9399 38.8784 84.1799 39.0484 84.4299 39.1784C84.4299 39.2884 84.4299 39.3884 84.4399 39.4984C84.4399 39.5684 84.4399 39.6384 84.4399 39.7084C84.4499 40.1384 84.3799 40.4684 84.0899 40.5384C83.9599 40.5684 83.7799 40.5484 83.5499 40.4584C83.3099 40.3584 83.04 40.3184 82.79 40.2484C82.58 39.9384 82.2599 39.6284 82.4499 39.2384ZM80.5699 47.8284C80.7599 46.9184 80.96 46.0084 81.15 45.0984C81.15 45.0984 81.1899 45.0784 81.2099 45.0684C81.3199 45.0284 81.42 44.9784 81.52 44.9184C81.64 44.1384 81.4799 43.1584 82.8599 43.4384C83.0199 43.4684 83.1699 43.4284 83.3099 43.3384C83.5499 43.1884 83.7599 42.9184 83.9199 42.6584C85.1299 42.9884 85.17 43.0484 85.03 44.3484C84.79 44.5184 84.54 44.6784 84.29 44.8384C83.73 45.2084 83.1899 45.6184 82.8199 46.2084C82.7799 46.9184 82.7399 47.6284 82.6999 48.3484C82.6999 48.3484 82.6899 48.3584 82.6799 48.3684C82.5599 48.4984 82.4499 48.6384 82.3299 48.7684C81.9699 49.1884 81.6099 49.7784 80.9799 49.5184C80.1899 49.1984 80.4199 48.4684 80.5599 47.8384L80.5699 47.8284ZM75.39 33.2384C75.42 33.0884 75.5799 32.9084 75.7299 32.8384C76.1999 32.6384 76.6999 32.6784 77.1199 32.9284C78.0999 33.5084 78.18 32.4784 78.64 32.1284C78.62 31.9484 78.6399 31.7784 78.6799 31.6084C78.9899 31.5584 79.2099 31.3984 79.3099 31.0984V31.1184C80.4599 31.7484 80.5399 31.8884 79.9499 32.6884C79.9199 32.7284 79.8999 32.7584 79.8599 32.8084C79.8299 32.9884 79.8199 33.1784 79.8299 33.3584C79.5899 33.5184 79.3499 33.6684 79.1099 33.8384C77.7599 34.7884 76.8 34.7784 75.52 33.7484C75.4 33.6584 75.3399 33.3984 75.3799 33.2384H75.39ZM75.39 37.3784C75.6 37.0184 75.9999 36.9884 76.3499 37.1784C76.6599 37.3584 76.99 37.5784 76.79 38.0284C76.48 38.4884 76.0499 38.5684 75.6099 38.3184C75.2199 38.1084 75.2 37.6984 75.4 37.3684L75.39 37.3784ZM72.3199 28.7284C72.4499 28.8584 72.5999 28.9684 72.6999 29.1184C72.9199 29.4484 72.98 29.8284 72.65 30.0984C72.32 30.3684 71.9799 30.1784 71.6799 29.9484C71.6999 29.4484 71.7699 28.9684 72.3199 28.7384V28.7284ZM58.4999 29.9384C58.5799 29.8884 58.6499 29.8384 58.7299 29.7984C59.9699 29.2784 60.1899 29.4584 60.0599 30.9184C59.2332 31.0117 58.7133 30.6851 58.4999 29.9384ZM58.1099 38.9684C58.6699 38.4584 59.2299 37.8984 60.0699 38.3584C61.0099 38.8784 60.9899 39.7084 60.7099 40.5784C60.6799 40.6684 60.6599 40.7484 60.6199 40.8384C59.3299 40.9084 58.7499 39.7984 57.8799 39.1784C57.9599 39.1184 58.0299 39.0484 58.1099 38.9784V38.9684ZM34.1999 35.0284C34.1899 34.3084 34.17 33.5784 34.16 32.8584V32.8384C34.5 32.8384 34.8499 32.8584 35.1899 32.8684C35.1899 32.8684 35.1899 32.8784 35.1899 32.8884C35.2199 33.4484 35.2699 33.9984 35.2599 34.5584C35.2499 35.3084 35.2099 35.3084 34.1999 35.0384V35.0284ZM41.5599 33.2784L41.54 33.2884C41.19 33.2184 40.7899 33.2184 40.4899 33.0584C40.0399 32.8184 39.8599 32.3484 40.0899 31.8884C40.1799 31.7084 40.5599 31.5784 40.8099 31.5884C41.3199 31.6084 41.66 31.9084 41.66 32.4584C41.66 32.7284 41.5999 33.0084 41.5599 33.2784ZM41.3099 19.0484C40.7099 19.2684 40.48 19.0084 40.54 18.4284C40.56 18.2484 40.6299 18.0784 40.6699 17.9084C40.6999 17.8884 40.7199 17.8784 40.7399 17.8684C41.6499 17.3384 41.84 17.4584 42.04 18.6484C42.04 18.6884 42.0499 18.7184 42.0599 18.7584C41.8099 18.8484 41.5599 18.9484 41.3099 19.0384V19.0484ZM44.5599 35.0584C44.1499 34.6984 43.7299 34.3384 43.3199 33.9684C43.3499 33.2884 43.61 32.8484 44.39 32.9684C44.42 32.9984 44.4399 33.0184 44.4599 33.0484C45.3699 34.0884 45.3499 34.1284 44.5599 35.0484V35.0584ZM45.8699 24.6284C45.7099 25.2284 45.1 25.6684 44.66 25.5584C44.29 25.4684 44.0099 24.7884 44.1899 24.3684C44.4099 23.8684 44.8199 23.6784 45.3299 23.7984C45.7199 23.8984 45.9999 24.1684 45.8799 24.6184L45.8699 24.6284ZM49.6899 37.9484C49.5799 37.9484 49.4699 37.9484 49.3499 37.9384C48.9099 37.9184 48.47 37.9084 48.03 37.8884C48.03 37.5384 48.0099 37.1984 47.9999 36.8484C48.9599 36.8484 49.5232 37.2151 49.6899 37.9484ZM50.2999 36.2384C50.2999 36.2384 50.2299 36.1984 50.1899 36.1884C50.1599 36.1684 50.1399 36.1484 50.1099 36.1284C49.8099 35.9084 49.77 35.5584 49.78 35.1884C49.95 35.1284 50.11 35.1184 50.28 35.1684C50.28 35.5284 50.2899 35.8884 50.2999 36.2484V36.2384ZM55.4699 35.5184C54.9099 35.6584 54.4399 35.9484 54.0599 36.3884C53.5399 36.9884 52.8699 37.2784 52.0999 37.3684C51.3199 36.4384 51.1599 35.5084 52.0999 34.5784C52.7599 34.5484 53.4199 34.5484 54.0699 34.4684C55.0599 34.3384 55.0599 34.3184 55.4599 35.5184H55.4699ZM50.9899 29.2184C51.1599 29.4284 51.3299 29.6484 51.4999 29.8584C51.9999 29.9084 52.3799 30.0884 52.4699 30.6384C52.5399 31.0984 52.5699 31.5884 52.2199 31.9384C52.0599 32.0984 51.6499 32.2384 51.4999 32.1484C51.0499 31.8584 50.6699 31.4584 50.2599 31.0984C50.0899 31.0884 49.93 31.0384 49.79 30.9484C48.25 30.5684 48.1699 30.3284 49.0599 28.6784C49.0899 28.3284 49.0599 27.9484 49.1799 27.6384C49.4699 26.9484 49.8999 27.0184 50.3299 27.5384C50.9599 27.9384 51.0299 28.5584 50.9799 29.2184H50.9899ZM44.4899 13.4784C44.9299 13.0584 45.15 12.5684 45.14 11.9684C45.2 11.9184 45.2599 11.8884 45.3199 11.8584C45.8499 11.5784 46.4099 11.8584 46.9599 11.8584C47.2499 11.8584 47.5299 11.8784 47.8199 11.8884C47.9699 11.5884 48.17 11.3684 48.53 11.3284C49.21 10.6384 49.8799 10.8284 50.4599 11.4284C51.0499 12.0284 51.1799 12.8584 50.8199 13.4784C50.4399 14.1284 49.8999 14.6484 49.2599 15.0384C48.8799 15.8384 48.09 16.1484 47.39 16.5584L45.77 15.5184V15.5384C45.72 16.1484 45.8499 16.8384 45.0799 17.1284C44.5499 17.0984 44.0299 17.0784 43.4999 17.0484C43.4599 17.0184 43.4199 16.9984 43.3799 16.9684C43.2199 16.8584 43.06 16.7484 42.9 16.6484C42.87 16.6284 42.8499 16.6084 42.8199 16.5984C42.4299 16.4484 42.2999 16.1384 42.2599 15.7484C42.2199 15.3784 42.0899 15.0384 41.7299 14.8484C41.6299 14.7684 41.52 14.6984 41.4 14.6584C41.37 14.5684 41.3299 14.4784 41.3299 14.3884C41.2599 13.4384 41.4599 13.1684 42.0599 13.4384C42.2299 13.5184 42.37 13.6584 42.54 13.7484C43.61 14.2784 43.7599 14.2384 44.5099 13.5184L44.4899 13.4784ZM39.91 8.42838C40.01 8.47838 40.0999 8.52839 40.1899 8.58839C41.0099 9.07839 41.53 9.78838 41.64 10.7984C41.84 10.9484 41.9799 11.1284 42.0699 11.3384C42.1499 11.5284 42.1999 11.7384 42.2199 11.9584C41.6399 12.3084 41.0699 12.9384 40.4399 12.0284C40.2799 12.0084 40.1199 11.9484 39.9799 11.8684C39.9399 11.7084 39.8999 11.5484 39.8599 11.3884C39.7399 10.8984 39.6099 10.4184 39.4699 9.93839C39.2999 9.32839 39.3399 8.80838 39.9199 8.42838H39.91ZM36.9699 17.7784V17.7684C37.1599 18.0084 37.34 18.2384 37.53 18.4784C37.51 18.6284 37.5299 18.7784 37.5699 18.9284C37.5699 19.4984 37.5699 20.0684 37.5799 20.6384C37.3499 20.5984 37.12 20.5484 36.9 20.5084C36.9 20.5084 36.8099 20.5084 36.7599 20.5084C36.7399 20.5084 36.7299 20.5084 36.7099 20.5084C36.6799 20.5084 36.6499 20.5084 36.6199 20.4984C36.5599 20.4884 36.4899 20.4684 36.4299 20.4284C36.4299 20.5684 36.41 20.6984 36.39 20.8384C36.17 20.6084 35.9599 20.3884 35.7399 20.1584C34.9999 18.5884 35.2499 18.0884 36.9599 17.7884L36.9699 17.7784ZM34.14 26.4384C34.14 26.0584 34.1599 25.6884 34.1699 25.3084C34.3199 25.2684 34.4799 25.2384 34.6299 25.2184C34.9799 24.8084 35.3899 24.6184 35.6099 25.2584C35.8199 25.8584 35.7799 26.5084 35.3099 27.0384C35.2199 27.4384 35.0099 27.6884 34.7199 27.8684C34.5399 27.9784 34.3499 28.0584 34.1199 28.1184C34.1199 27.5584 34.1199 26.9984 34.1299 26.4484L34.14 26.4384ZM31.3499 30.7484C31.5299 29.9884 32.4599 29.6484 33.1299 30.0184C33.5299 30.2384 33.52 30.6284 33.27 30.9384C33.05 31.2184 32.7299 31.4184 32.4499 31.6584L32.4 31.6884C31.85 31.5984 31.1799 31.5184 31.3599 30.7484H31.3499Z" fill="#355442"/>
<path d="M65.3198 49.6784C65.3198 49.6784 65.3799 49.6584 65.3999 49.6484C65.3699 49.6384 65.3498 49.6184 65.3198 49.6084C65.3198 49.6284 65.3198 49.6584 65.3198 49.6784Z" fill="#355442"/>
<path d="M10.39 94.7484C10.39 94.7484 10.39 94.7184 10.38 94.7084C10.31 94.7984 10.2499 94.8784 10.1799 94.9684C10.2499 94.8984 10.32 94.8284 10.39 94.7584V94.7484Z" fill="#355442"/>
<path d="M100.43 80.4984L72.11 86.8784L61.5699 86.0284L45.03 82.7984L45.24 80.8684L67.29 85.0484C69.7 85.7584 72.2699 84.6484 73.4299 82.3984C74.9899 79.3584 73.24 75.6484 69.91 74.9084L67.0699 74.3284C67.1899 74.4584 67.3199 74.5984 67.4399 74.7284C67.4599 75.1084 67.48 75.4784 67.5 75.8584C67.11 76.0584 66.72 76.2584 66.33 76.4484C66.17 75.8284 65.73 75.4984 65.15 75.2984C65.13 74.6084 65.19 74.1984 65.36 73.9784L38.41 68.4784C34.44 66.5484 13.76 74.5684 6.51001 77.5084C4.97001 78.1184 4 79.5984 4 81.2384V93.7284C4 94.9584 4.53999 96.0284 5.35999 96.7484C5.39999 96.6984 5.45 96.6484 5.5 96.6084C5.48 96.4284 5.50004 96.2584 5.54004 96.0884C5.85004 96.0384 6.06992 95.8784 6.16992 95.5784V95.5984C7.31992 96.2284 7.39994 96.3684 6.80994 97.1684C6.77994 97.2084 6.75997 97.2384 6.71997 97.2884C6.70997 97.3684 6.71996 97.4584 6.70996 97.5384C7.53996 97.8284 8.48001 97.8484 9.39001 97.5184L11.59 96.7184C11.51 96.3484 11.39 95.9984 11.2 95.6484C10.77 95.5384 10.3999 95.3584 10.1699 94.9584C10.0099 94.9584 9.85996 94.9184 9.70996 94.8784C9.69996 94.5284 9.67992 94.1784 9.66992 93.8384C9.83992 93.7984 9.99001 93.7284 10.14 93.6484C10.15 93.7884 10.18 93.9184 10.22 94.0584C10.26 94.0384 10.3 94.0284 10.34 94.0084C10.82 93.7884 11.33 93.7684 11.84 93.9184C12.04 93.8884 12.2299 93.8584 12.4299 93.8284C12.5299 93.9484 12.6 94.0784 12.63 94.2284C12.79 94.4484 13.11 94.6784 13.1 94.8884C13.08 95.3184 13.09 95.7384 13.12 96.1484L23.61 92.3384L46.5599 99.3584C46.7699 99.4684 46.9799 99.5684 47.2 99.6684C47.2 99.6284 47.2 99.5984 47.2 99.5584C47.2999 99.5684 47.4 99.5884 47.5 99.5984C47.75 99.6284 47.99 99.6584 48.24 99.6984C48.27 99.6984 48.31 99.6984 48.34 99.7084C48.34 99.8584 48.34 100.008 48.33 100.168C50.23 100.918 52.25 101.308 54.29 101.308C54.24 101.138 54.2099 100.968 54.2 100.778C54.49 100.578 54.76 100.288 55.09 100.198C55.54 100.068 56.04 100.148 56.23 100.678C56.3 100.878 56.29 101.038 56.23 101.178L87.39 92.6484C87.46 92.5284 87.53 92.4184 87.6 92.2984C88.06 91.5584 89.26 91.4184 89.96 91.9484L102.58 88.4984C104.38 88.0184 105.65 86.3784 105.65 84.4984C105.65 81.7684 103.06 79.7884 100.44 80.4984H100.43ZM71.3199 82.4384C71.2499 82.5184 71.1699 82.5984 71.0599 82.6584C71.0599 82.2984 71.04 81.9384 71.03 81.5784C71.03 81.4384 71.03 81.2884 71.02 81.1484C71.19 81.0984 71.35 81.0884 71.52 81.0984C71.52 81.2784 71.52 81.4684 71.53 81.6584C71.53 81.9384 71.5099 82.2184 71.3199 82.4384ZM68.66 75.8884C68.99 75.8784 69.1999 75.7184 69.2999 75.4084C69.4699 75.3584 69.62 75.2884 69.77 75.1984C70.72 75.1284 70.97 75.9884 71.49 76.4884C71.58 76.9184 71.7 77.3484 72.1 77.6084C72.02 78.395 71.4567 78.765 70.41 78.7184C70.2 78.5584 69.98 78.4084 69.77 78.2584C69.01 77.7084 68.33 77.1084 68.65 75.8884H68.66ZM61.12 75.8684C61.12 76.5984 62.24 77.1384 61.7 77.8084C61.45 78.1184 60.49 77.7984 59.89 77.9184C59.37 78.0284 59.01 78.0284 58.72 77.5484C58.39 77.0084 57.73 76.6684 57.72 75.9284C58.85 75.6084 59.98 75.1084 61.13 75.8584L61.12 75.8684ZM52.6 78.8984C52.95 78.9784 53.27 79.1784 53.6 79.3284C53.43 80.4084 52.54 80.1884 51.84 80.2984C51.68 80.1584 51.52 80.0184 51.37 79.8684C51.37 79.0184 51.81 78.7084 52.6 78.8984ZM12.46 92.0484C12.37 92.0784 12.3 92.0984 12.22 92.1284C12.14 92.1584 12.06 92.1784 12 92.1884C11.47 92.3284 11.37 92.2184 11.37 91.5284C11.37 91.3684 11.37 91.1884 11.37 90.9684C12.26 90.7884 12.46 91.3084 12.45 92.0484H12.46ZM42.22 76.9084C42.42 76.2884 43.81 75.8084 44.39 76.1684C44.59 76.2984 44.67 76.6284 44.78 76.8184C44.65 77.2584 44.4799 77.5784 44.0599 77.6784C43.4799 77.8084 42.94 77.6784 42.45 77.3684C42.32 77.2884 42.19 77.0284 42.23 76.9084H42.22ZM17.25 74.2284C17.31 74.2884 17.3599 74.3584 17.4199 74.4184C17.2799 74.4884 17.15 74.5684 17 74.6084C16.97 74.6084 16.89 74.4884 16.84 74.4284C16.98 74.3584 17.11 74.2984 17.25 74.2284ZM16.41 76.0184C17.1 75.9284 17.0699 76.5084 17.0699 76.9784C16.7299 76.9684 16.3899 76.9584 16.0499 76.9484C16.0299 76.5784 15.96 76.0784 16.41 76.0184ZM17.39 87.3184C17.08 87.4984 16.72 87.5984 16.38 87.7384C16.37 87.7384 16.36 87.7384 16.35 87.7384C16.32 87.7284 16.29 87.7284 16.26 87.7184C16.2 87.7084 16.15 87.6784 16.09 87.6784C16.07 87.4684 16.06 87.2684 16.04 87.0584C16.04 87.0184 16.04 86.9784 16.04 86.9384C16.35 86.7484 16.63 86.4984 16.96 86.3984C17.22 86.3184 17.49 86.5384 17.53 86.8284C17.56 86.9784 17.5 87.2484 17.39 87.3084V87.3184ZM24.98 92.0584C24.46 92.4784 23.72 92.3384 23.2 91.8084C22.6 91.1984 22.85 90.2984 23.63 89.9884C24.48 89.6484 25.2799 90.1284 26.3199 89.9884C26.1399 91.0984 25.56 91.5984 24.98 92.0684V92.0584ZM26.98 77.6384C26.93 77.7184 26.9 77.8084 26.84 77.8684C26.44 78.1884 25.85 78.7684 25.5 78.2984C24.94 77.5584 25.8099 77.2984 26.3199 76.9884C26.4499 77.1184 26.58 77.2484 26.72 77.3784C26.74 77.3984 26.76 77.4184 26.79 77.4484C26.86 77.5184 26.93 77.5784 26.99 77.6484L26.98 77.6384ZM27.09 79.9384C27.09 79.2884 27.66 79.3584 28.11 79.3484C28.11 79.7284 28.11 80.1084 28.11 80.4884C27.67 80.4684 27.08 80.6084 27.08 79.9384H27.09ZM31.4199 85.2384C31.2599 85.7784 31.07 86.2884 30.51 86.5684C29.88 86.8884 29.17 86.6484 28.91 85.9984C28.71 85.4984 28.96 84.8284 29.54 84.6584C29.96 84.5384 30.44 84.6584 30.89 84.6784C30.89 84.6784 30.9099 84.6984 30.9199 84.7084C31.0599 84.8484 31.1899 84.9884 31.3199 85.1384C31.3499 85.1684 31.38 85.2084 31.41 85.2384H31.4199ZM35.66 93.1984C35.39 92.7684 34.96 92.6784 34.49 92.6384C34.5567 91.9117 34.9566 91.5151 35.6899 91.4484C35.7199 91.5284 35.73 91.6284 35.79 91.6984C36.2767 92.2717 36.2334 92.7684 35.66 93.1884V93.1984ZM39.59 74.6584C39.42 75.0384 39.26 75.4184 39.09 75.7984C37.69 75.7784 37.6 75.7484 37.52 74.8784C37.45 74.0484 37.43 73.2184 37.39 72.3984C36.85 72.0984 36.32 71.7784 35.66 71.8684C35.17 72.3284 34.5799 72.4984 33.9199 72.4384C33.4099 72.9284 32.84 72.8884 32.24 72.6484C31.32 72.6884 30.9099 72.3284 31.1699 71.7184C31.4599 71.0484 31.97 70.6684 32.71 70.5984C32.92 70.4584 33.12 70.3184 33.33 70.1784C34.02 69.7884 34.63 69.8484 35.13 70.5084C35.33 70.5484 35.48 70.6484 35.6 70.8084C36.19 70.9784 36.71 71.2784 37.4 71.0084C38 70.7784 38.39 71.2184 38.48 71.8484V71.8684C38.67 71.8684 38.85 71.8884 39.03 71.9384C38.92 72.6084 39.5599 72.9684 39.6799 73.5384C40.1699 73.9684 39.8899 74.3184 39.5599 74.6584H39.59ZM42.01 93.7984C41.7 93.4984 41.28 93.2484 41.01 92.9284C40.75 92.6084 40.6499 92.2284 40.9399 91.6384C40.9999 91.6184 41.06 91.5984 41.12 91.5884C41.87 91.3884 42.46 91.7284 43.02 92.2084C43.72 93.6084 43.62 93.7684 42 93.7984H42.01ZM48.4 86.2884C48.48 86.4784 48.47 86.6584 48.35 86.8284C48.01 87.7784 46.92 87.6384 46.29 88.2884C45.59 89.0184 44.47 88.7584 43.59 88.3184C43.21 88.1284 43.2699 87.6884 43.6799 87.4184L43.71 87.3884C43.91 86.8884 44.3399 86.7984 44.8099 86.7684C45.4399 86.3984 46.0499 86.0484 46.0699 85.1684C46.0699 84.7184 46.25 84.2884 46.66 83.9984C47.65 83.4884 48.1799 83.5784 48.4199 84.3184C48.6299 84.9684 48.64 85.6384 48.4 86.2884ZM57.26 86.5084C57.37 86.2984 57.64 86.0784 57.86 86.0484C58.25 85.9984 58.64 86.6684 58.5 87.0884C58.28 87.3984 58.01 87.6384 57.6 87.4184C57.24 87.2184 57.06 86.8784 57.25 86.5084H57.26ZM58.51 98.4384C58.24 98.4884 57.9499 98.4084 57.6699 98.3784C57.6699 97.6084 58.11 97.2784 58.83 97.2584C59.26 98.1584 59.23 98.3184 58.51 98.4384ZM63.59 96.9784C63.29 96.7684 63.08 96.4284 62.84 96.1384C62.67 96.1084 62.4899 96.0784 62.3199 96.0484C62.0599 95.2384 61.41 95.2384 60.73 95.2284C60.6 95.2284 60.41 95.0184 60.35 94.8684C60.24 94.5784 60.41 94.3384 60.64 94.1584C61.1 93.7784 61.66 93.7584 62.22 93.7484C62.25 93.3784 62.29 93.0084 62.33 92.6384C62.24 92.4484 62.25 92.2684 62.35 92.0984C62.49 91.5584 62.92 91.5584 63.36 91.5584C63.39 91.7484 63.39 91.9384 63.36 92.1284L63.39 92.1484C63.91 92.1084 64.08 93.2784 64.9 92.4784C65.21 92.1784 65.6 92.8084 65.75 93.2384C66.31 94.8784 64.99 95.8684 64.38 97.0884C64.34 97.1684 63.81 97.1184 63.61 96.9784H63.59ZM65.63 98.3284C65.63 98.3284 65.52 98.2084 65.47 98.1484C65.61 98.0784 65.75 98.0184 65.89 97.9484C65.95 98.0084 65.9999 98.0784 66.0599 98.1384C65.9199 98.2084 65.79 98.2884 65.64 98.3284H65.63ZM69.13 94.2584C69.01 94.4484 68.88 94.6384 68.75 94.8184C68.72 94.8684 68.68 94.9184 68.65 94.9684C67.81 95.0284 67.47 94.5884 67.47 93.7984C67.52 93.7484 67.57 93.6884 67.63 93.6384C67.74 93.5284 67.84 93.4184 67.95 93.3184C67.99 93.2784 68.0199 93.2384 68.0599 93.2084C68.2499 93.2084 68.45 93.1884 68.63 93.2084C69.57 93.3684 69.61 93.4584 69.13 94.2584ZM73.4399 92.5384C73.6266 91.7984 74.1233 91.485 74.9299 91.5984C74.7199 92.3784 74.2299 92.6984 73.4399 92.5384ZM80.78 93.6884C80.25 93.8984 79.71 94.0884 79.16 94.2084C78.75 94.2984 78.4099 94.0984 78.3199 93.6584C78.2499 93.3384 78.45 93.0884 78.71 92.9884C79.14 92.8184 79.6099 92.7384 79.9199 92.6584C80.2699 92.7284 80.48 92.7184 80.63 92.8084C80.78 92.8984 80.93 93.0684 80.96 93.2284C80.99 93.3684 80.89 93.6384 80.78 93.6884ZM100.5 84.5084L100.39 86.9284C100.17 86.7584 99.96 86.5884 99.72 86.4284C99.23 86.1084 98.19 86.1784 98.52 85.2784C98.81 84.4884 99.54 83.9984 100.5 84.5084Z" fill="#355442"/>
</svg>
