<svg width="100" height="100" viewBox="0 0 100 100" fill="none" xmlns="http://www.w3.org/2000/svg">
<path d="M1.34634 39.9269C1.55967 39.7912 2.02508 39.9269 2.2578 40.0627C2.49052 40.1984 2.60689 40.5475 2.78143 40.7996C3.75109 40.7996 4.10017 40.1015 4.44925 39.3257C4.70137 38.7633 5.1862 38.3172 5.57407 37.813C5.74861 36.8821 6.13647 36.1646 6.75706 35.6992C4.54622 33.372 2.60689 30.7926 0.997249 28L0.337884 30.6569C0.0663782 34.1477 -0.0305847 37.6385 0.00820185 41.1293C0.337888 40.6639 0.764526 40.2372 1.32693 39.9075L1.34634 39.9269Z" fill="#355442"/>
<path d="M98.8945 49.7011C98.8751 49.4684 98.9139 49.2551 99.0109 49.0418C98.08 42.7196 97.1297 36.4167 96.1989 30.0945C95.4037 30.0363 94.5892 30.0945 93.7941 30.0751C93.5032 30.6181 93.0184 30.9478 92.5142 30.7926C92.0293 30.6569 91.6221 30.4049 91.37 30.0364C86.1726 30.2303 81.0139 31.2581 76.1462 33.1004C73.179 34.2253 70.3476 35.641 67.555 37.1537C67.4386 38.4337 67.3223 39.7136 67.2059 40.9741C67.2059 41.5559 67.2059 42.1572 67.2059 42.739C67.1283 43.4953 66.6823 43.9801 65.9454 43.9219C64.7236 43.825 64.3551 42.9911 64.4327 41.8663C64.6072 40.7608 64.7817 39.6554 64.9563 38.5694C62.9782 39.6748 61.0001 40.7802 59.0025 41.8663C58.1105 43.3207 56.7917 44.5037 54.9106 45.3376C54.3482 45.2019 53.9215 44.8916 53.5336 44.5425C51.8076 45.3183 50.0622 46.0164 48.2586 46.5788C47.7544 46.734 47.2502 46.8504 46.746 46.9861C46.8235 47.0443 46.9011 47.1024 46.9787 47.1606C46.9787 47.4515 46.9399 47.7037 46.8817 47.9558C46.7848 48.363 46.5908 48.7315 46.2418 49.0418C46.203 49.2551 46.203 49.4684 46.203 49.6817C46.203 49.7787 46.1836 49.8757 46.1836 49.9726C45.2333 50.8647 45.0394 51.9896 45.02 53.1532C45.02 53.3859 45.02 53.6186 45.02 53.8707C44.0891 53.8513 43.1388 53.8319 42.2079 53.8125C42.2079 53.8125 42.1885 53.6573 42.1692 53.5603C42.1498 53.347 42.1304 53.1338 42.1692 52.901C42.1692 52.901 42.1692 52.901 42.1692 52.8816C42.1692 52.8816 42.1692 52.8816 42.1498 52.8816C41.8201 52.8816 41.4904 52.9011 41.1607 52.9205C41.1025 52.6102 41.0831 52.3192 41.0831 52.0089C40.288 51.4271 39.4929 50.8454 39.2408 49.7982C38.7366 49.3133 38.2129 48.8285 37.7087 48.3437C32.1622 48.5376 26.5576 47.626 21.3795 45.6091C16.5118 43.6892 12.0514 40.7802 8.25031 37.1537C8.23091 37.1925 8.2503 37.2313 8.21151 37.2701C7.94 37.7549 7.93999 38.3754 7.80424 38.9378C7.80424 39.2675 7.72666 39.5972 7.59091 39.8881C7.84302 40.4893 8.13393 41.0518 8.32787 41.6724C8.54119 42.3511 8.32786 42.9329 7.74606 43.3596C7.18366 43.7668 6.52429 43.8638 5.96188 43.4759C5.3219 43.0105 4.83709 42.3316 4.15832 41.9244C3.82863 41.7304 3.24682 41.9438 2.78138 41.9826C2.78138 42.9717 2.78139 43.9608 2.72321 44.9304C2.68442 45.3959 2.54868 45.9776 1.88931 45.9388C1.42387 45.9194 0.880834 45.8418 0.531754 45.5897C0.376608 45.454 0.260265 45.3183 0.124512 45.1631C0.279658 48.6345 0.551158 52.1059 0.997204 55.5579C1.26871 57.5942 1.6178 59.6693 2.70382 61.4147C3.98378 63.451 6.15583 64.7697 8.30848 65.8557C16.3567 69.8895 25.5103 71.6931 34.5088 71.0725C34.47 70.5877 34.567 70.1222 35.0518 69.715C35.0324 68.435 34.8191 67.1552 35.3039 65.914C35.4785 65.1964 36.0021 64.9055 36.6808 64.828C37.3014 64.7504 37.8251 64.537 38.1936 64.0134C38.2129 63.9746 38.2517 63.9552 38.2711 63.9164C38.5426 63.7031 38.7947 63.5092 39.0662 63.3152C39.1438 63.257 39.2214 63.1988 39.299 63.1406C39.842 63.5285 40.4044 64.0521 40.1329 64.7309C39.3572 66.6314 39.1438 68.5514 39.2408 70.5489C41.5292 70.1804 43.7982 69.6568 46.0284 68.9974C45.7763 68.7647 45.5242 68.435 45.1169 67.892C46.1254 67.1357 46.1448 66.0497 46.1836 64.9443V64.983C47.1339 64.6533 48.0647 64.7115 49.015 64.9636C48.9762 65.9139 48.9374 66.8642 48.8986 67.8145C48.7047 67.989 48.4914 68.1636 48.2974 68.3381C54.7166 66.2049 60.8449 63.0825 66.6435 59.5529C71.9379 56.3142 77.1546 52.6683 83.1666 51.1944C89.1785 49.7205 96.3928 50.9811 100 56.0233C99.7285 54.2004 99.457 52.3774 99.1854 50.5544C99.0303 50.3605 98.8946 50.1278 98.8558 49.7593L98.8945 49.7011ZM50.0041 61.7832C49.1508 61.7444 48.5302 61.4147 47.9678 60.6972C47.6575 60.2899 47.0369 60.1153 46.5133 59.8826C46.4551 59.8632 46.3969 59.8244 46.3387 59.805C46.4745 57.4197 46.4939 57.4003 49.112 56.9349C49.1507 57.0318 49.1701 57.1482 49.1701 57.2451C49.3253 58.2342 48.9568 59.3784 49.9459 60.1541C49.9071 60.4256 49.9459 60.6778 50.0816 60.9105C50.004 61.2014 49.9847 61.4922 50.0234 61.8025L50.0041 61.7832ZM51.9046 51.3108C51.2258 52.1835 50.0816 51.6792 49.1507 51.7568L48.7241 51.6987C48.6465 51.369 48.5108 51.0781 48.2974 50.8259C48.472 50.1278 48.6659 49.4296 48.8405 48.7314C48.918 48.4599 48.9762 48.1885 49.0538 47.9169C49.9459 47.5291 50.9155 47.0249 51.6137 48.1691C52.2149 49.1387 52.7385 50.3023 51.924 51.3302L51.9046 51.3108ZM58.5371 53.9871C58.1686 54.3555 57.6062 54.278 57.2765 53.8901C56.1323 52.552 56.5202 50.5351 58.0135 49.7593C58.6534 49.4296 59.9722 49.9532 60.0498 51.0392C60.0498 51.9313 59.468 53.0562 58.5371 53.9871ZM65.7126 45.357C65.4799 46.0164 65.2472 46.6758 64.9951 47.3352C64.9369 47.5097 64.8593 47.6842 64.8011 47.8781C64.4326 48.169 64.0642 48.4793 63.6763 48.7314C63.2497 49.0029 62.5709 49.0029 62.4545 48.5957C62.0473 47.2187 60.9419 45.8418 62.0861 44.3485C62.1055 44.3097 62.1248 44.271 62.1636 44.2322C63.5793 43.7086 64.8981 43.631 65.8096 45.1437C65.7902 45.2213 65.7514 45.2989 65.732 45.3764L65.7126 45.357ZM71.7052 44.5425C70.9682 45.4152 70.464 44.5619 69.9985 44.0189C70.3088 43.631 70.6191 43.2432 70.9294 42.8747C71.6082 43.2626 72.3645 43.7668 71.6857 44.5619L71.7052 44.5425ZM78.8419 41.8857C77.7946 42.0214 76.6698 42.002 75.9717 43.0298H75.9329C75.2929 42.6807 74.6529 42.3123 74.0129 41.9438C74.0711 41.7111 74.0905 41.4784 74.0905 41.2457C74.4396 40.8966 74.8081 40.5475 75.1572 40.179C75.739 39.9657 76.3401 39.7912 76.9219 39.5584C77.6783 39.2675 78.454 39.0542 79.0552 39.7523C79.6952 40.4893 79.1328 41.1875 78.8613 41.8857H78.8419ZM97.2073 47.5096C96.9358 47.5872 96.5674 47.7231 96.3734 47.6067C95.7722 47.2382 95.8692 46.5788 95.8304 45.997C96.2958 46.3655 96.7613 46.7146 97.1879 47.1219C97.2655 47.1801 97.2267 47.5096 97.1879 47.5096H97.2073Z" fill="#355442"/>
</svg>
