<svg width="100" height="100" viewBox="0 0 100 100" fill="none" xmlns="http://www.w3.org/2000/svg">
<path d="M74.9185 75.3197C74.4057 75.0626 74.128 74.6983 73.9784 74.2698C73.8716 74.2698 73.7648 74.2698 73.658 74.2484C73.658 74.2484 73.658 74.2269 73.658 74.2055C73.6153 73.4556 73.5725 72.7272 73.5298 71.9988C73.5298 71.7417 73.5084 71.5059 73.4871 71.2488C73.5725 71.2488 73.6366 71.2488 73.7221 71.2488C73.6794 70.8632 73.6366 70.4775 73.5939 70.0919C72.0343 69.2135 71.5002 67.9922 71.4788 66.5996C71.4788 65.9568 71.5643 65.2711 71.7352 64.5427C71.6711 64.157 71.607 63.75 71.5429 63.3643C71.842 62.9358 72.1411 62.5288 72.4402 62.1003C72.312 61.8861 72.3121 61.6504 72.3975 61.4361C70.8593 58.9936 70.902 58.9935 72.6752 57.1724C72.9102 56.9367 73.0811 56.6796 73.2734 56.4011C73.0598 55.9726 72.8248 55.5227 72.6111 55.0942C71.6925 53.1874 71.5002 52.7589 72.4189 52.3304C72.4189 51.7305 72.4189 51.109 72.547 50.4877C71.7779 49.8878 71.4575 49.0951 71.5002 48.1095C71.3293 47.7667 71.137 47.4454 70.9661 47.1026C70.3038 47.1026 69.6202 47.1026 68.9579 47.1026C69.3424 46.5884 69.6201 46.2884 69.8338 46.1385C70.0261 46.0099 70.197 46.0099 70.3893 46.1385C70.432 46.1599 70.4747 46.2241 70.5175 46.267C70.4534 46.1599 70.3893 46.0312 70.3465 45.9241C70.2611 45.6884 70.1756 45.4529 70.0902 45.2172C69.8552 44.5316 69.6415 43.8459 69.5133 43.1389C69.3638 42.3247 69.3211 41.4892 69.5133 40.6321C69.5133 40.5679 69.5561 40.5035 69.5774 40.4393C69.7697 39.7322 70.1115 39.1967 70.6243 38.7896C70.8807 38.5753 71.1584 38.3825 71.5002 38.254C71.607 38.8539 72.0129 39.1966 72.547 39.3894C72.6752 40.7178 72.8034 42.0461 72.9316 43.3745C73.4444 43.6959 73.6794 44.1673 73.658 44.7886C73.9357 45.0458 74.0425 45.3457 73.9571 45.7314C74.4912 45.9885 74.7476 46.4169 74.7689 47.0168L74.8116 47.0812C76.0508 47.6382 76.6917 48.6238 76.7985 49.9308C76.8626 50.5307 76.884 51.152 76.9053 51.7519C76.9481 51.7519 76.9481 51.7733 76.9908 51.7948C77.0549 52.4804 77.4608 52.8017 78.1017 52.8231C79.1272 54.0872 79.4477 55.3513 78.6572 56.6154C78.8708 57.0011 79.0845 57.4081 79.2981 57.7938C79.6827 58.2009 80.0672 58.608 80.4518 59.0151C80.409 59.165 80.3877 59.315 80.3877 59.4864C80.3022 60.2577 80.2809 61.0504 79.3195 61.3718V61.4361C78.9136 61.7361 78.4863 61.9931 78.0804 62.3145C76.5421 63.5786 76.5421 63.9 78.0804 65.9568C78.4222 65.8497 78.764 65.7211 79.1272 65.6139C79.469 65.0997 79.939 64.8426 80.4518 64.6712C80.3022 64.6284 80.1313 64.5856 79.9818 64.5214C79.9818 64.2214 79.9177 63.9429 79.7681 63.6858C80.5159 62.1217 82.0114 62.5502 83.2719 62.3788C83.5496 62.5074 83.8273 62.5502 84.1051 62.5502C84.1051 63.2358 84.1264 63.9214 84.1478 64.607C83.5069 64.8427 82.8659 64.9498 82.225 64.9498C82.225 65.5068 82.2464 66.0639 82.2677 66.621C81.9686 66.621 81.6696 66.7281 81.4132 66.8781C81.4132 67.2209 81.4132 67.5423 81.3277 67.8637C81.285 69.0849 81.8405 70.049 82.5668 70.9703C82.8018 70.9703 83.0155 70.9703 83.2505 70.9917C87.0961 67.5637 90.2793 63.3858 92.5653 58.4794C93.2916 56.894 93.9967 55.3084 94.6803 53.7015C94.1248 53.5087 93.6335 53.0803 93.1207 52.7375C92.8857 52.5875 92.7148 52.1375 92.7148 51.8375C92.7362 51.2376 93.1848 50.9376 93.783 50.8948C94.3171 50.8519 94.8512 50.8735 95.3853 50.852C95.4708 50.9806 95.5562 51.1091 95.6417 51.2591C96.5604 48.9238 97.3722 46.5455 98.0559 44.1459C97.714 44.1459 97.3936 44.1459 97.0517 44.1459C95.2144 44.253 94.1889 43.2032 93.1848 41.9605C93.5053 38.9181 93.5908 38.811 96.6031 38.6611C96.8808 39.2395 97.3295 39.4966 97.8422 39.6465C98.0558 39.7108 98.2695 39.7537 98.5045 39.7965C98.6327 39.8179 98.7609 39.8394 98.8891 39.8609C98.8891 39.8609 99.06 39.8608 99.1454 39.8394C99.5086 38.1897 99.7864 36.5399 100 34.8687C99.4873 34.4617 99.1027 33.8618 98.7822 33.1547C98.7609 32.7905 98.7182 32.4263 98.6968 32.062C98.7822 30.7979 98.7395 29.5981 97.8209 28.5911C97.9063 28.2269 97.9918 27.8841 98.0772 27.5199C97.9704 27.3913 97.8636 27.2842 97.7781 27.1342C97.6927 27.0057 97.6286 26.8557 97.5645 26.7057H97.0731L96.8595 26.6201L96.6245 26.5128C96.3254 26.5128 96.0263 26.5557 95.7272 26.5772C95.6631 26.5772 95.599 26.5772 95.5349 26.5772C95.5349 26.6629 95.5349 26.7271 95.5349 26.8128C95.5349 27.8198 95.6631 28.8483 94.894 29.5768C94.7444 29.7053 94.5949 29.8338 94.3812 29.9409L94.3171 29.8766C94.1676 29.3624 93.8471 29.0625 93.313 29.0197C92.9712 28.8911 92.608 28.7411 92.2662 28.6126C92.2662 28.6126 92.2875 28.5269 92.3089 28.484C92.843 26.6629 92.9284 26.62 95.4708 26.5343C95.4708 26.2343 95.4067 25.9344 95.3213 25.6344C94.2317 24.6703 94.4239 23.3633 94.3385 22.1207C96.1117 20.7066 97.885 20.4924 99.7009 21.2208C99.4445 19.8282 99.1454 18.4355 98.7395 17.0214C93.2489 17.0643 87.801 18.0071 82.5882 19.7639C80.409 20.5138 78.3154 21.3066 76.2858 22.2065C75.8585 23.342 75.3244 23.5134 73.8503 23.3848C68.0392 26.3629 62.805 30.5408 57.8485 37.6754C57.6135 38.0182 57.4212 38.361 57.1862 38.7038C57.9126 38.7038 58.639 38.6825 59.3654 38.6611C59.3654 38.6611 59.3654 38.8325 59.3654 38.9396C59.3654 39.5181 59.3654 40.0965 59.3654 40.6536C59.109 40.6536 58.8526 40.6107 58.5962 40.6107C57.8699 40.5678 57.1649 40.5036 56.4385 40.4607C56.4385 40.4393 56.4385 40.3965 56.4385 40.375C56.4385 40.2036 56.4385 40.0323 56.4385 39.8609C53.7039 44.2102 51.5461 48.7737 50.0506 53.4659C48.2987 48.0667 45.7991 42.7532 42.5945 37.654C35.6298 26.5986 24.7554 20.5566 13.1974 18.1998C14.287 18.6497 15.2056 19.9781 14.7997 21.028C14.6502 21.4136 14.0092 21.885 13.6247 21.8636C12.236 21.7993 11.1892 20.2567 11.4456 18.7998C11.4883 18.5213 11.8728 18.3069 12.0865 18.0713C12.1933 18.0498 12.3215 18.0713 12.4283 18.0713C8.88184 17.3857 5.29266 17.0429 1.70348 17C1.34029 18.2427 1.06258 19.4854 0.82757 20.7281C1.38304 20.6638 1.9385 20.6209 2.49397 20.6852C2.66489 20.6852 2.77171 21.1994 2.96399 21.6065C2.57943 21.9064 2.2376 22.3564 1.78895 22.4635C1.31894 22.5707 0.913005 22.4635 0.571178 22.185C-0.945677 31.6978 0.742093 41.0392 3.47671 49.8664C5.37812 55.9941 8.41184 61.3718 12.3001 65.8925C12.4924 65.1855 12.706 64.4999 12.8983 63.8143C13.0051 63.4286 13.1974 63.1715 13.4324 62.9787C13.4538 62.9787 13.4751 62.9572 13.4965 62.9358C13.9879 62.5501 14.6502 62.4431 15.3125 62.3574H15.3338C15.6329 63.5144 16.5516 64.0713 17.4275 64.6712C16.6798 67.8636 16.5729 68.2707 14.2656 68.0565C17.5343 71.3988 21.2731 74.2056 25.3964 76.4338C25.8023 76.0696 26.3364 75.8553 26.9346 75.8338C27.1055 75.8338 27.255 75.941 27.4259 76.0267C27.49 73.9913 27.5755 73.9484 30.5451 73.5413C30.5451 73.5413 30.5451 73.5842 30.5451 73.6057C30.7374 75.384 30.7374 77.1408 30.5878 78.9191C35.3734 80.8259 40.5222 82.0257 45.8632 82.4971C45.5428 82.0257 45.2009 81.5544 44.8805 81.0831C44.2823 80.9974 43.6841 80.8902 43.0859 80.8045C43.0574 79.1334 43.7126 78.3835 45.0514 78.5549C45.7564 78.6406 46.4614 78.7478 47.1664 78.8549C47.2091 79.0906 47.2305 79.3261 47.2519 79.5618C47.2519 79.6689 47.2946 79.7761 47.2946 79.8833V79.9261C47.9142 80.1833 48.4696 80.5903 49.0465 80.9545C49.2815 80.0118 50.0079 79.4975 50.8838 79.2618C51.6315 79.0476 52.4647 79.9475 52.5502 81.3616C52.5075 81.4902 52.4647 81.7043 52.4007 81.9614C52.4861 81.9614 52.5716 81.9615 52.657 81.9187C53.2125 81.1045 54.1098 81.1045 54.9643 80.9545C54.9643 81.6616 55.3489 82.0258 56.0112 82.1329C56.0539 82.1972 56.0966 82.2614 56.118 82.3471C60.0276 81.8972 63.8518 81.0831 67.4624 79.8618C67.2701 79.3262 67.5478 78.5764 67.6119 77.9122C67.2701 77.1837 66.9283 76.4552 66.5865 75.7267C66.1164 75.6625 65.6251 75.6197 65.1551 75.4911C66.1378 76.241 66.971 77.1194 66.8642 78.6834C63.7023 80.6117 62.9973 80.3974 61.3309 76.8837C60.5404 76.2409 60.3481 75.3625 60.4122 74.4198C60.0918 74.3984 59.7499 74.3555 59.4295 74.3126C59.1517 73.627 58.7244 72.9843 58.5108 72.2773C58.404 71.8917 58.3399 71.4846 58.4253 71.0561C58.2758 70.7132 58.2758 70.3918 58.4253 70.049C58.4253 69.9204 58.3826 69.7919 58.3826 69.6634C58.3612 69.4705 58.3399 69.2991 58.3185 69.1063C58.3185 69.042 58.3185 68.9564 58.2972 68.8921C58.7672 68.9992 59.2585 69.0849 59.6858 69.2992C59.9849 69.4491 60.2413 69.6634 60.4549 70.0062H60.4977C61.1386 70.1134 61.4804 70.4561 61.5018 71.0988C61.16 70.7346 60.8181 70.3704 60.4977 70.0276C60.8822 70.3489 61.2027 70.7132 61.5018 71.0988C61.6727 71.3345 61.7581 71.5917 61.7581 71.8917C62.0786 72.3416 62.3777 72.8129 62.6982 73.2628C62.9759 73.5842 63.2536 73.927 63.5314 74.2484C63.4886 74.0556 63.4673 73.8628 63.51 73.6057C63.7023 72.4916 64.5355 72.2559 65.5182 72.2773C65.8814 72.2773 66.2446 72.3415 66.5865 72.363C66.9924 72.7058 67.3769 73.0486 67.7828 73.4128C67.7828 73.7556 67.8256 74.0983 67.8469 74.4412C67.9538 74.4626 68.0606 74.5055 68.146 74.5484C68.5519 74.7198 68.8297 75.0196 68.9365 75.5124C69.5774 75.5981 69.8979 76.0266 70.1115 76.5837C70.3893 76.6908 70.6884 76.7551 70.9875 76.7551C71.3507 77.1622 71.7138 77.5907 72.077 77.9978C73.0384 77.5693 73.9785 77.0979 74.8971 76.6051C74.8544 76.1766 74.7903 75.7267 74.7476 75.2768L74.9185 75.3197ZM90.1297 28.8268C90.1297 28.8268 90.1297 28.8697 90.1297 28.8911C90.3861 31.2051 90.3861 33.519 90.0657 35.8329C89.9802 36.4971 89.6811 36.8613 89.2538 37.0327C88.9334 37.1613 88.5702 37.2041 88.1429 37.1827C87.1815 35.4473 86.9251 33.6046 86.9892 31.6335C87.0747 29.2553 86.9892 29.2553 90.1084 28.8268H90.1297ZM83.9769 42.8603C84.1264 42.796 84.2973 42.7104 84.4469 42.6461C84.7674 42.4961 85.0878 42.3461 85.4083 42.1961C85.4724 42.1747 85.5151 42.1534 85.5792 42.1319C85.6006 42.6461 85.6433 43.1603 85.686 43.653V43.953C85.0665 44.0173 84.4896 43.953 84.0623 43.5674C83.9128 43.4174 83.7846 43.246 83.6778 42.9889C83.7846 42.946 83.8914 42.9032 83.9982 42.8389L83.9769 42.8603ZM81.7977 24.2846C82.3105 24.0918 82.7591 24.3917 82.9941 24.9274C83.1223 25.5701 82.7805 25.9343 82.225 25.9772C81.9473 25.9986 81.52 25.8058 81.3918 25.5701C81.1141 25.0773 81.285 24.4989 81.7977 24.2846ZM72.953 35.5329C73.1452 35.1687 73.7221 34.8688 74.1921 34.7831C74.7476 34.676 75.1748 35.0402 75.1748 35.7044C74.9398 36.4971 74.4271 36.9256 73.6152 36.7327C73.0384 36.6042 72.718 36.0257 72.953 35.5329ZM20.0767 32.0406C21.3585 31.9549 22.4267 33.4119 21.8713 34.526C21.7217 34.8474 21.5294 35.1473 21.3158 35.4258C20.2903 36.7328 19.0084 37.2683 18.1966 36.6898C17.5984 36.2613 17.3634 35.5757 17.4702 34.8258C17.6839 33.1332 18.6239 32.1263 20.0767 32.0191V32.0406ZM14.8211 43.7388C15.1629 43.7817 15.5261 43.7388 15.8679 43.803C16.7439 43.953 17.0429 44.5316 16.8934 45.3457C16.8293 45.6243 16.5302 46.0527 16.2952 46.0741C15.4193 46.1812 15.0347 45.5814 14.8852 44.8101C14.8211 44.4673 14.8424 44.1245 14.8211 43.7603H14.7997L14.8211 43.7388ZM5.24994 26.0201C5.24994 26.0201 5.14311 25.9558 5.07902 25.913C5.44221 24.9703 5.82677 24.0276 6.18996 23.1063C6.38224 23.0849 6.55315 23.042 6.72407 22.9777C6.83089 22.9349 6.9377 22.9135 7.04452 22.8492C7.08724 22.485 7.10861 22.1422 7.10861 21.7779H7.0659L8.11273 20.6209C8.45455 20.4923 8.77502 20.2781 9.11684 20.2352C10.356 20.1067 11.061 20.7067 10.6337 21.5423C10.0782 22.6564 9.22366 23.6419 9.18093 24.9703C8.88183 25.0131 8.58274 25.0987 8.28364 25.163C8.28364 25.163 8.21954 25.2487 8.17682 25.313C6.93769 27.0699 6.80953 27.1128 5.22858 26.0201H5.24994ZM19.0725 63.7072C18.9444 63.7072 18.8162 63.7285 18.6666 63.75C18.3889 63.7928 18.1325 63.8143 17.8548 63.8572C16.573 62.8716 15.1629 61.886 14.7356 60.2576C13.8597 57.0438 11.766 54.5586 9.97143 51.8804C9.37323 51.7947 8.77501 51.6876 8.17682 51.6019C8.14833 49.9307 8.80353 49.1808 10.1423 49.3522C10.591 49.4165 11.0396 49.4807 11.4883 49.545C11.4883 49.4807 11.4669 49.3951 11.4669 49.3093C11.4242 48.9665 11.5524 48.6023 11.6164 48.2381C11.6805 48.2381 11.7233 48.2166 11.7874 48.1952C11.9155 48.1738 12.0438 48.131 12.1719 48.1095C12.2574 48.0881 12.3428 48.0668 12.4283 48.0453C12.7701 48.431 13.1119 48.838 13.4538 49.2237C13.4538 49.2451 13.4538 49.2879 13.4538 49.3093C13.4538 49.6093 13.4965 49.8879 13.582 50.1879C13.347 50.5307 13.0479 50.8091 12.7274 50.9377C13.8811 51.5376 14.9065 52.5231 16.1884 52.7802C16.2311 52.7802 16.2952 52.7802 16.3379 52.7802C16.5302 52.6088 17.0216 52.6303 17.4275 52.6089C17.4916 52.6089 17.5557 52.6089 17.5984 52.6089C17.5984 52.6518 17.5984 52.6946 17.5984 52.7375C17.6411 52.7375 17.6625 52.7375 17.6839 52.7375C18.2394 51.9233 19.1367 51.9233 19.9912 51.7733C19.9912 52.4803 20.3758 52.8445 21.038 52.9517C21.209 53.2731 21.3585 53.5944 21.5508 53.8944C25.5459 59.5078 25.1186 57.6438 22.1063 63.6858C21.0808 63.9214 20.034 64.2641 18.9871 63.7285L19.0725 63.7072ZM24.3495 67.3066C23.6445 68.5279 22.4054 69.4277 22.0849 70.8846C20.9312 71.0774 19.9699 70.7132 19.1794 69.899C19.4144 69.042 19.7562 68.2064 19.863 67.3494C20.1194 65.0783 20.6108 64.4571 22.4694 64.3928C24.0931 64.3285 25.1613 65.9354 24.3495 67.3066ZM28.2164 65.3997C27.4473 65.3997 26.9559 64.7141 26.9987 63.9C27.0414 62.9787 27.7464 62.7215 28.5155 62.8072C29.071 62.8715 29.4983 63.2358 29.4983 63.9214C29.4128 64.6713 28.9855 65.3783 28.2378 65.3997H28.2164ZM26.4218 47.681C25.61 47.0382 25.4391 46.1599 25.5032 45.1957C25.1827 45.1743 24.8409 45.1315 24.5204 45.0886C24.2427 44.403 23.8154 43.7602 23.6017 43.0532C23.4949 42.6676 23.4308 42.2605 23.5163 41.8319C23.3668 41.4891 23.3668 41.1678 23.5163 40.825C23.5163 40.6965 23.4736 40.5678 23.4736 40.4393C23.4522 40.2464 23.4308 40.0751 23.4095 39.8823C23.4095 39.818 23.4095 39.7323 23.3881 39.668C23.8581 39.7751 24.3495 39.8608 24.7768 40.0751C25.0759 40.225 25.3322 40.4393 25.5459 40.7821H25.5886C26.2295 40.8893 26.5714 41.2321 26.5927 41.8748C26.2509 41.5106 25.9091 41.1464 25.5886 40.8036C25.9732 41.125 26.2936 41.4892 26.5927 41.8748C26.7637 42.1105 26.8491 42.3676 26.8491 42.6676C27.1696 43.1175 27.4687 43.5675 27.7891 44.0388C28.1096 44.4245 28.43 44.7886 28.7505 45.1743C30.246 46.3098 32.1261 47.124 31.9765 49.4808C28.8146 51.4091 28.1096 51.1948 26.4432 47.681H26.4218ZM40.7785 62.7859H40.8213V62.8072C41.4408 62.8715 41.7613 63.2787 41.9108 63.8572C42.6372 64.7142 43.0432 65.6355 42.4877 66.771C42.445 66.8567 42.3808 66.9209 42.3381 67.0066C42.5731 67.2423 42.744 67.5209 42.68 67.9494C43.385 69.0206 43.3209 70.0704 42.6372 71.1203C41.6758 72.77 41.3981 74.4626 42.2313 76.2409C42.7868 77.4193 42.979 78.6406 42.7013 79.9047C40.9494 80.2261 40.1163 79.1334 39.4753 77.7622L39.3899 76.6695C39.4753 75.4054 39.4326 74.2056 38.514 73.1986C38.5994 72.8344 38.6849 72.4915 38.7703 72.1273C38.6635 72.0202 38.5567 71.8917 38.4712 71.7417C38.3858 71.6131 38.3217 71.4631 38.2576 71.3131H37.7662L37.5525 71.2274L37.3176 71.1203C37.0185 71.1203 36.7193 71.1632 36.4202 71.1846C36.3561 71.1846 36.2921 71.1846 36.228 71.1846C36.228 71.2703 36.228 71.3345 36.228 71.4202C36.228 72.4058 36.3562 73.4556 35.5657 74.1841C35.4375 74.2912 35.288 74.3984 35.1384 74.5055C35.2025 74.8054 35.2239 75.1697 35.2452 75.7482C33.8352 75.7482 33.0661 75.1696 33.2156 73.6699C33.9634 73.7127 34.3693 73.777 34.647 73.9055C34.4761 73.7555 34.2625 73.6485 33.9847 73.6271C33.6429 73.4986 33.2797 73.3486 32.9379 73.22C32.9379 73.22 32.9592 73.1343 32.9806 73.0915C33.5147 71.2703 33.6002 71.2274 36.1425 71.1417C36.1425 70.8418 36.0784 70.5418 35.993 70.2419C34.9888 69.342 35.0743 68.1422 35.0316 66.9852C34.8179 66.9852 34.5829 66.9852 34.3693 66.9852C34.0061 66.6424 33.4079 66.3425 33.3438 65.9568C33.1516 64.9284 33.5574 63.6429 33.0874 62.8501C31.2715 59.7649 33.3224 58.565 35.4589 57.3009C35.822 56.9153 36.1639 56.5297 36.5271 56.1226C36.8689 56.1226 37.2107 56.1012 37.5739 56.0584C37.5739 55.9941 37.5953 55.9512 37.6167 55.8869C37.6808 55.6512 37.7448 55.4155 37.7875 55.1584C37.9371 55.1584 38.0867 55.1584 38.2362 55.1584C38.7276 55.1584 39.1976 55.1156 39.689 55.0942H39.7317C39.7317 55.0942 39.7744 55.2014 39.7958 55.2656C40.1376 56.0798 40.7785 56.2726 41.5263 56.1869C41.6758 56.1869 41.804 56.144 41.9536 56.1226C41.9536 56.1226 41.9963 56.1226 41.9749 56.1226C42.5518 57.0439 43.1072 57.9652 42.915 59.1007C42.915 59.165 42.9149 59.2079 42.8936 59.2722C43.0645 59.3579 43.2354 59.4649 43.4063 59.5935C43.2781 61.2432 41.4836 61.5432 40.7999 62.743L40.7785 62.7859ZM48.726 72.6844C46.8887 73.9485 45.0941 73.9484 43.3422 72.513C43.8123 69.7277 43.9832 69.4706 45.9059 69.2135C46.7819 69.1064 47.6792 69.1064 48.5551 69.0635C48.6619 69.2135 48.7474 69.3419 48.8115 69.4919C49.3456 70.5203 49.3028 71.5917 48.726 72.6629V72.6844ZM51.9306 62.9145C51.012 63.2573 51.0761 64.2 50.7129 64.8856C50.7342 65.5712 50.777 66.2781 50.777 66.9638C50.777 67.1137 50.777 67.2423 50.777 67.3708C50.777 68.3993 50.6274 68.6135 49.602 68.4207C49.3242 68.3778 48.9824 68.2922 48.5551 68.2065C48.9183 67.1138 49.1747 66.0211 48.5337 64.9285C46.8032 63.5144 45.7137 61.6718 45.1796 59.5078C45.1582 59.3364 45.1155 59.1436 45.0941 58.9722C45.0087 58.4794 44.9446 57.9866 44.8164 57.4938C44.4959 56.1655 44.4318 55.8655 45.3932 55.9084C45.6709 55.9084 46.0341 55.9512 46.5041 55.994C48.1705 57.4509 49.3242 59.4436 51.6529 60.2149C53.0202 60.6648 52.187 61.9717 51.9306 62.9358V62.9145ZM57.2717 61.2003C55.648 61.286 54.7934 60.6005 54.7293 59.1222C54.6866 58.1152 55.4344 57.2367 56.3103 57.3224C56.7803 57.4509 57.3144 57.6224 57.8271 57.7509C58.8526 58.008 60.2199 58.1366 59.8567 59.6363C59.579 60.7933 58.4253 61.1361 57.2717 61.2003ZM61.2881 42.689C61.1172 42.8604 60.9677 43.0318 60.7968 43.2032L60.5404 43.4603C59.8567 43.1175 59.344 42.5176 59.9636 41.8963C60.5831 41.275 61.1813 41.7463 61.5445 42.4319L61.2668 42.7103L61.2881 42.689ZM64.9414 67.0281H64.9201C64.2364 66.9424 63.4245 67.0281 62.9973 66.321C62.5913 65.6783 62.6341 64.9284 63.1682 64.3499C63.3605 64.1357 63.8091 64.0071 64.1082 64.0714C64.8773 64.1999 65.4328 64.6498 65.3687 65.4854C65.326 65.9996 65.0696 66.5139 64.9201 67.0066L64.9414 67.0281ZM64.9201 42.9032C64.9201 42.9032 64.9201 42.9032 64.9201 42.8818C64.9841 42.9675 65.0482 43.0317 65.1337 43.1174L64.9201 42.9032ZM66.5437 53.4016C66.0737 53.6588 65.5396 53.3373 65.3901 52.7588C65.2405 52.1803 65.5823 51.7519 66.0524 51.5162C66.6506 51.2163 66.971 51.5805 67.2274 52.2875C67.0565 52.5874 66.9069 53.1874 66.5437 53.3802V53.4016ZM67.2274 40.6963C67.2274 40.6963 67.206 40.7393 67.1847 40.7607C66.8428 40.7393 66.4796 40.7178 66.1378 40.6963C65.8173 40.3107 65.5182 39.9251 65.1978 39.5394C65.1978 39.518 65.155 39.4966 65.1337 39.4752C64.685 38.5325 63.7023 37.804 64.0441 36.5613C64.1509 36.5613 64.2791 36.5827 64.3859 36.5827C64.8773 36.6256 65.3687 36.6684 65.8601 36.7113C66.9496 37.8254 68.4238 38.8325 67.1847 40.675L67.2274 40.6963Z" fill="#355442"/>
</svg>
