<svg width="110" height="110" viewBox="0 0 110 110" fill="none" xmlns="http://www.w3.org/2000/svg">
<path d="M44.5972 8.93503C44.5972 8.93503 44.5972 8.90502 44.5872 8.89502C44.5172 8.98502 44.4572 9.06503 44.3872 9.15503C44.4572 9.08503 44.5272 9.01504 44.5972 8.94504V8.93503Z" fill="#355442"/>
<path d="M43.2172 105.185C43.2172 105.185 43.1272 105.155 43.0872 105.145C43.0172 105.125 42.9472 105.125 42.8972 105.115C42.9672 105.135 43.0572 105.145 43.1472 105.165C43.1772 105.165 43.1972 105.175 43.2272 105.185H43.2172Z" fill="#355442"/>
<path d="M26.3872 28.2749C26.3872 28.2749 26.3872 28.3249 26.3872 28.3449C26.4172 28.3449 26.4472 28.3249 26.4672 28.3149C26.4372 28.3049 26.4172 28.2849 26.3872 28.2749Z" fill="#355442"/>
<path d="M107.827 46.285C107.727 46.295 107.617 46.305 107.517 46.305C106.787 46.305 106.387 45.975 106.357 45.325C106.347 45.235 106.347 45.145 106.357 45.045C106.587 44.875 106.817 44.695 107.047 44.525H107.067C107.067 44.525 107.137 44.505 107.167 44.495C106.957 44.105 106.707 43.725 106.407 43.375C106.347 43.515 106.297 43.645 106.247 43.785C106.187 43.795 106.117 43.795 106.067 43.795C105.347 43.795 105.037 43.405 105.097 42.635C105.107 42.465 105.087 42.305 105.067 42.135L100.107 37.965C100.107 37.965 100.067 38.045 100.037 38.095C99.9773 38.895 100.067 39.735 99.3573 40.345L99.3373 40.365C98.8673 40.725 98.4173 40.915 98.0273 40.915C97.6373 40.915 97.2873 40.705 97.0573 40.275C96.7873 39.775 97.0573 39.385 97.5573 39.155C97.9373 38.445 97.4873 37.515 98.1373 36.875C98.1273 36.685 98.1573 36.515 98.2073 36.355L95.0473 33.695C95.0973 33.855 95.1473 34.005 95.2073 34.165C95.5573 35.255 95.5173 35.315 94.1273 35.835C92.8673 35.865 92.4673 34.795 91.8273 34.035C91.8473 33.465 91.8773 32.895 91.8973 32.325C92.5173 32.045 93.0473 32.225 93.5673 32.455L89.3873 28.935C89.3173 29.055 89.2273 29.155 89.1073 29.235C88.5673 29.575 87.9773 29.835 87.4073 30.125C87.1473 29.875 86.8773 29.615 86.6173 29.365C86.6373 29.215 86.6673 29.065 86.7073 28.915C87.4173 28.865 88.0973 28.765 88.3373 28.055L87.1973 27.095L86.9273 26.875C86.4773 27.025 86.2873 26.795 85.7173 26.065C85.6673 25.995 85.5673 25.965 85.4973 25.915C85.4573 25.795 85.4173 25.675 85.3773 25.555L60.4373 4.57503C60.1973 5.41503 59.6973 5.84502 59.1873 6.25502C58.6673 6.67502 57.9273 6.53501 57.4073 5.99501C56.8073 5.38501 57.0573 4.485 57.8373 4.175C58.5373 3.905 59.1973 4.17502 59.9873 4.19502L59.2173 3.545C56.7773 1.485 53.1973 1.485 50.7473 3.545L45.4373 8.02501C45.6373 8.02501 45.8473 8.04501 46.0573 8.11501C46.2573 8.08501 46.4473 8.05501 46.6473 8.02501C46.7573 8.13501 46.8173 8.275 46.8473 8.425C47.0073 8.635 47.3073 8.86502 47.3073 9.06502V9.08501C47.2373 10.505 47.4973 11.885 47.7373 13.265C47.7573 13.355 47.7273 13.455 47.7173 13.545C47.6673 13.965 47.4273 14.285 47.0273 14.305C46.8073 14.315 46.4573 14.095 46.3773 13.895C46.1673 13.385 45.9673 12.825 45.9573 12.285C45.9273 11.425 45.8373 10.605 45.4173 9.84502C44.9873 9.73502 44.6073 9.55501 44.3873 9.14501C44.2973 9.14501 44.2173 9.12503 44.1373 9.10503L40.9173 11.825C40.9173 11.895 40.8973 11.965 40.9073 12.035C40.6673 12.185 40.4273 12.345 40.1873 12.515C40.0673 12.595 39.9573 12.665 39.8373 12.735L22.7673 27.095L11.0473 36.965C11.1173 36.975 11.1773 36.995 11.2473 37.015C11.4573 37.395 11.6773 37.775 11.8873 38.155C11.6573 38.535 11.3673 38.645 11.0573 38.645C10.8073 38.645 10.5373 38.565 10.2673 38.505C10.4473 38.655 10.5973 38.775 10.7473 38.875C10.5873 38.805 10.4273 38.685 10.2673 38.505C10.2873 38.355 10.2573 38.215 10.1773 38.095C10.2073 37.915 10.2573 37.745 10.3173 37.575L4.35732 42.595C-0.342685 46.545 2.45731 54.205 8.59731 54.205H15.7373V83.245C15.8173 83.265 15.8973 83.275 15.9673 83.295C15.9773 83.365 15.9773 83.435 15.9773 83.505C15.9873 83.615 15.9973 83.725 15.9873 83.825C15.9873 83.825 16.0073 83.835 16.0373 83.845C16.1173 83.865 16.2573 83.905 16.2573 83.905H16.2973L16.5373 83.875C17.2173 84.435 17.7373 85.095 17.8173 86.015C17.9973 85.985 18.1673 86.015 18.3273 86.095C18.7173 85.895 19.0973 85.695 19.4773 85.495H19.6473C19.7673 85.495 19.8973 85.475 20.0173 85.435C20.0273 85.355 20.0273 85.275 20.0273 85.195C20.0273 84.875 19.9473 84.595 19.6273 84.395C19.6173 84.335 19.6173 84.285 19.6173 84.225C19.5973 83.955 19.5873 83.685 19.5673 83.415C19.5673 83.365 19.5673 83.325 19.5673 83.275C19.9373 83.245 20.3073 83.205 20.6773 83.175L20.6573 83.205V84.965C21.1173 84.925 21.5673 84.845 21.8573 84.435C22.0673 84.235 22.2673 84.045 22.4673 83.855C22.5373 83.845 22.6073 83.845 22.6773 83.835C22.7773 83.815 22.8773 83.795 22.9773 83.795C22.9973 83.685 23.0073 83.575 23.0073 83.465C23.0073 83.385 23.0073 83.305 22.9973 83.225H23.0073C23.3173 83.155 23.5073 82.955 23.5673 82.655H23.6473C24.1773 82.675 24.7173 82.685 25.2573 82.705C25.4673 82.715 25.6773 82.715 25.8873 82.725C26.2273 82.405 26.3273 82.045 26.3273 81.635C26.3273 81.485 26.3273 81.345 26.2973 81.185C26.1773 80.015 26.2273 80.015 27.6173 79.675C27.7573 79.785 27.9073 79.815 28.0773 79.785C29.3573 81.045 28.5273 82.395 28.2573 83.825C27.4773 84.015 26.6673 84.205 25.8573 84.385C25.2873 84.385 24.7173 84.385 24.1473 84.375C23.4073 84.975 22.6673 85.585 21.9273 86.185C21.5973 86.345 21.2773 86.615 20.9473 86.635C20.1373 86.685 19.8173 87.205 19.5173 87.815C19.7273 88.195 19.9273 88.585 20.1273 88.965C20.1473 89.255 20.1573 89.555 20.1773 89.845C20.1773 89.925 20.1873 90.005 20.1873 90.085H20.1773C20.2973 90.325 20.4773 90.555 20.5273 90.805C20.6473 91.525 20.6273 91.635 19.8473 91.815C19.7473 91.835 19.6273 91.865 19.4973 91.895C19.1473 91.325 18.5373 91.315 17.9873 91.185C17.3773 91.045 16.7173 90.965 16.2873 90.485C18.4673 100.155 27.0973 107.375 37.4273 107.375H40.0473C39.9373 107.215 39.8373 107.045 39.7873 106.835C39.3973 106.475 39.0073 106.105 38.6273 105.745C38.6173 105.665 38.5873 105.585 38.5773 105.505C38.5573 105.435 38.5473 105.355 38.5273 105.275C38.0473 105.035 37.9173 104.695 37.9173 104.315C37.9173 104.045 37.9873 103.755 38.0373 103.465C38.1173 103.475 38.1873 103.485 38.2573 103.495C38.4273 103.515 38.5873 103.535 38.7473 103.545C38.8773 103.565 38.9973 103.575 39.1173 103.595C39.1873 103.885 39.2473 104.175 39.3073 104.465C39.5973 104.635 39.8673 104.795 40.1573 104.795C40.3573 104.795 40.5673 104.725 40.7973 104.545C41.5773 103.915 42.4573 103.745 43.2673 104.565C43.6173 104.805 43.9673 105.045 44.3173 105.295C44.3173 105.455 44.2973 105.615 44.2573 105.755C44.1973 105.995 44.0873 106.215 43.8773 106.395C43.8573 106.525 43.8573 106.645 43.8573 106.775C43.8573 106.835 43.8373 106.885 43.8473 106.945C43.6973 107.075 43.5873 107.225 43.4973 107.375H45.0773C45.1873 106.975 45.2873 106.585 45.3873 106.195C45.4273 106.035 45.4673 105.875 45.5073 105.715C45.7973 105.595 46.0873 105.455 46.3573 105.455C46.5973 105.455 46.8173 105.565 46.9973 105.865C47.2873 106.325 47.5373 106.865 47.3573 107.375H72.5573C73.3173 107.375 74.0573 107.335 74.7873 107.265C74.6673 107.145 74.5873 106.995 74.5573 106.765C74.4973 106.285 74.9273 105.885 75.4673 105.915C76.0273 105.945 76.3273 106.245 76.2273 106.845C76.2173 106.915 76.2073 106.995 76.1973 107.065C86.4373 105.335 94.2373 96.425 94.2373 85.695V80.385C93.9973 80.585 93.7673 80.485 93.1473 80.225C93.3073 79.685 93.6573 79.325 94.1873 79.135H94.1973C94.1973 79.135 94.2273 79.195 94.2373 79.235V54.205H101.387C103.117 54.205 104.567 53.585 105.667 52.625C105.367 52.555 105.147 52.395 105.067 52.075C104.747 52.005 104.567 51.805 104.497 51.495C104.017 51.425 103.587 51.245 103.277 50.845C102.967 50.445 102.817 50.015 103.077 49.515C103.277 49.145 103.617 48.975 104.017 48.985C104.777 48.985 105.547 49.225 106.307 48.975C106.447 48.995 106.577 49.025 106.687 49.065C107.167 49.235 107.407 49.575 107.507 50.005C107.967 48.835 108.087 47.545 107.837 46.285H107.827ZM9.36729 48.825C9.24729 48.825 9.1173 48.695 8.9973 48.525C8.4173 48.305 8.45732 47.835 8.51732 47.355C8.84732 47.395 9.1673 47.425 9.4973 47.455C9.5473 47.805 9.59731 48.145 9.63731 48.485C9.55731 48.735 9.45729 48.825 9.36729 48.825ZM14.3473 42.595C14.3473 42.535 14.3573 42.475 14.3673 42.425C14.3973 42.345 14.4473 42.275 14.5173 42.225C14.5973 42.155 14.6873 42.105 14.8073 42.065C14.8973 42.205 14.9773 42.345 15.0673 42.485C14.8273 42.545 14.5873 42.605 14.3473 42.675V42.595ZM11.6773 47.375C12.0173 47.175 12.4273 47.225 12.7373 47.505C13.0773 47.825 13.0173 48.195 12.7973 48.535C12.3473 49.225 11.6873 49.565 10.8573 49.585C10.5573 48.635 10.8273 47.875 11.6773 47.375ZM15.4173 52.495C14.3973 52.695 13.4373 52.595 12.5573 51.985C12.1273 51.695 12.0573 51.265 11.9873 50.825C12.3473 50.595 12.6973 50.365 13.0373 50.365C13.3273 50.365 13.6073 50.535 13.8673 50.995C14.0573 51.335 14.5073 51.345 14.8973 51.285C15.2873 51.495 15.4473 51.805 15.4473 52.175C15.4473 52.275 15.4373 52.385 15.4173 52.495ZM16.3873 41.175C16.4773 41.085 16.5573 40.985 16.6473 40.885L16.6773 40.905C16.5773 40.995 16.4873 41.085 16.3873 41.175ZM17.9473 32.575C18.2573 32.245 18.8173 32.345 19.1173 32.795C19.4973 33.375 19.0073 33.595 18.6273 33.835C18.5473 33.885 18.4573 33.915 18.3773 33.955H18.3673C18.3173 33.895 18.2673 33.815 18.2073 33.745C17.9173 33.395 17.5173 33.065 17.9473 32.575ZM19.4673 82.555C19.3373 82.555 19.1973 82.535 19.0673 82.525C18.6873 82.495 18.3073 82.475 17.9273 82.445V82.405C17.9273 82.185 17.9373 81.975 17.9373 81.755C17.9373 81.675 17.9373 81.605 17.9473 81.525C18.4573 81.515 18.9573 81.505 19.4673 81.495V82.555ZM19.2473 43.115C18.8773 43.275 18.5573 42.965 18.3573 42.615C18.3373 42.225 18.3073 41.845 18.2873 41.455C18.5373 41.165 18.8273 40.945 19.1373 40.945C19.3173 40.945 19.5073 41.025 19.6973 41.225C20.2173 41.765 19.9673 42.805 19.2473 43.115ZM22.3673 96.475H22.3473C21.9873 96.425 21.5573 96.465 21.3373 96.105C21.1273 95.755 21.1473 95.365 21.4373 95.065C21.5373 94.955 21.7773 94.895 21.9273 94.915C22.3373 94.985 22.6373 95.215 22.5973 95.665C22.5773 95.935 22.4473 96.205 22.3673 96.475ZM23.2173 89.285C22.9673 89.425 22.6773 89.255 22.5973 88.955C22.5273 88.655 22.7073 88.425 22.9573 88.305C23.2673 88.145 23.4473 88.335 23.5773 88.715C23.4873 88.875 23.4073 89.185 23.2173 89.285ZM85.1873 30.785C85.5573 30.855 85.8573 31.185 85.8973 31.565C85.9573 32.275 85.3773 32.185 84.9373 32.265C84.7573 32.055 84.5673 31.845 84.3773 31.635C84.4473 31.155 84.5473 30.645 85.1873 30.785ZM85.9473 41.005C86.0173 41.175 86.0673 41.345 86.0773 41.545C85.8173 41.655 85.5773 41.795 85.3073 41.885C85.0173 41.975 84.6773 41.925 84.5973 41.635C84.5373 41.425 84.6573 41.095 84.8073 40.895C84.9673 40.685 85.2573 40.575 85.4873 40.425C85.5973 40.515 85.6873 40.605 85.7673 40.705C85.8473 40.805 85.8973 40.905 85.9473 41.005ZM79.9373 37.005C79.9973 37.005 80.0573 36.995 80.1073 36.995C80.6973 36.995 81.1673 37.375 81.7073 37.545C81.7773 37.565 81.8373 37.585 81.9073 37.595C81.6873 38.315 81.3873 38.675 81.0073 38.675C80.8473 38.675 80.6673 38.605 80.4673 38.475C80.0773 38.215 79.8973 37.865 79.8373 37.455C79.8173 37.315 79.8073 37.175 79.8073 37.025C79.8473 37.015 79.8973 37.015 79.9373 37.005ZM77.4873 34.095C77.9773 34.305 78.4773 34.515 78.9773 34.725C78.9873 34.735 78.9973 34.735 79.0173 34.745C79.0173 34.995 79.0273 35.245 79.0373 35.495V35.685C77.3773 35.775 77.2873 35.685 77.4873 34.095ZM73.7873 22.605C73.8173 22.685 73.8673 22.745 73.9173 22.815C74.3573 23.425 75.2973 23.505 75.5873 24.285C76.2373 24.665 76.3273 25.255 76.2273 25.915C76.3573 25.905 76.4773 25.925 76.5973 25.955C76.6273 25.965 76.6573 25.965 76.6773 25.975C76.5873 26.775 76.9273 27.655 76.4873 28.385C76.4073 28.525 76.3173 28.655 76.1673 28.775C75.7173 28.595 75.2373 28.445 74.8273 28.215C74.4173 27.975 74.0773 27.635 73.9173 27.075C73.2673 26.585 72.9073 25.905 73.0173 25.125C73.1173 24.465 73.0573 23.845 72.9873 23.195C72.9373 22.725 73.4473 22.715 73.7873 22.605ZM69.4573 33.075C69.9573 32.455 70.6373 32.065 71.4073 31.965C72.1473 31.865 72.6273 32.395 73.0673 32.925C73.4573 33.385 73.1073 34.165 73.6573 34.545C73.7073 34.585 73.7673 34.625 73.8373 34.655H73.8173C73.8173 34.655 73.8173 34.745 73.8173 34.785C73.8173 35.155 73.9173 35.655 73.5173 35.595C73.2473 35.555 72.9773 35.505 72.7173 35.445C71.5973 35.205 70.5273 34.785 69.5873 34.085C69.2473 33.845 69.1873 33.425 69.4673 33.075H69.4573ZM69.2573 38.725C69.4673 39.095 69.6773 39.475 69.8873 39.845C69.6573 39.965 69.4173 40.185 69.1873 40.175C68.4873 40.155 68.0873 39.755 68.1973 39.225C68.3173 38.635 68.8073 38.695 69.2573 38.725ZM62.7073 50.365C62.9673 50.255 63.2173 50.425 63.3373 50.705C63.4073 51.035 63.2273 51.225 62.9273 51.255C62.7873 51.275 62.5573 51.165 62.4873 51.045C62.3473 50.775 62.4273 50.465 62.7073 50.365ZM56.7873 46.225C57.2073 46.225 57.6273 46.715 57.5973 47.155C57.5673 47.645 57.1273 47.985 56.6473 47.905C56.2173 47.835 56.0373 47.535 55.9873 47.145C55.9273 46.705 56.3773 46.215 56.7873 46.225ZM53.5473 9.93501C53.8973 9.83501 54.0773 10.085 54.1873 10.335C54.5973 11.285 54.9873 12.235 55.3873 13.185H55.3973C55.7573 13.185 55.9573 13.365 56.0173 13.725C56.2673 14.375 56.0273 15.015 55.9773 15.665C55.9373 16.185 56.2773 16.905 55.5873 17.145C54.7673 17.445 54.5473 16.585 54.1273 16.135C53.5973 15.765 53.6473 15.175 53.5573 14.625C53.3473 13.355 53.6873 12.025 53.0673 10.795C52.9073 10.465 53.1173 10.065 53.5473 9.93501ZM50.6973 37.055C51.0473 37.025 51.4473 37.065 51.7673 37.205C51.9673 37.295 52.1173 37.605 52.1873 37.845C52.2173 37.955 52.0273 38.185 51.8873 38.275C51.5773 38.465 51.2373 38.585 51.0873 38.655C50.4673 38.635 50.1673 38.445 50.0073 38.065C49.8473 37.705 50.2173 37.105 50.6973 37.055ZM43.5173 17.915C43.7573 17.425 44.2273 17.295 44.7373 17.465C45.0073 17.555 45.2473 17.725 45.4973 17.855C45.4973 17.965 45.4973 18.065 45.4973 18.175C45.5073 18.245 45.5073 18.315 45.5073 18.385C45.5173 18.815 45.4473 19.145 45.1573 19.215C45.0173 19.245 44.8473 19.225 44.6073 19.135C44.3673 19.035 44.0973 18.995 43.8473 18.925C43.6873 18.685 43.4473 18.445 43.4473 18.155C43.4473 18.085 43.4673 17.995 43.5073 17.915H43.5173ZM41.6373 26.505C41.8273 25.595 42.0273 24.685 42.2173 23.775C42.2473 23.765 42.2673 23.745 42.2873 23.735C42.3973 23.695 42.4973 23.645 42.5973 23.585C42.7173 22.815 42.5473 21.825 43.9373 22.105C44.0973 22.135 44.2473 22.095 44.3873 22.005C44.6273 21.865 44.8373 21.585 44.9973 21.335C45.9273 21.585 46.1573 21.685 46.1573 22.295C46.1573 22.485 46.1373 22.715 46.1073 23.015C45.8573 23.185 45.6073 23.345 45.3673 23.505C44.8073 23.885 44.2673 24.285 43.8873 24.875C43.8473 25.585 43.8173 26.295 43.7773 27.015C43.7673 27.015 43.7573 27.025 43.7573 27.025C43.6373 27.165 43.5273 27.295 43.4073 27.435C43.0473 27.845 42.6873 28.445 42.0573 28.185C41.2773 27.865 41.5073 27.135 41.6373 26.505ZM40.9773 31.165C41.1773 31.175 41.3673 31.185 41.5673 31.195C41.6573 31.165 41.7473 31.155 41.8373 31.155C41.9073 31.155 41.9673 31.155 42.0373 31.175C42.2473 31.155 42.4573 31.135 42.6673 31.115C42.9173 31.365 43.1473 31.635 43.1473 31.955C43.1473 32.085 43.1073 32.215 43.0273 32.355C42.6873 32.955 42.1073 32.945 41.5373 32.815C40.9773 32.685 40.8373 32.235 40.8773 31.725C40.8873 31.545 40.9473 31.355 40.9773 31.165ZM23.5773 82.585C23.5773 82.585 23.5673 82.615 23.5573 82.625C23.3673 82.615 23.1873 82.595 23.0073 82.585C22.8373 82.385 22.6773 82.185 22.5073 81.975C22.5073 81.965 22.4873 81.955 22.4773 81.935C22.2373 81.445 21.7273 81.055 21.9073 80.405C21.9673 80.415 22.0273 80.415 22.0873 80.425C22.3473 80.445 22.6073 80.475 22.8673 80.495H22.8773C23.2973 80.925 23.8273 81.325 23.8273 81.885C23.8273 82.095 23.7573 82.325 23.5773 82.585ZM24.1773 32.825C24.1573 32.665 24.1073 32.515 24.0473 32.365C23.8173 32.205 23.5873 32.045 23.3573 31.895C23.0473 31.715 22.7173 31.555 22.4273 31.345C21.9173 30.995 21.9773 30.625 22.4873 30.345C22.8073 30.165 23.1573 30.055 23.4873 29.915L24.0873 28.775C24.0473 28.295 24.0073 27.825 23.9573 27.345C23.8573 26.245 23.9173 26.195 25.2473 26.525C25.3273 26.825 25.5373 26.995 25.8473 27.045C26.0473 27.235 26.2473 27.435 26.4473 27.635C26.9773 27.805 27.5173 27.955 28.0273 28.155C28.3073 28.265 28.4573 28.515 28.4273 28.815C28.3873 29.125 28.1673 29.295 27.8773 29.345C27.6073 29.395 27.3273 29.425 27.0473 29.465C26.6873 30.305 26.3173 31.135 25.9773 31.985C25.6273 32.825 24.9473 32.915 24.1673 32.825H24.1773ZM26.4273 73.355C26.2573 73.155 26.0773 72.955 25.8973 72.745C26.0473 72.225 26.1973 71.715 26.3373 71.205C26.5273 70.555 27.0873 70.505 27.6173 70.425L27.6373 70.445C27.7973 71.035 28.2773 71.325 28.7373 71.645C28.4307 72.9383 27.6607 73.5084 26.4273 73.355ZM29.3673 91.325C29.3573 91.685 29.1573 91.875 28.8173 91.945C28.7173 92.265 28.5273 92.455 28.1673 92.425C27.9773 92.425 27.7873 92.425 27.5973 92.425L27.3273 92.485L27.0673 92.405C27.0673 92.155 27.0473 91.895 27.0273 91.645C27.0273 91.525 27.0173 91.405 27.0073 91.285C26.8173 90.905 26.6273 90.525 26.4273 90.145C25.7973 88.845 25.7973 88.855 26.8973 88.465C27.1573 88.375 27.3973 88.255 27.6473 88.125C27.8073 88.045 27.9673 87.955 28.1273 87.875C28.2273 88.185 28.4473 88.335 28.7573 88.375H28.7673C28.8073 88.735 29.0073 88.905 29.3473 88.925C30.0073 89.715 30.1673 90.515 29.3673 91.315V91.325ZM31.0073 55.775C30.9273 55.935 30.8273 56.105 30.7173 56.245C30.1773 56.935 29.4973 57.225 29.0673 56.915C28.7473 56.685 28.6273 56.335 28.6773 55.935C28.7873 55.035 29.2873 54.505 30.0573 54.455C30.7373 54.415 31.2973 55.185 31.0073 55.775ZM31.5473 46.635C30.6373 47.085 30.4673 45.835 30.0073 45.285C29.9473 45.215 29.9273 45.115 29.8773 45.035C28.7973 44.275 28.7073 43.945 29.4973 43.515C29.9073 43.295 30.3373 43.085 30.7773 42.915C31.0373 42.815 31.3273 42.795 31.6073 42.765C32.2173 42.705 32.7673 43.125 32.7873 43.695C32.8173 44.305 32.3873 44.485 31.8873 44.535C31.6973 44.555 31.5073 44.525 31.3173 44.515C31.3173 44.545 31.3173 44.575 31.3173 44.605C31.3173 45.335 32.7973 46.035 31.5573 46.635H31.5473ZM32.4673 84.095C32.3873 84.025 32.3173 83.925 32.2673 83.795C32.3173 83.775 32.3773 83.745 32.4273 83.725C32.5073 83.685 32.5973 83.645 32.6773 83.615C32.8473 83.535 33.0173 83.455 33.1873 83.375C33.2173 83.365 33.2473 83.355 33.2673 83.335C33.2873 83.605 33.3073 83.875 33.3273 84.145C33.3273 84.195 33.3273 84.255 33.3373 84.305C32.9973 84.335 32.6873 84.305 32.4673 84.095ZM35.6973 49.065C35.5573 48.835 35.3673 48.615 35.2973 48.365C35.0473 47.575 35.4573 47.065 36.2073 47.305C36.6173 47.435 36.9773 47.745 37.3573 47.975C37.1906 48.755 36.6373 49.1184 35.6973 49.065ZM36.6773 17.005C36.2873 16.785 36.2673 16.385 36.4573 16.055C36.6673 15.695 37.0673 15.665 37.4173 15.855C37.7273 16.035 38.0573 16.255 37.8573 16.705C37.5473 17.165 37.1173 17.245 36.6773 17.005ZM39.9673 97.485L39.8473 97.655L39.9273 97.465C39.8873 97.095 39.8073 96.715 39.8173 96.345C39.8273 95.975 39.8773 95.535 40.3773 95.545C40.6273 95.545 40.9173 95.715 41.0973 95.895C41.3773 96.185 41.4073 96.575 41.1873 96.935C40.9173 97.385 40.4373 97.435 39.9673 97.485ZM40.1073 93.315C40.5073 92.415 41.1473 91.765 42.0373 91.335H42.0473C42.5973 92.655 42.5973 92.725 41.7573 93.165C41.2673 93.425 40.7673 93.835 40.1073 93.315ZM42.0873 102.015C41.7473 101.885 41.4173 101.725 41.0773 101.575C41.0673 101.575 41.0573 101.565 41.0473 101.565C40.9673 101.095 40.8373 100.625 40.8373 100.135C40.8373 99.865 40.8773 99.585 40.9873 99.305C41.0973 99.325 41.1873 99.355 41.2773 99.395C41.2773 99.395 41.2873 99.395 41.2873 99.405C41.8473 99.675 42.0373 100.395 42.6173 100.615C42.7773 100.805 42.9373 100.995 43.0973 101.185C43.0573 101.825 42.9173 102.345 42.0873 102.015ZM49.6873 101.695C49.4973 101.695 49.2973 101.675 49.1073 101.655C48.9373 100.205 48.9473 100.185 50.1773 99.975C50.2273 100.255 50.2573 100.545 50.3473 100.815C50.5773 101.455 50.2773 101.685 49.6873 101.695ZM55.2073 104.235C55.0773 104.625 54.9373 105.005 54.7973 105.385C54.7573 105.495 54.7273 105.595 54.6873 105.705C54.4673 105.865 54.2573 106.055 54.0273 106.195C53.7773 106.355 53.3773 106.355 53.3073 106.115C53.0773 105.315 52.4273 104.515 53.0973 103.635C53.1073 103.615 53.1173 103.595 53.1373 103.575C53.4573 103.455 53.7673 103.375 54.0573 103.375C54.5173 103.375 54.9373 103.575 55.2573 104.105C55.2573 104.155 55.2273 104.195 55.2073 104.235ZM58.6973 103.765C58.2773 104.275 57.9773 103.775 57.7073 103.455C57.8873 103.225 58.0773 103.005 58.2573 102.775C58.5373 102.945 58.8473 103.145 58.8473 103.415C58.8473 103.525 58.8073 103.635 58.6973 103.765ZM62.8673 102.215C62.2473 102.285 61.6073 102.275 61.1973 102.875H61.1673C60.7973 102.675 60.4273 102.455 60.0473 102.245C60.0773 102.105 60.0973 101.975 60.0973 101.835C60.2973 101.625 60.5073 101.425 60.7173 101.215C61.0573 101.095 61.3973 100.985 61.7373 100.855C62.1773 100.675 62.6273 100.565 62.9873 100.965C63.3673 101.395 63.0373 101.805 62.8673 102.215ZM60.4573 92.155C60.4173 91.705 60.7573 91.545 61.1273 91.455C61.2973 91.405 61.4773 91.405 61.6573 91.395C61.6473 91.575 61.6473 91.755 61.6173 91.925C61.5373 92.355 61.2473 92.535 60.8373 92.455C60.6873 92.425 60.4673 92.275 60.4573 92.155ZM70.8273 95.755C70.3373 95.625 69.9573 95.315 70.0173 94.755C70.0673 94.205 70.4573 93.895 70.9673 93.905C71.5673 93.925 71.7173 94.395 71.7273 94.825C71.6873 95.445 71.2573 95.875 70.8273 95.755ZM65.6373 78.115C57.7573 87.335 48.6873 82.095 44.3573 81.155C48.7173 72.495 60.7973 70.085 60.7973 70.085C49.7273 70.495 45.4973 73.825 43.6373 78.575C43.4773 78.985 43.0773 80.155 43.0373 80.285V80.305C43.0373 80.305 39.2373 84.125 39.6673 85.455L37.8273 83.445C37.8273 83.445 40.5073 79.805 42.3773 77.855C38.9673 62.605 53.5273 64.555 57.5373 64.145C63.3973 63.555 69.3873 59.155 72.0473 53.655C72.4473 62.205 71.8573 72.035 65.6373 78.115ZM73.5573 105.495C73.3973 105.535 73.1873 105.625 73.0773 105.555C72.7273 105.345 72.7873 104.955 72.7573 104.615C73.0273 104.825 73.2973 105.035 73.5573 105.265C73.5973 105.305 73.5773 105.485 73.5573 105.495ZM73.9473 43.715C73.6173 43.335 73.2073 43.365 72.7773 43.475C72.7873 43.405 72.7873 43.325 72.7873 43.255V43.155C72.7873 43.155 72.6873 43.215 72.6473 43.245C72.2273 43.535 72.1273 43.985 72.0673 44.475C72.0973 44.605 72.1173 44.715 72.1173 44.815C72.1173 45.275 71.7873 45.445 71.2573 45.425H71.1873C71.1273 45.095 71.0773 44.765 71.0173 44.435C70.9773 43.985 70.9773 43.525 70.6973 43.135C70.6773 43.105 70.6773 43.075 70.6473 43.045C70.6273 42.945 70.6073 42.855 70.6073 42.775C70.6073 42.615 70.6473 42.475 70.7073 42.335C70.8073 42.115 70.9673 41.925 71.1273 41.735C71.1273 41.725 71.1373 41.715 71.1473 41.705H71.1673C71.6773 41.525 72.1973 41.405 72.7373 41.585C74.1473 41.555 74.2073 41.545 74.4773 40.515C74.4873 40.475 74.5073 40.425 74.5173 40.375L74.4973 40.355H74.4273C74.3773 40.345 74.3273 40.345 74.2773 40.345C74.1873 40.335 74.1073 40.335 74.0273 40.335C73.9273 40.215 73.8773 40.095 73.8773 39.955C73.8773 39.905 73.8873 39.855 73.8973 39.805C73.8573 39.715 73.8373 39.615 73.8373 39.515C73.8373 39.295 73.9273 39.095 74.0873 39.105C75.1873 39.165 76.0273 38.665 76.8873 38.065C77.1273 37.895 77.6073 38.055 77.9773 38.065C78.0473 38.245 78.0873 38.445 78.1873 38.595C78.1973 38.605 78.2073 38.615 78.2073 38.625C78.9173 39.665 78.6173 40.565 77.8473 41.415C77.6973 41.435 77.5473 41.485 77.4173 41.565C77.3973 41.715 77.3873 41.865 77.3773 42.015C77.3673 42.045 77.3673 42.065 77.3673 42.085C77.2073 42.125 77.0573 42.175 76.9073 42.225C76.5673 43.635 76.5273 43.815 75.4973 43.815C75.3673 43.815 75.2173 43.805 75.0473 43.805C74.6873 43.805 74.3273 43.755 73.9673 43.735L73.9473 43.715ZM74.5273 72.765C74.4573 72.615 74.3973 72.475 74.3273 72.325C74.2473 72.135 74.1673 71.955 74.0873 71.765C74.1373 71.745 74.1873 71.745 74.2373 71.725C74.7373 71.565 75.2273 71.545 75.7373 71.615C75.8873 71.635 76.0373 71.665 76.1873 71.705C76.2173 71.945 76.2673 72.195 76.2673 72.435C76.2673 72.745 76.1773 73.025 75.7973 73.215C75.2773 73.475 74.9373 72.975 74.5273 72.765ZM76.6873 78.465C76.5673 78.785 76.3773 79.015 76.0573 78.905C75.5873 78.745 75.2373 78.385 75.1873 77.875C75.1573 77.635 75.2573 77.265 75.4373 77.145C75.5873 77.035 75.9973 77.105 76.1773 77.245C76.5673 77.545 76.7873 77.975 76.6873 78.465ZM76.7773 50.835C76.4273 50.805 76.1973 50.615 76.0473 50.305C75.7573 49.875 75.4573 49.455 75.1573 49.025C75.1573 48.315 75.5273 47.945 76.2273 47.875C76.6373 48.235 77.0373 48.595 77.4473 48.955C77.7573 49.055 77.9673 49.245 78.0273 49.575C78.3473 49.665 78.5573 49.855 78.5873 50.195C78.6573 50.345 78.7273 50.495 78.7673 50.645C78.7673 50.685 78.6373 50.755 78.5573 50.815C78.1373 51.175 77.9273 51.355 77.7073 51.355C77.4873 51.355 77.2473 51.175 76.7773 50.835ZM77.8673 70.625C78.1373 69.675 78.8873 69.975 79.5373 70.065C79.5473 70.095 79.5673 70.135 79.5773 70.165C79.9473 70.935 79.8973 71.715 79.5973 72.495C79.5773 72.535 79.5573 72.585 79.5473 72.625C79.2573 72.595 78.9273 72.655 78.6973 72.525C77.8773 72.075 77.6173 71.485 77.8673 70.625ZM80.7373 89.595C80.7473 89.435 80.7573 89.275 80.7773 89.115L80.7173 89.065C80.5273 89.055 80.3373 89.055 80.1473 89.045C79.7573 89.015 79.2673 88.975 79.2273 88.535C79.1773 87.925 79.7173 87.765 80.2073 87.775C80.7773 87.795 81.3473 87.915 81.9073 87.985C81.9373 88.315 81.9673 88.565 81.9673 88.765C81.9673 89.425 81.7173 89.475 80.7373 89.595ZM81.4273 25.885C80.5573 24.705 80.6373 24.475 81.9773 24.245C82.0073 24.445 82.0373 24.645 82.0373 24.845C82.0373 25.255 81.9073 25.635 81.4273 25.885ZM84.3173 71.445C84.2973 71.375 84.2773 71.305 84.2473 71.235C84.2373 71.205 84.2273 71.165 84.2073 71.125C84.2873 71.055 84.3773 70.975 84.4573 70.895C84.6273 70.725 84.8073 70.545 84.9873 70.375C85.2473 70.775 85.3973 71.015 85.3973 71.175C85.3973 71.395 85.0973 71.455 84.3673 71.585C84.3573 71.535 84.3373 71.495 84.3173 71.445ZM86.0473 76.755C85.9573 77.015 85.7673 77.245 85.4173 77.155C84.8273 77.005 84.7773 76.515 84.8473 76.055C84.8973 75.695 85.0673 75.335 85.5473 75.375C86.0773 75.495 86.2973 76.085 86.0473 76.755ZM85.9373 45.465C85.3073 45.745 84.8473 45.445 84.5373 44.925C84.2473 44.455 84.4573 43.825 84.9673 43.465C85.4873 43.095 86.0373 43.245 86.5773 43.385C86.5973 43.915 86.6173 44.455 86.6373 44.995C86.4073 45.155 86.1873 45.355 85.9373 45.465ZM87.0673 39.655C85.9673 39.455 85.9573 39.445 86.1473 38.165C86.2173 38.165 86.2973 38.175 86.3673 38.185C86.5773 38.205 86.7873 38.225 86.9973 38.255H87.0473C87.0473 38.595 87.0573 38.945 87.0673 39.285V39.655ZM87.3373 35.155C87.0373 35.095 86.8073 34.845 86.9473 34.535C87.0473 34.315 87.3073 34.165 87.4573 34.025C87.8573 34.095 88.0873 34.265 88.0873 34.575C88.0873 35.045 87.7673 35.245 87.3373 35.155ZM90.5273 53.795C90.5973 53.955 90.6873 54.115 90.7073 54.275C90.8173 55.155 90.6373 55.295 89.5973 55.215H89.5773C89.5473 55.325 89.5173 55.435 89.5073 55.555C89.0273 55.205 88.8473 54.695 88.8273 54.125C88.7973 53.255 88.4273 52.555 87.8473 51.935C87.8273 51.655 87.7973 51.385 87.8173 51.105C87.8473 50.615 88.1573 50.475 88.5573 50.685C89.5973 51.225 89.7973 52.485 90.6373 53.205C90.6773 53.365 90.7373 53.515 90.8273 53.665C90.7173 53.685 90.6073 53.705 90.5073 53.745C90.5173 53.765 90.5273 53.775 90.5273 53.795ZM93.5773 69.275C93.4773 69.285 93.3873 69.295 93.2973 69.305C93.2073 69.315 93.1073 69.315 93.0173 69.325C92.3973 69.385 91.8973 69.215 91.7573 68.545C91.6673 68.065 91.8073 67.595 92.1873 67.285C92.7073 66.865 93.2373 67.055 93.6773 67.475C93.7673 67.555 93.8373 67.665 93.9073 67.765C93.9973 67.895 94.0673 68.025 94.1573 68.155C93.9673 68.525 93.7673 68.905 93.5773 69.275ZM92.2373 58.565C92.5373 58.275 92.8873 58.345 93.2073 58.545C93.3573 58.645 93.4773 58.775 93.6073 58.895C93.7773 59.125 93.9373 59.345 94.1073 59.575C94.1073 59.735 94.1173 59.885 94.1373 60.045C93.5773 60.045 93.0073 60.035 92.4473 60.025C92.3773 59.865 92.3073 59.705 92.2273 59.545C92.0773 59.215 91.9173 58.875 92.2373 58.565ZM98.9273 46.825C98.8473 46.965 98.7773 47.105 98.7173 47.245C98.6973 47.255 98.6873 47.265 98.6673 47.285C98.3873 47.475 98.1073 47.675 97.8373 47.875C97.7973 47.905 97.7573 47.935 97.7173 47.955V47.995C97.7173 48.475 97.5373 48.815 97.0473 48.985C96.9473 49.085 96.8173 49.135 96.6773 49.135H96.6073C96.3473 49.395 96.1073 49.515 95.9373 49.045H95.9273C95.8173 48.945 95.7073 48.855 95.5973 48.775C95.4973 48.695 95.4073 48.615 95.3073 48.545C95.2873 48.525 95.2673 48.505 95.2473 48.495H95.2373C95.2673 48.305 95.2673 48.115 95.2473 47.935C94.9973 47.935 94.7473 47.915 94.4973 47.915C93.7773 47.915 93.0873 48.015 92.5273 48.625C92.2073 49.415 91.9073 50.215 91.5573 50.995C91.5073 51.105 91.2173 51.175 91.0673 51.145C90.9173 51.115 90.7273 50.955 90.6873 50.815C90.4073 49.855 90.6673 48.925 90.8273 47.985C90.9673 47.945 91.1073 47.915 91.2473 47.895C91.9673 47.065 93.2573 46.785 93.5173 45.515C93.9273 45.555 94.3373 45.605 94.7573 45.655C94.9073 45.655 95.0673 45.665 95.2173 45.675C95.2273 45.675 95.2373 45.675 95.2473 45.675C95.3073 45.815 95.3473 45.975 95.3573 46.125C95.8473 46.125 96.2473 46.285 96.4873 46.735C96.6873 46.785 96.8773 46.835 97.0773 46.885C97.1773 46.825 97.2573 46.745 97.3273 46.655C97.6073 46.315 97.7273 45.805 98.2273 45.665C98.4373 45.615 98.6373 45.575 98.8473 45.525C98.8873 45.535 98.9373 45.545 98.9873 45.555C99.2073 45.605 99.4273 45.645 99.6473 45.695C99.7073 45.705 99.7573 45.715 99.8173 45.735C100.017 46.505 99.6773 46.825 98.9273 46.815V46.825ZM99.9273 53.085C100.147 53.075 100.367 53.075 100.587 53.065C100.387 53.475 100.167 53.555 99.9273 53.085Z" fill="#355442"/>
</svg>
