<svg width="224" height="97" viewBox="0 0 224 97" fill="none" xmlns="http://www.w3.org/2000/svg">
<path d="M3.01581 26.7163C3.49366 26.4122 4.53618 26.7163 5.05747 27.0204C5.57877 27.3245 5.83943 28.1065 6.2304 28.6712C8.40245 28.6712 9.18439 27.1073 9.96633 25.3696C10.5311 24.1099 11.6171 23.1106 12.4859 21.9811C12.8769 19.896 13.7457 18.2888 15.1358 17.2462C10.1835 12.0333 5.83944 6.2555 2.23384 0L0.756861 5.95139C0.148687 13.7708 -0.0685098 21.5902 0.0183721 29.4096C0.756869 28.367 1.71254 27.4113 2.97233 26.6728L3.01581 26.7163Z" fill="#50795F"/>
<path d="M221.524 48.6105C221.48 48.0892 221.567 47.6115 221.784 47.1336C219.699 32.9719 217.571 18.8535 215.485 4.69171C213.704 4.56139 211.88 4.69167 210.099 4.64823C209.447 5.86457 208.361 6.60305 207.232 6.25552C206.146 5.95143 205.233 5.3869 204.669 4.56152C193.026 4.99593 181.471 7.29811 170.567 11.425C163.921 13.9446 157.579 17.1159 151.323 20.5043C151.062 23.3714 150.802 26.2384 150.541 29.062C150.541 30.3653 150.541 31.7121 150.541 33.0153C150.367 34.7095 149.368 35.7955 147.717 35.6651C144.981 35.4479 144.155 33.58 144.329 31.0604C144.72 28.5843 145.111 26.1081 145.502 23.6754C141.071 26.1515 136.64 28.6277 132.166 31.0604C130.167 34.3185 127.213 36.9683 123 38.8362C121.74 38.5322 120.784 37.8372 119.915 37.0553C116.049 38.7929 112.139 40.3567 108.099 41.6165C106.97 41.9641 105.84 42.2248 104.711 42.5289C104.885 42.6592 105.058 42.7894 105.232 42.9197C105.232 43.5713 105.145 44.1362 105.015 44.7009C104.798 45.6132 104.363 46.4386 103.581 47.1336C103.495 47.6115 103.495 48.0891 103.495 48.567C103.495 48.7842 103.451 49.0015 103.451 49.2187C101.323 51.217 100.888 53.7366 100.845 56.3431C100.845 56.8644 100.845 57.3857 100.845 57.9504C98.7595 57.9069 96.6309 57.8634 94.5457 57.8199C94.5457 57.8199 94.5022 57.4724 94.4588 57.2552C94.4154 56.7773 94.3719 56.2996 94.4588 55.7783C94.4588 55.7783 94.4588 55.7783 94.4588 55.7348C94.4588 55.7348 94.4588 55.7348 94.4154 55.7348C93.6769 55.7348 92.9384 55.7784 92.1999 55.8218C92.0696 55.1268 92.0261 54.475 92.0261 53.78C90.245 52.4767 88.464 51.1737 87.8992 48.8279C86.7698 47.7419 85.5969 46.6558 84.4674 45.5698C72.0433 46.0042 59.4888 43.9623 47.8901 39.4445C36.9864 35.1438 26.995 28.6277 18.4806 20.5043C18.4371 20.5912 18.4806 20.678 18.3937 20.7649C17.7855 21.8509 17.7855 23.241 17.4814 24.5008C17.4814 25.2393 17.3076 25.9777 17.0035 26.6293C17.5683 27.976 18.2199 29.236 18.6543 30.6261C19.1322 32.1465 18.6543 33.4497 17.3511 34.4054C16.0913 35.3177 14.6143 35.5349 13.3545 34.6661C11.921 33.6235 10.835 32.1029 9.31454 31.1906C8.57604 30.7562 7.27278 31.2342 6.2302 31.321C6.2302 33.5365 6.23021 35.7521 6.09988 37.9242C6.013 38.9667 5.70895 40.2698 4.23195 40.1829C3.18937 40.1395 1.97297 39.9657 1.19103 39.401C0.843504 39.0969 0.582895 38.793 0.278809 38.4454C0.626336 46.2214 1.2345 53.9972 2.23364 61.7297C2.84181 66.291 3.62377 70.9393 6.05647 74.849C8.92357 79.4103 13.789 82.3642 18.6109 84.7969C36.6389 93.8326 57.143 97.8726 77.2996 96.4825C77.2128 95.3965 77.4299 94.3538 78.516 93.4416C78.4725 90.5745 77.9947 87.7075 79.0807 84.9273C79.4717 83.32 80.6446 82.6684 82.165 82.4946C83.5551 82.3209 84.7281 81.8428 85.5535 80.6699C85.5969 80.583 85.6838 80.5397 85.7272 80.4528C86.3354 79.9749 86.9001 79.5405 87.5083 79.1061C87.6821 78.9758 87.8558 78.8454 88.0296 78.715C89.2459 79.5838 90.5057 80.7568 89.8976 82.2772C88.1599 86.5344 87.682 90.8351 87.8992 95.3095C93.0253 94.4841 98.1079 93.3113 103.104 91.8343C102.539 91.313 101.974 90.5745 101.062 89.3581C103.321 87.6639 103.364 85.2314 103.451 82.7553V82.842C105.58 82.1035 107.665 82.2338 109.793 82.7985C109.707 84.9271 109.62 87.0558 109.533 89.1844C109.098 89.5754 108.621 89.9665 108.186 90.3574C122.565 85.5789 136.292 78.5848 149.281 70.6786C161.141 63.4239 172.826 55.257 186.293 51.9555C199.76 48.654 215.92 51.4776 224 62.7723C223.392 58.6888 222.783 54.6053 222.175 50.5219C221.828 50.0875 221.524 49.5663 221.437 48.7409L221.524 48.6105ZM112.009 75.6744C110.098 75.5875 108.707 74.849 107.448 73.2417C106.753 72.3294 105.363 71.9383 104.19 71.417C104.059 71.3735 103.929 71.2868 103.799 71.2433C104.103 65.9001 104.146 65.8567 110.011 64.8141C110.098 65.0313 110.141 65.2919 110.141 65.5091C110.489 67.7246 109.663 70.2876 111.879 72.0252C111.792 72.6334 111.879 73.1982 112.183 73.7195C112.009 74.3711 111.966 75.0225 112.052 75.7176L112.009 75.6744ZM116.266 52.2161C114.746 54.171 112.183 53.0414 110.098 53.2152L109.142 53.085C108.968 52.3465 108.664 51.6949 108.186 51.1301C108.577 49.5662 109.012 48.0023 109.403 46.4384C109.576 45.8302 109.707 45.2221 109.88 44.614C111.879 43.7452 114.051 42.6157 115.615 45.1787C116.961 47.3508 118.134 49.9573 116.31 52.2596L116.266 52.2161ZM131.123 58.211C130.298 59.0364 129.038 58.8627 128.299 57.9939C125.736 54.9964 126.605 50.4786 129.95 48.7409C131.384 48.0024 134.338 49.1752 134.511 51.6079C134.511 53.6062 133.208 56.1259 131.123 58.211ZM147.196 38.8797C146.675 40.3567 146.154 41.8338 145.589 43.3108C145.459 43.7018 145.285 44.0926 145.154 44.527C144.329 45.1786 143.504 45.8737 142.635 46.4384C141.679 47.0466 140.159 47.0466 139.898 46.1343C138.986 43.05 136.51 39.9657 139.073 36.6207C139.116 36.5338 139.16 36.447 139.246 36.3601C142.418 35.1872 145.372 35.0135 147.413 38.4019C147.37 38.5757 147.283 38.7495 147.24 38.9232L147.196 38.8797ZM160.619 37.0553C158.969 39.0101 157.839 37.0986 156.797 35.8823C157.492 35.0135 158.187 34.1448 158.882 33.3194C160.402 34.1882 162.096 35.3177 160.576 37.0988L160.619 37.0553ZM176.606 31.1039C174.26 31.408 171.74 31.3644 170.176 33.6668H170.09C168.656 32.8848 167.222 32.0595 165.789 31.2341C165.919 30.7128 165.963 30.1916 165.963 29.6703C166.745 28.8883 167.57 28.1064 168.352 27.2811C169.655 26.8032 171.002 26.4122 172.305 25.8909C173.999 25.2393 175.737 24.7614 177.084 26.3252C178.517 27.976 177.257 29.54 176.649 31.1039H176.606ZM217.744 43.7016C217.136 43.8754 216.311 44.1797 215.876 43.919C214.53 43.0937 214.747 41.6166 214.66 40.3134C215.703 41.1387 216.745 41.9207 217.701 42.833C217.875 42.9633 217.788 43.7016 217.701 43.7016H217.744Z" fill="#50795F"/>
</svg>
