<?xml version="1.0" standalone="no"?>
<!DOCTYPE svg PUBLIC "-//W3C//DTD SVG 1.0//EN" "http://www.w3.org/TR/2001/REC-SVG-20010904/DTD/svg10.dtd">
<svg xmlns="http://www.w3.org/2000/svg" xmlns:xlink="http://www.w3.org/1999/xlink" id="body_1" width="138" height="138">

<g transform="matrix(1.38 0 0 1.38 0 0)">
    <path d="M15.8338 87.3055C 15.671 86.7627 15.8067 86.1926 16.0781 85.7041C 17.218 83.777 18.5208 81.9857 19.7693 80.1129C 21.6964 81.0357 21.1807 82.8542 21.3164 84.4013C 20.6922 85.5956 20.2579 86.9254 19.4165 87.9025C 18.9551 88.4454 18.2766 88.6353 17.598 88.5539C 18.3309 89.0696 19.0637 89.6124 19.8236 90.0738C 25.1434 93.2494 31.0874 95.1493 37.1943 96.2079C 37.0043 95.6922 37.0043 95.1222 37.33 94.4979C 37.4114 94.3351 37.4928 94.1995 37.6014 94.0909C 37.52 93.7381 37.4928 93.3851 37.52 92.978C 37.5471 92.5166 37.6828 92.0824 37.7642 91.6481C 38.2256 91.6481 38.7142 91.7025 39.1756 91.7296C 39.5556 91.5939 39.9356 91.5667 40.3156 91.6753C 40.8312 91.621 41.3198 91.5939 41.8355 91.5396C 42.6769 92.381 43.4097 93.3037 42.704 94.5251C 42.3241 95.1765 41.8355 95.5021 41.2927 95.665C 41.8083 95.8821 42.1612 96.2621 42.3512 96.8321C 42.3512 96.8321 42.3512 96.9136 42.3512 96.9679C 43.9254 97.1308 45.5267 97.2663 47.101 97.3478C 59.9932 97.972 74.0797 95.3937 84.0678 87.794C 84.285 87.0069 84.6378 86.3283 85.3978 85.8126C 85.6149 85.894 85.8592 85.9211 86.0763 85.9754C 88.4105 83.8855 90.5818 81.5786 92.2917 78.8373C 94.3545 75.4989 95.7116 71.8347 96.7159 68.0348C 96.7159 68.0348 96.7159 68.0348 96.6887 68.0348C 96.6887 68.0348 96.7159 68.0077 96.7159 67.9806C 96.7159 67.9806 96.7159 68.0077 96.7159 68.0348C 98.0186 63.0679 98.6429 57.8568 99.1857 52.727C 99.5657 49.28 99.8914 45.7787 100 42.2775C 99.5115 42.1146 98.86 41.816 97.9372 41.3275C 97.9372 41.3275 97.9915 41.1375 98.0186 41.029C 98.5343 39.1562 98.7786 38.5862 100 38.5319C 99.8914 33.945 99.2129 29.4666 97.5301 25.2054C 96.6073 22.8712 95.3588 20.8356 93.9746 18.9086C 92.726 19.1257 91.4775 18.5557 90.9618 17.3072C 90.7176 16.683 90.7718 15.9773 91.0433 15.353C 86.8634 11.0104 81.5437 7.97043 75.5997 6.04337C 74.9754 6.96619 73.944 7.56336 73.1298 7.37337C 72.3698 7.18338 71.7998 5.98916 71.9084 5.01206C 69.0585 4.33352 66.1272 3.84494 63.1688 3.62781C 40.8041 0.262248 16.2138 10.6032 5.35713 30.4438C -4.68527 48.8458 -0.288294 74.4131 15.861 87.3325L15.861 87.3325L15.8338 87.3055zM85.2078 37.0934L84.3936 37.0934C 83.335 37.012 82.2765 36.9848 81.218 36.9306C 81.218 36.0892 81.1637 35.275 81.1637 34.4336C 83.4617 34.4336 84.8097 35.3201 85.2078 37.0934zM86.402 32.8322C 86.402 32.8322 86.2663 32.7508 86.2121 32.6965C 85.4792 32.1536 85.3978 31.3123 85.4249 30.4166C 85.832 30.2809 86.212 30.2538 86.6192 30.3623C 86.6192 31.2309 86.6191 32.0994 86.6463 32.9679C 86.5377 32.9408 86.4834 32.8865 86.402 32.8322zM95.7116 28.7338C 98.1001 28.4353 98.1001 28.381 99.05 31.258C 97.6929 31.6108 96.5801 32.2893 95.6573 33.3478C 94.4088 34.7864 92.8075 35.4921 90.9618 35.6821C 89.0891 33.4565 88.7091 31.2037 90.9618 28.9781C 92.536 28.8967 94.1102 28.8966 95.6845 28.7066L95.6845 28.7066L95.7116 28.7338zM83.715 14.783C 83.7965 13.9416 83.715 13.046 84.0136 12.286C 84.7193 10.6304 85.7506 10.7932 86.782 12.0688C 88.2748 13.0459 88.4648 14.5116 88.3291 16.113C 88.7362 16.6287 89.1433 17.1443 89.5505 17.66C 90.7447 17.7686 91.6675 18.23 91.8846 19.5328C 92.0475 20.6456 92.1289 21.8127 91.2875 22.6541C 90.9075 23.0341 89.9033 23.3598 89.5505 23.1426C 88.4648 22.437 87.5691 21.487 86.592 20.6185C 86.1849 20.5914 85.8049 20.4556 85.4521 20.2385C 81.7608 19.3157 81.5708 18.7457 83.715 14.783zM78.2324 26.8339C 80.2952 26.0196 82.1951 27.1867 84.6921 26.8339C 84.2579 29.4937 82.8736 30.688 81.4623 31.8279C 80.2138 32.8322 78.4224 32.5065 77.1739 31.2308C 75.7354 29.7652 76.3325 27.5939 78.2053 26.861L78.2053 26.861L78.2324 26.8339zM72.4512 25.1239C 72.4512 25.1239 72.5598 25.2597 72.6141 25.3139C 74.7854 27.811 74.7583 27.8925 72.8584 30.1181C 71.8541 29.2495 70.877 28.3809 69.8728 27.5124C 69.9542 25.8839 70.5785 24.8254 72.4512 25.1239zM67.9457 40.6761C 68.7871 40.4318 69.2214 41.029 69.4928 41.6261C 70.4699 43.906 71.4199 46.1859 72.3698 48.4657C 73.2383 48.4657 73.7269 48.9 73.8626 49.7414C 74.4597 51.3156 73.9169 52.8627 73.7812 54.4098C 73.6726 55.6583 74.4868 57.3682 72.8312 57.9653C 70.8499 58.671 70.3342 56.6354 69.33 55.5498C 68.0272 54.6541 68.1628 53.2427 67.9457 51.9128C 67.4572 48.8729 68.2714 45.6702 66.7786 42.7117C 66.3715 41.9246 66.8872 40.9747 67.9186 40.6761L67.9186 40.6761L67.9457 40.6761zM65.883 23.9026C 65.883 24.554 65.7201 25.2325 65.6387 25.8839L65.6387 25.8839L65.6115 25.8839C 64.7701 25.7482 63.8202 25.7482 63.0874 25.3411C 62.0017 24.7711 61.5674 23.6312 62.1374 22.5184C 62.3545 22.0841 63.2774 21.7856 63.8473 21.7856C 65.0687 21.8127 65.883 22.5726 65.883 23.8754L65.883 23.8754L65.883 23.9026zM59.9932 19.5328C 60.7261 19.0985 61.4046 18.4742 62.2188 18.2571C 62.8431 18.0671 63.4945 18.5828 63.6031 19.2885C 63.6574 19.6685 63.5217 20.2928 63.2774 20.4285C 62.5174 20.8628 61.676 21.107 60.8617 21.4327C 60.8346 21.4327 60.8075 21.4327 60.7803 21.4327C 60.726 21.4327 60.6446 21.4327 60.5632 21.3785C 60.4275 21.3513 60.2918 21.297 60.1561 21.297C 60.1289 20.8085 60.0747 20.3199 60.0475 19.8042C 60.0475 19.7228 60.0475 19.6142 60.0475 19.5328L60.0475 19.5328L59.9932 19.5328zM32.7431 66.0807C 30.4632 66.1893 28.4818 63.2851 29.4589 60.9509C 29.676 60.4352 30.3275 60.001 30.8703 59.7838C 31.1146 59.6753 31.7388 60.0281 31.9559 60.3266C 32.8787 61.5751 33.7473 62.9051 33.8016 64.5336C 33.8016 65.2393 33.6387 65.8093 32.7431 66.0536L32.7431 66.0536L32.7431 66.0807zM27.3962 57.6396C 26.4733 57.1239 26.4191 56.1469 26.8805 55.3597C 27.3962 54.4912 28.3461 54.4098 29.1875 54.8983C 29.9474 55.3054 30.7074 55.8754 30.246 56.9339C 29.486 58.0467 28.4818 58.2367 27.3962 57.6396zM47.8338 9.43608C 47.8338 8.5404 47.8881 7.61759 47.8881 6.72191C 48.268 6.61335 48.6209 6.5591 49.0009 6.50482C 49.8423 5.52772 50.8193 5.06631 51.3622 6.58624C 51.8779 8.02474 51.7693 9.57184 50.6565 10.8475C 50.4394 11.7975 49.9237 12.4217 49.2451 12.8288C 48.8109 13.1002 48.3495 13.2902 47.8066 13.4259C 47.8066 12.096 47.8067 10.7389 47.8338 9.40899L47.8338 9.40899L47.8338 9.43608zM47.9695 30.0637C 47.9423 28.3267 47.8881 26.5896 47.8609 24.8526C 47.8609 24.8526 47.8609 24.8254 47.8609 24.7982C 48.6752 24.7982 49.5166 24.8526 50.3308 24.8526C 50.3308 24.8526 50.3308 24.8797 50.3308 24.9068C 50.3851 26.2368 50.5208 27.5667 50.4937 28.8967C 50.4937 29.1138 50.4937 29.2223 50.4665 29.358C 51.1722 29.7651 51.4165 30.6337 51.3893 31.7465C 51.1722 31.8279 51.0093 31.8822 50.8194 31.9365C 50.6294 31.9908 50.4394 32.0451 50.2765 32.0994C 49.0009 32.4522 48.7566 32.1808 48.7566 30.5252C 48.7566 30.4437 48.7566 30.3352 48.7566 30.2537C 48.4852 30.1995 48.2952 30.1452 47.9152 30.0637L47.9152 30.0637L47.9695 30.0637zM49.9508 36.2792C 50.4123 36.1978 50.9008 36.1434 51.3622 36.062C 51.6064 36.3334 51.7693 36.6592 51.8236 37.0391C 52.2036 37.582 52.9635 38.1248 52.9364 38.6405C 52.7464 42.0603 53.3707 45.3445 53.9678 48.6829C 53.9949 48.9001 53.9406 49.1172 53.9135 49.3615C 53.8049 50.3657 53.2078 51.1256 52.2579 51.1799C 51.7422 51.2071 50.9008 50.6914 50.6836 50.2029C 50.1679 48.9815 49.7066 47.6515 49.6794 46.3487C 49.6251 44.2859 49.408 42.3046 48.3766 40.4861C 47.3452 40.2147 46.4496 39.7805 45.9067 38.8305C 45.5267 38.8305 45.1739 38.7491 44.7939 38.6405C 44.7668 37.7991 44.7396 36.9577 44.6854 36.1434C 45.0925 36.0349 45.4725 35.8721 45.8253 35.6821C 45.8524 36.0078 45.9339 36.3334 46.0153 36.6591C 46.1239 36.6048 46.2053 36.5778 46.3139 36.5506C 47.481 36.0078 48.6752 35.9806 49.9237 36.3334L49.9237 36.3334L49.9508 36.2792zM48.648 60.9781C 48.648 62.0095 48.5123 62.7965 47.8066 62.9865C 47.4809 63.068 47.0738 63.0137 46.5038 62.7965C 45.9067 62.5794 45.2825 62.4708 44.6582 62.308C 44.1697 61.5752 43.3826 60.8152 43.844 59.8653C 44.414 58.6982 45.5539 58.3725 46.7753 58.7796C 47.4267 58.9967 47.9966 59.4038 48.6209 59.7295L48.6209 59.7295L48.6209 60.4895C 48.648 60.6523 48.648 60.8423 48.6752 61.0052L48.6752 61.0052L48.648 60.9781zM45.4182 18.04C 46.3953 18.5828 46.341 19.5057 45.7439 20.2656C 45.201 20.9442 44.4411 21.4327 43.7626 22.0027L43.7626 22.0027L43.6268 22.0841C 42.2969 21.867 40.6955 21.677 41.1298 19.8042C 41.5641 17.9857 43.7897 17.1715 45.391 18.04L45.391 18.04L45.4182 18.04zM39.3113 80.4658C 39.7727 78.2673 40.2341 76.0959 40.7227 73.8974C 40.777 73.8974 40.8313 73.8432 40.8856 73.816C 41.1298 73.7075 41.4012 73.5989 41.6183 73.4632C 41.9169 71.5904 41.5098 69.2291 44.8482 69.9076C 45.2282 69.989 45.6082 69.9077 45.9339 69.6905C 46.5038 69.3377 47.0195 68.6863 47.3995 68.062C 50.3037 68.8491 50.3851 69.0119 50.0594 72.1061C 49.4623 72.5132 48.8652 72.8932 48.2952 73.2732C 46.9381 74.1689 45.6625 75.146 44.7397 76.5574C 44.6582 78.2673 44.5497 79.9772 44.4411 81.6872C 44.4411 81.6872 44.4411 81.7142 44.4139 81.7413C 44.1425 82.067 43.8711 82.3928 43.5725 82.6914C 44.4411 83.0171 45.0111 83.777 45.2282 85.0527C 45.4996 86.7083 44.9296 87.984 44.0611 89.1511C 43.8711 89.3954 43.6811 89.6667 43.464 89.911C 42.1612 89.911 40.8855 89.884 39.5827 89.8568C 39.3113 89.5311 39.0942 89.0967 38.7413 88.8796C 38.3342 88.6082 38.0085 88.3097 37.7371 87.984C 36.8957 86.9527 37.0043 85.7584 37.9271 84.4285C 38.0356 84.3742 38.1171 84.2928 38.2256 84.2385C 38.5785 84.0213 38.9313 83.8042 39.257 83.5871C 38.7956 82.7186 39.0942 81.5514 39.3113 80.4929L39.3113 80.4929L39.3113 80.4658zM29.4318 17.09C 29.7032 16.6286 30.0017 16.1944 30.3274 15.7601C 30.5446 15.4616 30.7617 15.1901 30.9788 14.8916C 31.2231 14.593 31.386 14.2673 31.4402 13.8873C 34.453 11.8789 35.62 11.8246 37.0314 13.6973C 37.6285 14.5116 37.6557 15.4615 36.8957 16.0858C 36.0543 16.7643 34.9958 17.2257 34.0187 17.7414C 33.1773 18.1757 32.6616 18.8543 32.3359 19.6685C 32.2545 19.8857 32.1731 20.1028 32.0917 20.3471C 31.766 20.4285 31.4402 20.5913 31.196 20.8084C 30.5989 20.537 30.1375 20.3199 29.7575 20.1028C 28.4547 19.3428 28.509 18.7186 29.4318 17.1172L29.4318 17.1172L29.4318 17.09zM27.6947 44.4488C 27.6947 44.4488 27.8304 44.4488 27.8847 44.4217C 27.6133 43.7974 27.5047 43.146 28.4818 42.6303C 29.8389 41.9246 31.1417 40.7847 32.8245 41.9789C 33.3945 42.3861 34.0187 42.6032 34.6701 42.7389C 34.643 42.3046 34.6701 41.8975 34.7787 41.4903C 35.5115 41.3546 36.0543 40.9747 36.2986 40.269L36.2986 40.269L36.2986 40.3233C 39.0671 41.8432 39.257 42.1689 37.8185 44.096C 37.7914 44.1231 37.7643 44.1774 37.7371 44.2045C 38.1442 45.3173 38.0085 46.593 38.1985 47.7601C 38.3342 48.6829 37.2214 49.5515 36.4072 49.1986C 35.5115 48.8186 34.643 48.4115 33.7744 48.0044C 31.5217 48.9543 29.5946 48.5472 27.2062 46.6473C 26.9347 46.4302 26.7719 45.8059 26.8533 45.4259C 26.9347 45.0459 27.3147 44.6388 27.6676 44.4759L27.6676 44.4759L27.6947 44.4488zM22.8635 49.9586C 23.2977 49.8229 23.732 49.6057 24.1663 49.5243C 25.252 49.28 26.5819 48.4386 27.3419 49.6057C 28.4004 51.2614 26.7176 51.9127 25.6862 52.6998C 25.3877 52.6727 25.1163 52.6184 24.8448 52.5642C 24.0306 52.3742 23.3792 52.0213 23.0535 51.3428C 22.8906 50.9899 22.8092 50.5556 22.8635 49.9857L22.8635 49.9857L22.8635 49.9586zM23.8134 85.6227C 24.6006 85.5684 25.1705 85.1883 25.4962 84.4827C 26.3919 84.5369 27.2876 84.6184 28.1833 84.6727C 28.1833 85.2969 28.2104 85.894 28.2375 86.5183C 28.2375 86.7354 28.2375 86.9525 28.2375 87.1697C 27.8304 87.2511 27.4233 87.3054 27.0162 87.3325C 26.8533 87.3596 26.6904 87.4141 26.5547 87.4683C 26.039 87.6855 25.7134 88.0655 25.5505 88.6626L25.5505 88.6626L22.8635 88.5539C 22.5106 87.3597 22.7549 86.3556 23.8406 85.6227L23.8406 85.6227L23.8134 85.6227zM19.5251 34.5693C 19.8236 34.8678 20.2036 35.1392 20.4479 35.4921C 20.9907 36.2792 21.1264 37.202 20.3122 37.8534C 19.5251 38.5048 18.7108 38.0434 18.0051 37.4734C 18.0594 36.2521 18.2223 35.1121 19.5251 34.5693zM17.2452 53.0527C 17.4623 51.6142 18.4123 51.3428 19.6337 51.4242L19.6337 51.4242L19.6337 52.2113C 19.7151 54.0841 19.7694 55.984 19.8508 57.8567C 19.4437 58.0467 19.0365 58.1011 18.5751 58.1011C 17.8152 56.4997 16.9466 54.9526 17.2452 53.0527z" stroke="none" fill="#355442" fill-rule="nonzero" />
    <path d="M46.4236 38.2593C 46.4236 38.2593 46.4236 38.1779 46.4236 38.1507C 46.2608 38.3679 46.0979 38.5578 45.9351 38.775C 46.0979 38.6121 46.2879 38.4222 46.4508 38.2593L46.4508 38.2593L46.4236 38.2593z" stroke="none" fill="#355442" fill-rule="nonzero" />
</g>
</svg>