<svg width="110" height="110" viewBox="0 0 110 110" fill="none" xmlns="http://www.w3.org/2000/svg">
<path d="M5.50989 65.6399H13.11C13.11 65.5799 13.11 65.5199 13.11 65.4799C13.14 65.3299 13.2999 65.1399 13.4399 65.0999C14.1699 64.8799 14.89 64.9799 15.61 65.1199C17.06 64.3699 18.0599 62.8599 18.0599 61.1199C18.0599 58.6399 16.0399 56.6199 13.5399 56.6199H5.5C3.02 56.6199 1 58.6399 1 61.1199C1 63.5999 3.02 65.6399 5.5 65.6399H5.50989ZM8.69995 63.9199C9.05995 63.4399 9.55988 63.2599 10.1299 63.2399C10.9999 63.2099 11.7099 62.8399 12.3199 62.2599C12.5999 62.2499 12.8699 62.2099 13.1499 62.2299C13.6399 62.2699 13.7799 62.5699 13.5699 62.9699C13.0299 64.0099 11.7699 64.2099 11.0599 65.0499C10.8999 65.0899 10.74 65.1499 10.6 65.2399C10.58 65.1299 10.5599 65.0299 10.5199 64.9199C10.4999 64.9199 10.49 64.9399 10.47 64.9399C10.31 65.0099 10.15 65.0899 9.98999 65.1099C9.10999 65.2199 8.96994 65.0399 9.05994 63.9999C9.05994 63.9999 9.05994 63.9899 9.05994 63.9799C8.94994 63.9499 8.82996 63.9199 8.70996 63.9099L8.69995 63.9199Z" fill="#355442"/>
<path d="M57.3997 98.75C57.0197 98.35 56.6698 97.91 56.3198 97.49C56.0798 96.96 55.6197 96.65 55.1597 96.34C55.0397 96.06 54.8297 95.89 54.5097 95.9L54.5397 95.76C54.3597 95.78 54.1698 95.78 53.9898 95.76C53.9698 95.61 53.9598 95.46 53.9398 95.32C53.9398 95.29 53.9398 95.26 53.9398 95.23C53.9198 95.23 53.8997 95.23 53.8797 95.23C53.7097 95.23 53.5397 95.26 53.3797 95.31C53.0497 95.21 52.7097 95.12 52.3797 95.02C52.5664 94.36 53.0898 94.04 53.9498 94.06C54.3698 94.19 54.8597 94.18 55.1497 94.6C56.0297 95.13 56.9097 95.66 57.7797 96.2C58.1997 96.46 58.4198 96.96 58.4498 97.46L71.4498 71.2C71.7398 70.63 71.7098 69.95 71.3698 69.39C71.0198 68.83 70.4297 68.51 69.7597 68.51H50.0097C49.2897 68.51 48.6498 68.91 48.3298 69.55L35.5998 95.27C35.8898 95.18 36.2398 95.26 36.5498 95.23V96.91C36.3198 97.18 36.0898 97.48 35.8198 97.72C35.5898 97.92 35.1997 97.9 35.1297 97.65C35.0297 97.31 34.9498 96.96 34.9498 96.61L33.3498 99.85C33.0698 100.41 33.0898 101.11 33.4398 101.65C33.7698 102.2 34.3797 102.54 35.0197 102.54H54.7897C55.5097 102.54 56.1598 102.14 56.4598 101.49L57.7797 98.83C57.6597 98.83 57.4898 98.8 57.4198 98.73L57.3997 98.75ZM55.2498 77.37C55.2498 77.37 55.1498 77.3 55.0998 77.27C55.0398 76.43 55.4797 76.09 56.2697 76.09C56.3197 76.14 56.3798 76.19 56.4298 76.25C56.5398 76.36 56.6498 76.46 56.7498 76.57C56.7898 76.61 56.8298 76.64 56.8598 76.68C56.8598 76.87 56.8798 77.07 56.8598 77.25C56.6998 78.19 56.6098 78.23 55.8098 77.75C55.6198 77.63 55.4298 77.5 55.2498 77.37ZM57.2597 89.24C57.1697 89.39 56.9998 89.54 56.8398 89.57C56.6998 89.6 56.4297 89.5 56.3797 89.39C56.1697 88.86 55.9798 88.32 55.8598 87.77C55.7698 87.36 55.9697 87.02 56.4097 86.93C56.7297 86.86 56.9798 87.06 57.0798 87.32C57.2498 87.75 57.3297 88.22 57.4097 88.53C57.3397 88.88 57.3497 89.09 57.2597 89.24ZM58.4698 83.55C57.6898 83.35 57.3697 82.85 57.5297 82.06C58.2697 82.2467 58.5831 82.7434 58.4698 83.55ZM53.0998 72.21C53.3098 71.91 53.6498 71.7 53.9398 71.46C53.9698 71.29 53.9997 71.11 54.0297 70.94C54.8397 70.68 54.8398 70.03 54.8498 69.35C54.8498 69.22 55.0598 69.03 55.2098 68.97C55.4998 68.86 55.7398 69.03 55.9198 69.26C56.2998 69.72 56.3198 70.28 56.3298 70.84C56.6998 70.88 57.0698 70.91 57.4398 70.95C57.6298 70.86 57.8098 70.87 57.9798 70.97C58.5198 71.11 58.5197 71.54 58.5197 71.98C58.3297 72.01 58.1398 72.01 57.9498 71.98L57.9298 72.01C57.9698 72.53 56.7998 72.7 57.5998 73.52C57.8998 73.83 57.2698 74.22 56.8398 74.37C55.1998 74.93 54.2098 73.61 52.9898 73C52.9098 72.96 52.9598 72.43 53.0998 72.23V72.21ZM45.8598 76.1C45.9398 75.75 45.9798 75.38 46.1098 75.05C46.1598 74.92 46.3998 74.81 46.5598 74.8C46.8898 74.77 47.0097 75.02 47.0297 75.31C47.0497 75.58 47.0498 75.86 47.0598 76.13C46.6598 76.12 46.2698 76.1 45.8698 76.09L45.8598 76.1ZM42.9898 82.5C43.1498 82.48 43.3098 82.5 43.4698 82.55C43.4698 82.82 43.4898 83.08 43.4898 83.35C43.4898 83.58 43.4997 83.81 43.5097 84.04C43.5097 84.09 43.5097 84.13 43.5097 84.18C43.1397 84.01 42.9998 83.76 42.9498 83.49C42.8998 83.18 42.9698 82.83 42.9798 82.5H42.9898ZM38.9298 100.95C38.6698 100.53 38.2098 100.49 37.7998 100.36C37.7698 99.06 38.8098 99.29 39.5698 99.12C39.5998 99.16 39.6197 99.2 39.6497 99.24C40.4297 100.36 40.3298 100.54 38.9298 100.95ZM44.6198 91.57C44.3398 91.74 44.1397 91.95 44.1597 92.31C44.1797 92.51 44.1998 92.7 44.2198 92.9C44.1898 93.28 44.1498 93.66 44.1198 94.04C43.9398 94.13 43.7598 94.14 43.5698 94.07C43.3598 94.07 43.1398 94.08 42.9298 94.09C42.4198 93.94 42.2998 93.52 42.2998 93.07C42.2998 92.63 42.3697 92.19 42.3997 91.75C42.5697 91.54 42.7597 91.34 42.8897 91.11C43.5997 89.86 43.6098 89.86 44.6698 91.15C44.6098 91.29 44.5898 91.43 44.6198 91.57ZM46.4398 90C46.2798 89.96 46.1298 89.92 45.9798 89.86C45.9798 89.85 45.9598 89.84 45.9498 89.83C45.8498 89.69 45.7497 89.55 45.6397 89.42C44.9197 88.56 44.8798 88.29 45.3098 87.5C45.5498 87.07 45.8898 86.78 46.3598 86.65C46.3898 86.7 46.4198 86.76 46.4498 86.81C46.8198 87.49 47.1998 88.17 47.5698 88.85C47.6098 89.12 47.6998 89.39 47.6698 89.65C47.5498 90.46 47.3098 90.52 46.4398 90ZM51.0097 89.85C50.6397 90.62 50.2298 91.37 49.8298 92.13C49.1598 92.43 48.5498 92.81 48.1098 93.41V93.38C47.5598 93.08 47.1297 92.7 47.5397 92.03C48.0897 91.14 48.6997 90.28 49.2797 89.41C49.5397 89.29 49.7898 89.13 50.0698 89.07C50.3198 89.01 50.6398 88.98 50.8598 89.08C51.1598 89.22 51.1397 89.59 51.0197 89.84L51.0097 89.85ZM51.9298 74.66C51.8598 74.52 51.7798 74.39 51.7398 74.24C51.7398 74.21 51.8598 74.13 51.9198 74.08C51.9898 74.22 52.0498 74.36 52.1198 74.5C52.0598 74.56 51.9898 74.61 51.9298 74.67V74.66Z" fill="#355442"/>
<path d="M59.64 19.54V11.51C59.64 9.02001 57.6201 7 55.1201 7C52.6201 7 50.6201 9.02001 50.6201 11.51V19.54C50.6201 19.92 50.68 20.28 50.77 20.63C51.16 20.49 51.5701 20.38 51.9701 20.37C52.8301 20.35 53.65 20.25 54.42 19.83C54.53 19.4 54.7101 19.03 55.1101 18.8C55.1101 18.64 55.1501 18.49 55.1901 18.34C55.5401 18.33 55.8901 18.31 56.2301 18.3C56.2701 18.47 56.34 18.62 56.42 18.77C56.28 18.78 56.15 18.81 56.01 18.85C56.03 18.89 56.0401 18.93 56.0601 18.97C56.2801 19.45 56.3 19.96 56.15 20.47C56.18 20.67 56.2101 20.86 56.2401 21.06C56.1201 21.16 55.9901 21.23 55.8401 21.26C55.6201 21.42 55.3901 21.74 55.1801 21.73C53.9001 21.66 52.66 21.87 51.42 22.08C52.23 23.27 53.59 24.05 55.13 24.05C57.63 24.05 59.65 22.03 59.65 19.54H59.64ZM54.4701 14.79C53.8401 15.94 53.7 16.02 52.9 15.42C52.86 15.39 52.83 15.37 52.78 15.33C52.6 15.3 52.4101 15.29 52.2301 15.3C52.0701 15.06 51.9201 14.82 51.7501 14.58C50.8001 13.23 50.8101 12.27 51.8401 10.99C51.9301 10.87 52.1901 10.81 52.3501 10.85C52.5001 10.88 52.6801 11.04 52.7501 11.19C52.9501 11.66 52.91 12.16 52.66 12.58C52.08 13.56 53.1101 13.64 53.4601 14.1C53.6401 14.08 53.8101 14.1 53.9801 14.14C54.0301 14.45 54.1901 14.67 54.4901 14.77H54.4701V14.79ZM58.54 20C58.7 20 58.8801 20 59.1001 20C59.2801 20.89 58.76 21.09 58.02 21.08C57.99 20.99 57.9701 20.92 57.9401 20.84C57.9101 20.76 57.89 20.69 57.88 20.62C57.74 20.09 57.85 19.99 58.54 19.99V20ZM55.5001 8.13C55.2301 7.8 55.42 7.46 55.65 7.16C56.15 7.18 56.6301 7.25002 56.8601 7.80002C56.7301 7.93002 56.6201 8.07999 56.4701 8.17999C56.1401 8.39999 55.7601 8.46 55.4901 8.13H55.5001Z" fill="#355442"/>
<path d="M86.1198 60.9799C86.1198 54.0799 83.8797 47.7099 80.0997 42.5299C80.1897 42.9899 80.0297 43.3999 79.5597 43.7599C79.5197 43.9599 79.4196 44.1099 79.2596 44.2299C79.0896 44.8199 78.7897 45.3399 79.0597 46.0299C79.2897 46.6299 78.8497 47.0199 78.2197 47.1099H78.1997C78.1997 47.2999 78.1796 47.4799 78.1296 47.6599C77.4596 47.5499 77.0997 48.1899 76.5297 48.3099C76.0997 48.7999 75.7497 48.5199 75.4097 48.1899C75.0297 48.0199 74.6497 47.8599 74.2697 47.6899C74.2797 46.2899 74.3197 46.1999 75.1897 46.1199C76.0197 46.0499 76.8497 46.0299 77.6697 45.9899C77.9697 45.4499 78.2897 44.9199 78.1997 44.2599C77.7397 43.7699 77.5696 43.1799 77.6296 42.5199C77.1396 42.0099 77.1797 41.4399 77.4197 40.8399C77.3897 40.2299 77.5497 39.8499 77.8297 39.7399C76.2997 38.0699 74.5797 36.5799 72.7197 35.2799C72.7197 35.2799 72.6997 35.2999 72.6897 35.3099C72.6697 35.3299 72.6497 35.3499 72.6198 35.3799C72.5498 35.4499 72.4897 35.5099 72.4197 35.5799C72.3397 35.5299 72.2497 35.4999 72.1897 35.4399C71.9797 35.1799 71.6697 34.8399 71.5997 34.5399C66.7397 31.4299 60.9596 29.6199 54.7596 29.6199C53.4996 29.6199 52.2597 29.6999 51.0397 29.8499C51.0197 30.1699 50.8497 30.3499 50.5197 30.3999C49.8697 30.6499 49.2197 30.4199 48.5797 30.3699C48.3397 30.3499 48.0497 30.4099 47.7897 30.4099C37.4697 32.7599 29.0797 40.2199 25.4297 49.9899C25.6197 50.4299 25.8897 50.8499 26.1797 51.2699C26.3497 51.5199 26.1797 51.9899 26.1797 52.3699C25.9997 52.4399 25.7997 52.4799 25.6497 52.5799C25.6397 52.5799 25.6298 52.5899 25.6198 52.5999C25.2198 52.8699 24.8397 52.9899 24.4797 52.9999C23.9397 55.0499 23.5997 57.1799 23.4897 59.3799C23.6097 59.5399 23.7097 59.7199 23.8197 59.8899C23.7397 59.9999 23.6397 60.0899 23.5397 60.1699C23.5197 60.1899 23.4997 60.1899 23.4697 60.2099C23.4697 60.4599 23.4497 60.7199 23.4497 60.9699C23.4497 61.8099 23.4897 62.6399 23.5497 63.4699H31.8497C31.7597 62.6499 31.7097 61.8099 31.7097 60.9699C31.7097 48.2499 42.0497 37.8899 54.7797 37.8899C67.5097 37.8899 77.8698 48.2499 77.8698 60.9699C77.8698 61.8099 77.8097 62.6499 77.7097 63.4699H82.3197C82.3197 63.4699 82.3498 63.4199 82.3698 63.3899C82.4998 63.3899 82.6197 63.3899 82.7397 63.3499C82.7797 63.3399 82.8298 63.3299 82.8698 63.3099C83.0998 63.3299 83.3297 63.3499 83.5397 63.4199C83.5797 63.4299 83.6197 63.4499 83.6597 63.4699H86.0197C86.0697 62.6399 86.1296 61.8099 86.1296 60.9699L86.1198 60.9799ZM26.0697 60.7799C26.0497 60.9899 26.0198 61.1999 25.9998 61.4199C25.9998 61.4299 25.9998 61.4499 25.9998 61.4599C25.6598 61.4599 25.3097 61.4699 24.9697 61.4799C24.8497 61.4799 24.7197 61.4799 24.5997 61.4799C24.7997 60.3699 24.7997 60.3699 26.0897 60.5599C26.0897 60.6299 26.0697 60.6999 26.0697 60.7799ZM26.7197 56.1199C26.6997 56.1799 26.6797 56.2499 26.6697 56.3199C25.6397 56.0099 25.3497 55.5399 25.7897 54.8799C26.0497 54.4899 26.3997 54.3099 26.8097 54.2499C26.9497 54.2299 27.0897 54.2199 27.2397 54.2199C27.2397 54.2599 27.2398 54.2999 27.2498 54.3499C27.2498 54.4099 27.2697 54.4699 27.2697 54.5299C27.2697 55.1099 26.8897 55.5899 26.7197 56.1299V56.1199ZM28.5897 53.4499C28.5897 53.4499 28.5897 53.4499 28.5797 53.4499C28.4897 51.7899 28.5797 51.6999 30.1697 51.8999C29.9597 52.3999 29.7497 52.8899 29.5397 53.3899C29.5397 53.3999 29.5297 53.4199 29.5197 53.4299C29.2697 53.4299 29.0196 53.4399 28.7596 53.4499C28.6996 53.4499 28.6497 53.4499 28.5897 53.4499ZM29.6797 62.4999C29.2097 62.4999 29.0097 62.1799 29.0997 61.7499C29.1597 61.4499 29.4097 61.2199 29.7197 61.3599C29.9397 61.4599 30.0797 61.7199 30.2197 61.8699C30.1597 62.2699 29.9897 62.4999 29.6797 62.4999ZM31.3397 47.4799C30.8797 47.8699 30.0997 47.5199 29.7097 48.0699C29.6697 48.1199 29.6297 48.1799 29.5997 48.2499V48.2299C29.2497 48.1899 28.5997 48.3699 28.6597 47.9199C28.6997 47.6499 28.7497 47.3799 28.8097 47.1199C29.0497 45.9999 29.4697 44.9299 30.1697 43.9899C30.4197 43.6599 30.8397 43.5999 31.1797 43.8699C31.7997 44.3699 32.1897 45.0499 32.2897 45.8199C32.3897 46.5599 31.8597 47.0399 31.3297 47.4799H31.3397ZM60.0897 34.9399C58.9797 34.7599 58.4796 34.1799 58.0096 33.5999C57.5896 33.0799 57.7296 32.3399 58.2596 31.8199C58.8696 31.2199 59.7697 31.4699 60.0797 32.2499C60.4197 33.0999 59.9397 33.8999 60.0797 34.9399H60.0897ZM65.3796 39.5099L65.3497 39.5399C65.2097 39.6699 65.0697 39.8099 64.9197 39.9399C64.8897 39.9699 64.8497 39.9999 64.8197 40.0299C64.2797 39.8699 63.7697 39.6799 63.4897 39.1199C63.1697 38.4899 63.4097 37.7799 64.0597 37.5199C64.5597 37.3199 65.2297 37.5699 65.3997 38.1499C65.5197 38.5699 65.3996 39.0499 65.3796 39.4999V39.5099ZM69.5797 36.7399C69.5997 36.2999 69.4596 35.7099 70.1296 35.7099C70.7796 35.7099 70.7097 36.2799 70.7197 36.7299C70.3397 36.7299 69.9597 36.7299 69.5797 36.7299V36.7399Z" fill="#355442"/>
<path d="M81.3101 34.86C82.1401 35.72 83.32 36.23 84.54 36.23C85.76 36.23 86.8901 35.75 87.7301 34.91L93.41 29.23C95.17 27.47 95.17 24.62 93.41 22.85C91.7 21.13 88.73 21.14 87.04 22.85L81.3501 28.52C80.5001 29.36 80.03 30.5 80.02 31.69C80.02 32.9 80.4901 34.04 81.3101 34.86ZM91.1801 24.09C91.7001 23.98 92.1201 24.28 92.2401 24.79C92.3301 25.16 92.14 25.52 91.77 25.73C91.34 25.97 90.9001 26.12 90.4301 25.87C89.9201 25.61 89.97 25.09 89.9 24.63C90.33 24.44 90.7401 24.18 91.1901 24.09H91.1801Z" fill="#355442"/>
<path d="M25.7303 36.2301C26.9603 36.2301 28.0902 35.76 28.9202 34.91C29.7902 34.05 30.2503 32.9 30.2403 31.68C30.2403 30.48 29.7602 29.3601 28.9202 28.5501L26.8002 26.4201C26.6802 26.5001 26.5402 26.56 26.4102 26.59C26.3002 26.62 26.0703 26.4301 25.9803 26.2901C25.8003 25.9801 25.6703 25.64 25.6003 25.49C25.6003 25.4 25.6202 25.33 25.6302 25.25L23.2503 22.8601C21.5603 21.1401 18.5703 21.12 16.8703 22.85C16.0203 23.72 15.5502 24.86 15.5602 26.06C15.5602 27.27 16.0303 28.4001 16.8703 29.2301L22.5502 34.9201C23.4002 35.7701 24.5403 36.24 25.7403 36.24L25.7303 36.2301Z" fill="#355442"/>
<path d="M34.3401 92.3L34.2302 92.05V91.77C34.0702 91.54 33.8702 91.33 33.7502 91.07C33.0502 89.59 33.4501 88.94 35.0301 88.93C35.4201 88.93 35.7301 89.05 35.8801 89.34L44.8401 71.22C45.1501 70.65 45.1101 69.97 44.7601 69.41C44.4301 68.85 43.8201 68.53 43.1701 68.53H41.7701C41.6301 68.56 41.4701 68.56 41.2801 68.53H31.5701C31.4801 68.74 31.4102 68.96 31.3702 69.18C30.9502 69.33 30.5202 69.48 30.1002 69.62C29.0102 69.98 28.9401 69.93 28.4301 68.54H23.4201C22.7101 68.54 22.0502 68.94 21.7402 69.58L14.6901 83.84C15.9301 84.03 16.6501 85.03 17.4401 85.93C17.2301 86.11 17.0301 86.3 16.8201 86.46C16.0801 87.02 16.0101 87.02 15.5701 86.25C15.3501 85.86 15.3102 85.18 14.7502 85.25C14.1002 85.33 14.0301 85.93 14.0401 86.5C14.0401 86.53 14.0401 86.56 14.0401 86.58C14.0401 86.68 14.0401 86.78 14.0401 86.88C14.0401 87.34 14.0401 87.81 14.0401 88.27C13.8901 88.37 13.7301 88.44 13.5601 88.47C13.3901 89.19 12.8101 89.58 12.2801 90.01C11.9901 90.64 11.4901 91.02 10.9501 91.36L6.74017 99.87C6.44017 100.44 6.48011 101.13 6.80011 101.67C7.15011 102.22 7.76009 102.56 8.41009 102.56H28.1601C28.8801 102.56 29.5402 102.16 29.8502 101.51L34.3301 92.45C34.3301 92.4 34.3301 92.35 34.3301 92.3H34.3401ZM39.5101 71.3C39.9201 70.96 40.3402 70.89 40.6202 71.48C40.6202 71.48 40.6201 71.49 40.6301 71.5C40.8301 71.48 41.0302 71.47 41.2302 71.45C41.6502 72.54 41.3702 73.86 42.3602 74.79C42.6002 75.02 42.4701 75.53 42.1301 75.78C41.8001 76.02 41.4101 75.99 41.1301 75.68C40.7601 75.26 40.4402 74.8 40.1002 74.35C40.1202 74.14 40.1401 73.92 40.1601 73.71C40.1601 73.71 40.1402 73.69 40.1102 73.67C40.0402 73.67 39.9701 73.67 39.9001 73.67C39.8401 73.67 39.7902 73.64 39.7402 73.62C39.7202 73.62 39.7001 73.62 39.6801 73.6L39.6202 73.38L39.6401 73.15C39.5101 73.02 39.4202 72.87 39.3602 72.7C38.7802 72.16 39.0301 71.69 39.5201 71.29L39.5101 71.3ZM34.4902 71.84C34.3302 71.56 34.2501 71.26 34.3401 70.92L34.3201 70.64V70.36C34.4801 70.32 34.6401 70.28 34.7901 70.24C35.0001 69.91 35.2601 69.62 35.6801 69.7C35.9201 69.75 36.2901 69.95 36.3101 70.12C36.4001 70.86 36.3201 71.65 35.8901 72.23C35.3801 72.92 34.7402 72.55 34.2302 72.07C34.3502 72.05 34.4701 72.03 34.5901 72.01C34.5501 71.96 34.5202 71.9 34.4902 71.85V71.84ZM19.7601 82.47C19.9001 82.91 19.8601 83.36 19.6301 83.74C19.4201 84.07 19.2002 84.15 18.9902 84.04C18.8702 83.98 18.7501 83.86 18.6301 83.7C18.4501 83.7 18.2901 83.67 18.1301 83.58C18.1601 83.4 18.1201 83.22 18.0201 83.06C18.0101 82.87 17.9902 82.68 17.9802 82.49C17.9702 82.3 17.9601 82.1 17.9601 81.91C17.9601 81.18 18.2801 80.78 18.9401 80.75C19.0301 80.75 19.1201 80.75 19.2201 80.75C19.3901 80.98 19.5602 81.2 19.7302 81.43C19.7302 81.43 19.7302 81.45 19.7302 81.46C19.7302 81.55 19.7601 81.64 19.8101 81.71C19.8401 81.76 19.8701 81.81 19.9101 81.85C19.8601 82.05 19.8102 82.25 19.7502 82.45L19.7601 82.47ZM22.7402 85.97C22.3602 85.95 21.9801 85.94 21.5901 85.92C21.5301 85.26 21.8601 84.74 22.1301 84.19C22.3101 84.24 22.4901 84.26 22.6701 84.27C23.0901 84.82 23.0902 85.39 22.7402 85.98V85.97ZM23.3602 80.13C23.1935 80.9567 22.6135 81.3334 21.6202 81.26L21.6002 81.24C21.4802 80.95 21.2501 80.83 20.9401 80.83C20.7901 80.77 20.6301 80.71 20.4701 80.65C20.4001 79.81 20.7902 79.43 21.6202 79.5C21.8102 79.51 22.0001 79.48 22.1801 79.47C22.5701 79.69 22.9602 79.9 23.3502 80.12L23.3602 80.13ZM24.8401 88.5C24.7701 88.65 24.5801 88.73 24.4501 88.85C24.4601 88.67 24.4402 88.48 24.4902 88.32C24.5302 88.21 24.6901 88.15 24.7901 88.06C24.8101 88.21 24.8901 88.39 24.8401 88.5ZM29.5002 84.9C29.4402 85.42 29.0401 85.7 28.7201 86.04C28.5902 86.17 28.4801 86.32 28.4101 86.49C27.3001 86.11 27.1502 85.88 27.5002 84.97C27.6002 84.71 27.7901 84.49 27.9301 84.25C28.0401 84.25 28.1601 84.27 28.2701 84.28C28.5101 84.3 28.7402 84.32 28.9802 84.33C29.0002 84.35 29.0201 84.38 29.0401 84.4C29.1501 84.53 29.2602 84.65 29.3702 84.78C29.4102 84.83 29.4502 84.87 29.4902 84.92L29.5002 84.9ZM26.1601 74.44C25.3601 74.38 24.5201 74.47 23.9201 73.76H23.8901C23.1401 72.76 23.1502 71.91 23.9802 71.46C24.4802 71.19 24.8702 71.46 25.1002 71.96C25.8102 72.34 26.7401 71.89 27.3801 72.55C27.9101 72.5 28.3001 72.73 28.5601 73.18C28.6401 73.22 28.7701 73.24 28.8101 73.31C29.2001 73.92 29.5701 74.54 29.9501 75.18C28.7501 75.4667 27.4868 75.2234 26.1601 74.45V74.44ZM30.2101 81.95C29.9601 81.4 29.6502 80.87 29.7402 80.23C30.9102 79.73 30.9701 79.74 31.7601 80.62C31.7601 80.62 31.7601 80.62 31.7701 80.64C31.2501 81.08 30.9201 81.75 30.2101 81.95ZM30.8401 84.82C31.2601 84.85 31.7701 84.63 32.0701 85.04C32.3201 85.37 31.5301 85.3 30.8401 84.82ZM32.6202 69.72C32.5135 71.0134 31.9201 71.7767 30.8401 72.01L30.8702 71.95C30.2602 71.21 30.2302 70.52 31.0002 69.85C31.0502 69.81 31.0901 69.76 31.1301 69.7C31.2301 69.54 31.3001 69.35 31.3901 69.18H31.4001C31.4801 69.19 31.5701 69.2 31.6601 69.21C31.9301 69.24 32.1901 69.28 32.4601 69.31C32.4701 69.46 32.5301 69.6 32.6301 69.72H32.6202Z" fill="#355442"/>
<path d="M104.76 56.6199H96.7097C94.2297 56.6199 92.1997 58.6399 92.1997 61.1199C92.1997 63.5999 94.2297 65.6399 96.7097 65.6399H104.76C107.24 65.6399 109.26 63.6099 109.26 61.1199C109.26 58.6299 107.24 56.6199 104.76 56.6199ZM95.5497 60.3899C95.4297 60.4999 95.2996 60.5399 95.1396 60.5299C95.0896 60.6699 95.0397 60.8199 94.9897 60.9599C94.6297 60.9599 94.2597 60.9599 93.8997 60.9599C93.6997 60.9799 93.5097 60.9999 93.3097 61.0199C92.6097 60.5299 92.6097 60.4899 93.3097 59.9299C93.5897 59.5699 93.9196 59.2399 94.1396 58.8499C94.4696 58.2799 94.9097 58.1099 95.5197 58.2999C95.5197 58.4599 95.5197 58.6199 95.5197 58.7799C95.5197 59.3199 95.5397 59.8599 95.5497 60.3999V60.3899Z" fill="#355442"/>
<path d="M97.95 69.41C97.6 68.85 97.01 68.53 96.35 68.53H96.2C96.23 68.62 96.25 68.72 96.24 68.8C96.22 68.93 96.0099 69.11 95.8799 69.12C95.2099 69.15 94.54 69.12 93.86 69.12C93.91 69.07 93.9699 69.02 94.0199 68.97C93.9499 69 93.9 69.05 93.86 69.12C93.36 69.13 92.85 69.14 92.35 69.15H92.1599C91.9999 69.33 91.84 69.5 91.6799 69.68C91.7699 69.77 91.86 69.86 91.94 69.95C92.03 70.04 92.11 70.12 92.2 70.21C92.35 70.31 92.52 70.37 92.7 70.37C92.75 70.54 92.8 70.7 92.85 70.87C93.31 70.83 93.7899 70.74 94.1699 71.13C94.4299 71.39 94.3699 72.01 94.0299 72.06C93.4799 72.14 92.92 72.13 92.36 72.16C91.83 72.77 91.17 72.72 90.48 72.56C90.46 72.44 90.4299 72.33 90.4099 72.21C90.4099 72.18 90.3999 72.14 90.3899 72.11C90.3899 72.11 90.3099 72.07 90.2599 72.06C90.1999 72.05 90.14 72.03 90.08 72.01C90.04 72 89.99 71.99 89.95 71.97C90 71.88 90.05 71.79 90.1 71.7C90.17 71.58 90.2399 71.45 90.2999 71.33C90.2999 71.23 90.31 71.14 90.32 71.04C90.32 71 90.32 70.95 90.33 70.91C90.18 70.73 90.0299 70.55 89.8799 70.37L89.85 70.38C89.81 70.48 89.76 70.55 89.7 70.62C89.58 70.76 89.41 70.84 89.19 70.86C88.82 71.55 88.3599 72.04 87.6499 72.05C87.4599 72.05 87.2499 72.02 87.0099 71.95C86.9399 71.58 86.9199 71.19 86.7999 70.84C86.4799 69.9 86.7099 69.17 87.5499 68.64C87.5699 68.61 87.6 68.58 87.62 68.54H85.62C85.62 68.75 85.4599 68.96 85.1699 69.18C85.0399 69.16 84.9199 69.13 84.7899 69.1C84.3699 69.01 83.99 68.86 83.72 68.54H76.57C75.84 68.54 75.1999 68.94 74.8799 69.58L59.8899 99.88C59.5999 100.44 59.63 101.15 59.97 101.69C60.32 102.24 60.91 102.58 61.57 102.58H81.31C82.03 102.58 82.69 102.18 83 101.53L98 71.24C98.28 70.67 98.2399 69.98 97.9099 69.43L97.95 69.41ZM73.62 74.94C74.24 74.78 74.5699 74.34 74.7699 73.76C76.3799 73.72 76.5799 74.03 75.9099 75.52C75.7199 75.7 75.53 75.87 75.33 76.05C74.95 76.07 74.58 76.09 74.2 76.11L73.61 74.94H73.62ZM67.2 89.99C67.04 90.06 66.8399 90.04 66.6599 90.06L66.6399 90.03C66.7499 89.88 66.83 89.69 66.98 89.61C67.09 89.55 67.28 89.63 67.44 89.65C67.37 89.77 67.32 89.94 67.21 89.99H67.2ZM70.44 86.95C70.4 87.1 70.22 87.31 70.07 87.33C69.61 87.41 69.1299 87.42 68.7699 87.44C67.8599 87.64 67.38 87.27 67.09 86.55C66.95 86.2 67.25 85.64 67.58 85.69C68.51 85.85 69.4699 85.93 70.2999 86.44C70.4099 86.51 70.48 86.79 70.44 86.94V86.95ZM71.35 79.04C71.51 78.83 71.66 78.61 71.81 78.4C72.36 77.64 72.9599 76.96 74.1799 77.28H74.19C74.19 77.62 74.3499 77.83 74.6599 77.93C74.7099 78.1 74.78 78.25 74.87 78.4C74.94 79.35 74.08 79.6 73.58 80.12C73.15 80.21 72.72 80.33 72.46 80.73C71.6733 80.65 71.3033 80.0867 71.35 79.04ZM74.82 99.24C74.77 99.81 74.66 100.32 73.96 100.48C73.74 100.53 73.54 100.64 73.34 100.76C73.2 100.8 73.07 100.85 72.99 100.95C72.81 100.88 72.62 100.84 72.46 100.74C71.35 100.04 71.26 99.55 72.07 98.82C73.16 97.85 73.43 97.89 74.81 99.23L74.82 99.24ZM75.09 89.93C74.78 89.53 74.75 89.07 75 88.61C75.25 88.14 75.6499 87.9 76.1599 88.1C76.8199 88.36 77.45 88.23 78.1 88.08L78.1299 88.09C78.2399 87.36 78.6699 87.01 79.4099 87.03C79.9099 87.03 80.3799 87.1 80.5499 87.67C80.7099 88.24 80.3399 88.58 79.9099 88.8C79.4099 89.06 78.86 89.24 78.33 89.45C77.81 90.09 76.98 90.06 76.31 90.38C75.82 90.62 75.39 90.31 75.09 89.93ZM78.11 94.04C77.7 94.15 77.1099 93.7 77.1699 93.24C77.2499 92.6 77.39 91.95 77.58 91.33C77.73 90.86 78.0899 90.53 78.6399 90.61C79.2599 90.7 79.6499 91.07 79.7799 91.67C79.8499 92.6 79 93.79 78.11 94.03V94.04ZM81.19 101.44C80.66 101.28 80.13 101.08 79.62 100.85C79.37 100.73 79.1199 100.46 79.2599 100.18C79.3599 99.99 79.6599 99.89 79.8899 99.77C79.9599 99.73 80.0699 99.77 80.1699 99.77C80.7499 99.77 81.3099 99.81 81.6299 100.39C81.7599 100.63 81.9299 100.93 81.8799 101.16C81.8199 101.45 81.46 101.52 81.19 101.44Z" fill="#355442"/>
</svg>
