<svg width="110" height="110" viewBox="0 0 110 110" fill="none" xmlns="http://www.w3.org/2000/svg">
<path d="M80.13 65.27H77.04C74.06 65.39 71.16 66.06 68.48 67.19C68.68 67.22 68.87 67.28 69.04 67.39C69.37 67.6 69.45 67.82 69.34 68.03C69.28 68.15 69.16 68.27 69 68.39C69 68.57 68.97 68.73 68.88 68.89C68.7 68.86 68.52 68.9 68.36 69C68.17 69.01 67.98 69.03 67.79 69.04C67.6 69.05 67.4 69.06 67.21 69.06C66.59 69.06 66.23 68.81 66.1 68.34C62.79 70.17 59.9 72.77 57.71 75.98V70.5C57.65 70.54 57.59 70.59 57.53 70.63C57.49 70.66 57.45 70.69 57.41 70.71C57.42 71.2 57.24 71.57 56.74 71.74C56.62 71.86 56.47 71.91 56.31 71.89C56.05 72.16 55.81 72.27 55.64 71.81L55.62 71.79C55.51 71.7 55.4 71.62 55.29 71.53C55.2 71.45 55.1 71.38 55 71.3C54.98 71.28 54.96 71.27 54.93 71.25C54.96 71.06 54.96 70.88 54.93 70.69C53.96 70.66 52.96 70.56 52.2 71.38C51.88 72.17 51.58 72.97 51.23 73.75C51.18 73.86 50.89 73.93 50.74 73.9C50.59 73.87 50.4 73.71 50.36 73.57C50.07 72.62 50.34 71.68 50.5 70.74C50.64 70.7 50.78 70.67 50.92 70.66C51.64 69.83 52.93 69.54 53.19 68.27C53.6 68.32 54.01 68.36 54.42 68.41C54.58 68.41 54.73 68.42 54.89 68.44C54.9 68.44 54.91 68.44 54.92 68.44C54.98 68.59 55.01 68.74 55.03 68.9C55.51 68.9 55.91 69.06 56.16 69.51C56.36 69.56 56.55 69.61 56.75 69.66C56.85 69.6 56.93 69.52 57 69.44C57.24 69.15 57.37 68.76 57.69 68.55V63.68C57.29 63.68 56.95 63.47 56.73 63.04C56.46 62.54 56.73 62.15 57.23 61.92C57.58 61.26 57.23 60.43 57.69 59.8V52.32C57.59 52.48 57.47 52.65 57.33 52.8C57.31 52.68 57.29 52.56 57.27 52.44C57.22 52.48 57.16 52.51 57.11 52.54C56.83 52.7 56.53 52.78 56.19 52.69L55.91 52.71H55.63C55.59 52.55 55.55 52.39 55.51 52.24C55.18 52.03 54.89 51.77 54.97 51.35C55.02 51.11 55.22 50.74 55.39 50.72C56.13 50.63 56.92 50.71 57.5 51.14C57.58 51.2 57.65 51.26 57.7 51.33V50.61C64.11 50.4 69.54 46.56 72.12 41.11C72.04 40.98 71.97 40.84 71.92 40.67C71.97 40.64 72.03 40.61 72.08 40.58C72.21 40.51 72.33 40.44 72.46 40.37C73.27 38.42 73.71 36.28 73.71 34.04V30.98C73.49 31.05 73.27 31.11 73.05 31.16C72.64 31.25 72.3 31.05 72.21 30.61C72.14 30.29 72.34 30.04 72.6 29.94C73 29.79 73.41 29.71 73.72 29.63V23C73.72 21.69 73.14 20.53 72.24 19.72C72.12 19.8 72 19.87 71.85 19.93C71.5 20.07 70.94 19.77 70.99 19.44C71.02 19.28 71.04 19.11 71.07 18.95C70.53 18.72 69.94 18.58 69.31 18.58H66.55V5.22C66.55 4 65.56 3.01001 64.34 3.01001C63.12 3.01001 62.13 4 62.13 5.22V18.58H48.88V5.22C48.88 5.05 48.86 4.89001 48.82 4.73001C48.78 4.70001 48.73 4.68002 48.69 4.65002C48.69 4.52002 48.69 4.4 48.65 4.28C48.65 4.26 48.64 4.24002 48.63 4.21002C48.26 3.49002 47.53 3 46.67 3C45.45 3 44.46 3.99002 44.46 5.21002V18.57H41.81C39.37 18.57 37.39 20.55 37.39 22.99V24.54C37.44 24.48 37.5 24.41 37.58 24.36L37.61 24.33C37.81 23.83 38.24 23.74 38.71 23.71C39.34 23.34 39.95 22.99 39.97 22.11C39.97 21.66 40.15 21.23 40.56 20.94C41.55 20.43 42.08 20.52 42.32 21.26C42.53 21.91 42.54 22.58 42.3 23.23C42.38 23.42 42.37 23.6 42.25 23.77C41.91 24.72 40.82 24.58 40.19 25.23C39.49 25.96 38.37 25.7 37.49 25.26C37.44 25.24 37.42 25.2 37.39 25.17V34.03C37.39 39.85 40.4 44.97 44.96 47.93C44.96 47.91 44.95 47.89 44.94 47.87C44.87 47.34 45.19 47 45.61 46.74C46.09 46.45 46.53 46.65 46.91 46.95C47.68 47.55 47.79 48.34 47.47 49.22C47.47 49.22 47.44 49.24 47.42 49.25C49.27 50.05 51.28 50.53 53.41 50.6V55.28C53.76 55.44 54.1 55.6 54.46 55.66C54.61 56.08 54.76 56.51 54.9 56.93C55.26 58.02 55.21 58.09 53.82 58.6C53.67 58.6 53.53 58.59 53.4 58.56V60.64C49.56 54.62 43.34 50.61 36.37 49.54C36.41 50.09 36.47 50.65 36.17 51.14C36.09 51.28 35.99 51.41 35.85 51.53C34.95 51.16 33.92 50.96 33.6 49.82C33.38 49.66 33.21 49.46 33.06 49.26H30.32C29.1 49.2 28.06 50.13 28 51.35C28 51.43 28 51.5 28 51.58V54.56C28.16 58.19 29.1 61.62 30.66 64.67C30.71 64.61 30.76 64.54 30.81 64.48C30.81 64.48 30.82 64.46 30.83 64.45C30.83 64.45 30.84 64.45 30.85 64.45C31.36 64.27 31.88 64.15 32.42 64.33C33.83 64.3 33.89 64.3 34.16 63.27C34.17 63.22 34.18 63.17 34.2 63.12L34.18 63.1C34.16 63.1 34.13 63.1 34.11 63.1C34.06 63.1 34.01 63.1 33.95 63.1C33.87 63.1 33.78 63.09 33.7 63.09C33.57 62.94 33.52 62.76 33.57 62.57C33.45 62.28 33.53 61.85 33.76 61.87C34.86 61.93 35.7 61.43 36.56 60.83C36.81 60.66 37.28 60.83 37.66 60.83C37.73 61.01 37.77 61.21 37.87 61.36C37.87 61.37 37.88 61.38 37.89 61.39C38.6 62.42 38.3 63.33 37.53 64.18C37.37 64.2 37.23 64.24 37.09 64.32C37.08 64.47 37.06 64.62 37.05 64.77C37.05 64.79 37.05 64.82 37.05 64.84C36.89 64.88 36.74 64.92 36.59 64.98C36.33 66.0467 35.71 66.57 34.73 66.55C34.37 66.55 34.01 66.51 33.65 66.48C33.65 66.48 33.63 66.47 33.63 66.46C33.31 66.08 32.89 66.11 32.46 66.23C32.46 66.15 32.46 66.08 32.46 66C32.46 65.97 32.46 65.94 32.46 65.91C32.41 65.94 32.36 65.97 32.32 66C32.05 66.19 31.91 66.45 31.83 66.75C32.79 68.26 33.91 69.66 35.17 70.92C35.35 70.76 35.59 70.66 35.9 70.64C36.3 71 36.71 71.36 37.11 71.71C37.42 71.81 37.63 72 37.69 72.33C38.01 72.42 38.22 72.61 38.25 72.95C38.31 73.1 38.39 73.24 38.43 73.4C38.43 73.43 38.33 73.49 38.25 73.55C41.31 75.75 44.89 77.27 48.78 77.89C48.59 77.6 48.5 77.26 48.49 76.88C48.46 76.01 48.09 75.3 47.51 74.69C47.5 74.41 47.46 74.14 47.48 73.86C47.52 73.37 47.82 73.23 48.22 73.44C49.26 73.98 49.46 75.24 50.3 75.95C50.34 76.11 50.4 76.27 50.49 76.41C50.38 76.43 50.28 76.45 50.17 76.49C50.17 76.51 50.19 76.52 50.19 76.54C50.26 76.7 50.34 76.86 50.36 77.02C50.47 77.89 50.3 78.04 49.29 77.96C50.12 78.07 50.97 78.15 51.82 78.18H53.26V81.63C53.43 81.86 53.59 82.08 53.76 82.31C53.76 82.47 53.76 82.63 53.79 82.79C53.61 82.79 53.43 82.79 53.26 82.79V90.16C53.26 90.16 53.31 90.2 53.34 90.22C53.43 90.3 53.5 90.41 53.57 90.51C53.65 90.64 53.73 90.77 53.82 90.9C53.63 91.26 53.45 91.61 53.26 91.97V102.23C53.42 102.08 53.61 101.96 53.84 101.88C53.9 102.19 54.1 102.38 54.39 102.48C53.89 103.2 53.79 103.34 53.25 103.15V104.01C53.25 105.23 54.24 106.22 55.46 106.22C56.68 106.22 57.67 105.23 57.67 104.01V94.4H58.66C60.7 94.32 62.67 93.99 64.56 93.45C64.52 93.37 64.49 93.27 64.5 93.16C64.53 92.85 64.78 92.73 65.08 92.74C65.32 92.8 65.48 92.95 65.55 93.14C66.55 92.81 67.52 92.41 68.45 91.95C68.51 91.82 68.63 91.71 68.8 91.65C68.87 91.65 68.92 91.67 68.98 91.69C76.66 87.75 82 79.91 82.4 70.77V67.57C82.42 66.95 82.18 66.35 81.74 65.91C81.31 65.47 80.7 65.23 80.08 65.25L80.13 65.27ZM69.33 43.49C69.33 43.49 69.42 43.49 69.47 43.49C69.3 43.86 69.05 44 68.78 44.05C68.47 44.1 68.12 44.03 67.79 44.02C67.77 43.86 67.79 43.7 67.84 43.54C68.11 43.54 68.37 43.52 68.64 43.52C68.87 43.52 69.1 43.51 69.33 43.5V43.49ZM68.84 28.54C68.63 29.32 68.14 29.64 67.35 29.48C67.5366 28.74 68.0334 28.4267 68.84 28.54ZM42.22 37.79C42.22 37.91 42.22 38.03 42.22 38.15C41.39 37.92 41.05 37.36 41.12 36.52C41.22 36.53 41.32 36.55 41.42 36.56C41.67 36.59 41.91 36.62 42.16 36.66C42.19 36.66 42.23 36.66 42.26 36.67C42.26 37.05 42.24 37.42 42.23 37.8L42.22 37.79ZM47.52 16.27C47.35 17.35 46.46 17.13 45.76 17.24C45.6 17.1 45.44 16.96 45.29 16.81C45.29 15.96 45.73 15.65 46.52 15.84C46.87 15.92 47.19 16.12 47.52 16.27ZM65.23 19.38C65.16 19.46 65.08 19.54 64.97 19.6C64.97 19.24 64.95 18.88 64.94 18.52C64.94 18.38 64.94 18.23 64.93 18.09C65.09 18.04 65.26 18.03 65.43 18.04C65.43 18.22 65.43 18.41 65.44 18.6C65.44 18.88 65.42 19.16 65.23 19.38ZM62.57 12.83C62.9 12.82 63.11 12.66 63.21 12.35C63.38 12.3 63.53 12.23 63.68 12.14C64.63 12.07 64.88 12.93 65.4 13.43C65.49 13.86 65.61 14.29 66.01 14.55C65.93 15.3367 65.3667 15.7067 64.32 15.66C64.11 15.5 63.89 15.35 63.68 15.2C62.92 14.65 62.24 14.05 62.56 12.83H62.57ZM61.55 30.58C61.66 30.47 61.76 30.36 61.87 30.26C61.91 30.22 61.94 30.18 61.98 30.15C62.17 30.15 62.37 30.13 62.55 30.15C63.49 30.31 63.53 30.4 63.05 31.2C62.93 31.39 62.8 31.58 62.67 31.76C62.64 31.81 62.6 31.86 62.57 31.91C61.73 31.97 61.39 31.53 61.39 30.74C61.44 30.69 61.49 30.63 61.55 30.58ZM60.61 39.98C60.88 39.96 61.16 39.96 61.43 39.95C61.42 40.35 61.4 40.74 61.39 41.14C61.04 41.06 60.67 41.02 60.34 40.89C60.21 40.84 60.1 40.6 60.09 40.44C60.06 40.11 60.31 39.99 60.6 39.97L60.61 39.98ZM61.08 44.88C61.32 45.21 61.29 45.6 60.98 45.88C60.56 46.25 60.1 46.57 59.65 46.91C59.44 46.89 59.22 46.87 59.01 46.85C59.01 46.85 58.99 46.87 58.97 46.9C58.97 46.97 58.97 47.04 58.97 47.11C58.97 47.17 58.94 47.22 58.92 47.27C58.92 47.29 58.92 47.31 58.9 47.33L58.68 47.39L58.45 47.37C58.32 47.5 58.17 47.59 58 47.65C57.46 48.23 56.99 47.98 56.59 47.49C56.25 47.08 56.18 46.66 56.77 46.38C56.77 46.38 56.78 46.38 56.79 46.37C56.77 46.17 56.76 45.97 56.74 45.77C57.83 45.35 59.15 45.63 60.08 44.64C60.31 44.4 60.82 44.53 61.07 44.87L61.08 44.88ZM59.96 35.08C59.82 35.15 59.69 35.23 59.54 35.27C59.51 35.27 59.43 35.15 59.38 35.09C59.52 35.02 59.66 34.96 59.8 34.89C59.86 34.95 59.91 35.02 59.97 35.08H59.96ZM48.1 37.72C48.39 37.52 48.66 37.23 48.99 37.14C49.44 37.01 49.94 37.09 50.13 37.62C50.33 38.18 49.91 38.47 49.5 38.67C49.26 38.79 48.97 38.81 48.7 38.87C48.23 38.62 48.12 38.2 48.11 37.72H48.1ZM50.24 41.42C50.08 41.77 49.76 42.01 49.34 41.94C48.91 41.87 48.73 41.54 48.69 41.13C48.67 40.94 48.69 40.75 48.69 40.57C48.75 40.52 48.81 40.46 48.87 40.41C49 40.3 49.14 40.18 49.27 40.07C49.44 40.04 49.6 40.04 49.77 40.07C49.87 40.16 49.96 40.25 50.06 40.33C50.16 40.42 50.25 40.51 50.35 40.6C50.32 40.87 50.35 41.18 50.23 41.41L50.24 41.42ZM51.17 23.45C51.28 23.24 51.55 23.02 51.77 22.99C52.16 22.94 52.55 23.61 52.41 24.03C52.19 24.34 51.92 24.58 51.51 24.36C51.15 24.16 50.97 23.82 51.16 23.45H51.17ZM52.74 34.2C53.17 35.1 53.14 35.26 52.42 35.38C52.15 35.43 51.86 35.35 51.58 35.32C51.58 34.55 52.02 34.22 52.74 34.2ZM53.82 45.74C53.77 45.74 53.71 45.74 53.66 45.74C53.26 45.73 52.86 45.71 52.46 45.7C52.39 45.7 52.33 45.7 52.26 45.7C52.35 45.49 52.44 45.29 52.53 45.08C52.59 44.94 52.66 44.79 52.72 44.65C53.47 44.65 53.96 44.89 53.82 45.76V45.74ZM54.26 31.8C54.15 31.51 54.32 31.27 54.55 31.09C55.01 30.71 55.57 30.69 56.13 30.68C56.17 30.31 56.2 29.94 56.24 29.57C56.15 29.38 56.16 29.2 56.26 29.03C56.4 28.49 56.83 28.49 57.27 28.49C57.3 28.68 57.3 28.87 57.27 29.06L57.3 29.08C57.82 29.04 57.99 30.21 58.81 29.41C59.12 29.11 59.51 29.74 59.66 30.17C60.22 31.81 58.9 32.8 58.29 34.02C58.25 34.1 57.72 34.05 57.52 33.91C57.22 33.7 57.01 33.36 56.77 33.07C56.6 33.04 56.42 33.01 56.25 32.98C55.99 32.17 55.34 32.17 54.66 32.16C54.53 32.16 54.34 31.95 54.28 31.8H54.26ZM55 55.88C54.84 55.78 54.65 55.71 54.48 55.62C54.48 55.62 54.48 55.62 54.48 55.61C54.49 55.52 54.5 55.44 54.51 55.35C54.54 55.08 54.58 54.82 54.61 54.55C54.76 54.54 54.9 54.48 55.02 54.38C56.3134 54.4867 57.0767 55.08 57.31 56.16L57.25 56.13C56.51 56.74 55.82 56.77 55.15 56C55.11 55.95 55.06 55.91 55 55.87V55.88ZM33.54 57.41H33.52C33.48 57.76 33.66 58.41 33.21 58.35C32.94 58.31 32.67 58.26 32.41 58.2C31.29 57.96 30.22 57.54 29.28 56.84C28.95 56.59 28.89 56.17 29.16 55.83C29.66 55.21 30.34 54.82 31.11 54.72C31.85 54.62 32.33 55.15 32.77 55.68C33.16 56.14 32.81 56.92 33.36 57.31C33.41 57.35 33.47 57.39 33.54 57.42V57.41ZM37.19 56.84C37.69 57.05 38.18 57.26 38.68 57.47C38.69 57.47 38.71 57.48 38.72 57.49C38.72 57.74 38.73 57.99 38.74 58.25C38.74 58.31 38.74 58.36 38.74 58.42C38.74 58.42 38.74 58.42 38.74 58.43C37.08 58.52 36.99 58.43 37.19 56.84ZM40.17 61.22C39.78 60.96 39.6 60.61 39.54 60.2C39.52 60.06 39.51 59.92 39.51 59.77C39.55 59.77 39.59 59.77 39.64 59.76C39.7 59.76 39.76 59.74 39.82 59.74C40.4 59.74 40.88 60.12 41.42 60.29C41.48 60.31 41.55 60.33 41.62 60.34C41.31 61.37 40.84 61.66 40.18 61.22H40.17ZM44.89 53.53C45.26 53.61 45.56 53.93 45.6 54.32C45.66 55.02 45.08 54.94 44.64 55.01C44.45 54.8 44.27 54.59 44.08 54.38C44.15 53.9 44.25 53.4 44.89 53.53ZM45.65 63.76C45.72 63.92 45.77 64.1 45.78 64.3C45.52 64.42 45.27 64.55 45.01 64.64C44.73 64.73 44.38 64.69 44.3 64.4C44.24 64.18 44.36 63.85 44.51 63.66C44.67 63.45 44.96 63.34 45.2 63.19C45.31 63.27 45.4 63.37 45.48 63.47C45.55 63.56 45.61 63.66 45.66 63.77L45.65 63.76ZM46.34 67.75C46.11 67.91 45.9 68.11 45.64 68.22C45.01 68.5 44.55 68.2 44.24 67.68C43.95 67.21 44.17 66.58 44.67 66.22C45.19 65.85 45.74 66 46.28 66.14C46.3 66.68 46.32 67.22 46.33 67.76L46.34 67.75ZM45.85 60.91C45.92 60.91 45.99 60.93 46.07 60.93C46.28 60.95 46.49 60.98 46.71 61C46.72 61 46.74 61 46.75 61C46.75 61.34 46.76 61.69 46.77 62.03C46.77 62.15 46.77 62.28 46.77 62.4C45.66 62.2 45.66 62.2 45.85 60.91ZM47.04 57.9C46.74 57.84 46.51 57.59 46.65 57.28C46.75 57.06 47.01 56.92 47.16 56.78C47.56 56.84 47.79 57.01 47.79 57.32C47.79 57.79 47.47 57.99 47.04 57.9ZM60.29 75.81C60.09 76.22 59.87 76.3 59.63 75.83C59.85 75.83 60.07 75.81 60.29 75.81ZM56.24 79.38C56.38 79.26 56.53 79.15 56.64 79.01C56.89 78.72 57.12 78.42 57.55 78.7C57.88 78.92 58.06 79.25 57.99 79.64C57.92 79.99 57.81 80.42 57.35 80.42C57.11 80.42 56.83 80.27 56.65 80.09C56.46 79.91 56.38 79.62 56.25 79.38C56.25 79.38 56.25 79.38 56.25 79.37L56.24 79.38ZM56.39 88.58C56.28 88.58 56.17 88.56 56.05 88.52C55.93 88.47 55.8 88.42 55.68 88.37C55.02 88.1 54.41 87.76 54.42 86.84C55.03 86.48 55.64 86.12 56.25 85.77C56.38 85.79 56.51 85.81 56.64 85.81C56.8 86.45 56.99 87.08 57.11 87.73C57.2 88.23 56.85 88.61 56.38 88.6L56.39 88.58ZM58.4 93.67C58.4 93.67 58.38 93.67 58.37 93.67C58.15 93.67 57.93 93.67 57.71 93.68H57.49L57.48 93.73C57.33 93.19 57.24 92.66 57.51 92.13C57.85 92.11 58.2 92.09 58.54 92.07C58.64 92.18 58.71 92.29 58.76 92.4C58.99 92.86 58.82 93.28 58.4 93.68V93.67ZM60.87 89.7L60.85 89.73C60.83 89.71 60.82 89.69 60.8 89.67L60.78 89.65C60.7 89.56 60.62 89.47 60.54 89.38C60.46 89.29 60.37 89.19 60.29 89.1C60.31 88.97 60.3 88.84 60.29 88.71C60.29 88.69 60.29 88.68 60.29 88.66C60.8 88.22 61.32 88.17 61.86 88.51C61.9 88.54 61.95 88.57 61.99 88.6C62.01 89.37 61.67 89.76 60.88 89.71L60.87 89.7ZM61.39 85.75C60.91 85.05 59.95 84.83 59.62 83.98C60.14 83.1 61.05 83.07 61.91 82.93C62.3 83.29 62.69 83.64 63.08 84C63.1534 85.2067 62.59 85.79 61.39 85.75ZM66.11 84.89C65.53 85.08 64.97 84.98 64.57 84.5C64.42 84.32 64.35 83.93 64.44 83.72C64.53 83.51 64.85 83.31 65.1 83.28C65.71 83.2 66.12 83.71 66.62 83.94V83.95C66.52 84.3 66.54 84.73 66.11 84.88V84.89ZM68.18 77C67.38 77.16 66.68 76.94 66.02 76.51L65.97 76.41C65.78 76.07 65.6 75.73 65.41 75.39C65.09 75.33 64.85 75.16 64.77 74.83C64.45 74.76 64.27 74.56 64.2 74.25C63.72 74.18 63.29 74 62.98 73.6C62.67 73.2 62.51 72.77 62.77 72.27C62.97 71.89 63.31 71.73 63.71 71.74C64.47 71.75 65.24 71.97 66 71.73C66.14 71.75 66.27 71.78 66.38 71.82C66.95 72.02 67.19 72.45 67.25 73C67.25 73.05 67.26 73.1 67.26 73.15C67.26 73.27 67.26 73.4 67.26 73.53C67.39 73.59 67.53 73.64 67.67 73.68C68.07 74.43 68.49 75.16 68.84 75.93C69.03 76.34 68.61 76.91 68.16 77H68.18ZM70.06 82.19C69.68 81.96 69.12 81.89 69.22 81.25C69.22 81.19 69.38 81.11 69.46 81.12C70.15 81.19 70.02 81.74 70.07 82.19H70.06ZM77.05 78.75C76.94 79.75 76.93 79.76 75.9 79.84C75.13 79.64 75.21 79.07 75.42 78.54C75.73 77.78 75.45 77.31 74.81 76.95C74.77 76.79 74.73 76.63 74.7 76.47C74.42 76.45 74.13 76.37 73.86 76.42C73.13 76.55 72.49 77.22 71.71 76.89C70.76 76.5 71.46 75.5 71.09 74.88C70.94 74.64 70.78 74.4 70.63 74.17C69.79 74.16 69.55 73.39 69.09 72.92C69.09 72.76 69.09 72.6 69.11 72.46C69.24 71.13 70.29 70.39 71.23 69.57C71.41 69.77 71.6 69.97 71.76 70.19C72.32 70.93 72.32 71 71.55 71.44C71.16 71.66 70.48 71.7 70.55 72.26C70.63 72.91 71.23 72.98 71.8 72.97C71.83 72.97 71.86 72.97 71.88 72.97C71.98 72.97 72.08 72.97 72.18 72.97C72.64 72.97 73.11 72.97 73.57 72.97C73.67 73.12 73.74 73.28 73.77 73.45C74.49 73.62 74.88 74.2 75.31 74.73C76.31 75.19 76.68 76.2 77.29 76.99C77.79 77.63 77.42 78.21 77.06 78.77L77.05 78.75Z" fill="#355442"/>
</svg>
