<svg width="224" height="93" viewBox="0 0 224 93" fill="none" xmlns="http://www.w3.org/2000/svg">
<path d="M221.524 44.6105C221.48 44.0892 221.567 43.6115 221.784 43.1336C219.699 28.9719 217.571 14.8535 215.485 0.691708C213.704 0.561386 211.88 0.691666 210.099 0.648225C209.447 1.86457 208.361 2.60305 207.232 2.25552C206.146 1.95143 205.233 1.3869 204.669 0.561523C193.026 0.995933 181.471 3.29811 170.567 7.42501C163.921 9.94458 157.579 13.1159 151.323 16.5043C151.062 19.3714 150.802 22.2384 150.541 25.062C150.541 26.3653 150.541 27.7121 150.541 29.0153C150.367 30.7095 149.368 31.7955 147.717 31.6651C144.981 31.4479 144.155 29.58 144.329 27.0604C144.72 24.5843 145.111 22.1081 145.502 19.6754C141.071 22.1515 136.64 24.6277 132.166 27.0604C130.167 30.3185 127.213 32.9683 123 34.8362C121.74 34.5322 120.784 33.8372 119.915 33.0553C116.049 34.7929 112.139 36.3567 108.099 37.6165C106.97 37.9641 105.84 38.2248 104.711 38.5289C104.885 38.6592 105.058 38.7894 105.232 38.9197C105.232 39.5713 105.145 40.1362 105.015 40.7009C104.798 41.6132 104.363 42.4386 103.581 43.1336C103.495 43.6115 103.495 44.0891 103.495 44.567C103.495 44.7842 103.451 45.0015 103.451 45.2187C101.323 47.217 100.888 49.7366 100.845 52.3431C100.845 52.8644 100.845 53.3857 100.845 53.9504C98.7595 53.9069 96.6309 53.8634 94.5457 53.8199C94.5457 53.8199 94.5022 53.4724 94.4588 53.2552C94.4154 52.7773 94.3719 52.2996 94.4588 51.7783C94.4588 51.7783 94.4588 51.7783 94.4588 51.7348C94.4588 51.7348 94.4588 51.7348 94.4154 51.7348C93.6769 51.7348 92.9384 51.7784 92.1999 51.8218C92.0696 51.1268 92.0261 50.475 92.0261 49.78C90.245 48.4767 88.464 47.1737 87.8992 44.8279C86.7698 43.7419 85.5969 42.6558 84.4674 41.5698C72.0433 42.0042 59.4888 39.9623 47.8901 35.4445C36.9864 31.1438 26.995 24.6277 18.4806 16.5043C18.4371 16.5912 18.4806 16.678 18.3937 16.7649C17.7855 17.8509 17.7855 19.241 17.4814 20.5008C17.4814 21.2393 17.3076 21.9777 17.0035 22.6293C17.5683 23.976 18.2199 25.236 18.6543 26.6261C19.1322 28.1465 18.6543 29.4497 17.3511 30.4054C16.0913 31.3177 14.6143 31.5349 13.3545 30.6661C11.921 29.6235 10.835 28.1029 9.31454 27.1906C8.57604 26.7562 7.27278 27.2342 6.2302 27.321C6.2302 29.5365 6.23021 31.7521 6.09988 33.9242C6.013 34.9667 5.70895 36.2698 4.23195 36.1829C3.18937 36.1395 1.97297 35.9657 1.19103 35.401C0.843504 35.0969 0.582895 34.793 0.278809 34.4454C0.626336 42.2214 1.2345 49.9972 2.23364 57.7297C2.84181 62.291 3.62377 66.9393 6.05647 70.849C8.92357 75.4103 13.789 78.3642 18.6109 80.7969C36.6389 89.8326 57.143 93.8726 77.2996 92.4825C77.2128 91.3965 77.4299 90.3538 78.516 89.4416C78.4725 86.5745 77.9947 83.7075 79.0807 80.9273C79.4717 79.32 80.6446 78.6684 82.165 78.4946C83.5551 78.3209 84.7281 77.8428 85.5535 76.6699C85.5969 76.583 85.6838 76.5397 85.7272 76.4528C86.3354 75.9749 86.9001 75.5405 87.5083 75.1061C87.6821 74.9758 87.8558 74.8454 88.0296 74.715C89.2459 75.5838 90.5057 76.7568 89.8976 78.2772C88.1599 82.5344 87.682 86.8351 87.8992 91.3095C93.0253 90.4841 98.1079 89.3113 103.104 87.8343C102.539 87.313 101.974 86.5745 101.062 85.3581C103.321 83.6639 103.364 81.2314 103.451 78.7553V78.842C105.58 78.1035 107.665 78.2338 109.793 78.7985C109.707 80.9271 109.62 83.0558 109.533 85.1844C109.098 85.5754 108.621 85.9665 108.186 86.3574C122.565 81.5789 136.292 74.5848 149.281 66.6786C161.141 59.4239 172.826 51.257 186.293 47.9555C199.76 44.654 215.92 47.4776 224 58.7723C223.392 54.6888 222.783 50.6053 222.175 46.5219C221.828 46.0875 221.524 45.5663 221.437 44.7409L221.524 44.6105ZM112.009 71.6744C110.098 71.5875 108.707 70.849 107.448 69.2417C106.753 68.3294 105.363 67.9383 104.19 67.417C104.059 67.3735 103.929 67.2868 103.799 67.2433C104.103 61.9001 104.146 61.8567 110.011 60.8141C110.098 61.0313 110.141 61.2919 110.141 61.5091C110.489 63.7246 109.663 66.2876 111.879 68.0252C111.792 68.6334 111.879 69.1982 112.183 69.7195C112.009 70.3711 111.966 71.0225 112.052 71.7176L112.009 71.6744ZM116.266 48.2161C114.746 50.171 112.183 49.0414 110.098 49.2152L109.142 49.085C108.968 48.3465 108.664 47.6949 108.186 47.1301C108.577 45.5662 109.012 44.0023 109.403 42.4384C109.576 41.8302 109.707 41.2221 109.88 40.614C111.879 39.7452 114.051 38.6157 115.615 41.1787C116.961 43.3508 118.134 45.9573 116.31 48.2596L116.266 48.2161ZM131.123 54.211C130.298 55.0364 129.038 54.8627 128.299 53.9939C125.736 50.9964 126.605 46.4786 129.95 44.7409C131.384 44.0024 134.338 45.1752 134.511 47.6079C134.511 49.6062 133.208 52.1259 131.123 54.211ZM147.196 34.8797C146.675 36.3567 146.154 37.8338 145.589 39.3108C145.459 39.7018 145.285 40.0926 145.154 40.527C144.329 41.1786 143.504 41.8737 142.635 42.4384C141.679 43.0466 140.159 43.0466 139.898 42.1343C138.986 39.05 136.51 35.9657 139.073 32.6207C139.116 32.5338 139.16 32.447 139.246 32.3601C142.418 31.1872 145.372 31.0135 147.413 34.4019C147.37 34.5757 147.283 34.7495 147.24 34.9232L147.196 34.8797ZM160.619 33.0553C158.969 35.0101 157.839 33.0986 156.797 31.8823C157.492 31.0135 158.187 30.1448 158.882 29.3194C160.402 30.1882 162.096 31.3177 160.576 33.0988L160.619 33.0553ZM176.606 27.1039C174.26 27.408 171.74 27.3644 170.176 29.6668H170.09C168.656 28.8848 167.222 28.0595 165.789 27.2341C165.919 26.7128 165.963 26.1916 165.963 25.6703C166.745 24.8883 167.57 24.1064 168.352 23.2811C169.655 22.8032 171.002 22.4122 172.305 21.8909C173.999 21.2393 175.737 20.7614 177.084 22.3252C178.517 23.976 177.257 25.54 176.649 27.1039H176.606ZM217.744 39.7016C217.136 39.8754 216.311 40.1797 215.876 39.919C214.53 39.0937 214.747 37.6166 214.66 36.3134C215.703 37.1387 216.745 37.9207 217.701 38.833C217.875 38.9633 217.788 39.7016 217.701 39.7016H217.744Z" fill="#50795F"/>
</svg>
