<svg width="79" height="128" viewBox="0 0 79 128" fill="none" xmlns="http://www.w3.org/2000/svg">
<path d="M6.59904 10.116C6.4566 9.86267 6.30578 9.60094 6.16334 9.34766C5.95387 9.44053 5.80306 9.60937 5.88684 9.83733C6.00414 10.1582 6.32254 10.1075 6.59904 10.1244V10.116Z" fill="#222222"/>
<path d="M0.629103 28.2879C0.930515 28.4566 0.913765 28.7435 0.72957 28.9797C0.562119 29.1906 0.327691 29.3425 0.118378 29.5196L0.0765128 29.5449C0.0597678 29.5449 0.0430247 29.5449 0.0262796 29.5365V34.8347L0.294207 34.86C0.377932 34.86 0.470028 34.8769 0.553753 34.8853C0.595616 35.0118 0.654227 35.1469 0.687717 35.2734C0.846795 35.9905 0.67096 36.2605 0.0346476 36.2774V48.3923C0.319314 48.4851 0.503509 48.7213 0.570489 49.1347C0.654215 49.6494 0.478398 50.0459 0.210476 50.4171C0.151869 50.493 0.0932553 50.5605 0.0346476 50.6364V50.8389C0.403039 50.2906 1.00587 50.7799 1.50822 50.7799C1.50822 50.9233 1.49148 51.0751 1.48311 51.2185C1.96034 51.2185 2.47106 51.1257 2.73899 51.691C3.33344 52.4418 2.73898 52.8806 2.30361 53.3615C1.82638 53.4205 1.31566 53.5724 1.03936 52.9649C0.746323 52.754 0.595616 52.4419 0.553753 52.096C0.520263 51.7923 0.202106 51.5898 0.0430283 51.3536V86.8969C0.319322 86.9307 0.595607 86.9729 0.871901 87.0151C0.888646 87.1079 0.897031 87.2006 0.897031 87.2934C0.897031 87.3356 0.913766 87.3778 0.913766 87.42V87.4369C1.43286 87.6562 1.85987 88.1287 2.42083 88.2468C2.60502 88.2889 2.79759 88.289 3.02365 88.2215C3.18273 87.9853 3.41715 87.9262 3.65996 87.884C3.25808 87.2175 3.50926 86.2979 4.32139 85.8002C4.41349 85.7411 4.61443 85.8001 4.7149 85.8592C4.81538 85.9183 4.8656 86.0701 4.94095 86.1798C5.35958 86.1798 5.51029 85.8761 5.66099 85.5387C5.71123 85.429 5.78659 85.3277 5.86194 85.2349C5.80333 85.2349 5.73635 85.2265 5.67774 85.2181C5.5689 84.9481 5.40145 84.695 5.31773 84.4166C5.27587 84.2647 5.25074 84.1044 5.28423 83.9357C5.22562 83.8007 5.22562 83.6741 5.28423 83.5391C5.28423 83.4885 5.26748 83.4379 5.26748 83.3873C5.25911 83.3113 5.25074 83.2438 5.24237 83.1679C5.24237 83.1426 5.24237 83.1089 5.234 83.0836C5.41819 83.1258 5.61076 83.1595 5.77821 83.2439C5.89542 83.3029 5.99589 83.3873 6.07962 83.5223H6.09637C6.34754 83.5645 6.48151 83.6995 6.48988 83.9526C6.35592 83.8091 6.22196 83.6657 6.09637 83.5307C6.24707 83.6573 6.37266 83.8007 6.48988 83.9526C6.515 83.9863 6.515 84.0369 6.53174 84.0791C6.59872 84.0032 6.69082 83.9526 6.77454 83.9019V46.9159C6.64895 47.0256 6.52337 47.169 6.37266 47.2028C6.088 47.2787 5.83682 47.1437 5.70286 46.8568C5.6275 46.6965 5.66937 46.5447 5.84519 46.5194C6.11311 46.4857 6.38104 46.4688 6.64896 46.5025C6.69919 46.5025 6.73269 46.6122 6.78292 46.7303V30.7261C6.54849 30.6923 6.31406 30.6754 6.11312 30.5658C5.77822 30.3886 5.64425 30.0343 5.82007 29.6884C5.88705 29.5534 6.17172 29.4606 6.34755 29.4606C6.52337 29.4606 6.67408 29.5196 6.78292 29.6209V28.87C6.6992 28.87 6.59872 28.8363 6.50663 28.8278C6.57361 28.7266 6.64058 28.6254 6.70756 28.5241C6.73268 28.5241 6.7578 28.5241 6.78292 28.5325V21.9014C6.78292 21.8086 6.78292 21.7158 6.78292 21.623C6.7578 21.623 6.74105 21.6314 6.70756 21.623C6.6657 21.5049 6.63222 21.3868 6.59873 21.2686L6.69082 20.7624C6.61547 20.5684 6.47313 20.3575 6.48988 20.1719C6.48988 20.155 6.50663 20.1466 6.50663 20.1297C6.22196 20.1635 6.10474 19.9778 6.1466 19.6235C6.16335 19.4885 6.21359 19.362 6.24708 19.2354C6.26383 19.227 6.28057 19.2185 6.29731 19.2017C6.61547 19.0161 6.80804 18.9486 6.95037 19.0076C7.0341 18.3918 7.15968 17.8012 7.31038 17.2444C7.25178 17.1178 7.15969 16.9997 7.01735 16.9238C6.942 16.8648 6.86664 16.8141 6.77454 16.7804C6.7578 16.7129 6.72431 16.6454 6.71594 16.5779C6.65733 15.8692 6.80804 15.6668 7.25178 15.8692C7.37737 15.9283 7.47784 16.038 7.60343 16.097C7.62854 16.1054 7.63692 16.1139 7.65366 16.1223C8.22299 14.5784 9.06862 13.2623 10.2073 12.1487C13.4893 8.95122 18.965 7.55919 25.1104 7.03612C25.3113 6.8252 25.529 6.74928 25.6881 6.9855C27.7729 6.8252 29.9246 6.76613 32.0931 6.7577C32.0847 6.65646 32.0931 6.55521 32.1266 6.46241C32.2857 6.0912 32.5954 5.94778 32.9722 6.04058C33.2653 6.10807 33.4662 6.31055 33.3741 6.64802C33.3657 6.6902 33.3406 6.72395 33.3239 6.7577C36.3798 6.78301 39.4358 6.90112 42.3494 7.02767C42.2741 6.63959 42.3327 6.30212 42.7095 6.04902C42.7848 6.08277 42.8518 6.12497 42.9188 6.16715C43.3039 6.40337 43.5886 6.70709 43.7728 7.08673C44.7942 7.12892 45.7989 7.1711 46.7869 7.21328C46.9543 6.97705 47.2139 6.8252 47.4986 6.85051C47.6995 6.86738 47.8251 7.01923 47.8335 7.25545C51.1992 7.37356 54.3138 7.39887 56.8925 7.14577C58.701 7.16264 60.4258 7.53387 62.0165 8.15817C62.0165 8.11599 62.0165 8.09068 62.0165 8.04849C62.5189 7.94725 62.7198 8.1413 62.7868 8.47877C64.6037 9.31399 66.2112 10.5035 67.5424 11.9715C67.5843 11.8112 67.7099 11.6678 67.9108 11.6172C68.1703 11.5413 68.3043 11.7269 68.388 11.9125C68.6894 12.6211 68.9825 13.3298 69.2755 14.0385C69.5434 14.0385 69.6941 14.1735 69.736 14.435C69.8365 14.705 69.8281 14.9749 69.7946 15.2449C70.8077 17.2528 71.3938 19.5223 71.3938 21.9267V23.749C71.3854 23.614 71.3938 23.4875 71.4273 23.3609C71.6533 23.3187 71.8208 23.2006 71.8961 22.9813V22.9981C72.7501 23.4706 72.8087 23.5718 72.365 24.1708C72.3399 24.2046 72.3231 24.2215 72.298 24.2552C72.2729 24.3902 72.2645 24.5336 72.2813 24.6686C72.1054 24.7867 71.9212 24.9048 71.7454 25.0229C71.6198 25.1157 71.5026 25.1579 71.3854 25.2254V32.4893C71.6198 32.4893 71.8459 32.599 71.9464 32.8774C72.0971 33.2992 71.7873 33.5102 71.4775 33.662C71.4524 33.6789 71.4189 33.6789 71.3854 33.6873V34.7081C71.4859 34.6997 71.5863 34.6913 71.6784 34.7081C71.7454 34.7756 71.8208 34.8431 71.8878 34.9022C71.9631 34.9697 72.0301 35.0372 72.1054 35.1047C72.0803 35.3071 72.1054 35.5349 72.0217 35.7121C71.9045 35.9652 71.6784 36.1339 71.3854 36.1002V60.5072C71.3854 60.5072 71.4273 60.5832 71.4524 60.6169C71.4524 60.6 71.4524 60.5747 71.4524 60.5579C71.4524 60.4566 71.444 60.3638 71.4356 60.2626C71.6952 60.2457 71.9547 60.2288 72.2059 60.2035C72.2645 60.1107 72.3231 60.0264 72.3817 59.9336C72.2813 59.8998 72.164 59.7986 72.1306 59.7057C71.9212 58.9971 72.1138 58.2968 72.231 57.5966C72.3315 57.5629 72.4403 57.546 72.5408 57.5376C73.0767 56.9133 74.0311 56.7023 74.2237 55.7574C74.5251 55.7912 74.8349 55.8249 75.1363 55.8587C75.2535 55.8587 75.3707 55.8671 75.4796 55.8756C75.4796 55.8756 75.4963 55.8756 75.5047 55.8756C75.5465 55.9852 75.5717 56.1034 75.5884 56.2215C75.9484 56.2215 76.2415 56.3396 76.4257 56.677C76.568 56.7108 76.7187 56.753 76.861 56.7867C76.9364 56.7445 76.995 56.6855 77.0452 56.618C77.2545 56.3564 77.3383 55.9768 77.715 55.8756C77.8406 55.8502 77.9662 55.825 78.1002 55.7912V52.1803C77.5643 52.4334 77.1122 52.3406 76.8527 51.8429C76.6601 51.4717 76.8527 51.1764 77.2211 51.0076C77.5057 50.4761 77.1708 49.7844 77.6564 49.3035C77.6229 48.9154 77.782 48.637 78.1002 48.4429V40.1666C78.0081 40.2594 77.8992 40.3269 77.7737 40.3691C77.3718 40.7994 77.0201 40.6138 76.7271 40.251C76.4759 39.9388 76.4257 39.6267 76.861 39.4242C76.861 39.4242 76.8694 39.4242 76.8778 39.4242C76.861 39.2723 76.8527 39.1205 76.8359 38.9771C77.2294 38.8252 77.6648 38.7999 78.0918 38.724V29.9836C78.0499 30.0596 77.9997 30.1271 77.9662 30.203C77.9327 30.2621 77.5392 30.2199 77.3969 30.1186C77.1708 29.9583 77.0201 29.7052 76.8359 29.4943C76.7103 29.469 76.5764 29.4521 76.4508 29.4268C76.2666 28.8447 75.8061 28.8278 75.3205 28.8194C75.4377 28.8784 75.5549 28.9459 75.6721 29.0134V29.2497C75.6805 29.3003 75.6805 29.3593 75.6889 29.41C75.6889 29.7305 75.647 29.9752 75.4293 30.0343C75.3289 30.0596 75.2033 30.0427 75.0274 29.9752C74.8432 29.9077 74.6507 29.874 74.4665 29.8233C74.3158 29.5956 74.073 29.3593 74.2153 29.0641C74.3912 28.7013 74.7428 28.6 75.1196 28.7266C75.0693 28.676 75.0274 28.6085 75.0023 28.5494C74.9186 28.3301 75.0526 28.1529 75.2116 28.0179C75.5549 27.7395 75.9652 27.7142 76.3838 27.7142C76.4089 27.4358 76.434 27.1658 76.4592 26.8874C76.3922 26.7524 76.4005 26.609 76.4759 26.4825C76.501 26.3981 76.5345 26.339 76.5764 26.2884C76.4675 26.2294 76.3671 26.145 76.3336 26.0606C76.1745 25.681 76.0321 25.2676 76.0238 24.8626C76.007 24.2214 75.9401 23.6056 75.6219 23.0403C75.3038 22.956 75.0275 22.821 74.86 22.5257C74.7428 22.5257 74.6339 22.5004 74.5167 22.4666C74.5084 22.2051 74.5 21.9436 74.4832 21.6905C74.6088 21.6567 74.726 21.6061 74.8349 21.547C74.8433 21.6483 74.8684 21.7495 74.8935 21.8508C74.9186 21.8339 74.9521 21.8255 74.9856 21.817C75.3456 21.6483 75.714 21.6399 76.0992 21.7495C76.2415 21.7242 76.3922 21.7073 76.5345 21.682C76.6099 21.7664 76.6601 21.8677 76.6768 21.9858C76.794 22.1545 77.0285 22.3232 77.0201 22.4835C76.9615 23.5465 77.1541 24.5758 77.3383 25.605C77.3466 25.6725 77.3299 25.74 77.3215 25.816C77.3048 25.9341 77.2713 26.0269 77.2211 26.1197C77.2378 26.2547 77.2462 26.3897 77.2211 26.5162L77.2462 26.5331C77.5643 26.5078 77.715 27.0983 78.1002 26.9549V21.9351C78.1002 16.5695 76.1326 11.6678 72.9008 7.89664C72.6999 8.34378 72.3901 8.61375 72.072 8.87529C72.072 8.87529 72.0636 8.87529 72.0552 8.87529C72.365 8.98496 72.6748 9.09463 72.9762 9.2043C72.9511 9.35616 72.9343 9.50803 72.9092 9.65989C72.9762 9.778 72.9846 9.89612 72.9343 10.0142C72.8339 10.9676 72.7669 10.9929 71.7705 10.4529C71.7454 9.98892 71.7203 9.51646 71.7036 9.05245C71.7036 9.04401 71.7036 9.03558 71.7036 9.02714C71.377 9.0862 71.0254 8.96808 70.7491 8.68124C70.364 8.28472 70.4728 7.73635 70.8831 7.4495C70.8831 7.43263 70.8831 7.4242 70.8831 7.40733C70.9417 7.22172 71.0505 7.06986 71.2766 6.97705C71.3268 7.06986 71.3435 7.16265 71.3854 7.25545C71.7036 7.2217 72.0217 7.27232 72.3566 7.30607C68.4466 3.06246 62.8873 0.379631 56.7 0.379631H56.5325L56.3651 0.396495C54.6738 0.565227 52.6142 0.598976 50.3452 0.556793C50.3452 0.717088 50.3452 0.885834 50.3452 1.04613C50.0773 1.00395 49.7508 1.04614 49.5415 0.894277C49.4075 0.801474 49.3321 0.666469 49.2819 0.531484C47.44 0.480864 45.4808 0.396516 43.4797 0.31215C40.8842 0.194038 38.1715 0.0843649 35.4086 0.0253088C35.1239 0.261533 34.7807 0.438695 34.4541 0.6243C34.136 0.413385 33.8095 0.202478 33.4913 0C33.4076 0 33.3322 0 33.2485 0C33.2318 0.413393 33.2485 0.852088 32.7378 1.04613C32.3443 1.02926 31.9591 1.00394 31.5656 0.987067C31.5321 0.970194 31.507 0.944878 31.4735 0.928005L31.1219 0.683362C31.1219 0.683362 31.08 0.658037 31.0633 0.641164C30.7702 0.531488 30.6781 0.295263 30.6446 0.00841909C30.6195 0.00841909 30.6028 0.00841909 30.5777 0.00841909C30.5693 0.00841909 30.5609 0.0168639 30.5442 0.0168639C30.5274 0.0168639 30.5274 0.00841909 30.5107 0.00841909C23.0759 0.126531 15.7332 1.0377 10.0733 4.03269C10.2157 4.03269 10.3664 4.03269 10.5087 4.03269C10.7096 4.04113 10.9273 4.07485 10.9776 4.32795C11.0194 4.5473 10.9022 4.69917 10.7348 4.83415C10.5841 4.96914 10.4585 5.12943 10.3161 5.28129C10.0733 5.26442 9.82215 5.25599 9.57935 5.23912C9.4705 4.94384 9.44538 4.64856 9.4705 4.34484C8.89279 4.67387 8.34022 5.02819 7.80437 5.40783C7.87135 5.54282 7.91321 5.70311 7.93832 5.88028C7.74576 6.15025 7.57831 6.56367 7.17643 6.35276C7.08433 6.30214 7.04247 6.14183 7.01735 5.9731C6.48988 6.38649 5.97078 6.81676 5.49354 7.2892C5.27586 7.50856 5.07493 7.74477 4.87398 7.96412C5.1754 8.29315 5.53541 8.51251 6.088 8.36909C6.79687 8.12724 7.27969 8.25098 7.53645 8.7403C7.62854 8.92591 7.70389 9.11995 7.79599 9.29712C8.27323 10.2083 8.24811 10.2842 7.72064 10.9422C7.22666 11.5581 6.70756 11.5919 6.10474 11.1194C5.45168 11.0098 4.89073 10.7229 4.48047 10.1914C4.29628 9.95517 4.08696 9.79487 3.7688 9.84549C3.60135 9.8708 3.40041 9.99735 3.23296 10.0058C1.04773 13.2454 -0.0406996 17.236 0.00116306 21.9351V28.1951C0.202104 28.1613 0.411423 28.1698 0.595619 28.271L0.629103 28.2879ZM0.528637 57.2592C0.545382 57.1326 0.645843 56.9639 0.871901 56.9217C1.16494 56.8626 1.44124 57.2845 1.34077 57.6726C1.29054 57.8666 1.15658 58.0438 0.897031 57.9763C0.612364 57.9088 0.478397 57.6894 0.537005 57.2592H0.528637ZM0.570489 63.2829C0.570489 63.2829 0.612354 63.2829 0.637471 63.2829C0.813294 63.2829 0.989126 63.2829 1.15658 63.2829C1.19844 63.2829 1.2403 63.2829 1.28216 63.2829C1.29891 63.3504 1.31565 63.4263 1.32403 63.4938C1.38263 63.7807 1.41612 64.1012 1.1482 64.27C1.01424 64.3543 0.721195 64.3037 0.570489 64.2109C0.151863 63.9325 0.386294 63.6035 0.570489 63.2997V63.2829ZM1.90173 75.7184C1.84312 75.8703 1.59195 76.0559 1.44124 76.0475C0.897025 76.0222 0.486768 75.4147 0.587238 74.841C0.603983 74.7313 0.754691 74.647 0.838417 74.5542C1.40775 74.4192 2.11105 75.1616 1.90173 75.7184ZM72.2561 39.3904C72.2645 39.247 72.3064 39.112 72.3315 38.9771C72.4738 38.9771 72.6245 38.9939 72.7669 39.0024C72.8841 38.9602 73.0013 38.9518 73.1185 38.9855C73.2776 38.9686 73.4283 38.9602 73.5874 38.9433C73.8469 39.2048 74.073 39.4917 73.8553 39.8713C73.6041 40.3185 73.1688 40.31 72.7418 40.2172C72.3231 40.1244 72.231 39.787 72.2561 39.3989V39.3904ZM74.5586 38.9686C74.2655 38.9602 73.9641 38.9433 73.6711 38.9349C73.6209 38.9349 73.5706 38.9349 73.5204 38.9349C73.5874 38.783 73.6543 38.6227 73.7213 38.4709C73.7716 38.3612 73.8134 38.2599 73.8637 38.1503C74.4163 38.1503 74.7847 38.3274 74.6758 38.9771H74.5586V38.9686ZM74.6842 41.8118C74.8851 41.7358 75.0609 41.8539 75.1614 42.0649C75.2116 42.3179 75.0777 42.4614 74.86 42.4782C74.7512 42.4867 74.5837 42.4107 74.5335 42.3179C74.4246 42.1239 74.4916 41.8961 74.6925 41.8118H74.6842ZM74.6842 48.561C73.7548 48.5863 73.4534 47.7849 72.9762 47.2196C72.9929 46.7978 73.0097 46.3675 73.0264 45.9457C73.8302 45.5829 74.4414 46.2663 75.1531 46.3675C75.2619 46.6796 75.3707 47.0002 75.4796 47.3208C75.7475 48.1307 75.714 48.1814 74.6842 48.5695V48.561ZM77.2127 46.7387C76.6601 47.1943 76.1577 47.2112 75.6554 46.6375C75.6219 46.6037 75.5884 46.57 75.5466 46.5447C75.4293 46.4688 75.287 46.4181 75.1614 46.3507C75.1614 46.2832 75.1782 46.2156 75.1865 46.1566C75.2116 45.9625 75.2368 45.7601 75.2619 45.5576C75.3791 45.5492 75.4796 45.507 75.5633 45.431C76.5233 45.5098 77.0899 45.9541 77.2629 46.764L77.2127 46.7387ZM77.422 42.9845C77.9327 43.3641 77.6564 43.8365 77.3048 44.2246C77.288 44.1318 77.2713 44.0474 77.2545 43.9546C77.2127 43.98 77.1792 44.0053 77.1373 44.0306C76.928 44.1487 76.702 44.2077 76.4508 44.1487L76.2415 44.1656H76.0322C76.007 44.0474 75.9736 43.9293 75.9401 43.8112C75.6973 43.6594 75.4796 43.4569 75.5466 43.1532C75.5801 42.976 75.7308 42.6976 75.8563 42.6807C76.4006 42.6132 76.995 42.6723 77.422 42.9929V42.9845ZM74.5251 32.2025C74.6423 32.2278 74.7595 32.2025 74.86 32.135C75.0358 32.0253 75.1949 31.8228 75.3121 31.6288C76.208 31.8734 76.2331 31.9241 76.1326 32.8858C75.9484 33.0124 75.7642 33.1305 75.5884 33.2486C75.1698 33.527 74.7763 33.8307 74.4916 34.2694C74.4665 34.801 74.433 35.3324 74.3995 35.8639C74.3995 35.8639 74.3995 35.8724 74.3911 35.8808C74.3074 35.9821 74.2153 36.0833 74.1316 36.1845C73.8637 36.4967 73.6041 36.9354 73.1353 36.7498C72.5492 36.5136 72.725 35.9652 72.8171 35.4927C72.9594 34.8094 73.1018 34.1345 73.2525 33.4511C73.2525 33.4511 73.286 33.4342 73.3027 33.4258C73.3781 33.392 73.4618 33.3583 73.5288 33.3161C73.6209 32.734 73.4953 32 74.5251 32.2109V32.2025ZM73.0181 31.1901C73.0181 30.6164 73.3446 30.3717 73.8804 30.3464C74.1986 31.0213 74.1734 31.1395 73.646 31.2238C73.445 31.2576 73.2274 31.1985 73.0181 31.1816V31.1901ZM76.5513 20.3575C76.4843 20.3828 76.434 20.3997 76.3754 20.4165C76.3168 20.4334 76.2582 20.4503 76.208 20.4672C75.8145 20.5768 75.7391 20.4925 75.7391 19.9779C75.7391 19.8597 75.7391 19.7247 75.7391 19.5644C76.4005 19.4295 76.5513 19.8175 76.5345 20.3659L76.5513 20.3575ZM75.5717 14.3759C75.5717 14.9243 76.4089 15.3208 75.9987 15.827C75.8061 16.0633 75.1028 15.8186 74.6591 15.9114C74.2739 15.9958 74.006 15.9958 73.7883 15.6414C73.5455 15.2365 73.0599 14.9834 73.0432 14.435C73.8804 14.1988 74.7177 13.8191 75.5717 14.3844V14.3759ZM72.7166 22.3232C72.8004 22.1714 73.0013 22.0026 73.1604 21.9773C73.4534 21.9436 73.7381 22.4413 73.6376 22.7535C73.4785 22.9813 73.2776 23.1669 72.9678 22.9981C72.6999 22.8547 72.5659 22.5932 72.7083 22.3148L72.7166 22.3232ZM65.4493 5.05351C65.6753 4.91853 65.8847 4.72448 66.1358 4.65699C66.3284 4.59794 66.521 4.75823 66.5628 4.97759C66.5796 5.0957 66.5377 5.28973 66.4624 5.33191C66.2279 5.46689 65.9684 5.54282 65.7172 5.64406C65.7172 5.64406 65.7005 5.64406 65.6921 5.64406C65.6753 5.64406 65.6502 5.64407 65.6251 5.62719C65.5832 5.61876 65.5414 5.60189 65.4995 5.60189C65.4911 5.45003 65.4744 5.29816 65.466 5.1463C65.466 5.12099 65.466 5.08727 65.466 5.06196L65.4493 5.05351ZM63.5571 5.05351C63.8418 5.03664 63.9422 5.2138 63.9841 5.41628C64.0594 5.82124 63.8083 6.10808 63.4315 6.04902C63.1217 5.9984 62.9375 5.78749 62.9794 5.49221C63.0212 5.18849 63.2975 5.08726 63.5571 5.05351ZM59.5634 5.44159C59.6555 5.10412 59.7811 4.78355 59.8899 4.45452V4.44608C59.8899 4.44608 59.8899 4.44608 59.8899 4.45452C59.8899 4.45452 59.8899 4.45452 59.8983 4.45452C60.5765 4.37016 60.9281 4.7498 61.1123 5.3488C61.2211 5.6947 61.2463 6.06589 60.9532 6.33587C60.6434 6.62271 60.2918 6.50461 59.9904 6.319C59.6806 6.1334 59.4462 5.85498 59.555 5.44159H59.5634ZM55.9716 5.68626C55.9967 5.63564 56.0385 5.59345 56.072 5.55127C56.1976 5.18849 56.2646 4.80884 56.1725 4.38701C56.1474 4.28577 56.4488 4.10861 56.5995 3.97363C56.6246 3.92301 56.6414 3.8724 56.6497 3.82178C56.6749 3.74585 56.6916 3.6699 56.7 3.59397C56.8339 3.55179 56.9763 3.54336 57.1186 3.57711C57.3865 3.24808 57.6628 2.91904 57.9307 2.59002C57.8721 2.4719 57.8973 2.37066 57.9977 2.29473C57.9642 2.01632 58.0647 1.83916 58.3494 1.77166V1.7548H58.3577C58.6926 1.38359 59.0024 1.52702 59.1615 1.88979C59.3792 2.36224 59.3876 2.84312 58.8768 3.18059C58.8852 3.92301 58.6173 4.53887 58.0312 4.99445C58.1735 5.36566 58.1484 5.66096 58.0312 5.90562C58.0312 5.95624 58.0396 6.00683 58.0312 6.06589C57.914 6.20087 57.7968 6.33587 57.6796 6.47085C57.6796 6.47085 57.621 6.47086 57.5875 6.4793C57.4116 6.64803 57.2274 6.81675 57.0767 6.99392C56.5576 6.99392 56.0469 7.39046 55.4357 7.01081C55.5864 6.58054 55.8209 6.17557 55.9883 5.75374C55.9799 5.72843 55.9716 5.71157 55.9632 5.6947L55.9716 5.68626ZM46.6027 2.14288C46.6529 1.93196 46.812 1.79699 47.0464 1.86448C47.3395 1.95728 47.4651 2.16819 47.3897 2.51409C47.3227 2.67438 47.2306 2.86843 46.9711 2.75876C46.7032 2.64908 46.519 2.45503 46.5943 2.14288H46.6027ZM42.2657 0.911141C42.542 0.852085 42.8099 0.987082 42.9606 1.26549C43.1365 1.58608 43.2453 1.9151 43.0695 2.261C42.8769 2.64065 42.4918 2.6069 42.1569 2.65752C42.0146 2.34537 41.8303 2.0332 41.755 1.69574C41.6713 1.30765 41.8973 0.995499 42.2741 0.902696L42.2657 0.911141ZM35.9528 4.42921C36.2375 4.44609 36.4719 4.53888 36.4636 4.89321C36.4217 5.10413 36.3463 5.2813 36.0952 5.26443C35.7854 5.24755 35.5928 5.07881 35.5761 4.77509C35.5593 4.5473 35.7184 4.41234 35.9528 4.42921ZM30.0418 6.1334H29.8995C29.8995 6.1334 29.866 6.1334 29.8241 6.1334C29.7739 6.1334 29.7237 6.11653 29.7237 6.11653C29.6818 5.82969 29.6902 5.56813 30.0083 5.43314C30.0083 5.53438 30.0251 5.63564 30.0334 5.73687C30.0418 5.87186 30.0502 6.00685 30.0669 6.14184H30.0418V6.1334ZM29.5144 1.65357C29.5144 1.65357 29.5478 1.63669 29.5646 1.61981C30.2344 1.23173 30.3767 1.3161 30.5274 2.20194C30.5274 2.23569 30.5358 2.25256 30.5442 2.28631C30.36 2.3538 30.1758 2.42973 29.9832 2.49722C29.5311 2.66596 29.372 2.4719 29.4139 2.0332C29.4306 1.89821 29.4809 1.77167 29.5144 1.64512V1.65357ZM26.7682 1.56075V1.55233C26.9021 1.7295 27.0445 1.90665 27.1784 2.08381C27.1617 2.19349 27.1784 2.31161 27.2119 2.41285C27.2119 2.83468 27.2119 3.26496 27.2203 3.68679C27.0528 3.65304 26.8854 3.6193 26.7179 3.58555C26.7179 3.58555 26.6509 3.58555 26.6174 3.58555C26.6091 3.58555 26.5923 3.58555 26.584 3.58555C26.5588 3.58555 26.5421 3.58554 26.517 3.57711C26.4667 3.56867 26.4249 3.5518 26.383 3.52649C26.383 3.62773 26.3663 3.72896 26.3495 3.8302C26.1905 3.66146 26.0314 3.49273 25.8723 3.32399C25.3197 2.15131 25.5123 1.78012 26.7765 1.55233L26.7682 1.56075ZM21.3344 3.84709C21.4097 3.18059 21.6777 2.94437 22.2721 3.00343C22.808 3.05405 22.9838 3.38306 22.9001 3.88926C22.8749 4.03268 22.8833 4.17611 22.8749 4.31953C22.8582 4.33641 22.8414 4.34483 22.8331 4.36171C22.4228 4.76666 21.9791 5.01975 21.4014 4.72447C21.3846 4.71604 21.3679 4.7076 21.3511 4.69916C21.3511 4.41232 21.3093 4.12549 21.3428 3.84709H21.3344ZM19.0319 1.45951C19.1073 1.2486 19.2747 1.13892 19.5092 1.13892C19.8273 1.19798 20.1371 1.6367 20.0366 1.92354C19.9613 2.14289 19.7604 2.23569 19.551 2.21038C19.1743 2.1682 18.9147 1.78854 19.0236 1.45951H19.0319ZM18.1026 5.82966C18.2951 5.88028 18.3203 5.98153 18.1528 6.07433C18.111 6.09964 18.0189 6.07433 17.9686 6.04058C17.9351 6.02371 17.9435 5.93935 17.9268 5.88873C17.9854 5.86342 18.0523 5.81279 18.1026 5.82966ZM14.2763 7.03612C14.5443 6.67334 14.9378 6.52149 15.3731 6.56367C15.5825 6.58054 15.6997 6.78302 15.7332 7.08673C15.7332 7.31452 15.5824 7.55073 15.3145 7.67728C14.9796 7.83758 14.628 7.82072 14.3349 7.58449C14.1507 7.44107 14.1507 7.22172 14.2847 7.03612H14.2763ZM9.57097 8.25099C9.6212 8.04007 9.78029 7.90507 10.0147 7.97257C10.3078 8.06537 10.4333 8.27628 10.358 8.62218C10.291 8.78247 10.1989 8.97652 9.93936 8.86684C9.67144 8.75717 9.48724 8.56314 9.5626 8.25099H9.57097ZM0.796551 42.0311C0.503513 42.0058 0.235596 41.8793 0.277458 41.5081C0.302576 41.2887 0.486766 41.1622 0.72957 41.1368C0.997491 41.2043 1.28216 41.2971 1.23193 41.6684C1.19844 41.8961 1.02261 42.048 0.796551 42.0227V42.0311ZM3.60972 62.7514C4.01998 62.7345 4.28791 62.9876 4.27116 63.3757C4.25442 63.8735 3.92788 64.1856 3.46739 64.1181C3.08226 64.0591 2.8227 63.8481 2.75572 63.4516C2.68874 63.0551 3.04876 62.7683 3.60972 62.7514ZM4.0451 73.8539C3.87765 73.9636 3.6767 74.0311 3.54274 74.0902C3.1911 74.0564 2.91481 74.0058 2.8562 73.6599C2.79759 73.3224 3.0404 73.1453 3.31669 73.0778C3.50089 73.0272 3.74368 73.0187 3.91114 73.0947C4.07021 73.1706 4.20418 73.3646 4.27953 73.5418C4.30465 73.6008 4.15394 73.7864 4.0451 73.8539ZM6.3308 72.7656C6.26382 72.8331 6.20521 72.9006 6.13823 72.9681L6.03777 73.0693C5.76985 72.9344 5.5689 72.6981 5.8117 72.4535C6.05451 72.2088 6.28893 72.3944 6.43126 72.6644L6.32243 72.7741L6.3308 72.7656ZM5.88705 52.7962C6.19684 52.6106 6.50662 52.4925 6.69919 52.9312C6.79966 53.1505 6.62384 53.3193 6.44801 53.4205C6.0545 53.6568 5.84519 53.4627 5.75309 53.0662C5.73635 52.9987 5.72798 52.9312 5.71961 52.8721H5.70286C5.76147 52.8468 5.83682 52.8384 5.88705 52.8046V52.7962ZM5.66099 12.174C5.73635 12.2077 5.80333 12.2499 5.87031 12.2921C6.4815 12.6549 6.86664 13.1864 6.94199 13.9457C7.0927 14.0554 7.19317 14.1904 7.26015 14.3422C7.31876 14.4856 7.36062 14.6375 7.369 14.8062C6.942 15.0677 6.51499 15.5402 6.0545 14.8568C5.92891 14.84 5.82008 14.7978 5.71124 14.7387C5.67775 14.6206 5.65263 14.5025 5.61914 14.3844C5.52704 14.0216 5.43493 13.6588 5.33446 13.2961C5.20888 12.8405 5.24237 12.4524 5.66937 12.1656L5.66099 12.174ZM5.40983 40.8922C5.53541 40.9175 5.65262 40.9006 5.76984 40.8584C5.95404 40.9681 6.16335 41.044 6.32243 41.1875C6.6071 41.4321 6.54849 41.6852 6.24708 41.8708C5.91218 42.0817 5.54378 42.0733 5.25911 41.8033C4.87398 41.449 5.25912 41.179 5.41819 40.8922H5.40983ZM4.09533 59.9083L4.11208 59.8829C4.25441 59.3599 4.66467 59.2671 5.09167 59.3514C5.51029 59.4358 5.85356 59.7227 6.02939 60.1192C6.09637 60.2795 6.07962 60.5916 5.9624 60.7013C5.43493 61.2159 5.45168 62.0005 4.99957 62.5405C4.50838 62.8611 4.15394 62.7148 3.93625 62.1018C3.68508 61.3425 3.30831 60.5832 4.09533 59.9083ZM3.47576 19.1511C3.60972 19.3198 3.75206 19.497 3.88602 19.6741C3.86927 19.7922 3.88601 19.9019 3.9195 20.0032C3.9195 20.425 3.91951 20.8552 3.92788 21.2771C3.76043 21.2433 3.59298 21.2096 3.42553 21.1758C3.42553 21.1758 3.35855 21.1758 3.32506 21.1758C3.31669 21.1758 3.29994 21.1758 3.29156 21.1758C3.26645 21.1758 3.24971 21.1759 3.22459 21.1674C3.17436 21.159 3.13249 21.1421 3.08225 21.1168C3.08225 21.218 3.06551 21.3193 3.04877 21.4205C2.88969 21.2518 2.73062 21.083 2.57154 20.9143C2.01895 19.7416 2.21151 19.3704 3.47576 19.1426V19.1511ZM1.38263 25.6219C1.38263 25.3435 1.39937 25.0567 1.39937 24.7783C1.50822 24.7445 1.62544 24.7276 1.74265 24.7108C2.0022 24.4071 2.30361 24.2636 2.47106 24.7361C2.63014 25.1832 2.59665 25.6641 2.25338 26.0606C2.1864 26.3559 2.02732 26.55 1.818 26.6765C1.68404 26.7609 1.54171 26.8199 1.37426 26.8621C1.37426 26.4487 1.37425 26.0269 1.38263 25.6135V25.6219ZM1.08121 29.6293C1.09796 29.3931 1.22355 29.2328 1.44961 29.1569C1.44961 28.7941 1.60032 28.5157 1.9101 28.3216C2.10267 28.1192 2.26175 27.8661 2.48781 27.7311C2.83108 27.5286 3.25807 27.8492 3.14923 28.2204C3.04876 28.5494 2.83107 28.8363 2.66362 29.1484C2.66362 29.3931 2.54641 29.5196 2.30361 29.5281L2.25338 29.5703C2.22826 29.798 2.10267 29.933 1.87662 29.9583L1.83475 30.0089C1.83475 30.2452 1.70915 30.3633 1.49984 30.3971C1.7259 30.3971 1.94359 30.4055 2.16965 30.4139C2.16965 30.4139 2.16965 30.4223 2.16965 30.4308C2.18639 30.8442 2.22825 31.2576 2.21988 31.671C2.21151 32.2278 2.1864 32.2362 1.44124 32.0337C1.43287 31.5191 1.42449 31.0129 1.40774 30.4983C1.27378 30.7598 1.13983 31.0298 1.00586 31.2913C0.737944 31.1648 0.470025 31.0382 0.210476 30.9032C0.3863 30.397 0.562117 29.8993 1.08121 29.6377H1.0896L1.08121 29.6293Z" fill="#222222"/>
<path d="M73.9976 94.245C73.9976 94.245 73.9306 94.2283 73.8971 94.2199C73.8384 94.2115 73.7965 94.2031 73.7546 94.2031C73.8049 94.2115 73.8719 94.2283 73.939 94.245C73.9641 94.245 73.9725 94.245 73.9976 94.2618V94.245Z" fill="#222222"/>
<path d="M75.0109 22.3736C75.0109 22.3736 75.0109 22.3483 75.0109 22.3398C74.9606 22.4074 74.9104 22.4665 74.8601 22.534C74.9104 22.4834 74.9607 22.4243 75.0193 22.3736H75.0109Z" fill="#222222"/>
<path d="M72.9679 120.374C73.0265 120.255 73.06 120.095 73.1521 120.019C73.2191 119.96 73.2861 119.952 73.3447 119.977C75.2201 117.64 76.61 114.89 77.3802 111.903C77.1291 111.203 77.2044 110.908 77.6733 110.722C77.9495 109.347 78.1003 107.921 78.1003 106.462V94.6166C77.8072 94.971 77.4305 95.1987 76.9783 95.1397C77.1123 95.4687 77.1625 95.8062 76.9114 96.1268C76.6183 96.5064 76.1243 96.2871 75.7225 96.3208L75.5383 96.2955C75.5048 96.1521 75.4462 96.0256 75.3625 95.9159C75.4378 95.6122 75.5215 95.3084 75.5969 95.0047C75.6304 94.8866 75.6555 94.7685 75.689 94.6504C75.9318 94.5492 76.1829 94.4395 76.4174 94.4817C76.4341 94.1358 76.7188 93.9333 77.0202 93.773C77.4388 93.5452 77.8658 93.6633 78.1086 94.0345C78.1086 94.0345 78.1086 94.0345 78.1086 94.0429V77.5916C78.0249 77.465 77.9412 77.3385 77.8575 77.2119L77.7319 77.0263C77.7821 76.9082 77.7905 76.7901 77.7654 76.672C77.8407 76.613 77.9161 76.5454 77.9914 76.4864C78.0249 76.4611 78.05 76.4357 78.0835 76.4189C78.0919 76.4189 78.1003 76.4189 78.1086 76.4105V74.7316C78.1086 74.7316 78.0919 74.7569 78.0751 74.7653C78.0751 74.7653 78.0584 74.7653 78.05 74.7653C77.891 74.7653 77.7235 74.7653 77.5644 74.7653C77.5142 74.7653 77.4556 74.7653 77.4054 74.7653V74.7991H77.397C77.2881 74.4025 77.2211 73.9976 77.4137 73.6011C77.6481 73.5842 77.8742 73.5758 78.1086 73.5589V67.6701C77.9328 67.5351 77.8407 67.3243 77.824 67.029C77.8072 66.7759 77.9328 66.5565 78.1086 66.43V57.04C78.1086 57.04 78.0919 57.0653 78.0919 57.0822C78.0835 57.0906 78.0668 57.0991 78.0584 57.1075C77.8491 57.251 77.6481 57.4028 77.4388 57.5462C77.4053 57.5715 77.3802 57.5884 77.3467 57.6137C77.3551 57.9849 77.2212 58.2549 76.8528 58.3815C76.7607 58.4743 76.6602 58.508 76.5346 58.4911C76.342 58.6936 76.1662 58.778 76.0406 58.4321H76.0239C75.9401 58.3562 75.8648 58.2887 75.7811 58.2212C75.7141 58.1621 75.6387 58.1115 75.5718 58.0524C75.555 58.0356 75.5383 58.0271 75.5215 58.0103C75.5383 57.9006 75.5299 57.7993 75.5215 57.6897C75.0862 57.8162 74.6508 57.8247 74.2238 57.6897C73.9642 57.7656 73.7214 57.8753 73.5037 58.1115C73.353 58.4996 73.1856 58.8961 73.0349 59.2842C73.1772 59.1745 73.3279 59.0817 73.5121 59.0142C73.9224 58.8624 74.1652 59.0817 74.3242 59.765C74.2656 59.765 74.2238 59.7819 74.1735 59.7988C73.5791 59.9422 73.2693 60.5075 72.8088 60.845C72.7753 61.0896 72.7335 61.3258 72.7 61.5705C72.6079 61.5705 72.5158 61.5536 72.4237 61.5536C72.3232 61.5536 72.2227 61.5368 72.1139 61.5368C72.139 61.6633 72.1892 61.773 72.2479 61.8826C72.1641 61.8911 72.0888 61.9164 72.0134 61.9417C72.0134 61.9586 72.0218 61.967 72.0302 61.9839C72.0804 62.102 72.1474 62.2201 72.1558 62.3382C72.2311 62.971 72.1055 63.0891 71.3939 63.0384V69.5177C71.8544 69.5009 72.3148 69.6612 72.7753 69.9734C72.9846 70.083 73.1437 70.2264 73.1102 70.4964C73.3949 70.9182 73.3614 71.3316 73.0935 71.745C72.7167 72.3946 72.6079 73.0611 72.9344 73.7614C73.1521 74.2254 73.2274 74.7063 73.1186 75.2041C72.4321 75.3306 72.1055 74.9003 71.8544 74.3604C71.846 74.217 71.8292 74.0735 71.8209 73.9301C71.8544 73.4408 71.8376 72.9599 71.4776 72.5634C71.5111 72.42 71.5446 72.285 71.5781 72.1416C71.5362 72.0994 71.4943 72.0487 71.4608 71.9897C71.4357 71.939 71.4106 71.8884 71.3939 71.8378V76.866C71.3939 76.866 71.4525 76.8998 71.486 76.9082C71.5697 76.9335 71.6534 76.9504 71.7455 76.9673C71.7957 76.9757 71.846 76.9842 71.8962 76.9926C72.1641 76.9673 72.4321 76.9504 72.7 76.9251C72.7921 76.8323 72.8842 76.7479 72.9679 76.6636C73.0349 76.5961 73.1102 76.5286 73.1772 76.4611C73.3195 76.613 73.4619 76.7648 73.6126 76.9082C74.5754 77.2963 74.9773 78.0472 74.9606 79.0427C74.9606 79.2705 74.9438 79.4898 74.9606 79.7007C75.0024 79.7767 75.0192 79.8526 75.0108 79.937C75.0527 80.1057 75.128 80.266 75.2787 80.4179C75.4629 80.3251 75.6387 80.2154 75.8313 80.1563C76.1244 80.0635 76.3923 80.1563 76.4927 80.4431C76.5513 80.6203 76.5597 80.9493 76.4593 81.0168C75.7392 81.5062 75.5215 82.1473 75.7811 82.9657C75.8732 82.9994 75.9653 83.0163 76.0657 83.0332C76.1327 83.5984 76.049 84.1384 75.7811 84.6446C75.6387 84.9145 75.4378 85.0833 75.1364 85.0242C74.8182 84.9736 74.6675 84.7205 74.6759 84.4336C74.6759 84.1637 74.8099 83.8937 74.835 83.6238C74.8601 83.3285 74.7094 83.0922 74.475 82.9151C74.4582 82.6535 74.4498 82.392 74.4331 82.122C74.3242 82.0039 74.2238 81.8774 74.1233 81.7508C74.0647 81.7255 74.0228 81.7171 73.9558 81.6834C73.9642 81.6412 73.9977 81.6243 74.0061 81.5821C73.8554 81.3796 73.7298 81.1603 73.6461 80.9156C73.6209 80.9409 73.5958 80.9578 73.5707 80.9915H73.554C73.2777 80.8397 73.0014 80.6794 72.7251 80.5191C72.7502 80.4179 72.7586 80.3166 72.7586 80.2153C72.9093 80.0635 73.0684 79.9116 73.2191 79.7598C73.2777 79.7429 73.3279 79.7176 73.3865 79.7007C73.3195 79.4898 73.2358 79.2705 73.1688 79.0511C72.6079 78.7559 72.0051 78.6546 71.3939 78.663V80.924C71.6869 81.0928 72.0134 81.3121 71.7204 81.658C71.5948 81.8099 71.486 81.8183 71.3855 81.793V93.8405C71.6283 93.9586 71.8795 93.9839 72.1893 93.7392C72.7753 93.2668 73.42 93.1487 74.0228 93.7561C74.2824 93.9417 74.5419 94.1189 74.7931 94.296C74.7931 94.4141 74.7764 94.5323 74.7512 94.642C74.7094 94.8191 74.6257 94.9878 74.475 95.1144C74.4582 95.2072 74.4582 95.3 74.4582 95.4012C74.4582 95.4434 74.4498 95.4856 74.4498 95.5278C74.0396 95.9159 73.9559 96.4052 73.9475 96.9114C73.9475 97.0126 73.9475 97.1139 73.9475 97.2235C73.5456 97.2151 73.1353 97.2066 72.7335 97.1982C72.7335 97.1982 72.7251 97.1307 72.7167 97.0885C72.7084 96.9957 72.7 96.8945 72.7167 96.8017C72.7167 96.8017 72.7167 96.8017 72.7167 96.7933C72.7167 96.7933 72.7167 96.7933 72.7083 96.7933C72.566 96.7933 72.4237 96.8017 72.2814 96.8102C72.2562 96.6752 72.2479 96.5486 72.2479 96.4136C71.9046 96.1605 71.5613 95.9075 71.4525 95.4519L71.3939 95.4012V101.307C71.3939 101.307 71.4608 101.256 71.4943 101.231C71.7288 101.4 71.9716 101.627 71.8544 101.923C71.4776 102.859 71.3939 103.813 71.486 104.808C71.5027 105.027 71.4608 105.213 71.3939 105.39V105.643C71.5529 105.643 71.5948 105.846 71.7036 106.36C71.6032 106.403 71.5194 106.436 71.4525 106.47C71.4273 106.479 71.4106 106.478 71.3939 106.487C71.3771 109.566 70.431 112.418 68.8151 114.78C68.9826 114.738 69.1333 114.822 69.217 114.966C69.3593 115.185 69.4431 115.447 69.5017 115.573C69.4849 115.944 69.3761 116.122 69.15 116.147C69.0328 116.164 68.8654 116.122 68.7816 116.046C68.5556 115.843 68.3881 115.59 68.43 115.278C67.9862 115.877 67.5006 116.442 66.9732 116.965C67.015 116.965 67.0569 116.965 67.0988 116.957C67.2829 116.991 67.509 116.991 67.7016 117.066C68.003 117.176 68.1872 117.438 68.0532 117.724C68.0532 117.733 68.0448 117.741 68.0365 117.75C68.1872 117.75 68.3463 117.767 68.5221 117.809C69.15 117.961 69.8952 117.471 70.5315 118.02C71.0925 118.222 71.3436 118.965 72.0888 118.88C72.2981 118.863 72.34 119.184 72.2981 119.395C72.2395 119.732 71.9548 119.893 71.6953 119.825C71.3101 119.724 70.9669 119.488 70.6068 119.302C70.5734 119.513 70.498 119.724 70.5064 119.926C70.5231 120.23 70.5147 120.618 70.1882 120.584C69.4431 120.517 68.8068 120.888 68.0951 120.93C67.5676 120.964 67.1239 120.913 66.9062 120.306C66.7722 119.926 66.5545 119.555 66.5043 119.184C66.3368 119.142 66.1527 119.041 65.935 118.847C65.734 118.669 65.5415 118.484 65.4577 118.256C63.0129 120.095 59.9905 121.2 56.7168 121.2H55.327C55.2432 121.226 55.1595 121.251 55.0842 121.268C54.5818 121.369 54.3641 121.403 54.2971 121.2H50.1611C50.1779 121.251 50.1946 121.31 50.203 121.369C50.0941 121.74 49.843 121.926 49.4494 121.875C49.0727 121.833 48.7713 121.605 48.8048 121.234C48.8048 121.217 48.8131 121.209 48.8131 121.2H21.4266C20.8405 121.2 20.2628 121.158 19.6935 121.091C19.6349 121.141 19.5762 121.183 19.526 121.243C19.4255 121.344 19.2413 121.226 19.2581 121.048C19.2581 121.048 19.2581 121.04 19.2581 121.032C12.1917 119.977 6.75789 113.835 6.75789 106.436V98.4721C6.59044 98.5734 6.40624 98.6409 6.18855 98.624C6.12157 98.6071 6.02111 98.5987 5.99599 98.5565C5.89552 98.3794 5.7197 98.1684 5.76156 98.0166C5.87877 97.5779 6.22205 97.2995 6.67416 97.2826C6.69928 97.2826 6.7244 97.3079 6.75789 97.3163V93.0052C6.67417 92.8956 6.63229 92.7522 6.64067 92.6003C6.64067 92.4653 6.69091 92.3809 6.75789 92.305V87.4202C6.60719 87.4455 6.4481 87.4287 6.30577 87.3274C6.02948 87.125 5.82017 86.8296 5.52713 86.6525C5.3848 86.5681 5.13361 86.6609 4.93267 86.6778C4.93267 87.1081 4.93267 87.5384 4.90756 87.9602C4.89081 88.1627 4.8322 88.4157 4.54753 88.3988C4.48892 88.3988 4.43032 88.382 4.38008 88.382C4.43032 88.4748 4.47219 88.576 4.5308 88.6604C6.09646 90.8708 5.929 90.1368 4.74848 92.5159C4.3466 92.6087 3.93635 92.7437 3.52609 92.5328C3.47586 92.5328 3.42562 92.5413 3.36701 92.5497C3.25817 92.5581 3.1577 92.575 3.04885 92.5919C2.5465 92.2038 1.99391 91.8157 1.82646 91.1745C1.49156 89.9512 0.712915 88.9894 0.0263672 87.977V106.453C0.0263672 118.332 9.6213 128 21.4098 128H56.7084C63.2223 128 69.0663 125.039 72.9846 120.39C72.9763 120.39 72.9679 120.382 72.9512 120.374H72.9679ZM73.2777 66.2612C73.1688 66.0166 73.0433 65.7635 73.2777 65.5357C73.5037 65.3163 73.7633 65.3669 73.9977 65.5188C74.1066 65.5863 74.1987 65.6875 74.2991 65.7803C74.4247 65.9491 74.5419 66.1178 74.6675 66.2866C74.6675 66.4047 74.6675 66.5228 74.6926 66.6409C74.274 66.6409 73.8554 66.6324 73.4451 66.6324C73.3949 66.5143 73.3363 66.3878 73.2861 66.2697L73.2777 66.2612ZM74.274 73.5336L74.0647 73.5505C73.9977 73.5505 73.9307 73.5589 73.8554 73.5674C73.3949 73.6095 73.0265 73.4914 72.926 72.9852C72.8507 72.6225 72.9595 72.2765 73.2442 72.0487C73.6377 71.7366 74.0228 71.8716 74.3494 72.1837C74.4163 72.2428 74.4666 72.3272 74.5168 72.4031C74.5754 72.4959 74.634 72.5971 74.701 72.6899C74.5587 72.9683 74.4164 73.2467 74.2657 73.5251L74.274 73.5336ZM76.4676 64.0846C76.5681 63.9918 76.6769 63.9074 76.769 63.8062C76.9532 63.5869 77.129 63.3675 77.4472 63.5784C77.6984 63.7387 77.8324 63.9918 77.7737 64.2871C77.7235 64.5486 77.6398 64.8692 77.2965 64.8692C77.1207 64.8692 76.9114 64.7595 76.7774 64.6245C76.6435 64.4895 76.5765 64.2702 76.4844 64.093L76.4676 64.0846ZM75.128 69.6612C75.5801 69.3912 76.0323 69.1297 76.4844 68.8597C76.5765 68.8766 76.6769 68.885 76.7774 68.885C76.8946 69.3574 77.0369 69.8299 77.129 70.3192C77.196 70.6904 76.9365 70.9689 76.5848 70.9689C76.5011 70.9689 76.4174 70.9604 76.3337 70.9182C76.2416 70.8845 76.1495 70.8423 76.0574 70.8086C75.5718 70.6061 75.1196 70.353 75.1196 69.6696L75.128 69.6612ZM75.9402 76.5539C75.6387 76.3008 75.5634 75.9886 75.6555 75.6174C75.7476 75.2378 76.0322 75.0437 76.3755 74.9425C76.6686 74.8581 76.9951 75.2125 77.0286 75.7693C76.9951 75.879 76.9532 76.1574 76.8444 76.402C76.7104 76.6973 76.1913 76.7564 75.9402 76.5454V76.5539ZM73.1186 83.9022C73.5289 84.8893 73.5289 84.9398 72.9009 85.2773C72.5409 85.4713 72.1725 85.7751 71.6785 85.387C71.9716 84.7205 72.4572 84.2312 73.1102 83.9106L73.1186 83.9022ZM71.5864 88.4917L71.5027 88.6098L71.5613 88.4748C71.5278 88.1964 71.4692 87.918 71.4776 87.6396C71.4776 87.3612 71.5194 87.0321 71.8962 87.0406C72.0804 87.0406 72.2897 87.1671 72.4237 87.3021C72.633 87.513 72.6581 87.8083 72.499 88.0699C72.2981 88.4073 71.9381 88.4495 71.5948 88.4832L71.5864 88.4917ZM73.1605 91.8747C72.9093 91.7735 72.6581 91.6554 72.4069 91.5457C72.4069 91.5457 72.3902 91.5457 72.3902 91.5373C72.2981 90.9889 72.1139 90.449 72.3483 89.85C72.4237 89.8584 72.499 89.8837 72.5576 89.9174C72.9679 90.1199 73.1102 90.6599 73.5456 90.8201C73.6628 90.9636 73.78 91.107 73.9056 91.2504C73.8805 91.7229 73.7717 92.111 73.1605 91.8663V91.8747ZM74.5168 99.8136C74.5754 98.7759 74.5838 98.7674 75.7141 98.5649C75.7308 98.6071 75.7392 98.6578 75.7392 98.7C75.8062 99.1302 75.6471 99.6195 76.0741 99.957C76.0574 100.075 76.0741 100.185 76.1327 100.286C76.0992 100.413 76.0908 100.539 76.1076 100.674C75.7392 100.657 75.4713 100.514 75.2285 100.202C75.0945 100.024 74.8266 99.9486 74.6005 99.8473C74.5754 99.8389 74.5503 99.822 74.5252 99.8136H74.5168ZM74.0061 103.323C74.4415 102.994 74.4498 102.522 74.4666 102.041V102.058C74.4666 102.058 74.4749 102.058 74.4833 102.058C74.4833 102.032 74.4666 102.016 74.4833 101.99C74.5084 101.906 74.701 101.813 74.8099 101.813C74.9522 101.813 75.0694 101.855 75.128 101.973C75.3206 101.973 75.5048 102.007 75.6973 102.058C75.6806 102.471 75.6639 102.885 75.6471 103.298C75.5215 103.408 75.3959 103.526 75.262 103.635C75.262 103.678 75.262 103.711 75.2703 103.762C75.2369 103.922 75.195 104.201 75.0945 104.454C75.061 104.547 74.8852 104.631 74.7764 104.631C74.6591 104.631 74.5001 104.547 74.4498 104.445C74.3243 104.209 74.274 103.956 74.2824 103.711C74.207 103.61 74.1233 103.509 74.0061 103.349V103.323ZM5.71969 109.499C5.56062 109.659 5.3178 109.625 5.17547 109.457C4.68149 108.874 4.84895 107.997 5.49363 107.66C5.76993 107.516 6.33926 107.744 6.37275 108.216C6.37275 108.604 6.12158 109.094 5.71969 109.499ZM4.14565 105.736C3.45073 105.559 3.16607 104.918 2.81442 104.42C2.31207 103.728 2.57999 102.69 3.25817 102.117C3.92797 101.543 4.68987 101.18 5.54387 100.995C6.19692 100.86 6.61555 101.282 6.56532 101.973C6.43135 103.661 5.76993 105.002 4.15403 105.719L4.14565 105.736ZM15.4318 125.9C15.3062 126.009 15.1807 126.127 15.0551 126.237C14.8374 126.229 14.6113 126.22 14.3853 126.203C14.1257 125.731 14.0755 125.292 14.5276 124.946C14.5611 124.921 14.5862 124.896 14.6281 124.87C15.1918 124.988 15.4876 125.303 15.5156 125.815C15.5156 125.815 15.4569 125.866 15.4318 125.891V125.9ZM15.9761 122.786C15.8253 122.103 16.1602 121.757 16.7714 121.597C16.9138 121.723 17.0645 121.85 17.2068 121.985C17.1147 122.196 17.0226 122.415 16.9305 122.626C16.9054 122.694 16.8719 122.761 16.8468 122.829V122.837H16.7547C16.6124 122.82 16.4617 122.812 16.3193 122.803L15.9928 122.786H15.9761ZM16.5203 124.246C16.7463 124.212 16.964 124.187 17.1901 124.153C17.2738 124.448 17.5668 124.786 17.0812 124.988C16.7379 125.132 16.5789 124.904 16.5286 124.246H16.5203ZM20.6982 126.262C20.2126 126.828 19.8023 127.519 18.8395 127.241C18.6134 127.173 18.3204 127.342 18.0608 127.401C17.1817 127.587 17.1566 127.553 17.3073 126.406C17.458 126.439 17.5752 126.406 17.6757 126.279C17.9855 126.271 18.1613 126.094 18.2617 125.815C18.4711 125.233 18.6971 124.668 18.9148 124.086C20.3633 124.001 20.5726 124.153 20.6982 125.41C20.7233 125.689 20.6982 125.975 20.6982 126.254V126.262ZM35.2747 125.528C35.2161 125.866 34.9315 126.026 34.6719 125.959C34.2868 125.857 33.9435 125.621 33.5835 125.436C33.55 125.646 33.4663 125.857 33.483 126.06C33.4998 126.364 33.4914 126.752 33.1649 126.718C32.4197 126.65 31.7834 127.022 31.0717 127.064C30.5443 127.098 30.1005 127.047 29.8828 126.439C29.6568 125.781 29.1293 125.149 29.7907 124.465C30.2512 123.993 30.7452 123.748 31.4987 123.934C32.1267 124.086 32.8718 123.596 33.5081 124.145C34.0691 124.347 34.3203 125.09 35.0654 125.005C35.2664 124.98 35.3166 125.309 35.2747 125.52V125.528ZM36.3129 126.591C36.2125 126.625 36.0701 126.515 35.9362 126.473C35.9948 126.355 36.0283 126.195 36.1204 126.119C36.2627 126.001 36.3967 126.068 36.4636 126.245C36.4134 126.372 36.3883 126.566 36.3129 126.591ZM52.9743 122.306C52.8403 122.331 52.7064 122.339 52.5724 122.331C52.5724 122.331 52.5473 122.398 52.5305 122.432C52.4971 122.516 52.4803 122.609 52.5054 122.702L52.3463 122.626L52.1705 122.668C52.137 122.559 52.1035 122.457 52.0784 122.348C51.6096 121.943 51.8021 121.622 52.2542 121.445C52.6143 121.302 52.9157 121.453 52.9743 121.901C52.991 122.036 52.9743 122.171 52.9743 122.314V122.306ZM57.2024 122.888C56.9847 122.871 56.8089 122.71 56.834 122.474C56.8675 122.171 57.0182 121.934 57.3699 121.985C57.5792 122.019 57.7383 122.171 57.7466 122.483C57.7048 122.727 57.5206 122.913 57.2024 122.888ZM59.3207 126.532C58.9941 126.499 58.8183 126.296 58.7513 126.001C58.6509 125.57 58.9272 125.199 59.4211 125.098C59.6388 125.056 59.8649 125.132 59.9319 125.351C60.0826 125.824 59.7226 126.49 59.3207 126.541V126.532ZM65.3824 124.912C65.3321 125.039 65.2903 125.174 65.24 125.309C63.8586 125.832 63.867 125.824 63.4902 124.524C63.4316 124.339 63.2892 124.17 63.1888 123.993C63.2139 123.714 63.1804 123.419 63.2725 123.175C63.4148 122.803 63.8502 122.711 64.1098 122.964C64.4028 123.242 64.654 123.79 64.9554 123.807C66.0354 123.883 65.575 124.423 65.374 124.912H65.3824ZM72.0888 103.669C72.1223 103.281 72.4739 103.121 72.8507 103.146C73.2442 103.163 73.4619 103.399 73.4954 103.804C73.3865 104.175 73.1354 104.361 72.7418 104.31C72.3651 104.268 72.0637 104.04 72.0888 103.669ZM72.7586 113.894C72.7586 113.759 72.7586 113.616 72.767 113.481C73.1605 113.472 73.554 113.464 73.9391 113.456C73.9224 113.658 73.9559 113.886 73.8805 114.063C73.78 114.333 73.5456 114.519 73.2442 114.468C72.9428 114.426 72.767 114.206 72.7502 113.894H72.7586Z" fill="#222222"/>
<path d="M37.9792 28.4732C37.9792 28.4732 37.9792 28.4479 37.9792 28.4395C37.9289 28.507 37.8786 28.5661 37.8284 28.6336C37.8786 28.583 37.9373 28.5239 37.9876 28.4732H37.9792Z" fill="#222222"/>
<path d="M23.7375 31.1565C23.7877 31.2662 23.8379 31.3843 23.8631 31.5277C23.93 31.9327 23.8296 32.2617 23.6538 32.5654C23.5868 36.8174 25.2948 41.1032 28.5349 43.7186C28.4847 43.5499 28.5266 43.3727 28.6103 43.2208C28.9619 42.6218 29.3638 42.065 29.749 41.4829C30.3434 41.7697 30.1843 42.335 30.2262 42.8159C30.0336 43.1871 29.8997 43.6005 29.6401 43.9042C29.4978 44.0729 29.2885 44.132 29.0792 44.1066C29.3052 44.2669 29.5313 44.4357 29.7657 44.5791C31.4067 45.5662 33.2403 46.1567 35.1241 46.4858C35.0655 46.3255 35.0655 46.1483 35.166 45.9543C35.1911 45.9036 35.2162 45.8615 35.2497 45.8277C35.2246 45.7181 35.2162 45.6084 35.2246 45.4818C35.233 45.3384 35.2748 45.2034 35.3 45.0684C35.4423 45.0684 35.593 45.0853 35.7353 45.0938C35.8525 45.0516 35.9698 45.0431 36.087 45.0769C36.2461 45.06 36.3968 45.0516 36.5558 45.0347C36.8154 45.2962 37.0414 45.5831 36.8237 45.9627C36.7065 46.1652 36.5558 46.2664 36.3884 46.317C36.5475 46.3845 36.6563 46.5026 36.7149 46.6798C36.7149 46.6798 36.7149 46.7051 36.7149 46.722C37.2005 46.7726 37.6945 46.8148 38.1801 46.8401C42.1571 47.0341 46.5024 46.2327 49.5835 43.8704C49.6505 43.6258 49.7593 43.4148 49.9938 43.2545C50.0607 43.2798 50.1361 43.2883 50.2031 43.3052C50.9231 42.6555 51.5929 41.9385 52.1204 41.0864C52.7567 40.0487 53.1753 38.9097 53.4851 37.7286C53.4851 37.7286 53.4851 37.7286 53.4767 37.7286C53.4767 37.7286 53.4851 37.7202 53.4851 37.7117C53.4851 37.7117 53.4851 37.7201 53.4851 37.7286C53.887 36.1847 54.0795 34.5649 54.247 32.9704C54.3642 31.8989 54.4647 30.8106 54.4982 29.7223C54.3475 29.6716 54.1465 29.5788 53.8619 29.427C53.8619 29.427 53.8786 29.3679 53.887 29.3342C54.0461 28.7521 54.1214 28.5749 54.4982 28.558C54.4647 27.1322 54.2554 25.7402 53.7363 24.4156C53.4516 23.6901 53.0665 23.0574 52.6395 22.4584C52.2543 22.5259 51.8692 22.3487 51.7101 21.9606C51.6348 21.7666 51.6515 21.5472 51.7352 21.3532C50.4459 20.0033 48.8049 19.0584 46.9713 18.4594C46.7787 18.7462 46.4605 18.9319 46.2094 18.8728C45.9749 18.8138 45.7991 18.4425 45.8326 18.1388C45.3805 18.0292 44.9284 17.9363 44.4679 17.8689C44.4679 18.0966 44.4428 18.3413 44.3674 18.586C44.3507 18.6535 44.3255 18.7125 44.3004 18.78C43.3962 18.8306 42.9608 18.0966 42.3747 17.6242C42.0817 17.5904 41.7803 17.5651 41.4873 17.5483C41.0937 18.4341 41.0686 18.4257 40.1142 17.9363C40.1142 17.9363 40.1309 17.8773 40.1393 17.8435C40.1728 17.717 40.2063 17.6158 40.2314 17.5229C34.2115 17.6242 28.1917 20.7289 25.3115 26.0439C24.4575 27.6216 23.9468 29.3679 23.7459 31.1649L23.7375 31.1565ZM41.5207 28.5327C41.7468 28.2796 42.1654 28.3555 42.3831 28.693C42.6594 29.1233 42.2994 29.2836 42.0147 29.4692C41.9561 29.5029 41.8891 29.5282 41.8305 29.5535V29.562C41.7887 29.5029 41.7552 29.4439 41.7133 29.3932C41.4956 29.1401 41.2026 28.8871 41.5207 28.5243V28.5327ZM42.4836 36.3956C42.1989 36.5137 41.9729 36.2859 41.8222 36.0244C41.8054 35.7376 41.7887 35.4507 41.7636 35.1639C42.065 34.8095 42.4417 34.5902 42.8101 34.9867C43.1953 35.3916 43.0027 36.1678 42.4752 36.3956H42.4836ZM48.7127 28.0602C48.7127 27.7987 48.696 27.5456 48.696 27.2841C49.4049 27.2841 49.8207 27.5597 49.9435 28.1109H49.6923C49.3658 28.0856 49.0393 28.0771 48.7127 28.0602ZM51.8441 37.4586C51.7101 37.4755 51.5678 37.4586 51.4255 37.4502C51.325 38.0154 52.5557 38.5554 51.5929 39.0363C50.9231 39.3737 50.7891 38.4373 50.4542 38.0239C50.4124 37.9732 50.3873 37.8973 50.3538 37.8383C49.55 37.273 49.483 37.0283 50.0691 36.7078C50.3789 36.539 50.697 36.3872 51.0152 36.2606C51.2078 36.1847 51.4255 36.1678 51.6264 36.1425C52.0785 36.1003 52.4888 36.4125 52.5055 36.8427C52.5223 37.2983 52.2125 37.4333 51.8357 37.467L51.8441 37.4586ZM50.3873 26.8285C50.3873 26.8285 50.337 26.8032 50.3119 26.7863C50.2952 26.7695 50.27 26.761 50.2533 26.7441C50.0272 26.5754 50.0021 26.3139 50.0105 26.0355C50.1361 25.9933 50.2533 25.9849 50.3789 26.0186C50.3789 26.2886 50.3789 26.5585 50.3873 26.8285ZM53.1837 25.5124C53.9205 25.4196 53.9205 25.4027 54.2135 26.297C53.7949 26.4067 53.4516 26.6176 53.1669 26.9466C52.7818 27.3938 52.2878 27.6131 51.7185 27.6722C51.1408 26.9804 51.0236 26.2801 51.7185 25.5883C52.2041 25.563 52.6897 25.563 53.1753 25.504L53.1837 25.5124ZM49.483 21.176C49.5081 20.9144 49.483 20.6361 49.5751 20.3998C49.7928 19.8852 50.111 19.9358 50.4291 20.3323C50.8896 20.636 50.9482 21.0916 50.9064 21.5894C51.0319 21.7497 51.1575 21.91 51.2831 22.0703C51.6515 22.104 51.9362 22.2474 52.0032 22.6524C52.0534 22.9983 52.0785 23.3611 51.819 23.6226C51.7017 23.7407 51.392 23.842 51.2831 23.7745C50.9482 23.5551 50.6719 23.2598 50.3705 22.9899C50.2449 22.9814 50.1277 22.9392 50.0189 22.8717C48.8802 22.5849 48.8216 22.4077 49.483 21.176ZM44.8865 26.8623C45.1209 26.7273 45.3805 26.6429 45.6233 26.5417C45.7489 26.3054 45.8745 26.0692 46.0001 25.8246C45.7405 25.5968 45.4809 25.369 45.2214 25.1327C45.2465 24.6434 45.4307 24.3313 45.9582 24.3903C45.9163 23.7998 46.0503 23.7913 46.9378 24.0191V24.0107C47.0048 24.2385 47.1555 24.3566 47.3815 24.3988C47.5322 24.5506 47.6829 24.694 47.8253 24.8459C47.8755 24.8628 47.9174 24.8797 47.9676 24.8965C48.5369 24.7615 49.0895 25.0315 49.7844 24.9218C49.6505 25.7486 49.2235 26.1198 48.7881 26.4742C48.5872 26.6429 48.336 26.6851 48.0848 26.6345C47.8755 27.1153 47.6662 27.6047 47.4652 28.0856C47.2057 28.7183 46.7033 28.7858 46.1256 28.7183C46.1089 28.6002 46.0754 28.4821 46.0335 28.3724C45.8661 28.2543 45.6986 28.1362 45.5228 28.0181C45.2884 27.8831 45.0456 27.765 44.8279 27.6131C44.4511 27.3516 44.5014 27.0732 44.8781 26.8623H44.8865ZM44.6186 29.2245C44.8781 29.1486 45.0121 29.3342 45.0958 29.5198C45.3972 30.2285 45.6903 30.9371 45.9833 31.6458C46.2512 31.6458 46.4019 31.7808 46.4438 32.0423C46.628 32.5316 46.4605 33.0125 46.4187 33.4934C46.3852 33.8815 46.6364 34.413 46.1256 34.5986C45.5144 34.818 45.3554 34.1852 45.0456 33.8478C44.6437 33.5694 44.6856 33.1307 44.6186 32.7173C44.4679 31.7724 44.7191 30.7768 44.2586 29.8572C44.133 29.6126 44.2921 29.3173 44.6102 29.2245H44.6186ZM41.37 20.9988C41.4621 21.0832 41.5542 21.1591 41.638 21.2435C41.6714 21.2772 41.7133 21.311 41.7468 21.3447C41.7468 21.3447 41.7468 21.2604 41.7468 21.2182C41.7468 21.2013 41.7468 21.1844 41.7468 21.1676C41.7468 21.0748 41.7384 20.9819 41.7301 20.8891C41.7635 20.771 41.7887 20.6614 41.8305 20.5432C41.9059 20.5432 41.9896 20.5432 42.065 20.5432C42.1236 20.5432 42.1906 20.5432 42.2492 20.5432C42.8604 20.8216 42.6343 21.3026 42.5506 21.7497C42.6259 21.8003 42.7013 21.8509 42.785 21.8931C42.852 22.0112 42.919 22.1293 42.9859 22.2474C43.1366 22.2728 43.2622 22.3993 43.2873 22.5765C43.2957 22.6355 43.2873 22.7199 43.2706 22.7874C43.3376 22.9224 43.4129 23.0489 43.4632 23.1923C43.4883 23.2598 43.4967 23.3189 43.5134 23.3864C43.8064 23.4454 43.999 23.6564 43.999 24.0107C43.999 24.2132 43.9488 24.4241 43.9237 24.6265H43.9153C43.6641 24.5844 43.3962 24.5759 43.1785 24.4747C43.1618 24.4831 43.1534 24.5 43.1366 24.5169C42.4082 24.8459 42.2575 24.7953 42.1905 24.1879C42.1654 23.9854 42.2324 23.7829 42.2575 23.572C42.2575 23.4539 42.2492 23.3358 42.2408 23.2092H42.224C42.2157 23.0573 42.1989 22.9055 42.1905 22.7452C42.1905 22.7199 42.1905 22.6861 42.1905 22.6608C42.1905 22.6608 42.2157 22.644 42.2324 22.6355C42.2324 22.5343 42.2324 22.433 42.224 22.3318C42.2324 22.1715 42.2492 22.0196 42.2575 21.8593C42.2575 21.8593 42.2073 21.8425 42.1905 21.834C42.1068 21.8087 42.0315 21.775 41.9477 21.7497C41.6463 21.7497 41.3533 21.7581 41.0519 21.7666C41.0519 21.7666 41.0519 21.7581 41.0519 21.7497C41.0519 21.6822 41.0435 21.6063 41.0351 21.5388C41.0268 21.37 41.01 21.2013 41.0016 21.041C41.1356 21.0072 41.2612 20.9988 41.3952 21.0073L41.37 20.9988ZM33.7594 37.1212C33.0561 37.1549 32.4449 36.2522 32.7463 35.5266C32.8133 35.3663 33.0143 35.2314 33.1817 35.1639C33.2571 35.1301 33.4496 35.2398 33.5166 35.3326C33.8013 35.7207 34.0692 36.1341 34.0859 36.6403C34.0859 36.8596 34.0357 37.0368 33.7594 37.1127V37.1212ZM32.11 34.4974C31.8254 34.3371 31.8086 34.0334 31.9509 33.7887C32.11 33.5187 32.403 33.4934 32.6626 33.6453C32.897 33.7718 33.1315 33.949 32.9891 34.278C32.7547 34.6239 32.4449 34.683 32.11 34.4974ZM34.8897 40.4367C34.4627 40.2764 34.4878 39.9221 34.538 39.5678C34.7809 39.5931 35.0237 39.6184 35.2581 39.6437C35.2916 39.8968 35.3334 40.1583 35.3669 40.4114C35.233 40.8164 35.0655 40.673 34.8897 40.4367ZM40.3653 34.953C40.4323 34.877 40.4909 34.8095 40.5579 34.7336L40.5747 34.7505L40.3653 34.953ZM39.7123 26.2295C39.7123 26.2295 39.7207 26.2211 39.7207 26.2126V26.2211C39.7207 26.2211 39.729 26.2211 39.7374 26.2211C39.8714 26.2211 40.0137 26.2042 40.1393 26.2379C40.8007 26.3814 40.9514 26.7526 40.5579 27.2419C40.4156 27.4191 40.2397 27.5034 40.0137 27.4781C39.7709 27.4444 39.6286 27.2756 39.6286 27.0563C39.6286 26.7779 39.6872 26.5079 39.729 26.2295C39.729 26.2295 39.729 26.2295 39.7207 26.2295H39.7123ZM38.4145 19.514C38.4145 19.2356 38.4313 18.9487 38.4313 18.6703C38.5485 18.6366 38.6573 18.6197 38.7746 18.6028C39.0341 18.2991 39.3355 18.1557 39.503 18.6281C39.662 19.0753 39.6285 19.5562 39.2853 19.9527C39.2183 20.248 39.0592 20.442 38.8499 20.5685C38.7159 20.6529 38.5736 20.712 38.4062 20.7542C38.4062 20.3408 38.4062 19.9189 38.4145 19.5056V19.514ZM38.4564 25.9258C38.448 25.3858 38.4313 24.8459 38.4229 24.306C38.4229 24.306 38.4229 24.2975 38.4229 24.2891C38.6741 24.2891 38.9336 24.306 39.1848 24.306C39.1848 24.306 39.1848 24.3144 39.1848 24.3228C39.2016 24.7362 39.2434 25.1496 39.235 25.563C39.235 25.6305 39.235 25.6642 39.2267 25.7064C39.4444 25.833 39.5197 26.103 39.5113 26.4489C39.4444 26.4742 39.3941 26.491 39.3355 26.5079C39.2769 26.5248 39.2183 26.5417 39.1681 26.5585C38.7746 26.6682 38.6992 26.5839 38.6992 26.0692C38.6992 26.0439 38.6992 26.0102 38.6992 25.9849C38.6155 25.968 38.5569 25.9511 38.4397 25.9258H38.4564ZM39.0676 27.8578C39.2099 27.8325 39.3606 27.8156 39.503 27.7903C39.5783 27.8746 39.6286 27.9759 39.6453 28.094C39.7625 28.2627 39.9969 28.4315 39.9886 28.5918C39.93 29.6548 40.1225 30.6756 40.3067 31.7133C40.3151 31.7808 40.2983 31.8483 40.29 31.9242C40.2565 32.2364 40.0723 32.4726 39.7793 32.4895C39.6202 32.4979 39.3606 32.3376 39.2936 32.1858C39.1346 31.8061 38.9922 31.3927 38.9839 30.9877C38.9671 30.3466 38.9001 29.7307 38.582 29.1654C38.2638 29.0811 37.9875 28.9461 37.8201 28.6508C37.7029 28.6508 37.594 28.6255 37.4768 28.5918C37.4684 28.3302 37.4601 28.0687 37.4433 27.8156C37.5689 27.7818 37.6861 27.7312 37.795 27.6722C37.8033 27.7734 37.8285 27.8746 37.8536 27.9759C37.8871 27.959 37.9122 27.9506 37.9457 27.9421C38.3057 27.7734 38.6741 27.765 39.0592 27.8746L39.0676 27.8578ZM39.3857 35.9232C39.2099 35.9738 39.0257 36.016 38.8499 36.0666C38.8415 35.9991 38.8499 35.94 38.8666 35.881C38.8834 35.8219 38.9253 35.7713 38.9755 35.7291C39.0341 35.6785 39.1011 35.6448 39.1848 35.611C39.2518 35.7123 39.3188 35.8135 39.3857 35.9147V35.9232ZM38.6657 35.5351C38.6657 35.8557 38.6238 36.1003 38.4062 36.1594C38.3057 36.1847 38.1801 36.1678 38.0043 36.1003C37.8201 36.0328 37.6275 35.9991 37.435 35.9485C37.2842 35.7207 37.0414 35.4845 37.1838 35.1892C37.3596 34.8264 37.7112 34.7252 38.088 34.8517C38.2889 34.9192 38.4648 35.0457 38.6573 35.147V35.3832C38.6657 35.4338 38.6657 35.4929 38.6741 35.5435L38.6657 35.5351ZM37.6694 22.1884C37.9708 22.3571 37.954 22.644 37.7698 22.8802C37.6024 23.0911 37.368 23.243 37.1587 23.4201L37.1168 23.4454C36.7065 23.3779 36.2126 23.3189 36.3465 22.7368C36.4805 22.1715 37.167 21.9184 37.661 22.1884H37.6694ZM36.2377 31.7639C36.3465 31.7977 36.447 31.823 36.5558 31.8483C36.7149 32.1351 36.874 32.4135 37.0331 32.7004C36.7233 33.2066 36.2712 33.0632 35.8274 32.9535C35.8442 32.8438 35.8274 32.7426 35.7604 32.6498C35.8274 32.3039 35.9195 31.9748 36.2293 31.7639H36.2377ZM35.7856 41.5926C35.9279 40.9092 36.0702 40.2343 36.2209 39.5509C36.2377 39.5509 36.2544 39.534 36.2712 39.5256C36.3465 39.4918 36.4302 39.4581 36.4972 39.4159C36.5893 38.8338 36.4637 38.0998 37.4936 38.3107C37.6108 38.336 37.728 38.3107 37.8284 38.2432C38.0043 38.1335 38.1634 37.9311 38.2806 37.737C39.1764 37.9817 39.2015 38.0323 39.1011 38.9941C38.9169 39.1206 38.7327 39.2387 38.5569 39.3569C38.2889 39.534 38.0461 39.7365 37.8201 39.9643C37.8536 40.1246 37.8033 40.2849 37.7029 40.4452C37.6275 40.5717 37.5354 40.673 37.4433 40.7658C37.4182 41.1707 37.4015 41.5673 37.3763 41.9722C37.3763 41.9722 37.3763 41.9806 37.368 41.989L37.3429 42.0144C37.7531 41.7697 38.1466 41.6516 38.5066 42.2844C38.649 42.5375 38.9755 42.5543 39.2685 42.5037C39.6453 42.6978 39.729 43.0184 39.6537 43.4064C38.9336 43.5499 38.2554 43.4739 37.6191 43.0774C37.6777 43.5583 37.5187 43.9464 37.2508 44.3007C37.1921 44.3766 37.1335 44.461 37.0666 44.5369C36.6647 44.5369 36.2712 44.5285 35.8693 44.52C35.7856 44.4188 35.7186 44.2838 35.6097 44.2163C35.4841 44.132 35.3837 44.0391 35.3 43.9379C35.0404 43.6173 35.0739 43.2461 35.3586 42.8327C35.392 42.8158 35.4172 42.7906 35.4507 42.7737C35.5595 42.7062 35.6683 42.6387 35.7688 42.5712C35.6265 42.3012 35.7186 41.9385 35.7856 41.6094V41.5926ZM32.738 21.8931C32.8217 21.7497 32.9138 21.6147 33.0142 21.4797C33.0812 21.3869 33.1482 21.3025 33.2152 21.2097C33.2905 21.1169 33.3408 21.0157 33.3575 20.8976C34.2869 20.2733 34.6469 20.2564 35.0823 20.8385C35.2665 21.0916 35.2748 21.3869 35.0404 21.5809C34.7809 21.7919 34.4543 21.9353 34.1529 22.0956C33.8934 22.2306 33.7343 22.4415 33.6338 22.6946C33.6087 22.7621 33.5836 22.8296 33.5585 22.9055C33.458 22.9308 33.3575 22.9814 33.2822 23.0489C33.098 22.9645 32.9556 22.8971 32.8384 22.8296C32.4365 22.5934 32.4533 22.3993 32.738 21.9015V21.8931ZM32.2021 30.3972C32.2021 30.3972 32.244 30.3972 32.2607 30.3888C32.177 30.1947 32.1435 29.9922 32.4449 29.8319C32.8635 29.6126 33.2654 29.2583 33.7845 29.6295C33.9603 29.756 34.1529 29.8235 34.3539 29.8657C34.3455 29.7307 34.3539 29.6041 34.3873 29.4776C34.6134 29.4354 34.7809 29.3173 34.8562 29.098V29.1148C35.7102 29.5873 35.7688 29.6885 35.3251 30.2875C35.3167 30.296 35.3083 30.3128 35.3 30.3212C35.4255 30.6672 35.3837 31.0637 35.4423 31.4265C35.4841 31.7133 35.1409 31.9833 34.8897 31.8736C34.6134 31.7555 34.3455 31.6289 34.0776 31.5024C33.3826 31.7977 32.7882 31.6711 32.0514 31.0806C31.9677 31.0131 31.9174 30.819 31.9426 30.7009C31.9677 30.5828 32.0849 30.4562 32.1937 30.4056L32.2021 30.3972ZM30.7118 32.1098C30.8458 32.0676 30.9797 32.0002 31.1137 31.9748C31.4486 31.8989 31.8588 31.6374 32.0933 32.0001C32.4198 32.5148 31.9007 32.7172 31.5825 32.9619C31.4904 32.9535 31.4067 32.9366 31.323 32.9197C31.0718 32.8607 30.8709 32.751 30.7704 32.5401C30.7202 32.4304 30.695 32.2954 30.7118 32.1182V32.1098ZM31.0048 43.1955C31.2476 43.1787 31.4235 43.0605 31.5239 42.8412C31.8002 42.858 32.0765 42.8833 32.3528 42.9002C32.3528 43.0943 32.3612 43.2799 32.3696 43.4739C32.3696 43.5414 32.3696 43.6089 32.3696 43.6764C32.244 43.7017 32.1184 43.7185 31.9928 43.727C31.9426 43.7354 31.8923 43.7523 31.8505 43.7692C31.6914 43.8367 31.5909 43.9548 31.5407 44.1404L30.7118 44.1066C30.603 43.7354 30.6783 43.4233 31.0132 43.1955H31.0048ZM29.7322 35.8219C29.3387 36.0582 29.1294 35.8641 29.0373 35.4676C29.0205 35.4001 29.0122 35.3326 29.0038 35.2736H28.9871C29.0457 35.2482 29.121 35.2314 29.1713 35.206C29.481 35.0204 29.7908 34.9023 29.9834 35.3326C30.0839 35.5519 29.908 35.7207 29.7322 35.8219ZM29.682 27.3263C29.7741 27.4191 29.8913 27.5034 29.9666 27.6131C30.1341 27.8578 30.176 28.1446 29.9248 28.3471C29.682 28.5496 29.4308 28.4062 29.2131 28.229C29.2299 27.8493 29.2801 27.495 29.682 27.3263ZM28.9787 33.0716C29.0457 32.6244 29.3387 32.5401 29.7155 32.5654V32.8101C29.7406 33.3922 29.7573 33.9827 29.7825 34.5649C29.6569 34.6239 29.5313 34.6408 29.3889 34.6408C29.1545 34.143 28.8866 33.6621 28.9787 33.0716Z" fill="#222222"/>
<path d="M37.1263 42.294C37.1263 42.294 37.1263 42.2761 37.1263 42.2671C37.1263 42.2671 37.1084 42.2851 37.1084 42.294C37.1084 42.294 37.1263 42.294 37.1353 42.294H37.1263Z" fill="#222222"/>
<path d="M48.7045 79.5064C48.5036 79.4052 48.3947 79.2618 48.3361 79.093C48.2943 79.093 48.2524 79.093 48.2105 79.0846C48.2105 79.0846 48.2105 79.0761 48.2105 79.0677C48.1938 78.7724 48.177 78.4856 48.1603 78.1988C48.1603 78.0975 48.1519 78.0047 48.1435 77.9035C48.177 77.9035 48.2022 77.9035 48.2356 77.9035C48.2189 77.7516 48.2022 77.5998 48.1854 77.4479C47.5742 77.102 47.3649 76.6211 47.3565 76.0727C47.3565 75.8196 47.39 75.5496 47.457 75.2628C47.4319 75.1109 47.4068 74.9507 47.3816 74.7988C47.4989 74.6301 47.6161 74.4698 47.7333 74.3011C47.6831 74.2167 47.6831 74.1239 47.7166 74.0395C47.1137 73.0778 47.1305 73.0777 47.8254 72.3606C47.9175 72.2678 47.9845 72.1666 48.0598 72.0569C47.9761 71.8882 47.884 71.711 47.8003 71.5423C47.4403 70.7914 47.3649 70.6227 47.7249 70.454C47.7249 70.2178 47.7249 69.9731 47.7752 69.7284C47.4737 69.4922 47.3482 69.18 47.3649 68.7919C47.2979 68.657 47.2226 68.5304 47.1556 68.3955C46.896 68.3955 46.6281 68.3955 46.3686 68.3955C46.5193 68.193 46.6281 68.0748 46.7118 68.0158C46.7872 67.9652 46.8542 67.9652 46.9295 68.0158C46.9463 68.0242 46.963 68.0495 46.9798 68.0664C46.9546 68.0242 46.9295 67.9736 46.9128 67.9314C46.8793 67.8386 46.8458 67.7458 46.8123 67.653C46.7202 67.3831 46.6365 67.1131 46.5863 66.8346C46.5276 66.5141 46.5109 66.185 46.5863 65.8476C46.5863 65.8223 46.603 65.7969 46.6114 65.7716C46.6867 65.4932 46.8207 65.2823 47.0216 65.122C47.1221 65.0377 47.2309 64.9618 47.3649 64.9111C47.4068 65.1474 47.5658 65.2823 47.7752 65.3582C47.8254 65.8813 47.8756 66.4044 47.9259 66.9274C48.1268 67.054 48.2189 67.2396 48.2105 67.4843C48.3194 67.5855 48.3612 67.7036 48.3277 67.8555C48.5371 67.9567 48.6375 68.1254 48.6459 68.3617L48.6626 68.387C49.1482 68.6064 49.3994 68.9945 49.4413 69.5091C49.4664 69.7453 49.4748 69.99 49.4832 70.2262C49.4999 70.2262 49.4999 70.2346 49.5166 70.2431C49.5418 70.513 49.7008 70.6396 49.952 70.648C50.3539 71.1458 50.4795 71.6435 50.1697 72.1413C50.2534 72.2932 50.3372 72.4534 50.4209 72.6053C50.5716 72.7656 50.7223 72.9259 50.873 73.0862C50.8562 73.1453 50.8479 73.2043 50.8479 73.2718C50.8144 73.5755 50.806 73.8877 50.4292 74.0142V74.0395C50.2702 74.1576 50.1027 74.2589 49.9436 74.3854C49.3408 74.8832 49.3408 75.0097 49.9436 75.8196C50.0776 75.7775 50.2116 75.7268 50.3539 75.6846C50.4879 75.4822 50.6721 75.3809 50.873 75.3134C50.8144 75.2965 50.7474 75.2797 50.6888 75.2544C50.6888 75.1363 50.6637 75.0266 50.6051 74.9254C50.8981 74.3095 51.4842 74.4782 51.9782 74.4107C52.087 74.4614 52.1959 74.4782 52.3047 74.4782C52.3047 74.7482 52.3131 75.0182 52.3214 75.2881C52.0703 75.3809 51.8191 75.4231 51.5679 75.4231C51.5679 75.6424 51.5763 75.8618 51.5847 76.0812C51.4674 76.0812 51.3502 76.1234 51.2498 76.1824C51.2498 76.3174 51.2498 76.444 51.2163 76.5705C51.1995 77.0514 51.4172 77.431 51.7019 77.7938C51.794 77.7938 51.8777 77.7938 51.9698 77.8022C53.4769 76.4524 54.7244 74.8073 55.6202 72.8753C55.9049 72.251 56.1812 71.6266 56.4491 70.9939C56.2314 70.918 56.0389 70.7493 55.8379 70.6143C55.7458 70.5552 55.6788 70.378 55.6788 70.2599C55.6872 70.0237 55.863 69.9056 56.0975 69.8887C56.3068 69.8718 56.5161 69.8803 56.7254 69.8719C56.7589 69.9225 56.7924 69.9731 56.8259 70.0322C57.1859 69.1126 57.504 68.1761 57.772 67.2312C57.638 67.2312 57.5124 67.2312 57.3785 67.2312C56.6584 67.2734 56.2565 66.86 55.863 66.3706C55.9886 65.1726 56.0221 65.1305 57.2026 65.0714C57.3115 65.2992 57.4873 65.4004 57.6882 65.4595C57.772 65.4848 57.8557 65.5017 57.9478 65.5185C57.998 65.527 58.0483 65.5354 58.0985 65.5439C58.0985 65.5439 58.1655 65.5439 58.199 65.5354C58.3413 64.8858 58.4501 64.2362 58.5339 63.5781C58.3329 63.4178 58.1822 63.1816 58.0566 62.9032C58.0483 62.7598 58.0315 62.6164 58.0231 62.4729C58.0566 61.9752 58.0399 61.5027 57.6799 61.1062C57.7134 60.9628 57.7468 60.8278 57.7803 60.6844C57.7385 60.6338 57.6966 60.5916 57.6631 60.5325C57.6296 60.4819 57.6045 60.4229 57.5794 60.3638H57.3868L57.3031 60.3301L57.211 60.2878C57.0938 60.2878 56.9766 60.3047 56.8594 60.3132C56.8342 60.3132 56.8091 60.3132 56.784 60.3132C56.784 60.3469 56.784 60.3722 56.784 60.406C56.784 60.8025 56.8342 61.2075 56.5328 61.4943C56.4742 61.5449 56.4156 61.5955 56.3319 61.6377L56.3068 61.6124C56.2482 61.4099 56.1226 61.2918 55.9133 61.275C55.7793 61.2243 55.637 61.1653 55.503 61.1147C55.503 61.1147 55.5114 61.0809 55.5198 61.064C55.7291 60.3469 55.7625 60.33 56.7589 60.2963C56.7589 60.1782 56.7338 60.0601 56.7003 59.942C56.2733 59.5623 56.3486 59.0477 56.3151 58.5584C57.0101 58.0015 57.705 57.9172 58.4167 58.204C58.3162 57.6556 58.199 57.1073 58.0399 56.5504C55.8881 56.5673 53.7531 56.9385 51.7102 57.6303C50.8562 57.9256 50.0357 58.2378 49.2403 58.5921C49.0729 59.0393 48.8636 59.1068 48.2859 59.0561C46.0086 60.2288 43.9573 61.8739 42.0148 64.6833C41.9227 64.8183 41.8474 64.9533 41.7553 65.0883C42.04 65.0883 42.3246 65.0799 42.6093 65.0714C42.6093 65.0714 42.6093 65.1389 42.6093 65.1811C42.6093 65.4089 42.6093 65.6367 42.6093 65.856C42.5088 65.856 42.4084 65.8391 42.3079 65.8391C42.0232 65.8223 41.7469 65.7969 41.4623 65.7801C41.4623 65.7716 41.4623 65.7548 41.4623 65.7463C41.4623 65.6789 41.4623 65.6114 41.4623 65.5439C40.3906 67.2565 39.545 69.0535 38.9589 70.9011C38.2723 68.7751 37.2927 66.6828 36.0369 64.6749C33.3074 60.3216 29.0458 57.9425 24.5163 57.0144C24.9433 57.1916 25.3033 57.7147 25.1442 58.1281C25.0856 58.2799 24.8344 58.4656 24.6837 58.4571C24.1395 58.4318 23.7292 57.8244 23.8297 57.2507C23.8465 57.141 23.9972 57.0566 24.0809 56.9638C24.1227 56.9554 24.173 56.9638 24.2148 56.9638C22.825 56.6939 21.4184 56.5589 20.0118 56.542C19.8695 57.0313 19.7607 57.5207 19.6686 58.01C19.8862 57.9847 20.1039 57.9678 20.3216 57.9931C20.3886 57.9931 20.4305 58.1956 20.5058 58.3559C20.3551 58.474 20.2211 58.6512 20.0453 58.6934C19.8611 58.7355 19.702 58.6934 19.5681 58.5837C18.9736 62.3295 19.6351 66.0079 20.7067 69.4838C21.4519 71.8966 22.6408 74.0142 24.1646 75.7943C24.24 75.5159 24.3237 75.246 24.399 74.976C24.4409 74.8241 24.5163 74.7229 24.6084 74.6469C24.6167 74.6469 24.6251 74.6385 24.6335 74.6301C24.826 74.4782 25.0856 74.436 25.3451 74.4023H25.3535C25.4707 74.8579 25.8307 75.0772 26.174 75.3134C25.881 76.5705 25.8391 76.7308 24.9349 76.6464C26.2159 77.9625 27.6811 79.0677 29.297 79.9452C29.4561 79.8017 29.6654 79.7173 29.8998 79.7089C29.9668 79.7089 30.0254 79.7511 30.0924 79.7849C30.1175 78.9834 30.151 78.9665 31.3147 78.8062C31.3147 78.8062 31.3147 78.8231 31.3147 78.8315C31.3901 79.5318 31.3901 80.2235 31.3315 80.9238C33.2069 81.6746 35.2247 82.1471 37.3179 82.3327C37.1923 82.1471 37.0583 81.9615 36.9327 81.7759C36.6983 81.7421 36.4639 81.6999 36.2294 81.6662C36.2183 81.0081 36.475 80.7129 36.9997 80.7804C37.276 80.8141 37.5523 80.8563 37.8286 80.8985C37.8453 80.9913 37.8537 81.0841 37.8621 81.1769C37.8621 81.219 37.8788 81.2612 37.8788 81.3034V81.3203C38.1216 81.4216 38.3393 81.5818 38.5654 81.7253C38.6575 81.3541 38.9421 81.1515 39.2854 81.0587C39.5784 80.9744 39.905 81.3287 39.9385 81.8856C39.9217 81.9362 39.905 82.0205 39.8799 82.1218C39.9134 82.1218 39.9468 82.1218 39.9803 82.1049C40.198 81.7843 40.5497 81.7843 40.8846 81.7253C40.8846 82.0037 41.0353 82.1471 41.2948 82.1893C41.3116 82.2146 41.3283 82.2399 41.3367 82.2736C42.8688 82.0964 44.3675 81.7759 45.7825 81.295C45.7071 81.0841 45.816 80.7888 45.8411 80.5273C45.7071 80.2404 45.5732 79.9536 45.4392 79.6667C45.255 79.6414 45.0625 79.6246 44.8783 79.5739C45.2634 79.8692 45.5899 80.2151 45.5481 80.831C44.3089 81.5903 44.0326 81.5059 43.3796 80.1223C43.0698 79.8692 42.9944 79.5233 43.0196 79.1521C42.894 79.1437 42.76 79.1268 42.6344 79.1099C42.5256 78.8399 42.3581 78.5869 42.2744 78.3085C42.2325 78.1566 42.2074 77.9963 42.2409 77.8276C42.1823 77.6926 42.1823 77.566 42.2409 77.431C42.2409 77.3804 42.2242 77.3298 42.2242 77.2792C42.2158 77.2032 42.2074 77.1357 42.199 77.0598C42.199 77.0345 42.199 77.0008 42.1907 76.9755C42.3749 77.0176 42.5674 77.0514 42.7349 77.1358C42.8521 77.1948 42.9526 77.2792 43.0363 77.4142H43.053C43.3042 77.4564 43.4382 77.5913 43.4466 77.8444C43.3126 77.701 43.1786 77.5576 43.053 77.4226C43.2038 77.5491 43.3293 77.6925 43.4466 77.8444C43.5135 77.9372 43.547 78.0385 43.547 78.1566C43.6726 78.3338 43.7898 78.5193 43.9154 78.6965C44.0243 78.823 44.1331 78.9581 44.2419 79.0846C44.2252 79.0087 44.2168 78.9328 44.2336 78.8315C44.3089 78.3928 44.6355 78.3 45.0206 78.3085C45.1629 78.3085 45.3053 78.3337 45.4392 78.3422C45.5983 78.4772 45.749 78.6121 45.9081 78.7556C45.9081 78.8905 45.9248 79.0255 45.9332 79.1605C45.9751 79.1689 46.0169 79.1859 46.0504 79.2027C46.2095 79.2702 46.3183 79.3883 46.3602 79.5823C46.6114 79.6161 46.737 79.7848 46.8207 80.0042C46.9295 80.0463 47.0467 80.0717 47.164 80.0717C47.3063 80.232 47.4486 80.4007 47.591 80.561C47.9677 80.3923 48.3361 80.2066 48.6961 80.0126C48.6794 79.8439 48.6543 79.6667 48.6375 79.4895L48.7045 79.5064ZM54.6658 61.199C54.6658 61.199 54.6658 61.2159 54.6658 61.2243C54.7662 62.1355 54.7662 63.0466 54.6406 63.9578C54.6071 64.2193 54.4899 64.3627 54.3225 64.4302C54.1969 64.4809 54.0546 64.4977 53.8871 64.4893C53.5103 63.8059 53.4099 63.0804 53.435 62.3042C53.4685 61.3677 53.435 61.3677 54.6574 61.199H54.6658ZM52.2545 66.725C52.3131 66.6997 52.3801 66.6659 52.4387 66.6406C52.5643 66.5816 52.6898 66.5225 52.8154 66.4634C52.8405 66.455 52.8573 66.4466 52.8824 66.4382C52.8908 66.6406 52.9075 66.8431 52.9243 67.0371V67.1552C52.6815 67.1806 52.4554 67.1553 52.288 67.0034C52.2293 66.9443 52.1791 66.8768 52.1373 66.7756C52.1791 66.7587 52.221 66.7418 52.2628 66.7165L52.2545 66.725ZM51.4005 59.4105C51.6014 59.3345 51.7772 59.4526 51.8693 59.6635C51.9196 59.9166 51.7856 60.0601 51.5679 60.0769C51.4591 60.0854 51.2916 60.0094 51.2414 59.9166C51.1325 59.7226 51.1995 59.4948 51.4005 59.4105ZM47.9342 63.8397C48.0096 63.6962 48.2356 63.5782 48.4198 63.5444C48.6375 63.5022 48.805 63.6456 48.805 63.9072C48.7129 64.2193 48.5119 64.388 48.1938 64.3121C47.9677 64.2615 47.8421 64.0337 47.9342 63.8397ZM27.2122 62.4645C27.7146 62.4308 28.1332 63.0045 27.9155 63.4432C27.8569 63.5697 27.7815 63.6878 27.6978 63.7975C27.2959 64.3121 26.7936 64.523 26.4754 64.2952C26.241 64.1265 26.1489 63.8565 26.1908 63.5612C26.2745 62.8948 26.6429 62.4982 27.2122 62.4561V62.4645ZM25.1526 67.0709C25.2865 67.0878 25.4289 67.0709 25.5628 67.0962C25.9061 67.1552 26.0233 67.3831 25.9647 67.7036C25.9396 67.8133 25.8224 67.982 25.7303 67.9905C25.387 68.0326 25.2363 67.7964 25.1777 67.4927C25.1526 67.3577 25.1609 67.2228 25.1526 67.0793H25.1442L25.1526 67.0709ZM21.4017 60.0938C21.4017 60.0938 21.3598 60.0685 21.3347 60.0516C21.477 59.6804 21.6277 59.3092 21.7701 58.9465C21.8454 58.938 21.9124 58.9211 21.9794 58.8958C22.0212 58.879 22.0631 58.8705 22.105 58.8452C22.1217 58.7018 22.1301 58.5668 22.1301 58.4234H22.1133L22.5236 57.9678C22.6575 57.9172 22.7831 57.8328 22.9171 57.8159C23.4027 57.7653 23.679 58.0016 23.5116 58.3306C23.2939 58.7693 22.959 59.1574 22.9422 59.6804C22.825 59.6973 22.7078 59.731 22.5906 59.7563C22.5906 59.7563 22.5654 59.7901 22.5487 59.8154C22.0631 60.5072 22.0129 60.5241 21.3933 60.0938H21.4017ZM26.8187 74.9338C26.7685 74.9338 26.7182 74.9422 26.6596 74.9507C26.5508 74.9675 26.4503 74.976 26.3415 74.9929C25.8391 74.6048 25.2865 74.2167 25.1191 73.5755C24.7758 72.31 23.9553 71.3314 23.252 70.2768C23.0176 70.243 22.7831 70.2009 22.5487 70.1671C22.5375 69.5091 22.7943 69.2138 23.319 69.2813C23.4948 69.3066 23.6706 69.3319 23.8464 69.3572C23.8464 69.3319 23.8381 69.2981 23.8381 69.2644C23.8213 69.1294 23.8716 68.986 23.8967 68.8426C23.9218 68.8426 23.9385 68.8341 23.9637 68.8257C24.0139 68.8172 24.0641 68.8004 24.1144 68.7919C24.1479 68.7835 24.1814 68.7751 24.2148 68.7667C24.3488 68.9185 24.4828 69.0788 24.6167 69.2307C24.6167 69.2391 24.6167 69.256 24.6167 69.2644C24.6167 69.3825 24.6335 69.4922 24.667 69.6103C24.5749 69.7453 24.4576 69.855 24.3321 69.9056C24.7842 70.1418 25.1861 70.5299 25.6884 70.6311C25.7051 70.6311 25.7303 70.6311 25.747 70.6311C25.8224 70.5636 26.0149 70.5721 26.174 70.5637C26.1991 70.5637 26.2242 70.5637 26.241 70.5637C26.241 70.5805 26.241 70.5974 26.241 70.6143C26.2577 70.6143 26.2661 70.6143 26.2745 70.6143C26.4922 70.2937 26.8438 70.2937 27.1787 70.2346C27.1787 70.513 27.3294 70.6564 27.589 70.6986C27.656 70.8252 27.7146 70.9517 27.7899 71.0698C29.3556 73.2802 29.1881 72.5462 28.0076 74.9254C27.6057 75.0182 27.1955 75.1531 26.7852 74.9422L26.8187 74.9338ZM28.8867 76.3512C28.6104 76.832 28.1248 77.1864 27.9992 77.76C27.5471 77.836 27.1703 77.6925 26.8606 77.3719C26.9527 77.0345 27.0866 76.7055 27.1285 76.368C27.2289 75.4737 27.4215 75.2291 28.1499 75.2038C28.7862 75.1785 29.2049 75.8112 28.8867 76.3512ZM30.4021 75.6003C30.1007 75.6003 29.9082 75.3303 29.9249 75.0097C29.9417 74.6469 30.2179 74.5457 30.5194 74.5794C30.737 74.6047 30.9045 74.7482 30.9045 75.0182C30.871 75.3134 30.7036 75.5918 30.4105 75.6003H30.4021ZM29.6989 68.6232C29.3807 68.3701 29.3137 68.0242 29.3388 67.6446C29.2132 67.6361 29.0793 67.6193 28.9537 67.6024C28.8449 67.3324 28.6774 67.0793 28.5937 66.8009C28.5518 66.6491 28.5267 66.4888 28.5602 66.32C28.5016 66.185 28.5016 66.0585 28.5602 65.9235C28.5602 65.8729 28.5434 65.8222 28.5434 65.7716C28.5351 65.6957 28.5267 65.6283 28.5183 65.5523C28.5183 65.527 28.5183 65.4932 28.51 65.4679C28.6942 65.5101 28.8867 65.5439 29.0542 65.6282C29.1714 65.6873 29.2719 65.7717 29.3556 65.9066H29.3723C29.6235 65.9488 29.7575 66.0838 29.7658 66.3369C29.6319 66.1935 29.4979 66.0501 29.3723 65.9151C29.523 66.0416 29.6486 66.1851 29.7658 66.3369C29.8328 66.4297 29.8663 66.531 29.8663 66.6491C29.9919 66.8262 30.1091 67.0034 30.2347 67.189C30.3603 67.3409 30.4859 67.4843 30.6115 67.6361C31.1975 68.0833 31.9343 68.4039 31.8757 69.3319C30.6366 70.0912 30.3603 70.0068 29.7072 68.6232H29.6989ZM35.3252 74.571H35.3419V74.5794C35.5848 74.6047 35.7103 74.7651 35.7689 74.9929C36.0536 75.3303 36.2127 75.6931 35.995 76.1402C35.9783 76.174 35.9531 76.1993 35.9364 76.233C36.0285 76.3258 36.0955 76.4355 36.0704 76.6042C36.3466 77.0261 36.3215 77.4394 36.0536 77.8528C35.6768 78.5025 35.568 79.169 35.8945 79.8692C36.1122 80.3332 36.1876 80.8141 36.0787 81.3119C35.3922 81.4384 35.0657 81.0082 34.8145 80.4682L34.781 80.0379C34.8145 79.5402 34.7977 79.0677 34.4377 78.6712C34.4712 78.5278 34.5047 78.3928 34.5382 78.2494C34.4963 78.2072 34.4545 78.1566 34.421 78.0975C34.3875 78.0469 34.3624 77.9878 34.3372 77.9288H34.1447L34.0609 77.895L33.9689 77.8528C33.8516 77.8528 33.7344 77.8697 33.6172 77.8782C33.5921 77.8782 33.567 77.8782 33.5418 77.8782C33.5418 77.9119 33.5418 77.9372 33.5418 77.971C33.5418 78.359 33.5921 78.7724 33.2823 79.0593C33.2321 79.1015 33.1735 79.1437 33.1148 79.1858C33.14 79.304 33.1483 79.4474 33.1567 79.6752C32.6041 79.6752 32.3027 79.4474 32.3613 78.8568C32.6544 78.8737 32.8134 78.899 32.9223 78.9496C32.8553 78.8905 32.7716 78.8484 32.6627 78.84C32.5288 78.7893 32.3864 78.7303 32.2525 78.6797C32.2525 78.6797 32.2608 78.6459 32.2692 78.629C32.4785 77.9119 32.512 77.895 33.5084 77.8613C33.5084 77.7432 33.4832 77.6251 33.4497 77.507C33.0562 77.1526 33.0897 76.6802 33.073 76.2246C32.9893 76.2246 32.8972 76.2246 32.8134 76.2246C32.6711 76.0896 32.4367 75.9715 32.4116 75.8196C32.3362 75.4147 32.4953 74.9085 32.3111 74.5963C31.5994 73.3815 32.4032 72.909 33.2404 72.4112C33.3828 72.2594 33.5167 72.1075 33.6591 71.9472C33.793 71.9472 33.927 71.9388 34.0693 71.9219C34.0693 71.8966 34.0777 71.8797 34.0861 71.8544C34.1112 71.7616 34.1363 71.6688 34.153 71.5676C34.2116 71.5676 34.2703 71.5676 34.3289 71.5676C34.5214 71.5676 34.7056 71.5507 34.8982 71.5423H34.9149C34.9149 71.5423 34.9317 71.5845 34.9401 71.6098C35.074 71.9304 35.3252 72.0063 35.6182 71.9726C35.6768 71.9726 35.7271 71.9557 35.7857 71.9472C35.7857 71.9472 35.8024 71.9472 35.7941 71.9472C36.0201 72.31 36.2378 72.6728 36.1625 73.1199C36.1625 73.1452 36.1624 73.1621 36.1541 73.1874C36.2211 73.2212 36.288 73.2633 36.355 73.3139C36.3048 73.9636 35.6015 74.0817 35.3336 74.5542L35.3252 74.571ZM38.4398 78.4687C37.7197 78.9665 37.0164 78.9665 36.3299 78.4012C36.5141 77.3045 36.5811 77.2033 37.3346 77.102C37.6779 77.0598 38.0295 77.0598 38.3728 77.043C38.4147 77.102 38.4482 77.1526 38.4733 77.2117C38.6826 77.6166 38.6658 78.0385 38.4398 78.4603V78.4687ZM39.6957 74.6217C39.3356 74.7566 39.3608 75.1278 39.2184 75.3978C39.2268 75.6678 39.2435 75.9462 39.2435 76.2161C39.2435 76.2752 39.2435 76.3258 39.2435 76.3764C39.2435 76.7814 39.1849 76.8658 38.7831 76.7898C38.6742 76.7729 38.5403 76.7392 38.3728 76.7055C38.5151 76.2752 38.6156 75.845 38.3644 75.4147C37.6863 74.8579 37.2593 74.1323 37.0499 73.2802C37.0416 73.2127 37.0248 73.1368 37.0165 73.0693C36.983 72.8753 36.9578 72.6812 36.9076 72.4872C36.782 71.9641 36.7569 71.846 37.1337 71.8629C37.2425 71.8629 37.3848 71.8797 37.569 71.8966C38.2221 72.4703 38.6742 73.2549 39.5868 73.5586C40.1227 73.7358 39.7961 74.2504 39.6957 74.6301V74.6217ZM41.7888 73.9467C41.1525 73.9804 40.8176 73.7105 40.7925 73.1284C40.7757 72.7318 41.0688 72.3859 41.412 72.4197C41.5962 72.4703 41.8055 72.5378 42.0065 72.5884C42.4084 72.6897 42.9442 72.7403 42.8019 73.3308C42.693 73.7864 42.2409 73.9214 41.7888 73.9467ZM43.3628 66.6575C43.2958 66.725 43.2372 66.7925 43.1703 66.86L43.0698 66.9612C42.8019 66.8262 42.6009 66.59 42.8437 66.3454C43.0865 66.1007 43.321 66.2863 43.4633 66.5563L43.3545 66.6659L43.3628 66.6575ZM44.7945 76.2415H44.7862C44.5182 76.2077 44.2001 76.2415 44.0326 75.9631C43.8736 75.71 43.8903 75.4147 44.0996 75.1869C44.175 75.1025 44.3508 75.0519 44.468 75.0772C44.7694 75.1278 44.9871 75.305 44.962 75.634C44.9452 75.8365 44.8448 76.039 44.7862 76.233L44.7945 76.2415ZM44.7862 66.7419C44.7862 66.7419 44.7862 66.7419 44.7862 66.7334C44.8113 66.7672 44.8364 66.7925 44.8699 66.8262L44.7862 66.7419ZM45.4225 70.8758C45.2383 70.9771 45.029 70.8505 44.9704 70.6227C44.9118 70.3949 45.0457 70.2262 45.2299 70.1334C45.4643 70.0153 45.5899 70.1587 45.6904 70.4371C45.6234 70.5552 45.5648 70.7914 45.4225 70.8674V70.8758ZM45.6904 65.8729C45.6904 65.8729 45.682 65.8898 45.6737 65.8982C45.5397 65.8898 45.3974 65.8813 45.2634 65.8729C45.1378 65.721 45.0206 65.5692 44.895 65.4173C44.895 65.4089 44.8783 65.4005 44.8699 65.392C44.6941 65.0208 44.3089 64.7339 44.4429 64.2446C44.4848 64.2446 44.535 64.2531 44.5769 64.2531C44.7694 64.2699 44.962 64.2868 45.1545 64.3037C45.5815 64.7424 46.1593 65.1389 45.6737 65.8645L45.6904 65.8729Z" fill="#222222"/>
<path d="M46.0753 80.4004L45.9077 80.5186C45.9664 80.4848 46.0166 80.4426 46.0753 80.4004Z" fill="#222222"/>
<path d="M18.0605 97.2735C18.1526 97.2144 18.3535 97.2735 18.454 97.3326C18.5545 97.3916 18.6047 97.5435 18.6801 97.6531C19.0987 97.6531 19.2494 97.3494 19.4001 97.012C19.5089 96.7673 19.7183 96.5732 19.8857 96.3539C19.9611 95.9489 20.1285 95.6368 20.3964 95.4343C19.442 94.4219 18.6047 93.2998 17.9098 92.085L17.6251 93.2408C17.5079 94.7594 17.466 96.278 17.4828 97.7966C17.6251 97.5941 17.8093 97.4085 18.0521 97.265L18.0605 97.2735Z" fill="#222222"/>
<path d="M60.1743 101.526C60.1659 101.425 60.1826 101.332 60.2245 101.239C59.8226 98.4887 59.4124 95.7468 59.0105 92.9965C58.6672 92.9712 58.3156 92.9965 57.9723 92.988C57.8467 93.2243 57.6374 93.3677 57.4197 93.3002C57.2104 93.2411 57.0346 93.1315 56.9257 92.9712C54.6819 93.0556 52.4548 93.5027 50.3533 94.3041C49.0723 94.7935 47.8499 95.4094 46.6443 96.0674C46.594 96.6242 46.5438 97.181 46.4936 97.7294C46.4936 97.9825 46.4936 98.2441 46.4936 98.4972C46.4601 98.8262 46.2675 99.0371 45.9493 99.0118C45.4219 98.9696 45.2628 98.6068 45.2963 98.1175C45.3716 97.6366 45.447 97.1557 45.5223 96.6833C44.6683 97.1641 43.8143 97.645 42.952 98.1175C42.5668 98.7502 41.9975 99.2649 41.1854 99.6276C40.9426 99.5686 40.7584 99.4336 40.5909 99.2817C39.8458 99.6192 39.0922 99.9229 38.3136 100.168C38.0959 100.235 37.8782 100.286 37.6605 100.345C37.694 100.37 37.7275 100.395 37.761 100.421C37.761 100.547 37.7443 100.657 37.7191 100.767C37.6773 100.944 37.5936 101.104 37.4428 101.239C37.4261 101.332 37.4261 101.425 37.4261 101.517C37.4261 101.56 37.4177 101.602 37.4177 101.644C37.0075 102.032 36.9237 102.521 36.9154 103.028C36.9154 103.129 36.9154 103.23 36.9154 103.34C36.5135 103.331 36.1032 103.323 35.7014 103.314C35.7014 103.314 35.693 103.247 35.6846 103.205C35.6762 103.112 35.6679 103.019 35.6846 102.918C35.6846 102.918 35.6846 102.918 35.6846 102.909C35.6846 102.909 35.6846 102.909 35.6762 102.909C35.5339 102.909 35.3916 102.918 35.2492 102.926C35.2241 102.791 35.2157 102.665 35.2157 102.53C34.8725 102.277 34.5292 102.024 34.4204 101.568C34.2027 101.357 33.9766 101.146 33.7589 100.935C31.3644 101.02 28.9447 100.623 26.7093 99.7458C24.6077 98.9105 22.6821 97.6451 21.0411 96.0674C21.0327 96.0843 21.041 96.1012 21.0243 96.118C20.9071 96.3289 20.9071 96.5989 20.8485 96.8436C20.8485 96.987 20.815 97.1304 20.7564 97.2569C20.8652 97.5185 20.9908 97.7632 21.0745 98.0331C21.1666 98.3284 21.0745 98.5815 20.8234 98.7671C20.5806 98.9443 20.2959 98.9865 20.0531 98.8177C19.7768 98.6153 19.5675 98.3199 19.2744 98.1428C19.1321 98.0584 18.8809 98.1512 18.68 98.1681C18.68 98.5984 18.68 99.0287 18.6549 99.4505C18.6381 99.653 18.5795 99.906 18.2949 99.8892C18.0939 99.8807 17.8595 99.847 17.7088 99.7373C17.6418 99.6782 17.5916 99.6192 17.533 99.5517C17.5999 101.062 17.7172 102.572 17.9097 104.074C18.0269 104.96 18.1776 105.862 18.6465 106.622C19.1991 107.507 20.1368 108.081 21.0662 108.554C24.5408 110.308 28.4926 111.093 32.3775 110.823C32.3607 110.612 32.4026 110.41 32.6119 110.232C32.6035 109.676 32.5114 109.119 32.7207 108.579C32.7961 108.267 33.0221 108.14 33.3152 108.106C33.5831 108.073 33.8092 107.98 33.9682 107.752C33.9766 107.735 33.9934 107.727 34.0017 107.71C34.1189 107.617 34.2278 107.533 34.345 107.448C34.3785 107.423 34.412 107.398 34.4455 107.372C34.6799 107.541 34.9227 107.769 34.8055 108.064C34.4706 108.891 34.3785 109.726 34.4204 110.595C35.4083 110.435 36.3879 110.207 37.3507 109.92C37.2419 109.819 37.1331 109.676 36.9572 109.439C37.3926 109.11 37.401 108.638 37.4177 108.157V108.174C37.828 108.03 38.2299 108.056 38.6401 108.165C38.6234 108.579 38.6066 108.992 38.5899 109.406C38.5062 109.482 38.4141 109.558 38.3303 109.633C41.1016 108.705 43.7474 107.347 46.2508 105.812C48.5365 104.403 50.7887 102.817 53.3841 102.175C55.9796 101.534 59.0942 102.083 60.6515 104.276C60.5343 103.483 60.4171 102.69 60.2999 101.897C60.2329 101.813 60.1743 101.711 60.1575 101.551L60.1743 101.526ZM39.0671 106.782C38.6987 106.765 38.4308 106.622 38.188 106.309C38.054 106.132 37.7861 106.056 37.5601 105.955C37.5349 105.947 37.5098 105.93 37.4847 105.921C37.5433 104.884 37.5517 104.875 38.682 104.673C38.6987 104.715 38.7071 104.766 38.7071 104.808C38.7741 105.238 38.615 105.736 39.042 106.073C39.0253 106.191 39.042 106.301 39.1006 106.402C39.0671 106.529 39.0587 106.655 39.0755 106.79L39.0671 106.782ZM39.8876 102.226C39.5946 102.606 39.1006 102.386 38.6987 102.42L38.5145 102.395C38.481 102.251 38.4224 102.125 38.3303 102.015C38.4057 101.711 38.4894 101.408 38.5648 101.104C38.5983 100.986 38.6234 100.868 38.6569 100.75C39.042 100.581 39.4606 100.362 39.762 100.859C40.0216 101.281 40.2476 101.787 39.896 102.235L39.8876 102.226ZM42.751 103.39C42.592 103.551 42.3492 103.517 42.2068 103.348C41.7128 102.766 41.8803 101.889 42.525 101.551C42.8013 101.408 43.3706 101.636 43.4041 102.108C43.4041 102.496 43.1529 102.985 42.751 103.39ZM45.8489 99.6361C45.7484 99.9229 45.6479 100.21 45.5391 100.497C45.514 100.573 45.4805 100.648 45.4554 100.733C45.2963 100.859 45.1372 100.994 44.9698 101.104C44.7856 101.222 44.4925 101.222 44.4423 101.045C44.2665 100.446 43.7892 99.847 44.2832 99.1974C44.2916 99.1805 44.2999 99.1636 44.3167 99.1467C44.9279 98.9189 45.4972 98.8852 45.8907 99.5433C45.8824 99.577 45.8656 99.6108 45.8572 99.6445L45.8489 99.6361ZM48.436 99.2817C48.1178 99.6614 47.9001 99.2902 47.6992 99.0539C47.8332 98.8852 47.9671 98.7165 48.1011 98.5562C48.3941 98.7249 48.7206 98.9443 48.4276 99.2902L48.436 99.2817ZM51.5171 98.1259C51.065 98.185 50.5794 98.1765 50.2779 98.6237H50.2612C49.9849 98.4718 49.7086 98.3115 49.4323 98.1512C49.4574 98.05 49.4658 97.9488 49.4658 97.8475C49.6165 97.6957 49.7756 97.5438 49.9263 97.3835C50.1775 97.2907 50.437 97.2148 50.6882 97.1135C51.0147 96.987 51.3496 96.8942 51.6092 97.1979C51.8855 97.5185 51.6427 97.8222 51.5254 98.1259H51.5171ZM59.4459 100.573C59.3287 100.606 59.1696 100.665 59.0859 100.615C58.8263 100.454 58.8682 100.168 58.8514 99.9145C59.0524 100.075 59.2533 100.227 59.4375 100.404C59.471 100.429 59.4542 100.573 59.4375 100.573H59.4459Z" fill="#222222"/>
<path d="M28.5433 43.7184C28.493 43.5496 28.5349 43.3724 28.6186 43.2206C28.9703 42.6216 29.3722 42.0648 29.7573 41.4826C30.3517 41.7695 30.1927 42.3348 30.2345 42.8156C30.042 43.1869 29.908 43.6002 29.6485 43.9039C29.5061 44.0727 29.2968 44.1317 29.0875 44.1064C29.3136 44.2667 29.5396 44.4354 29.774 44.5789C31.4151 45.5659 33.2487 46.1565 35.1325 46.4855C35.0739 46.3252 35.0739 46.1481 35.1743 45.954C35.1994 45.9034 35.2246 45.8613 35.2581 45.8275C35.2329 45.7178 35.2246 45.6081 35.2329 45.4816C35.2413 45.3382 35.2832 45.2032 35.3083 45.0682C35.4506 45.0682 35.6013 45.0851 35.7437 45.0935C35.8609 45.0514 35.9781 45.0429 36.0953 45.0766C36.2544 45.0598 36.4051 45.0513 36.5642 45.0345C36.8237 45.296 37.0498 45.5828 36.8321 45.9625C36.7149 46.165 36.5642 46.2662 36.3967 46.3168C36.5558 46.3843 36.6646 46.5024 36.7233 46.6796C36.7233 46.6796 36.7233 46.7049 36.7233 46.7218C37.2089 46.7724 37.7028 46.8146 38.1884 46.8399C42.1654 47.0339 46.5107 46.2325 49.5918 43.8702C49.6588 43.6256 49.7677 43.4146 50.0021 43.2543C50.0691 43.2796 50.1444 43.2881 50.2114 43.3049C50.9314 42.6553 51.6012 41.9382 52.1287 41.0862C52.765 40.0485 53.1837 38.9095 53.4934 37.7284C53.4934 37.7284 53.4934 37.7284 53.4851 37.7284C53.4851 37.7284 53.4934 37.7199 53.4934 37.7115C53.4934 37.7115 53.4934 37.7199 53.4934 37.7284C53.8953 36.1845 54.0879 34.5646 54.2553 32.9701C54.3726 31.8987 54.473 30.8104 54.5065 29.722C54.3558 29.6714 54.1549 29.5786 53.8702 29.4267C53.8702 29.4267 53.8869 29.3677 53.8953 29.334C54.0544 28.7518 54.1298 28.5747 54.5065 28.5578C54.473 27.132 54.2637 25.74 53.7446 24.4154C53.46 23.6899 53.0748 23.0571 52.6478 22.4581C52.2627 22.5256 51.8775 22.3485 51.7185 21.9604C51.6431 21.7663 51.6599 21.547 51.7436 21.3529C50.4542 20.0031 48.8132 19.0582 46.9796 18.4592C46.787 18.746 46.4689 18.9316 46.2177 18.8726C45.9833 18.8135 45.8075 18.4423 45.8409 18.1386C44.9618 17.9277 44.0576 17.7758 43.145 17.7083C36.246 16.6622 28.6605 19.8765 25.3115 26.0437C22.2136 31.7637 23.57 39.7109 28.5517 43.7268L28.5433 43.7184ZM49.9435 28.1106H49.6923C49.3658 28.0853 49.0392 28.0769 48.7127 28.06C48.7127 27.7985 48.696 27.5454 48.696 27.2839C49.4049 27.2839 49.8207 27.5594 49.9435 28.1106ZM50.3119 26.7861C50.3119 26.7861 50.27 26.7608 50.2533 26.7439C50.0272 26.5752 50.0021 26.3137 50.0105 26.0352C50.1361 25.9931 50.2533 25.9846 50.3789 26.0184C50.3789 26.2884 50.3789 26.5583 50.3872 26.8283C50.3537 26.8199 50.337 26.803 50.3119 26.7861ZM53.1837 25.5122C53.9204 25.4194 53.9204 25.4025 54.2135 26.2968C53.7949 26.4065 53.4516 26.6174 53.1669 26.9464C52.7818 27.3935 52.2878 27.6129 51.7185 27.6719C51.1408 26.9801 51.0235 26.2799 51.7185 25.5881C52.2041 25.5628 52.6897 25.5628 53.1753 25.5037L53.1837 25.5122ZM49.483 21.1758C49.5081 20.9142 49.483 20.6358 49.5751 20.3996C49.7928 19.885 50.1109 19.9356 50.4291 20.3321C50.8896 20.6358 50.9482 21.0914 50.9063 21.5892C51.0319 21.7495 51.1575 21.9097 51.2831 22.07C51.6515 22.1038 51.9362 22.2472 52.0031 22.6522C52.0534 22.9981 52.0785 23.3609 51.8189 23.6224C51.7017 23.7405 51.3919 23.8417 51.2831 23.7742C50.9482 23.5549 50.6719 23.2596 50.3705 22.9896C50.2449 22.9812 50.1277 22.939 50.0188 22.8715C48.8802 22.5847 48.8216 22.4075 49.483 21.1758ZM47.7917 24.9216C48.4281 24.6685 49.0141 25.0313 49.7844 24.9216C49.6505 25.7484 49.2235 26.1196 48.7881 26.4739C48.4029 26.7861 47.8504 26.6849 47.4652 26.2883C47.0215 25.8328 47.2057 25.1578 47.7834 24.9301L47.7917 24.9216ZM46.0084 24.3901C46.0084 24.3901 46.0419 24.4323 46.0586 24.4492C46.7284 25.2253 46.7201 25.2507 46.134 25.9425C45.8242 25.6725 45.5228 25.4025 45.213 25.1325C45.2381 24.6263 45.4307 24.2973 46.0084 24.3901ZM44.6185 29.2243C44.8781 29.1483 45.0121 29.334 45.0958 29.5196C45.3972 30.2282 45.6902 30.9369 45.9833 31.6456C46.2512 31.6456 46.4019 31.7806 46.4438 32.0421C46.628 32.5314 46.4605 33.0123 46.4187 33.4932C46.3852 33.8813 46.6363 34.4128 46.1256 34.5984C45.5144 34.8177 45.3553 34.185 45.0456 33.8475C44.6437 33.5691 44.6855 33.1304 44.6185 32.717C44.4678 31.7721 44.719 30.7766 44.2585 29.857C44.1329 29.6124 44.292 29.3171 44.6102 29.2243H44.6185ZM43.9822 24.0105C43.9822 24.2129 43.932 24.4238 43.9069 24.6263H43.8985C43.639 24.5841 43.3459 24.5842 43.1199 24.4576C42.785 24.2804 42.651 23.9261 42.8268 23.5802C42.8938 23.4452 43.1785 23.3524 43.3543 23.3524C43.7311 23.3609 43.9822 23.5971 43.9822 24.002V24.0105ZM42.1654 22.6522C42.3915 22.5172 42.6008 22.3231 42.8519 22.2556C43.0445 22.1966 43.2455 22.3569 43.279 22.5762C43.2957 22.6943 43.2538 22.8884 43.1785 22.9306C42.9441 23.0656 42.6845 23.1415 42.4333 23.2427C42.4249 23.2427 42.4166 23.2427 42.4082 23.2427C42.3915 23.2427 42.3663 23.2427 42.3412 23.2259C42.2994 23.2174 42.2575 23.2006 42.2156 23.2006C42.2073 23.0487 42.1905 22.8968 42.1822 22.7365C42.1822 22.7112 42.1822 22.6775 42.1822 22.6522H42.1654ZM33.7594 37.1209C33.0561 37.1547 32.4449 36.252 32.7463 35.5264C32.8133 35.3661 33.0142 35.2311 33.1817 35.1636C33.257 35.1299 33.4496 35.2396 33.5166 35.3324C33.8012 35.7204 34.0692 36.1339 34.0859 36.6401C34.0859 36.8594 34.0357 37.0366 33.7594 37.1125V37.1209ZM32.11 34.4971C31.8253 34.3369 31.8086 34.0331 31.9509 33.7885C32.11 33.5185 32.403 33.4932 32.6626 33.645C32.897 33.7716 33.1314 33.9488 32.9891 34.2778C32.7547 34.6237 32.4449 34.6828 32.11 34.4971ZM38.4145 19.5137C38.4145 19.2353 38.4312 18.9485 38.4312 18.6701C38.5485 18.6363 38.6573 18.6195 38.7745 18.6026C39.0341 18.2989 39.3355 18.1555 39.5029 18.6279C39.662 19.0751 39.6285 19.5559 39.2852 19.9525C39.2183 20.2477 39.0592 20.4418 38.8499 20.5683C38.7159 20.6527 38.5736 20.7117 38.4061 20.7539C38.4061 20.3405 38.4061 19.9187 38.4145 19.5053V19.5137ZM38.4564 25.9256C38.448 25.3856 38.4312 24.8457 38.4229 24.3058C38.4229 24.3058 38.4229 24.2973 38.4229 24.2889C38.6741 24.2889 38.9336 24.3058 39.1848 24.3058C39.1848 24.3058 39.1848 24.3142 39.1848 24.3226C39.2015 24.736 39.2434 25.1494 39.235 25.5628C39.235 25.6303 39.235 25.664 39.2266 25.7062C39.4443 25.8328 39.5197 26.1027 39.5113 26.4486C39.4443 26.4739 39.3941 26.4908 39.3355 26.5077C39.2769 26.5246 39.2183 26.5414 39.168 26.5583C38.7745 26.668 38.6992 26.5836 38.6992 26.069C38.6992 26.0437 38.6992 26.0099 38.6992 25.9846C38.6154 25.9678 38.5568 25.9509 38.4396 25.9256H38.4564ZM39.0676 27.8576C39.2099 27.8322 39.3606 27.8154 39.5029 27.79C39.5783 27.8744 39.6285 27.9757 39.6453 28.0938C39.7625 28.2625 39.9969 28.4312 39.9885 28.5915C39.9299 29.6545 40.1225 30.6754 40.3067 31.7131C40.3151 31.7806 40.2983 31.8481 40.2899 31.924C40.2565 32.2362 40.0723 32.4724 39.7792 32.4892C39.6201 32.4977 39.3606 32.3374 39.2936 32.1855C39.1345 31.8059 38.9922 31.3925 38.9838 30.9875C38.9671 30.3463 38.9001 29.7305 38.582 29.1652C38.2638 29.0808 37.9875 28.9459 37.8201 28.6506C37.7028 28.6506 37.594 28.6253 37.4768 28.5915C37.4684 28.33 37.46 28.0685 37.4433 27.8154C37.5689 27.7816 37.6861 27.731 37.7949 27.6719C37.8033 27.7732 37.8284 27.8744 37.8536 27.9757C37.887 27.9588 37.9122 27.9504 37.9456 27.9419C38.3057 27.7732 38.674 27.7647 39.0592 27.8744L39.0676 27.8576ZM38.6657 35.5349C38.6657 35.8554 38.6238 36.1001 38.4061 36.1592C38.3057 36.1845 38.1801 36.1676 38.0042 36.1001C37.8201 36.0326 37.6275 35.9989 37.4349 35.9482C37.2842 35.7205 37.0414 35.4842 37.1837 35.189C37.3596 34.8262 37.7112 34.7249 38.088 34.8515C38.2889 34.919 38.4647 35.0455 38.6573 35.1468V35.383C38.6657 35.4336 38.6657 35.4927 38.6741 35.5433L38.6657 35.5349ZM37.6694 22.1882C37.9708 22.3569 37.954 22.6437 37.7698 22.88C37.6024 23.0909 37.3679 23.2427 37.1586 23.4199L37.1168 23.4452C36.7065 23.3777 36.2125 23.3187 36.3465 22.7365C36.4805 22.1713 37.167 21.9182 37.661 22.1882H37.6694ZM35.7855 41.5923C35.9279 40.909 36.0702 40.234 36.2209 39.5507C36.2376 39.5507 36.2544 39.5338 36.2711 39.5254C36.3465 39.4916 36.4302 39.4579 36.4972 39.4157C36.5893 38.8335 36.4637 38.0996 37.4935 38.3105C37.6107 38.3358 37.728 38.3105 37.8284 38.243C38.0042 38.1333 38.1633 37.9308 38.2805 37.7368C39.1764 37.9815 39.2015 38.0321 39.1011 38.9938C38.9169 39.1204 38.7327 39.2385 38.5568 39.3566C38.1382 39.635 37.7447 39.9388 37.46 40.3775C37.4349 40.909 37.4014 41.4405 37.3679 41.972C37.3679 41.972 37.3679 41.9804 37.3596 41.9888C37.2758 42.0901 37.1921 42.1913 37.1 42.2841C37.3679 42.3854 37.5438 42.6216 37.6107 43.0181C37.6945 43.5327 37.5186 43.9293 37.2507 44.292C37.1921 44.368 37.1335 44.4523 37.0665 44.5282C36.6646 44.5282 36.2711 44.5198 35.8693 44.5114C35.7855 44.4102 35.7185 44.2751 35.6097 44.2077C35.4841 44.1233 35.3837 44.0305 35.2999 43.9293C35.0404 43.6087 35.0739 43.2375 35.3585 42.8241C35.392 42.8072 35.4171 42.7819 35.4506 42.765C35.5595 42.6975 35.6683 42.63 35.7688 42.5626C35.6265 42.2926 35.7186 41.9298 35.7855 41.6008V41.5923ZM32.7379 21.8929C32.8217 21.7495 32.9137 21.6145 33.0142 21.4795C33.0812 21.3867 33.1482 21.3023 33.2152 21.2095C33.2905 21.1167 33.3407 21.0155 33.3575 20.8974C34.2868 20.2731 34.6469 20.2562 35.0822 20.8383C35.2664 21.0914 35.2748 21.3867 35.0404 21.5807C34.7808 21.7916 34.4543 21.935 34.1529 22.0953C33.8933 22.2303 33.7343 22.4413 33.6338 22.6944C33.6087 22.7619 33.5836 22.8293 33.5584 22.9053C33.458 22.9306 33.3575 22.9812 33.2821 23.0487C33.0979 22.9643 32.9556 22.8968 32.8384 22.8293C32.4365 22.5931 32.4533 22.3991 32.7379 21.9013V21.8929ZM32.2021 30.397C32.2021 30.397 32.2439 30.397 32.2607 30.3885C32.177 30.1945 32.1435 29.992 32.4449 29.8317C32.8635 29.6124 33.2654 29.258 33.7845 29.6292C33.9603 29.7558 34.1529 29.8233 34.3538 29.8655C34.3455 29.7305 34.3538 29.6039 34.3873 29.4774C34.6134 29.4352 34.7808 29.3171 34.8562 29.0977V29.1146C35.7102 29.587 35.7688 29.6883 35.325 30.2873C35.3167 30.2957 35.3083 30.3126 35.2999 30.321C35.4255 30.6669 35.3836 31.0635 35.4423 31.4262C35.4841 31.7131 35.1408 31.9831 34.8897 31.8734C34.6134 31.7553 34.3455 31.6287 34.0775 31.5022C33.3826 31.7974 32.7882 31.6709 32.0514 31.0803C31.9677 31.0128 31.9174 30.8188 31.9425 30.7007C31.9676 30.5826 32.0849 30.456 32.1937 30.4054L32.2021 30.397ZM30.7118 32.1096C30.8457 32.0674 30.9797 31.9999 31.1137 31.9746C31.4486 31.8987 31.8588 31.6371 32.0932 31.9999C32.4198 32.5146 31.9007 32.717 31.5825 32.9617C31.4904 32.9532 31.4067 32.9364 31.323 32.9195C31.0718 32.8605 30.8709 32.7508 30.7704 32.5399C30.7201 32.4302 30.695 32.2952 30.7118 32.118V32.1096ZM31.0048 43.1953C31.2476 43.1784 31.4234 43.0603 31.5239 42.8409C31.8002 42.8578 32.0765 42.8831 32.3528 42.9C32.3528 43.094 32.3612 43.2796 32.3695 43.4737C32.3695 43.5412 32.3695 43.6086 32.3695 43.6761C32.2439 43.7015 32.1184 43.7183 31.9928 43.7268C31.9425 43.7352 31.8923 43.7521 31.8504 43.769C31.6914 43.8365 31.5909 43.9546 31.5407 44.1402L30.7118 44.1064C30.6029 43.7352 30.6783 43.4231 31.0132 43.1953H31.0048ZM29.6819 27.326C29.774 27.4188 29.8913 27.5032 29.9666 27.6129C30.1341 27.8575 30.1759 28.1444 29.9248 28.3469C29.682 28.5493 29.4308 28.4059 29.2131 28.2288C29.2298 27.8491 29.2801 27.4948 29.6819 27.326ZM28.9787 33.0714C29.0456 32.6242 29.3387 32.5399 29.7154 32.5652V32.8098C29.7406 33.392 29.7573 33.9825 29.7824 34.5646C29.6568 34.6237 29.5312 34.6406 29.3889 34.6406C29.1545 34.1428 28.8866 33.6619 28.9787 33.0714Z" fill="#222222"/>
<path d="M37.9792 28.4732C37.9792 28.4732 37.9792 28.4479 37.9792 28.4395C37.9289 28.507 37.8786 28.5661 37.8284 28.6336C37.8786 28.583 37.9373 28.5239 37.9876 28.4732H37.9792Z" fill="#222222"/>
</svg>
