<svg width="128" height="128" viewBox="0 0 128 128" fill="none" xmlns="http://www.w3.org/2000/svg">
<path d="M31.599 10.116C31.4566 9.86267 31.3058 9.60094 31.1633 9.34766C30.9539 9.44053 30.8031 9.60937 30.8868 9.83733C31.0041 10.1582 31.3225 10.1075 31.599 10.1244V10.116Z" fill="white"/>
<path d="M25.6291 28.2879C25.9305 28.4566 25.9138 28.7435 25.7296 28.9797C25.5621 29.1906 25.3277 29.3425 25.1184 29.5196L25.0765 29.5449C25.0598 29.5449 25.043 29.5449 25.0263 29.5365V34.8347L25.2942 34.86C25.3779 34.86 25.47 34.8769 25.5538 34.8853C25.5956 35.0118 25.6542 35.1469 25.6877 35.2734C25.8468 35.9905 25.671 36.2605 25.0346 36.2774V48.3923C25.3193 48.4851 25.5035 48.7213 25.5705 49.1347C25.6542 49.6494 25.4784 50.0459 25.2105 50.4171C25.1519 50.493 25.0933 50.5605 25.0346 50.6364V50.8389C25.403 50.2906 26.0059 50.7799 26.5082 50.7799C26.5082 50.9233 26.4915 51.0751 26.4831 51.2185C26.9603 51.2185 27.4711 51.1257 27.739 51.691C28.3334 52.4418 27.739 52.8806 27.3036 53.3615C26.8264 53.4205 26.3157 53.5724 26.0394 52.9649C25.7463 52.754 25.5956 52.4419 25.5538 52.096C25.5203 51.7923 25.2021 51.5898 25.043 51.3536V86.8969C25.3193 86.9307 25.5956 86.9729 25.8719 87.0151C25.8886 87.1079 25.897 87.2006 25.897 87.2934C25.897 87.3356 25.9138 87.3778 25.9138 87.42V87.4369C26.4329 87.6562 26.8599 88.1287 27.4208 88.2468C27.605 88.2889 27.7976 88.289 28.0236 88.2215C28.1827 87.9853 28.4172 87.9262 28.66 87.884C28.2581 87.2175 28.5093 86.2979 29.3214 85.8002C29.4135 85.7411 29.6144 85.8001 29.7149 85.8592C29.8154 85.9183 29.8656 86.0701 29.941 86.1798C30.3596 86.1798 30.5103 85.8761 30.661 85.5387C30.7112 85.429 30.7866 85.3277 30.8619 85.2349C30.8033 85.2349 30.7363 85.2265 30.6777 85.2181C30.5689 84.9481 30.4015 84.695 30.3177 84.4166C30.2759 84.2647 30.2507 84.1044 30.2842 83.9357C30.2256 83.8007 30.2256 83.6741 30.2842 83.5391C30.2842 83.4885 30.2675 83.4379 30.2675 83.3873C30.2591 83.3113 30.2507 83.2438 30.2424 83.1679C30.2424 83.1426 30.2424 83.1089 30.234 83.0836C30.4182 83.1258 30.6108 83.1595 30.7782 83.2439C30.8954 83.3029 30.9959 83.3873 31.0796 83.5223H31.0964C31.3475 83.5645 31.4815 83.6995 31.4899 83.9526C31.3559 83.8091 31.222 83.6657 31.0964 83.5307C31.2471 83.6573 31.3727 83.8007 31.4899 83.9526C31.515 83.9863 31.515 84.0369 31.5317 84.0791C31.5987 84.0032 31.6908 83.9526 31.7745 83.9019V46.9159C31.649 47.0256 31.5234 47.169 31.3727 47.2028C31.088 47.2787 30.8368 47.1437 30.7029 46.8568C30.6275 46.6965 30.6694 46.5447 30.8452 46.5194C31.1131 46.4857 31.381 46.4688 31.649 46.5025C31.6992 46.5025 31.7327 46.6122 31.7829 46.7303V30.7261C31.5485 30.6923 31.3141 30.6754 31.1131 30.5658C30.7782 30.3886 30.6442 30.0343 30.8201 29.6884C30.8871 29.5534 31.1717 29.4606 31.3475 29.4606C31.5234 29.4606 31.6741 29.5196 31.7829 29.6209V28.87C31.6992 28.87 31.5987 28.8363 31.5066 28.8278C31.5736 28.7266 31.6406 28.6254 31.7076 28.5241C31.7327 28.5241 31.7578 28.5241 31.7829 28.5325V21.9014C31.7829 21.8086 31.7829 21.7158 31.7829 21.623C31.7578 21.623 31.7411 21.6314 31.7076 21.623C31.6657 21.5049 31.6322 21.3868 31.5987 21.2686L31.6908 20.7624C31.6155 20.5684 31.4731 20.3575 31.4899 20.1719C31.4899 20.155 31.5066 20.1466 31.5066 20.1297C31.222 20.1635 31.1047 19.9778 31.1466 19.6235C31.1633 19.4885 31.2136 19.362 31.2471 19.2354C31.2638 19.227 31.2806 19.2185 31.2973 19.2017C31.6155 19.0161 31.808 18.9486 31.9504 19.0076C32.0341 18.3918 32.1597 17.8012 32.3104 17.2444C32.2518 17.1178 32.1597 16.9997 32.0174 16.9238C31.942 16.8648 31.8666 16.8141 31.7745 16.7804C31.7578 16.7129 31.7243 16.6454 31.7159 16.5779C31.6573 15.8692 31.808 15.6668 32.2518 15.8692C32.3774 15.9283 32.4778 16.038 32.6034 16.097C32.6285 16.1054 32.6369 16.1139 32.6537 16.1223C33.223 14.5784 34.0686 13.2623 35.2073 12.1487C38.4893 8.95122 43.965 7.55919 50.1104 7.03612C50.3113 6.8252 50.529 6.74928 50.6881 6.9855C52.7729 6.8252 54.9246 6.76613 57.0931 6.7577C57.0847 6.65646 57.0931 6.55521 57.1266 6.46241C57.2857 6.0912 57.5954 5.94778 57.9722 6.04058C58.2653 6.10807 58.4662 6.31055 58.3741 6.64802C58.3657 6.6902 58.3406 6.72395 58.3239 6.7577C61.3798 6.78301 64.4358 6.90112 67.3494 7.02767C67.2741 6.63959 67.3327 6.30212 67.7095 6.04902C67.7848 6.08277 67.8518 6.12497 67.9188 6.16715C68.3039 6.40337 68.5886 6.70709 68.7728 7.08673C69.7942 7.12892 70.7989 7.1711 71.7869 7.21328C71.9543 6.97705 72.2139 6.8252 72.4986 6.85051C72.6995 6.86738 72.8251 7.01923 72.8335 7.25545C76.1992 7.37356 79.3138 7.39887 81.8925 7.14577C83.701 7.16264 85.4258 7.53387 87.0165 8.15817C87.0165 8.11599 87.0165 8.09068 87.0165 8.04849C87.5189 7.94725 87.7198 8.1413 87.7868 8.47877C89.6037 9.31399 91.2112 10.5035 92.5424 11.9715C92.5843 11.8112 92.7099 11.6678 92.9108 11.6172C93.1703 11.5413 93.3043 11.7269 93.388 11.9125C93.6894 12.6211 93.9825 13.3298 94.2755 14.0385C94.5434 14.0385 94.6941 14.1735 94.736 14.435C94.8365 14.705 94.8281 14.9749 94.7946 15.2449C95.8077 17.2528 96.3938 19.5223 96.3938 21.9267V23.749C96.3854 23.614 96.3938 23.4875 96.4273 23.3609C96.6533 23.3187 96.8208 23.2006 96.8961 22.9813V22.9981C97.7501 23.4706 97.8087 23.5718 97.365 24.1708C97.3399 24.2046 97.3231 24.2215 97.298 24.2552C97.2729 24.3902 97.2645 24.5336 97.2813 24.6686C97.1054 24.7867 96.9212 24.9048 96.7454 25.0229C96.6198 25.1157 96.5026 25.1579 96.3854 25.2254V32.4893C96.6198 32.4893 96.8459 32.599 96.9464 32.8774C97.0971 33.2992 96.7873 33.5102 96.4775 33.662C96.4524 33.6789 96.4189 33.6789 96.3854 33.6873V34.7081C96.4859 34.6997 96.5863 34.6913 96.6784 34.7081C96.7454 34.7756 96.8208 34.8431 96.8878 34.9022C96.9631 34.9697 97.0301 35.0372 97.1054 35.1047C97.0803 35.3071 97.1054 35.5349 97.0217 35.7121C96.9045 35.9652 96.6784 36.1339 96.3854 36.1002V60.5072C96.3854 60.5072 96.4273 60.5832 96.4524 60.6169C96.4524 60.6 96.4524 60.5747 96.4524 60.5579C96.4524 60.4566 96.444 60.3638 96.4356 60.2626C96.6952 60.2457 96.9547 60.2288 97.2059 60.2035C97.2645 60.1107 97.3231 60.0264 97.3817 59.9336C97.2813 59.8998 97.164 59.7986 97.1306 59.7057C96.9212 58.9971 97.1138 58.2968 97.231 57.5966C97.3315 57.5629 97.4403 57.546 97.5408 57.5376C98.0767 56.9133 99.0311 56.7023 99.2237 55.7574C99.5251 55.7912 99.8349 55.8249 100.136 55.8587C100.254 55.8587 100.371 55.8671 100.48 55.8756C100.48 55.8756 100.496 55.8756 100.505 55.8756C100.547 55.9852 100.572 56.1034 100.588 56.2215C100.948 56.2215 101.241 56.3396 101.426 56.677C101.568 56.7108 101.719 56.753 101.861 56.7867C101.936 56.7445 101.995 56.6855 102.045 56.618C102.255 56.3564 102.338 55.9768 102.715 55.8756C102.841 55.8502 102.966 55.825 103.1 55.7912V52.1803C102.564 52.4334 102.112 52.3406 101.853 51.8429C101.66 51.4717 101.853 51.1764 102.221 51.0076C102.506 50.4761 102.171 49.7844 102.656 49.3035C102.623 48.9154 102.782 48.637 103.1 48.4429V40.1666C103.008 40.2594 102.899 40.3269 102.774 40.3691C102.372 40.7994 102.02 40.6138 101.727 40.251C101.476 39.9388 101.426 39.6267 101.861 39.4242C101.861 39.4242 101.869 39.4242 101.878 39.4242C101.861 39.2723 101.853 39.1205 101.836 38.9771C102.229 38.8252 102.665 38.7999 103.092 38.724V29.9836C103.05 30.0596 103 30.1271 102.966 30.203C102.933 30.2621 102.539 30.2199 102.397 30.1186C102.171 29.9583 102.02 29.7052 101.836 29.4943C101.71 29.469 101.576 29.4521 101.451 29.4268C101.267 28.8447 100.806 28.8278 100.32 28.8194C100.438 28.8784 100.555 28.9459 100.672 29.0134V29.2497C100.681 29.3003 100.681 29.3593 100.689 29.41C100.689 29.7305 100.647 29.9752 100.429 30.0343C100.329 30.0596 100.203 30.0427 100.027 29.9752C99.8432 29.9077 99.6507 29.874 99.4665 29.8233C99.3158 29.5956 99.073 29.3593 99.2153 29.0641C99.3912 28.7013 99.7428 28.6 100.12 28.7266C100.069 28.676 100.027 28.6085 100.002 28.5494C99.9186 28.3301 100.053 28.1529 100.212 28.0179C100.555 27.7395 100.965 27.7142 101.384 27.7142C101.409 27.4358 101.434 27.1658 101.459 26.8874C101.392 26.7524 101.401 26.609 101.476 26.4825C101.501 26.3981 101.535 26.339 101.576 26.2884C101.468 26.2294 101.367 26.145 101.334 26.0606C101.175 25.681 101.032 25.2676 101.024 24.8626C101.007 24.2214 100.94 23.6056 100.622 23.0403C100.304 22.956 100.027 22.821 99.86 22.5257C99.7428 22.5257 99.6339 22.5004 99.5167 22.4666C99.5084 22.2051 99.5 21.9436 99.4832 21.6905C99.6088 21.6567 99.726 21.6061 99.8349 21.547C99.8433 21.6483 99.8684 21.7495 99.8935 21.8508C99.9186 21.8339 99.9521 21.8255 99.9856 21.817C100.346 21.6483 100.714 21.6399 101.099 21.7495C101.241 21.7242 101.392 21.7073 101.535 21.682C101.61 21.7664 101.66 21.8677 101.677 21.9858C101.794 22.1545 102.028 22.3232 102.02 22.4835C101.962 23.5465 102.154 24.5758 102.338 25.605C102.347 25.6725 102.33 25.74 102.322 25.816C102.305 25.9341 102.271 26.0269 102.221 26.1197C102.238 26.2547 102.246 26.3897 102.221 26.5162L102.246 26.5331C102.564 26.5078 102.715 27.0983 103.1 26.9549V21.9351C103.1 16.5695 101.133 11.6678 97.9008 7.89664C97.6999 8.34378 97.3901 8.61375 97.072 8.87529C97.072 8.87529 97.0636 8.87529 97.0552 8.87529C97.365 8.98496 97.6748 9.09463 97.9762 9.2043C97.9511 9.35616 97.9343 9.50803 97.9092 9.65989C97.9762 9.778 97.9846 9.89612 97.9343 10.0142C97.8339 10.9676 97.7669 10.9929 96.7705 10.4529C96.7454 9.98892 96.7203 9.51646 96.7036 9.05245C96.7036 9.04401 96.7036 9.03558 96.7036 9.02714C96.377 9.0862 96.0254 8.96808 95.7491 8.68124C95.364 8.28472 95.4728 7.73635 95.8831 7.4495C95.8831 7.43263 95.8831 7.4242 95.8831 7.40733C95.9417 7.22172 96.0505 7.06986 96.2766 6.97705C96.3268 7.06986 96.3435 7.16265 96.3854 7.25545C96.7036 7.2217 97.0217 7.27232 97.3566 7.30607C93.4466 3.06246 87.8873 0.379631 81.7 0.379631H81.5325L81.3651 0.396495C79.6738 0.565227 77.6142 0.598976 75.3452 0.556793C75.3452 0.717088 75.3452 0.885834 75.3452 1.04613C75.0773 1.00395 74.7508 1.04614 74.5415 0.894277C74.4075 0.801474 74.3321 0.666469 74.2819 0.531484C72.44 0.480864 70.4808 0.396516 68.4797 0.31215C65.8842 0.194038 63.1715 0.0843649 60.4086 0.0253088C60.1239 0.261533 59.7807 0.438695 59.4541 0.6243C59.136 0.413385 58.8095 0.202478 58.4913 0C58.4076 0 58.3322 0 58.2485 0C58.2318 0.413393 58.2485 0.852088 57.7378 1.04613C57.3443 1.02926 56.9591 1.00394 56.5656 0.987067C56.5321 0.970194 56.507 0.944878 56.4735 0.928005L56.1219 0.683362C56.1219 0.683362 56.08 0.658037 56.0633 0.641164C55.7702 0.531488 55.6781 0.295263 55.6446 0.00841909C55.6195 0.00841909 55.6028 0.00841909 55.5777 0.00841909C55.5693 0.00841909 55.5609 0.0168639 55.5442 0.0168639C55.5274 0.0168639 55.5274 0.00841909 55.5107 0.00841909C48.0759 0.126531 40.7332 1.0377 35.0733 4.03269C35.2157 4.03269 35.3664 4.03269 35.5087 4.03269C35.7096 4.04113 35.9273 4.07485 35.9776 4.32795C36.0194 4.5473 35.9022 4.69917 35.7348 4.83415C35.5841 4.96914 35.4585 5.12943 35.3161 5.28129C35.0733 5.26442 34.8221 5.25599 34.5793 5.23912C34.4705 4.94384 34.4454 4.64856 34.4705 4.34484C33.8928 4.67387 33.3402 5.02819 32.8044 5.40783C32.8714 5.54282 32.9132 5.70311 32.9383 5.88028C32.7458 6.15025 32.5783 6.56367 32.1764 6.35276C32.0843 6.30214 32.0425 6.14183 32.0174 5.9731C31.4899 6.38649 30.9708 6.81676 30.4935 7.2892C30.2759 7.50856 30.0749 7.74477 29.874 7.96412C30.1754 8.29315 30.5354 8.51251 31.088 8.36909C31.7969 8.12724 32.2797 8.25098 32.5364 8.7403C32.6285 8.92591 32.7039 9.11995 32.796 9.29712C33.2732 10.2083 33.2481 10.2842 32.7206 10.9422C32.2267 11.5581 31.7076 11.5919 31.1047 11.1194C30.4517 11.0098 29.8907 10.7229 29.4805 10.1914C29.2963 9.95517 29.087 9.79487 28.7688 9.84549C28.6014 9.8708 28.4004 9.99735 28.233 10.0058C26.0477 13.2454 24.9593 17.236 25.0012 21.9351V28.1951C25.2021 28.1613 25.4114 28.1698 25.5956 28.271L25.6291 28.2879ZM25.5286 57.2592C25.5454 57.1326 25.6458 56.9639 25.8719 56.9217C26.1649 56.8626 26.4412 57.2845 26.3408 57.6726C26.2905 57.8666 26.1566 58.0438 25.897 57.9763C25.6124 57.9088 25.4784 57.6894 25.537 57.2592H25.5286ZM25.5705 63.2829C25.5705 63.2829 25.6124 63.2829 25.6375 63.2829C25.8133 63.2829 25.9891 63.2829 26.1566 63.2829C26.1984 63.2829 26.2403 63.2829 26.2822 63.2829C26.2989 63.3504 26.3157 63.4263 26.324 63.4938C26.3826 63.7807 26.4161 64.1012 26.1482 64.27C26.0142 64.3543 25.7212 64.3037 25.5705 64.2109C25.1519 63.9325 25.3863 63.6035 25.5705 63.2997V63.2829ZM26.9017 75.7184C26.8431 75.8703 26.5919 76.0559 26.4412 76.0475C25.897 76.0222 25.4868 75.4147 25.5872 74.841C25.604 74.7313 25.7547 74.647 25.8384 74.5542C26.4077 74.4192 27.111 75.1616 26.9017 75.7184ZM97.2561 39.3904C97.2645 39.247 97.3064 39.112 97.3315 38.9771C97.4738 38.9771 97.6245 38.9939 97.7669 39.0024C97.8841 38.9602 98.0013 38.9518 98.1185 38.9855C98.2776 38.9686 98.4283 38.9602 98.5874 38.9433C98.8469 39.2048 99.073 39.4917 98.8553 39.8713C98.6041 40.3185 98.1688 40.31 97.7418 40.2172C97.3231 40.1244 97.231 39.787 97.2561 39.3989V39.3904ZM99.5586 38.9686C99.2655 38.9602 98.9641 38.9433 98.6711 38.9349C98.6209 38.9349 98.5706 38.9349 98.5204 38.9349C98.5874 38.783 98.6543 38.6227 98.7213 38.4709C98.7716 38.3612 98.8134 38.2599 98.8637 38.1503C99.4163 38.1503 99.7847 38.3274 99.6758 38.9771H99.5586V38.9686ZM99.6842 41.8118C99.8851 41.7358 100.061 41.8539 100.161 42.0649C100.212 42.3179 100.078 42.4614 99.86 42.4782C99.7512 42.4867 99.5837 42.4107 99.5335 42.3179C99.4246 42.1239 99.4916 41.8961 99.6925 41.8118H99.6842ZM99.6842 48.561C98.7548 48.5863 98.4534 47.7849 97.9762 47.2196C97.9929 46.7978 98.0097 46.3675 98.0264 45.9457C98.8302 45.5829 99.4414 46.2663 100.153 46.3675C100.262 46.6796 100.371 47.0002 100.48 47.3208C100.747 48.1307 100.714 48.1814 99.6842 48.5695V48.561ZM102.213 46.7387C101.66 47.1943 101.158 47.2112 100.655 46.6375C100.622 46.6037 100.588 46.57 100.547 46.5447C100.429 46.4688 100.287 46.4181 100.161 46.3507C100.161 46.2832 100.178 46.2156 100.187 46.1566C100.212 45.9625 100.237 45.7601 100.262 45.5576C100.379 45.5492 100.48 45.507 100.563 45.431C101.523 45.5098 102.09 45.9541 102.263 46.764L102.213 46.7387ZM102.422 42.9845C102.933 43.3641 102.656 43.8365 102.305 44.2246C102.288 44.1318 102.271 44.0474 102.255 43.9546C102.213 43.98 102.179 44.0053 102.137 44.0306C101.928 44.1487 101.702 44.2077 101.451 44.1487L101.241 44.1656H101.032C101.007 44.0474 100.974 43.9293 100.94 43.8112C100.697 43.6594 100.48 43.4569 100.547 43.1532C100.58 42.976 100.731 42.6976 100.856 42.6807C101.401 42.6132 101.995 42.6723 102.422 42.9929V42.9845ZM99.5251 32.2025C99.6423 32.2278 99.7595 32.2025 99.86 32.135C100.036 32.0253 100.195 31.8228 100.312 31.6288C101.208 31.8734 101.233 31.9241 101.133 32.8858C100.948 33.0124 100.764 33.1305 100.588 33.2486C100.17 33.527 99.7763 33.8307 99.4916 34.2694C99.4665 34.801 99.433 35.3324 99.3995 35.8639C99.3995 35.8639 99.3995 35.8724 99.3911 35.8808C99.3074 35.9821 99.2153 36.0833 99.1316 36.1845C98.8637 36.4967 98.6041 36.9354 98.1353 36.7498C97.5492 36.5136 97.725 35.9652 97.8171 35.4927C97.9594 34.8094 98.1018 34.1345 98.2525 33.4511C98.2525 33.4511 98.286 33.4342 98.3027 33.4258C98.3781 33.392 98.4618 33.3583 98.5288 33.3161C98.6209 32.734 98.4953 32 99.5251 32.2109V32.2025ZM98.0181 31.1901C98.0181 30.6164 98.3446 30.3717 98.8804 30.3464C99.1986 31.0213 99.1734 31.1395 98.646 31.2238C98.445 31.2576 98.2274 31.1985 98.0181 31.1816V31.1901ZM101.551 20.3575C101.484 20.3828 101.434 20.3997 101.375 20.4165C101.317 20.4334 101.258 20.4503 101.208 20.4672C100.814 20.5768 100.739 20.4925 100.739 19.9779C100.739 19.8597 100.739 19.7247 100.739 19.5644C101.401 19.4295 101.551 19.8175 101.535 20.3659L101.551 20.3575ZM100.572 14.3759C100.572 14.9243 101.409 15.3208 100.999 15.827C100.806 16.0633 100.103 15.8186 99.6591 15.9114C99.2739 15.9958 99.006 15.9958 98.7883 15.6414C98.5455 15.2365 98.0599 14.9834 98.0432 14.435C98.8804 14.1988 99.7177 13.8191 100.572 14.3844V14.3759ZM97.7166 22.3232C97.8004 22.1714 98.0013 22.0026 98.1604 21.9773C98.4534 21.9436 98.7381 22.4413 98.6376 22.7535C98.4785 22.9813 98.2776 23.1669 97.9678 22.9981C97.6999 22.8547 97.5659 22.5932 97.7083 22.3148L97.7166 22.3232ZM90.4493 5.05351C90.6753 4.91853 90.8847 4.72448 91.1358 4.65699C91.3284 4.59794 91.521 4.75823 91.5628 4.97759C91.5796 5.0957 91.5377 5.28973 91.4624 5.33191C91.2279 5.46689 90.9684 5.54282 90.7172 5.64406C90.7172 5.64406 90.7005 5.64406 90.6921 5.64406C90.6753 5.64406 90.6502 5.64407 90.6251 5.62719C90.5832 5.61876 90.5414 5.60189 90.4995 5.60189C90.4911 5.45003 90.4744 5.29816 90.466 5.1463C90.466 5.12099 90.466 5.08727 90.466 5.06196L90.4493 5.05351ZM88.5571 5.05351C88.8418 5.03664 88.9422 5.2138 88.9841 5.41628C89.0594 5.82124 88.8083 6.10808 88.4315 6.04902C88.1217 5.9984 87.9375 5.78749 87.9794 5.49221C88.0212 5.18849 88.2975 5.08726 88.5571 5.05351ZM84.5634 5.44159C84.6555 5.10412 84.7811 4.78355 84.8899 4.45452V4.44608C84.8899 4.44608 84.8899 4.44608 84.8899 4.45452C84.8899 4.45452 84.8899 4.45452 84.8983 4.45452C85.5765 4.37016 85.9281 4.7498 86.1123 5.3488C86.2211 5.6947 86.2463 6.06589 85.9532 6.33587C85.6434 6.62271 85.2918 6.50461 84.9904 6.319C84.6806 6.1334 84.4462 5.85498 84.555 5.44159H84.5634ZM80.9716 5.68626C80.9967 5.63564 81.0385 5.59345 81.072 5.55127C81.1976 5.18849 81.2646 4.80884 81.1725 4.38701C81.1474 4.28577 81.4488 4.10861 81.5995 3.97363C81.6246 3.92301 81.6414 3.8724 81.6497 3.82178C81.6749 3.74585 81.6916 3.6699 81.7 3.59397C81.8339 3.55179 81.9763 3.54336 82.1186 3.57711C82.3865 3.24808 82.6628 2.91904 82.9307 2.59002C82.8721 2.4719 82.8973 2.37066 82.9977 2.29473C82.9642 2.01632 83.0647 1.83916 83.3494 1.77166V1.7548H83.3577C83.6926 1.38359 84.0024 1.52702 84.1615 1.88979C84.3792 2.36224 84.3876 2.84312 83.8768 3.18059C83.8852 3.92301 83.6173 4.53887 83.0312 4.99445C83.1735 5.36566 83.1484 5.66096 83.0312 5.90562C83.0312 5.95624 83.0396 6.00683 83.0312 6.06589C82.914 6.20087 82.7968 6.33587 82.6796 6.47085C82.6796 6.47085 82.621 6.47086 82.5875 6.4793C82.4116 6.64803 82.2274 6.81675 82.0767 6.99392C81.5576 6.99392 81.0469 7.39046 80.4357 7.01081C80.5864 6.58054 80.8209 6.17557 80.9883 5.75374C80.9799 5.72843 80.9716 5.71157 80.9632 5.6947L80.9716 5.68626ZM71.6027 2.14288C71.6529 1.93196 71.812 1.79699 72.0464 1.86448C72.3395 1.95728 72.4651 2.16819 72.3897 2.51409C72.3227 2.67438 72.2306 2.86843 71.9711 2.75876C71.7032 2.64908 71.519 2.45503 71.5943 2.14288H71.6027ZM67.2657 0.911141C67.542 0.852085 67.8099 0.987082 67.9606 1.26549C68.1365 1.58608 68.2453 1.9151 68.0695 2.261C67.8769 2.64065 67.4918 2.6069 67.1569 2.65752C67.0146 2.34537 66.8303 2.0332 66.755 1.69574C66.6713 1.30765 66.8973 0.995499 67.2741 0.902696L67.2657 0.911141ZM60.9528 4.42921C61.2375 4.44609 61.4719 4.53888 61.4636 4.89321C61.4217 5.10413 61.3463 5.2813 61.0952 5.26443C60.7854 5.24755 60.5928 5.07881 60.5761 4.77509C60.5593 4.5473 60.7184 4.41234 60.9528 4.42921ZM55.0418 6.1334H54.8995C54.8995 6.1334 54.866 6.1334 54.8241 6.1334C54.7739 6.1334 54.7237 6.11653 54.7237 6.11653C54.6818 5.82969 54.6902 5.56813 55.0083 5.43314C55.0083 5.53438 55.0251 5.63564 55.0334 5.73687C55.0418 5.87186 55.0502 6.00685 55.0669 6.14184H55.0418V6.1334ZM54.5144 1.65357C54.5144 1.65357 54.5478 1.63669 54.5646 1.61981C55.2344 1.23173 55.3767 1.3161 55.5274 2.20194C55.5274 2.23569 55.5358 2.25256 55.5442 2.28631C55.36 2.3538 55.1758 2.42973 54.9832 2.49722C54.5311 2.66596 54.372 2.4719 54.4139 2.0332C54.4306 1.89821 54.4809 1.77167 54.5144 1.64512V1.65357ZM51.7682 1.56075V1.55233C51.9021 1.7295 52.0445 1.90665 52.1784 2.08381C52.1617 2.19349 52.1784 2.31161 52.2119 2.41285C52.2119 2.83468 52.2119 3.26496 52.2203 3.68679C52.0528 3.65304 51.8854 3.6193 51.7179 3.58555C51.7179 3.58555 51.6509 3.58555 51.6174 3.58555C51.6091 3.58555 51.5923 3.58555 51.584 3.58555C51.5588 3.58555 51.5421 3.58554 51.517 3.57711C51.4667 3.56867 51.4249 3.5518 51.383 3.52649C51.383 3.62773 51.3663 3.72896 51.3495 3.8302C51.1905 3.66146 51.0314 3.49273 50.8723 3.32399C50.3197 2.15131 50.5123 1.78012 51.7765 1.55233L51.7682 1.56075ZM46.3344 3.84709C46.4097 3.18059 46.6777 2.94437 47.2721 3.00343C47.808 3.05405 47.9838 3.38306 47.9001 3.88926C47.8749 4.03268 47.8833 4.17611 47.8749 4.31953C47.8582 4.33641 47.8414 4.34483 47.8331 4.36171C47.4228 4.76666 46.9791 5.01975 46.4014 4.72447C46.3846 4.71604 46.3679 4.7076 46.3511 4.69916C46.3511 4.41232 46.3093 4.12549 46.3428 3.84709H46.3344ZM44.0319 1.45951C44.1073 1.2486 44.2747 1.13892 44.5092 1.13892C44.8273 1.19798 45.1371 1.6367 45.0366 1.92354C44.9613 2.14289 44.7604 2.23569 44.551 2.21038C44.1743 2.1682 43.9147 1.78854 44.0236 1.45951H44.0319ZM43.1026 5.82966C43.2951 5.88028 43.3203 5.98153 43.1528 6.07433C43.111 6.09964 43.0189 6.07433 42.9686 6.04058C42.9351 6.02371 42.9435 5.93935 42.9268 5.88873C42.9854 5.86342 43.0523 5.81279 43.1026 5.82966ZM39.2763 7.03612C39.5443 6.67334 39.9378 6.52149 40.3731 6.56367C40.5825 6.58054 40.6997 6.78302 40.7332 7.08673C40.7332 7.31452 40.5824 7.55073 40.3145 7.67728C39.9796 7.83758 39.628 7.82072 39.3349 7.58449C39.1507 7.44107 39.1507 7.22172 39.2847 7.03612H39.2763ZM34.571 8.25099C34.6212 8.04007 34.7803 7.90507 35.0147 7.97257C35.3078 8.06537 35.4333 8.27628 35.358 8.62218C35.291 8.78247 35.1989 8.97652 34.9394 8.86684C34.6714 8.75717 34.4872 8.56314 34.5626 8.25099H34.571ZM25.7966 42.0311C25.5035 42.0058 25.2356 41.8793 25.2775 41.5081C25.3026 41.2887 25.4868 41.1622 25.7296 41.1368C25.9975 41.2043 26.2822 41.2971 26.2319 41.6684C26.1984 41.8961 26.0226 42.048 25.7966 42.0227V42.0311ZM28.6097 62.7514C29.02 62.7345 29.2879 62.9876 29.2712 63.3757C29.2544 63.8735 28.9279 64.1856 28.4674 64.1181C28.0823 64.0591 27.8227 63.8481 27.7557 63.4516C27.6887 63.0551 28.0488 62.7683 28.6097 62.7514ZM29.0451 73.8539C28.8776 73.9636 28.6767 74.0311 28.5427 74.0902C28.1911 74.0564 27.9148 74.0058 27.8562 73.6599C27.7976 73.3224 28.0404 73.1453 28.3167 73.0778C28.5009 73.0272 28.7437 73.0187 28.9111 73.0947C29.0702 73.1706 29.2042 73.3646 29.2795 73.5418C29.3046 73.6008 29.1539 73.7864 29.0451 73.8539ZM31.3308 72.7656C31.2638 72.8331 31.2052 72.9006 31.1382 72.9681L31.0378 73.0693C30.7698 72.9344 30.5689 72.6981 30.8117 72.4535C31.0545 72.2088 31.2889 72.3944 31.4313 72.6644L31.3224 72.7741L31.3308 72.7656ZM30.8871 52.7962C31.1968 52.6106 31.5066 52.4925 31.6992 52.9312C31.7997 53.1505 31.6238 53.3193 31.448 53.4205C31.0545 53.6568 30.8452 53.4627 30.7531 53.0662C30.7363 52.9987 30.728 52.9312 30.7196 52.8721H30.7029C30.7615 52.8468 30.8368 52.8384 30.8871 52.8046V52.7962ZM30.661 12.174C30.7363 12.2077 30.8033 12.2499 30.8703 12.2921C31.4815 12.6549 31.8666 13.1864 31.942 13.9457C32.0927 14.0554 32.1932 14.1904 32.2602 14.3422C32.3188 14.4856 32.3606 14.6375 32.369 14.8062C31.942 15.0677 31.515 15.5402 31.0545 14.8568C30.9289 14.84 30.8201 14.7978 30.7112 14.7387C30.6777 14.6206 30.6526 14.5025 30.6191 14.3844C30.527 14.0216 30.4349 13.6588 30.3345 13.2961C30.2089 12.8405 30.2424 12.4524 30.6694 12.1656L30.661 12.174ZM30.4098 40.8922C30.5354 40.9175 30.6526 40.9006 30.7698 40.8584C30.954 40.9681 31.1634 41.044 31.3224 41.1875C31.6071 41.4321 31.5485 41.6852 31.2471 41.8708C30.9122 42.0817 30.5438 42.0733 30.2591 41.8033C29.874 41.449 30.2591 41.179 30.4182 40.8922H30.4098ZM29.0953 59.9083L29.1121 59.8829C29.2544 59.3599 29.6647 59.2671 30.0917 59.3514C30.5103 59.4358 30.8536 59.7227 31.0294 60.1192C31.0964 60.2795 31.0796 60.5916 30.9624 60.7013C30.4349 61.2159 30.4517 62.0005 29.9996 62.5405C29.5084 62.8611 29.1539 62.7148 28.9363 62.1018C28.6851 61.3425 28.3083 60.5832 29.0953 59.9083ZM28.4758 19.1511C28.6097 19.3198 28.7521 19.497 28.886 19.6741C28.8693 19.7922 28.886 19.9019 28.9195 20.0032C28.9195 20.425 28.9195 20.8552 28.9279 21.2771C28.7604 21.2433 28.593 21.2096 28.4255 21.1758C28.4255 21.1758 28.3586 21.1758 28.3251 21.1758C28.3167 21.1758 28.2999 21.1758 28.2916 21.1758C28.2664 21.1758 28.2497 21.1759 28.2246 21.1674C28.1744 21.159 28.1325 21.1421 28.0822 21.1168C28.0822 21.218 28.0655 21.3193 28.0488 21.4205C27.8897 21.2518 27.7306 21.083 27.5715 20.9143C27.019 19.7416 27.2115 19.3704 28.4758 19.1426V19.1511ZM26.3826 25.6219C26.3826 25.3435 26.3994 25.0567 26.3994 24.7783C26.5082 24.7445 26.6254 24.7276 26.7427 24.7108C27.0022 24.4071 27.3036 24.2636 27.4711 24.7361C27.6301 25.1832 27.5967 25.6641 27.2534 26.0606C27.1864 26.3559 27.0273 26.55 26.818 26.6765C26.684 26.7609 26.5417 26.8199 26.3743 26.8621C26.3743 26.4487 26.3743 26.0269 26.3826 25.6135V25.6219ZM26.0812 29.6293C26.098 29.3931 26.2235 29.2328 26.4496 29.1569C26.4496 28.7941 26.6003 28.5157 26.9101 28.3216C27.1027 28.1192 27.2617 27.8661 27.4878 27.7311C27.8311 27.5286 28.2581 27.8492 28.1492 28.2204C28.0488 28.5494 27.8311 28.8363 27.6636 29.1484C27.6636 29.3931 27.5464 29.5196 27.3036 29.5281L27.2534 29.5703C27.2283 29.798 27.1027 29.933 26.8766 29.9583L26.8348 30.0089C26.8348 30.2452 26.7092 30.3633 26.4998 30.3971C26.7259 30.3971 26.9436 30.4055 27.1696 30.4139C27.1696 30.4139 27.1696 30.4223 27.1696 30.4308C27.1864 30.8442 27.2283 31.2576 27.2199 31.671C27.2115 32.2278 27.1864 32.2362 26.4412 32.0337C26.4329 31.5191 26.4245 31.0129 26.4077 30.4983C26.2738 30.7598 26.1398 31.0298 26.0059 31.2913C25.7379 31.1648 25.47 31.0382 25.2105 30.9032C25.3863 30.397 25.5621 29.8993 26.0812 29.6377H26.0896L26.0812 29.6293Z" fill="white"/>
<path d="M98.9976 94.245C98.9976 94.245 98.9306 94.2283 98.8971 94.2199C98.8384 94.2115 98.7965 94.2031 98.7546 94.2031C98.8049 94.2115 98.8719 94.2283 98.939 94.245C98.9641 94.245 98.9725 94.245 98.9976 94.2618V94.245Z" fill="white"/>
<path d="M100.011 22.3736C100.011 22.3736 100.011 22.3483 100.011 22.3398C99.9606 22.4074 99.9104 22.4665 99.8601 22.534C99.9104 22.4834 99.9607 22.4243 100.019 22.3736H100.011Z" fill="white"/>
<path d="M97.9679 120.374C98.0265 120.255 98.06 120.095 98.1521 120.019C98.2191 119.96 98.2861 119.952 98.3447 119.977C100.22 117.64 101.61 114.89 102.38 111.903C102.129 111.203 102.204 110.908 102.673 110.722C102.95 109.347 103.1 107.921 103.1 106.462V94.6166C102.807 94.971 102.43 95.1987 101.978 95.1397C102.112 95.4687 102.163 95.8062 101.911 96.1268C101.618 96.5064 101.124 96.2871 100.722 96.3208L100.538 96.2955C100.505 96.1521 100.446 96.0256 100.362 95.9159C100.438 95.6122 100.522 95.3084 100.597 95.0047C100.63 94.8866 100.655 94.7685 100.689 94.6504C100.932 94.5492 101.183 94.4395 101.417 94.4817C101.434 94.1358 101.719 93.9333 102.02 93.773C102.439 93.5452 102.866 93.6633 103.109 94.0345C103.109 94.0345 103.109 94.0345 103.109 94.0429V77.5916C103.025 77.465 102.941 77.3385 102.857 77.2119L102.732 77.0263C102.782 76.9082 102.79 76.7901 102.765 76.672C102.841 76.613 102.916 76.5454 102.991 76.4864C103.025 76.4611 103.05 76.4357 103.084 76.4189C103.092 76.4189 103.1 76.4189 103.109 76.4105V74.7316C103.109 74.7316 103.092 74.7569 103.075 74.7653C103.075 74.7653 103.058 74.7653 103.05 74.7653C102.891 74.7653 102.724 74.7653 102.564 74.7653C102.514 74.7653 102.456 74.7653 102.405 74.7653V74.7991H102.397C102.288 74.4025 102.221 73.9976 102.414 73.6011C102.648 73.5842 102.874 73.5758 103.109 73.5589V67.6701C102.933 67.5351 102.841 67.3243 102.824 67.029C102.807 66.7759 102.933 66.5565 103.109 66.43V57.04C103.109 57.04 103.092 57.0653 103.092 57.0822C103.084 57.0906 103.067 57.0991 103.058 57.1075C102.849 57.251 102.648 57.4028 102.439 57.5462C102.405 57.5715 102.38 57.5884 102.347 57.6137C102.355 57.9849 102.221 58.2549 101.853 58.3815C101.761 58.4743 101.66 58.508 101.535 58.4911C101.342 58.6936 101.166 58.778 101.041 58.4321H101.024C100.94 58.3562 100.865 58.2887 100.781 58.2212C100.714 58.1621 100.639 58.1115 100.572 58.0524C100.555 58.0356 100.538 58.0271 100.522 58.0103C100.538 57.9006 100.53 57.7993 100.522 57.6897C100.086 57.8162 99.6508 57.8247 99.2238 57.6897C98.9642 57.7656 98.7214 57.8753 98.5037 58.1115C98.353 58.4996 98.1856 58.8961 98.0349 59.2842C98.1772 59.1745 98.3279 59.0817 98.5121 59.0142C98.9224 58.8624 99.1652 59.0817 99.3242 59.765C99.2656 59.765 99.2238 59.7819 99.1735 59.7988C98.5791 59.9422 98.2693 60.5075 97.8088 60.845C97.7753 61.0896 97.7335 61.3258 97.7 61.5705C97.6079 61.5705 97.5158 61.5536 97.4237 61.5536C97.3232 61.5536 97.2227 61.5368 97.1139 61.5368C97.139 61.6633 97.1892 61.773 97.2479 61.8826C97.1641 61.8911 97.0888 61.9164 97.0134 61.9417C97.0134 61.9586 97.0218 61.967 97.0302 61.9839C97.0804 62.102 97.1474 62.2201 97.1558 62.3382C97.2311 62.971 97.1055 63.0891 96.3939 63.0384V69.5177C96.8544 69.5009 97.3148 69.6612 97.7753 69.9734C97.9846 70.083 98.1437 70.2264 98.1102 70.4964C98.3949 70.9182 98.3614 71.3316 98.0935 71.745C97.7167 72.3946 97.6079 73.0611 97.9344 73.7614C98.1521 74.2254 98.2274 74.7063 98.1186 75.2041C97.4321 75.3306 97.1055 74.9003 96.8544 74.3604C96.846 74.217 96.8292 74.0735 96.8209 73.9301C96.8544 73.4408 96.8376 72.9599 96.4776 72.5634C96.5111 72.42 96.5446 72.285 96.5781 72.1416C96.5362 72.0994 96.4943 72.0487 96.4608 71.9897C96.4357 71.939 96.4106 71.8884 96.3939 71.8378V76.866C96.3939 76.866 96.4525 76.8998 96.486 76.9082C96.5697 76.9335 96.6534 76.9504 96.7455 76.9673C96.7957 76.9757 96.846 76.9842 96.8962 76.9926C97.1641 76.9673 97.4321 76.9504 97.7 76.9251C97.7921 76.8323 97.8842 76.7479 97.9679 76.6636C98.0349 76.5961 98.1102 76.5286 98.1772 76.4611C98.3195 76.613 98.4619 76.7648 98.6126 76.9082C99.5754 77.2963 99.9773 78.0472 99.9606 79.0427C99.9606 79.2705 99.9438 79.4898 99.9606 79.7007C100.002 79.7767 100.019 79.8526 100.011 79.937C100.053 80.1057 100.128 80.266 100.279 80.4179C100.463 80.3251 100.639 80.2154 100.831 80.1563C101.124 80.0635 101.392 80.1563 101.493 80.4431C101.551 80.6203 101.56 80.9493 101.459 81.0168C100.739 81.5062 100.522 82.1473 100.781 82.9657C100.873 82.9994 100.965 83.0163 101.066 83.0332C101.133 83.5984 101.049 84.1384 100.781 84.6446C100.639 84.9145 100.438 85.0833 100.136 85.0242C99.8182 84.9736 99.6675 84.7205 99.6759 84.4336C99.6759 84.1637 99.8099 83.8937 99.835 83.6238C99.8601 83.3285 99.7094 83.0922 99.475 82.9151C99.4582 82.6535 99.4498 82.392 99.4331 82.122C99.3242 82.0039 99.2238 81.8774 99.1233 81.7508C99.0647 81.7255 99.0228 81.7171 98.9558 81.6834C98.9642 81.6412 98.9977 81.6243 99.0061 81.5821C98.8554 81.3796 98.7298 81.1603 98.6461 80.9156C98.6209 80.9409 98.5958 80.9578 98.5707 80.9915H98.554C98.2777 80.8397 98.0014 80.6794 97.7251 80.5191C97.7502 80.4179 97.7586 80.3166 97.7586 80.2153C97.9093 80.0635 98.0684 79.9116 98.2191 79.7598C98.2777 79.7429 98.3279 79.7176 98.3865 79.7007C98.3195 79.4898 98.2358 79.2705 98.1688 79.0511C97.6079 78.7559 97.0051 78.6546 96.3939 78.663V80.924C96.6869 81.0928 97.0134 81.3121 96.7204 81.658C96.5948 81.8099 96.486 81.8183 96.3855 81.793V93.8405C96.6283 93.9586 96.8795 93.9839 97.1893 93.7392C97.7753 93.2668 98.42 93.1487 99.0228 93.7561C99.2824 93.9417 99.5419 94.1189 99.7931 94.296C99.7931 94.4141 99.7764 94.5323 99.7512 94.642C99.7094 94.8191 99.6257 94.9878 99.475 95.1144C99.4582 95.2072 99.4582 95.3 99.4582 95.4012C99.4582 95.4434 99.4498 95.4856 99.4498 95.5278C99.0396 95.9159 98.9559 96.4052 98.9475 96.9114C98.9475 97.0126 98.9475 97.1139 98.9475 97.2235C98.5456 97.2151 98.1353 97.2066 97.7335 97.1982C97.7335 97.1982 97.7251 97.1307 97.7167 97.0885C97.7084 96.9957 97.7 96.8945 97.7167 96.8017C97.7167 96.8017 97.7167 96.8017 97.7167 96.7933C97.7167 96.7933 97.7167 96.7933 97.7083 96.7933C97.566 96.7933 97.4237 96.8017 97.2814 96.8102C97.2562 96.6752 97.2479 96.5486 97.2479 96.4136C96.9046 96.1605 96.5613 95.9075 96.4525 95.4519L96.3939 95.4012V101.307C96.3939 101.307 96.4608 101.256 96.4943 101.231C96.7288 101.4 96.9716 101.627 96.8544 101.923C96.4776 102.859 96.3939 103.813 96.486 104.808C96.5027 105.027 96.4608 105.213 96.3939 105.39V105.643C96.5529 105.643 96.5948 105.846 96.7036 106.36C96.6032 106.403 96.5194 106.436 96.4525 106.47C96.4273 106.479 96.4106 106.478 96.3939 106.487C96.3771 109.566 95.431 112.418 93.8151 114.78C93.9826 114.738 94.1333 114.822 94.217 114.966C94.3593 115.185 94.4431 115.447 94.5017 115.573C94.4849 115.944 94.3761 116.122 94.15 116.147C94.0328 116.164 93.8654 116.122 93.7816 116.046C93.5556 115.843 93.3881 115.59 93.43 115.278C92.9862 115.877 92.5006 116.442 91.9732 116.965C92.015 116.965 92.0569 116.965 92.0988 116.957C92.2829 116.991 92.509 116.991 92.7016 117.066C93.003 117.176 93.1872 117.438 93.0532 117.724C93.0532 117.733 93.0448 117.741 93.0365 117.75C93.1872 117.75 93.3463 117.767 93.5221 117.809C94.15 117.961 94.8952 117.471 95.5315 118.02C96.0925 118.222 96.3436 118.965 97.0888 118.88C97.2981 118.863 97.34 119.184 97.2981 119.395C97.2395 119.732 96.9548 119.893 96.6953 119.825C96.3101 119.724 95.9669 119.488 95.6068 119.302C95.5734 119.513 95.498 119.724 95.5064 119.926C95.5231 120.23 95.5147 120.618 95.1882 120.584C94.4431 120.517 93.8068 120.888 93.0951 120.93C92.5676 120.964 92.1239 120.913 91.9062 120.306C91.7722 119.926 91.5545 119.555 91.5043 119.184C91.3368 119.142 91.1527 119.041 90.935 118.847C90.734 118.669 90.5415 118.484 90.4577 118.256C88.0129 120.095 84.9905 121.2 81.7168 121.2H80.327C80.2432 121.226 80.1595 121.251 80.0842 121.268C79.5818 121.369 79.3641 121.403 79.2971 121.2H75.1611C75.1779 121.251 75.1946 121.31 75.203 121.369C75.0941 121.74 74.843 121.926 74.4494 121.875C74.0727 121.833 73.7713 121.605 73.8048 121.234C73.8048 121.217 73.8131 121.209 73.8131 121.2H46.4266C45.8405 121.2 45.2628 121.158 44.6935 121.091C44.6349 121.141 44.5762 121.183 44.526 121.243C44.4255 121.344 44.2413 121.226 44.2581 121.048C44.2581 121.048 44.2581 121.04 44.2581 121.032C37.1917 119.977 31.7579 113.835 31.7579 106.436V98.4721C31.5904 98.5734 31.4062 98.6409 31.1886 98.624C31.1216 98.6071 31.0211 98.5987 30.996 98.5565C30.8955 98.3794 30.7197 98.1684 30.7616 98.0166C30.8788 97.5779 31.222 97.2995 31.6742 97.2826C31.6993 97.2826 31.7244 97.3079 31.7579 97.3163V93.0052C31.6742 92.8956 31.6323 92.7522 31.6407 92.6003C31.6407 92.4653 31.6909 92.3809 31.7579 92.305V87.4202C31.6072 87.4455 31.4481 87.4287 31.3058 87.3274C31.0295 87.125 30.8202 86.8296 30.5271 86.6525C30.3848 86.5681 30.1336 86.6609 29.9327 86.6778C29.9327 87.1081 29.9327 87.5384 29.9076 87.9602C29.8908 88.1627 29.8322 88.4157 29.5475 88.3988C29.4889 88.3988 29.4303 88.382 29.3801 88.382C29.4303 88.4748 29.4722 88.576 29.5308 88.6604C31.0965 90.8708 30.929 90.1368 29.7485 92.5159C29.3466 92.6087 28.9363 92.7437 28.5261 92.5328C28.4759 92.5328 28.4256 92.5413 28.367 92.5497C28.2582 92.5581 28.1577 92.575 28.0489 92.5919C27.5465 92.2038 26.9939 91.8157 26.8265 91.1745C26.4916 89.9512 25.7129 88.9894 25.0264 87.977V106.453C25.0264 118.332 34.6213 128 46.4098 128H81.7084C88.2223 128 94.0663 125.039 97.9846 120.39C97.9763 120.39 97.9679 120.382 97.9512 120.374H97.9679ZM98.2777 66.2612C98.1688 66.0166 98.0433 65.7635 98.2777 65.5357C98.5037 65.3163 98.7633 65.3669 98.9977 65.5188C99.1066 65.5863 99.1987 65.6875 99.2991 65.7803C99.4247 65.9491 99.5419 66.1178 99.6675 66.2866C99.6675 66.4047 99.6675 66.5228 99.6926 66.6409C99.274 66.6409 98.8554 66.6324 98.4451 66.6324C98.3949 66.5143 98.3363 66.3878 98.2861 66.2697L98.2777 66.2612ZM99.274 73.5336L99.0647 73.5505C98.9977 73.5505 98.9307 73.5589 98.8554 73.5674C98.3949 73.6095 98.0265 73.4914 97.926 72.9852C97.8507 72.6225 97.9595 72.2765 98.2442 72.0487C98.6377 71.7366 99.0228 71.8716 99.3494 72.1837C99.4163 72.2428 99.4666 72.3272 99.5168 72.4031C99.5754 72.4959 99.634 72.5971 99.701 72.6899C99.5587 72.9683 99.4164 73.2467 99.2657 73.5251L99.274 73.5336ZM101.468 64.0846C101.568 63.9918 101.677 63.9074 101.769 63.8062C101.953 63.5869 102.129 63.3675 102.447 63.5784C102.698 63.7387 102.832 63.9918 102.774 64.2871C102.724 64.5486 102.64 64.8692 102.297 64.8692C102.121 64.8692 101.911 64.7595 101.777 64.6245C101.643 64.4895 101.576 64.2702 101.484 64.093L101.468 64.0846ZM100.128 69.6612C100.58 69.3912 101.032 69.1297 101.484 68.8597C101.576 68.8766 101.677 68.885 101.777 68.885C101.895 69.3574 102.037 69.8299 102.129 70.3192C102.196 70.6904 101.936 70.9689 101.585 70.9689C101.501 70.9689 101.417 70.9604 101.334 70.9182C101.242 70.8845 101.149 70.8423 101.057 70.8086C100.572 70.6061 100.12 70.353 100.12 69.6696L100.128 69.6612ZM100.94 76.5539C100.639 76.3008 100.563 75.9886 100.655 75.6174C100.748 75.2378 101.032 75.0437 101.376 74.9425C101.669 74.8581 101.995 75.2125 102.029 75.7693C101.995 75.879 101.953 76.1574 101.844 76.402C101.71 76.6973 101.191 76.7564 100.94 76.5454V76.5539ZM98.1186 83.9022C98.5289 84.8893 98.5289 84.9398 97.9009 85.2773C97.5409 85.4713 97.1725 85.7751 96.6785 85.387C96.9716 84.7205 97.4572 84.2312 98.1102 83.9106L98.1186 83.9022ZM96.5864 88.4917L96.5027 88.6098L96.5613 88.4748C96.5278 88.1964 96.4692 87.918 96.4776 87.6396C96.4776 87.3612 96.5194 87.0321 96.8962 87.0406C97.0804 87.0406 97.2897 87.1671 97.4237 87.3021C97.633 87.513 97.6581 87.8083 97.499 88.0699C97.2981 88.4073 96.9381 88.4495 96.5948 88.4832L96.5864 88.4917ZM98.1605 91.8747C97.9093 91.7735 97.6581 91.6554 97.4069 91.5457C97.4069 91.5457 97.3902 91.5457 97.3902 91.5373C97.2981 90.9889 97.1139 90.449 97.3483 89.85C97.4237 89.8584 97.499 89.8837 97.5576 89.9174C97.9679 90.1199 98.1102 90.6599 98.5456 90.8201C98.6628 90.9636 98.78 91.107 98.9056 91.2504C98.8805 91.7229 98.7717 92.111 98.1605 91.8663V91.8747ZM99.5168 99.8136C99.5754 98.7759 99.5838 98.7674 100.714 98.5649C100.731 98.6071 100.739 98.6578 100.739 98.7C100.806 99.1302 100.647 99.6195 101.074 99.957C101.057 100.075 101.074 100.185 101.133 100.286C101.099 100.413 101.091 100.539 101.108 100.674C100.739 100.657 100.471 100.514 100.228 100.202C100.095 100.024 99.8266 99.9486 99.6005 99.8473C99.5754 99.8389 99.5503 99.822 99.5252 99.8136H99.5168ZM99.0061 103.323C99.4415 102.994 99.4498 102.522 99.4666 102.041V102.058C99.4666 102.058 99.4749 102.058 99.4833 102.058C99.4833 102.032 99.4666 102.016 99.4833 101.99C99.5084 101.906 99.701 101.813 99.8099 101.813C99.9522 101.813 100.069 101.855 100.128 101.973C100.321 101.973 100.505 102.007 100.697 102.058C100.681 102.471 100.664 102.885 100.647 103.298C100.522 103.408 100.396 103.526 100.262 103.635C100.262 103.678 100.262 103.711 100.27 103.762C100.237 103.922 100.195 104.201 100.095 104.454C100.061 104.547 99.8852 104.631 99.7764 104.631C99.6591 104.631 99.5001 104.547 99.4498 104.445C99.3243 104.209 99.274 103.956 99.2824 103.711C99.207 103.61 99.1233 103.509 99.0061 103.349V103.323ZM30.7197 109.499C30.5606 109.659 30.3178 109.625 30.1755 109.457C29.6815 108.874 29.8489 107.997 30.4936 107.66C30.7699 107.516 31.3393 107.744 31.3728 108.216C31.3728 108.604 31.1216 109.094 30.7197 109.499ZM29.1457 105.736C28.4507 105.559 28.1661 104.918 27.8144 104.42C27.3121 103.728 27.58 102.69 28.2582 102.117C28.928 101.543 29.6899 101.18 30.5439 100.995C31.1969 100.86 31.6156 101.282 31.5653 101.973C31.4314 103.661 30.7699 105.002 29.154 105.719L29.1457 105.736ZM40.4318 125.9C40.3062 126.009 40.1807 126.127 40.0551 126.237C39.8374 126.229 39.6113 126.22 39.3853 126.203C39.1257 125.731 39.0755 125.292 39.5276 124.946C39.5611 124.921 39.5862 124.896 39.6281 124.87C40.1918 124.988 40.4876 125.303 40.5156 125.815C40.5156 125.815 40.4569 125.866 40.4318 125.891V125.9ZM40.9761 122.786C40.8253 122.103 41.1602 121.757 41.7714 121.597C41.9138 121.723 42.0645 121.85 42.2068 121.985C42.1147 122.196 42.0226 122.415 41.9305 122.626C41.9054 122.694 41.8719 122.761 41.8468 122.829V122.837H41.7547C41.6124 122.82 41.4617 122.812 41.3193 122.803L40.9928 122.786H40.9761ZM41.5203 124.246C41.7463 124.212 41.964 124.187 42.1901 124.153C42.2738 124.448 42.5668 124.786 42.0812 124.988C41.7379 125.132 41.5789 124.904 41.5286 124.246H41.5203ZM45.6982 126.262C45.2126 126.828 44.8023 127.519 43.8395 127.241C43.6134 127.173 43.3204 127.342 43.0608 127.401C42.1817 127.587 42.1566 127.553 42.3073 126.406C42.458 126.439 42.5752 126.406 42.6757 126.279C42.9855 126.271 43.1613 126.094 43.2617 125.815C43.4711 125.233 43.6971 124.668 43.9148 124.086C45.3633 124.001 45.5726 124.153 45.6982 125.41C45.7233 125.689 45.6982 125.975 45.6982 126.254V126.262ZM60.2747 125.528C60.2161 125.866 59.9315 126.026 59.6719 125.959C59.2868 125.857 58.9435 125.621 58.5835 125.436C58.55 125.646 58.4663 125.857 58.483 126.06C58.4998 126.364 58.4914 126.752 58.1649 126.718C57.4197 126.65 56.7834 127.022 56.0717 127.064C55.5443 127.098 55.1005 127.047 54.8828 126.439C54.6568 125.781 54.1293 125.149 54.7907 124.465C55.2512 123.993 55.7452 123.748 56.4987 123.934C57.1267 124.086 57.8718 123.596 58.5081 124.145C59.0691 124.347 59.3203 125.09 60.0654 125.005C60.2664 124.98 60.3166 125.309 60.2747 125.52V125.528ZM61.3129 126.591C61.2125 126.625 61.0701 126.515 60.9362 126.473C60.9948 126.355 61.0283 126.195 61.1204 126.119C61.2627 126.001 61.3967 126.068 61.4636 126.245C61.4134 126.372 61.3883 126.566 61.3129 126.591ZM77.9743 122.306C77.8403 122.331 77.7064 122.339 77.5724 122.331C77.5724 122.331 77.5473 122.398 77.5305 122.432C77.4971 122.516 77.4803 122.609 77.5054 122.702L77.3463 122.626L77.1705 122.668C77.137 122.559 77.1035 122.457 77.0784 122.348C76.6096 121.943 76.8021 121.622 77.2542 121.445C77.6143 121.302 77.9157 121.453 77.9743 121.901C77.991 122.036 77.9743 122.171 77.9743 122.314V122.306ZM82.2024 122.888C81.9847 122.871 81.8089 122.71 81.834 122.474C81.8675 122.171 82.0182 121.934 82.3699 121.985C82.5792 122.019 82.7383 122.171 82.7466 122.483C82.7048 122.727 82.5206 122.913 82.2024 122.888ZM84.3207 126.532C83.9941 126.499 83.8183 126.296 83.7513 126.001C83.6509 125.57 83.9272 125.199 84.4211 125.098C84.6388 125.056 84.8649 125.132 84.9319 125.351C85.0826 125.824 84.7226 126.49 84.3207 126.541V126.532ZM90.3824 124.912C90.3321 125.039 90.2903 125.174 90.24 125.309C88.8586 125.832 88.867 125.824 88.4902 124.524C88.4316 124.339 88.2892 124.17 88.1888 123.993C88.2139 123.714 88.1804 123.419 88.2725 123.175C88.4148 122.803 88.8502 122.711 89.1098 122.964C89.4028 123.242 89.654 123.79 89.9554 123.807C91.0354 123.883 90.575 124.423 90.374 124.912H90.3824ZM97.0888 103.669C97.1223 103.281 97.4739 103.121 97.8507 103.146C98.2442 103.163 98.4619 103.399 98.4954 103.804C98.3865 104.175 98.1354 104.361 97.7418 104.31C97.3651 104.268 97.0637 104.04 97.0888 103.669ZM97.7586 113.894C97.7586 113.759 97.7586 113.616 97.767 113.481C98.1605 113.472 98.554 113.464 98.9391 113.456C98.9224 113.658 98.9559 113.886 98.8805 114.063C98.78 114.333 98.5456 114.519 98.2442 114.468C97.9428 114.426 97.767 114.206 97.7502 113.894H97.7586Z" fill="white"/>
<path d="M62.9792 28.4732C62.9792 28.4732 62.9792 28.4479 62.9792 28.4395C62.9289 28.507 62.8786 28.5661 62.8284 28.6336C62.8786 28.583 62.9373 28.5239 62.9876 28.4732H62.9792Z" fill="white"/>
<path d="M48.7375 31.1565C48.7877 31.2662 48.8379 31.3843 48.8631 31.5277C48.93 31.9327 48.8296 32.2617 48.6538 32.5654C48.5868 36.8174 50.2948 41.1032 53.5349 43.7186C53.4847 43.5499 53.5266 43.3727 53.6103 43.2208C53.9619 42.6218 54.3638 42.065 54.749 41.4829C55.3434 41.7697 55.1843 42.335 55.2262 42.8159C55.0336 43.1871 54.8997 43.6005 54.6401 43.9042C54.4978 44.0729 54.2885 44.132 54.0792 44.1066C54.3052 44.2669 54.5313 44.4357 54.7657 44.5791C56.4067 45.5662 58.2403 46.1567 60.1241 46.4858C60.0655 46.3255 60.0655 46.1483 60.166 45.9543C60.1911 45.9036 60.2162 45.8615 60.2497 45.8277C60.2246 45.7181 60.2162 45.6084 60.2246 45.4818C60.233 45.3384 60.2748 45.2034 60.3 45.0684C60.4423 45.0684 60.593 45.0853 60.7353 45.0938C60.8525 45.0516 60.9698 45.0431 61.087 45.0769C61.2461 45.06 61.3968 45.0516 61.5558 45.0347C61.8154 45.2962 62.0414 45.5831 61.8237 45.9627C61.7065 46.1652 61.5558 46.2664 61.3884 46.317C61.5475 46.3845 61.6563 46.5026 61.7149 46.6798C61.7149 46.6798 61.7149 46.7051 61.7149 46.722C62.2005 46.7726 62.6945 46.8148 63.1801 46.8401C67.1571 47.0341 71.5024 46.2327 74.5835 43.8704C74.6505 43.6258 74.7593 43.4148 74.9938 43.2545C75.0607 43.2798 75.1361 43.2883 75.2031 43.3052C75.9231 42.6555 76.5929 41.9385 77.1204 41.0864C77.7567 40.0487 78.1753 38.9097 78.4851 37.7286C78.4851 37.7286 78.4851 37.7286 78.4767 37.7286C78.4767 37.7286 78.4851 37.7202 78.4851 37.7117C78.4851 37.7117 78.4851 37.7201 78.4851 37.7286C78.887 36.1847 79.0795 34.5649 79.247 32.9704C79.3642 31.8989 79.4647 30.8106 79.4982 29.7223C79.3475 29.6716 79.1465 29.5788 78.8619 29.427C78.8619 29.427 78.8786 29.3679 78.887 29.3342C79.0461 28.7521 79.1214 28.5749 79.4982 28.558C79.4647 27.1322 79.2554 25.7402 78.7363 24.4156C78.4516 23.6901 78.0665 23.0574 77.6395 22.4584C77.2543 22.5259 76.8692 22.3487 76.7101 21.9606C76.6348 21.7666 76.6515 21.5472 76.7352 21.3532C75.4459 20.0033 73.8049 19.0584 71.9713 18.4594C71.7787 18.7462 71.4605 18.9319 71.2094 18.8728C70.9749 18.8138 70.7991 18.4425 70.8326 18.1388C70.3805 18.0292 69.9284 17.9363 69.4679 17.8689C69.4679 18.0966 69.4428 18.3413 69.3674 18.586C69.3507 18.6535 69.3255 18.7125 69.3004 18.78C68.3962 18.8306 67.9608 18.0966 67.3747 17.6242C67.0817 17.5904 66.7803 17.5651 66.4873 17.5483C66.0937 18.4341 66.0686 18.4257 65.1142 17.9363C65.1142 17.9363 65.1309 17.8773 65.1393 17.8435C65.1728 17.717 65.2063 17.6158 65.2314 17.5229C59.2115 17.6242 53.1917 20.7289 50.3115 26.0439C49.4575 27.6216 48.9468 29.3679 48.7459 31.1649L48.7375 31.1565ZM66.5207 28.5327C66.7468 28.2796 67.1654 28.3555 67.3831 28.693C67.6594 29.1233 67.2994 29.2836 67.0147 29.4692C66.9561 29.5029 66.8891 29.5282 66.8305 29.5535V29.562C66.7887 29.5029 66.7552 29.4439 66.7133 29.3932C66.4956 29.1401 66.2026 28.8871 66.5207 28.5243V28.5327ZM67.4836 36.3956C67.1989 36.5137 66.9729 36.2859 66.8222 36.0244C66.8054 35.7376 66.7887 35.4507 66.7636 35.1639C67.065 34.8095 67.4417 34.5902 67.8101 34.9867C68.1953 35.3916 68.0027 36.1678 67.4752 36.3956H67.4836ZM73.7127 28.0602C73.7127 27.7987 73.696 27.5456 73.696 27.2841C74.4049 27.2841 74.8207 27.5597 74.9435 28.1109H74.6923C74.3658 28.0856 74.0393 28.0771 73.7127 28.0602ZM76.8441 37.4586C76.7101 37.4755 76.5678 37.4586 76.4255 37.4502C76.325 38.0154 77.5557 38.5554 76.5929 39.0363C75.9231 39.3737 75.7891 38.4373 75.4542 38.0239C75.4124 37.9732 75.3873 37.8973 75.3538 37.8383C74.55 37.273 74.483 37.0283 75.0691 36.7078C75.3789 36.539 75.697 36.3872 76.0152 36.2606C76.2078 36.1847 76.4255 36.1678 76.6264 36.1425C77.0785 36.1003 77.4888 36.4125 77.5055 36.8427C77.5223 37.2983 77.2125 37.4333 76.8357 37.467L76.8441 37.4586ZM75.3873 26.8285C75.3873 26.8285 75.337 26.8032 75.3119 26.7863C75.2952 26.7695 75.27 26.761 75.2533 26.7441C75.0272 26.5754 75.0021 26.3139 75.0105 26.0355C75.1361 25.9933 75.2533 25.9849 75.3789 26.0186C75.3789 26.2886 75.3789 26.5585 75.3873 26.8285ZM78.1837 25.5124C78.9205 25.4196 78.9205 25.4027 79.2135 26.297C78.7949 26.4067 78.4516 26.6176 78.1669 26.9466C77.7818 27.3938 77.2878 27.6131 76.7185 27.6722C76.1408 26.9804 76.0236 26.2801 76.7185 25.5883C77.2041 25.563 77.6897 25.563 78.1753 25.504L78.1837 25.5124ZM74.483 21.176C74.5081 20.9144 74.483 20.6361 74.5751 20.3998C74.7928 19.8852 75.111 19.9358 75.4291 20.3323C75.8896 20.636 75.9482 21.0916 75.9064 21.5894C76.0319 21.7497 76.1575 21.91 76.2831 22.0703C76.6515 22.104 76.9362 22.2474 77.0032 22.6524C77.0534 22.9983 77.0785 23.3611 76.819 23.6226C76.7017 23.7407 76.392 23.842 76.2831 23.7745C75.9482 23.5551 75.6719 23.2598 75.3705 22.9899C75.2449 22.9814 75.1277 22.9392 75.0189 22.8717C73.8802 22.5849 73.8216 22.4077 74.483 21.176ZM69.8865 26.8623C70.1209 26.7273 70.3805 26.6429 70.6233 26.5417C70.7489 26.3054 70.8745 26.0692 71.0001 25.8246C70.7405 25.5968 70.4809 25.369 70.2214 25.1327C70.2465 24.6434 70.4307 24.3313 70.9582 24.3903C70.9163 23.7998 71.0503 23.7913 71.9378 24.0191V24.0107C72.0048 24.2385 72.1555 24.3566 72.3815 24.3988C72.5322 24.5506 72.6829 24.694 72.8253 24.8459C72.8755 24.8628 72.9174 24.8797 72.9676 24.8965C73.5369 24.7615 74.0895 25.0315 74.7844 24.9218C74.6505 25.7486 74.2235 26.1198 73.7881 26.4742C73.5872 26.6429 73.336 26.6851 73.0848 26.6345C72.8755 27.1153 72.6662 27.6047 72.4652 28.0856C72.2057 28.7183 71.7033 28.7858 71.1256 28.7183C71.1089 28.6002 71.0754 28.4821 71.0335 28.3724C70.8661 28.2543 70.6986 28.1362 70.5228 28.0181C70.2884 27.8831 70.0456 27.765 69.8279 27.6131C69.4511 27.3516 69.5014 27.0732 69.8781 26.8623H69.8865ZM69.6186 29.2245C69.8781 29.1486 70.0121 29.3342 70.0958 29.5198C70.3972 30.2285 70.6903 30.9371 70.9833 31.6458C71.2512 31.6458 71.4019 31.7808 71.4438 32.0423C71.628 32.5316 71.4605 33.0125 71.4187 33.4934C71.3852 33.8815 71.6364 34.413 71.1256 34.5986C70.5144 34.818 70.3554 34.1852 70.0456 33.8478C69.6437 33.5694 69.6856 33.1307 69.6186 32.7173C69.4679 31.7724 69.7191 30.7768 69.2586 29.8572C69.133 29.6126 69.2921 29.3173 69.6102 29.2245H69.6186ZM66.37 20.9988C66.4621 21.0832 66.5542 21.1591 66.638 21.2435C66.6714 21.2772 66.7133 21.311 66.7468 21.3447C66.7468 21.3447 66.7468 21.2604 66.7468 21.2182C66.7468 21.2013 66.7468 21.1844 66.7468 21.1676C66.7468 21.0748 66.7384 20.9819 66.7301 20.8891C66.7635 20.771 66.7887 20.6614 66.8305 20.5432C66.9059 20.5432 66.9896 20.5432 67.065 20.5432C67.1236 20.5432 67.1906 20.5432 67.2492 20.5432C67.8604 20.8216 67.6343 21.3026 67.5506 21.7497C67.6259 21.8003 67.7013 21.8509 67.785 21.8931C67.852 22.0112 67.919 22.1293 67.9859 22.2474C68.1366 22.2728 68.2622 22.3993 68.2873 22.5765C68.2957 22.6355 68.2873 22.7199 68.2706 22.7874C68.3376 22.9224 68.4129 23.0489 68.4632 23.1923C68.4883 23.2598 68.4967 23.3189 68.5134 23.3864C68.8064 23.4454 68.999 23.6564 68.999 24.0107C68.999 24.2132 68.9488 24.4241 68.9237 24.6265H68.9153C68.6641 24.5844 68.3962 24.5759 68.1785 24.4747C68.1618 24.4831 68.1534 24.5 68.1366 24.5169C67.4082 24.8459 67.2575 24.7953 67.1905 24.1879C67.1654 23.9854 67.2324 23.7829 67.2575 23.572C67.2575 23.4539 67.2492 23.3358 67.2408 23.2092H67.224C67.2157 23.0573 67.1989 22.9055 67.1905 22.7452C67.1905 22.7199 67.1905 22.6861 67.1905 22.6608C67.1905 22.6608 67.2157 22.644 67.2324 22.6355C67.2324 22.5343 67.2324 22.433 67.224 22.3318C67.2324 22.1715 67.2492 22.0196 67.2575 21.8593C67.2575 21.8593 67.2073 21.8425 67.1905 21.834C67.1068 21.8087 67.0315 21.775 66.9477 21.7497C66.6463 21.7497 66.3533 21.7581 66.0519 21.7666C66.0519 21.7666 66.0519 21.7581 66.0519 21.7497C66.0519 21.6822 66.0435 21.6063 66.0351 21.5388C66.0268 21.37 66.01 21.2013 66.0016 21.041C66.1356 21.0072 66.2612 20.9988 66.3952 21.0073L66.37 20.9988ZM58.7594 37.1212C58.0561 37.1549 57.4449 36.2522 57.7463 35.5266C57.8133 35.3663 58.0143 35.2314 58.1817 35.1639C58.2571 35.1301 58.4496 35.2398 58.5166 35.3326C58.8013 35.7207 59.0692 36.1341 59.0859 36.6403C59.0859 36.8596 59.0357 37.0368 58.7594 37.1127V37.1212ZM57.11 34.4974C56.8254 34.3371 56.8086 34.0334 56.9509 33.7887C57.11 33.5187 57.403 33.4934 57.6626 33.6453C57.897 33.7718 58.1315 33.949 57.9891 34.278C57.7547 34.6239 57.4449 34.683 57.11 34.4974ZM59.8897 40.4367C59.4627 40.2764 59.4878 39.9221 59.538 39.5678C59.7809 39.5931 60.0237 39.6184 60.2581 39.6437C60.2916 39.8968 60.3334 40.1583 60.3669 40.4114C60.233 40.8164 60.0655 40.673 59.8897 40.4367ZM65.3653 34.953C65.4323 34.877 65.4909 34.8095 65.5579 34.7336L65.5747 34.7505L65.3653 34.953ZM64.7123 26.2295C64.7123 26.2295 64.7207 26.2211 64.7207 26.2126V26.2211C64.7207 26.2211 64.729 26.2211 64.7374 26.2211C64.8714 26.2211 65.0137 26.2042 65.1393 26.2379C65.8007 26.3814 65.9514 26.7526 65.5579 27.2419C65.4156 27.4191 65.2397 27.5034 65.0137 27.4781C64.7709 27.4444 64.6286 27.2756 64.6286 27.0563C64.6286 26.7779 64.6872 26.5079 64.729 26.2295C64.729 26.2295 64.729 26.2295 64.7207 26.2295H64.7123ZM63.4145 19.514C63.4145 19.2356 63.4313 18.9487 63.4313 18.6703C63.5485 18.6366 63.6573 18.6197 63.7746 18.6028C64.0341 18.2991 64.3355 18.1557 64.503 18.6281C64.662 19.0753 64.6285 19.5562 64.2853 19.9527C64.2183 20.248 64.0592 20.442 63.8499 20.5685C63.7159 20.6529 63.5736 20.712 63.4062 20.7542C63.4062 20.3408 63.4062 19.9189 63.4145 19.5056V19.514ZM63.4564 25.9258C63.448 25.3858 63.4313 24.8459 63.4229 24.306C63.4229 24.306 63.4229 24.2975 63.4229 24.2891C63.6741 24.2891 63.9336 24.306 64.1848 24.306C64.1848 24.306 64.1848 24.3144 64.1848 24.3228C64.2016 24.7362 64.2434 25.1496 64.235 25.563C64.235 25.6305 64.235 25.6642 64.2267 25.7064C64.4444 25.833 64.5197 26.103 64.5113 26.4489C64.4444 26.4742 64.3941 26.491 64.3355 26.5079C64.2769 26.5248 64.2183 26.5417 64.1681 26.5585C63.7746 26.6682 63.6992 26.5839 63.6992 26.0692C63.6992 26.0439 63.6992 26.0102 63.6992 25.9849C63.6155 25.968 63.5569 25.9511 63.4397 25.9258H63.4564ZM64.0676 27.8578C64.2099 27.8325 64.3606 27.8156 64.503 27.7903C64.5783 27.8746 64.6286 27.9759 64.6453 28.094C64.7625 28.2627 64.9969 28.4315 64.9886 28.5918C64.93 29.6548 65.1225 30.6756 65.3067 31.7133C65.3151 31.7808 65.2983 31.8483 65.29 31.9242C65.2565 32.2364 65.0723 32.4726 64.7793 32.4895C64.6202 32.4979 64.3606 32.3376 64.2936 32.1858C64.1346 31.8061 63.9922 31.3927 63.9839 30.9877C63.9671 30.3466 63.9001 29.7307 63.582 29.1654C63.2638 29.0811 62.9875 28.9461 62.8201 28.6508C62.7029 28.6508 62.594 28.6255 62.4768 28.5918C62.4684 28.3302 62.4601 28.0687 62.4433 27.8156C62.5689 27.7818 62.6861 27.7312 62.795 27.6722C62.8033 27.7734 62.8285 27.8746 62.8536 27.9759C62.8871 27.959 62.9122 27.9506 62.9457 27.9421C63.3057 27.7734 63.6741 27.765 64.0592 27.8746L64.0676 27.8578ZM64.3857 35.9232C64.2099 35.9738 64.0257 36.016 63.8499 36.0666C63.8415 35.9991 63.8499 35.94 63.8666 35.881C63.8834 35.8219 63.9253 35.7713 63.9755 35.7291C64.0341 35.6785 64.1011 35.6448 64.1848 35.611C64.2518 35.7123 64.3188 35.8135 64.3857 35.9147V35.9232ZM63.6657 35.5351C63.6657 35.8557 63.6238 36.1003 63.4062 36.1594C63.3057 36.1847 63.1801 36.1678 63.0043 36.1003C62.8201 36.0328 62.6275 35.9991 62.435 35.9485C62.2842 35.7207 62.0414 35.4845 62.1838 35.1892C62.3596 34.8264 62.7112 34.7252 63.088 34.8517C63.2889 34.9192 63.4648 35.0457 63.6573 35.147V35.3832C63.6657 35.4338 63.6657 35.4929 63.6741 35.5435L63.6657 35.5351ZM62.6694 22.1884C62.9708 22.3571 62.954 22.644 62.7698 22.8802C62.6024 23.0911 62.368 23.243 62.1587 23.4201L62.1168 23.4454C61.7065 23.3779 61.2126 23.3189 61.3465 22.7368C61.4805 22.1715 62.167 21.9184 62.661 22.1884H62.6694ZM61.2377 31.7639C61.3465 31.7977 61.447 31.823 61.5558 31.8483C61.7149 32.1351 61.874 32.4135 62.0331 32.7004C61.7233 33.2066 61.2712 33.0632 60.8274 32.9535C60.8442 32.8438 60.8274 32.7426 60.7604 32.6498C60.8274 32.3039 60.9195 31.9748 61.2293 31.7639H61.2377ZM60.7856 41.5926C60.9279 40.9092 61.0702 40.2343 61.2209 39.5509C61.2377 39.5509 61.2544 39.534 61.2712 39.5256C61.3465 39.4918 61.4302 39.4581 61.4972 39.4159C61.5893 38.8338 61.4637 38.0998 62.4936 38.3107C62.6108 38.336 62.728 38.3107 62.8284 38.2432C63.0043 38.1335 63.1634 37.9311 63.2806 37.737C64.1764 37.9817 64.2015 38.0323 64.1011 38.9941C63.9169 39.1206 63.7327 39.2387 63.5569 39.3569C63.2889 39.534 63.0461 39.7365 62.8201 39.9643C62.8536 40.1246 62.8033 40.2849 62.7029 40.4452C62.6275 40.5717 62.5354 40.673 62.4433 40.7658C62.4182 41.1707 62.4015 41.5673 62.3763 41.9722C62.3763 41.9722 62.3763 41.9806 62.368 41.989L62.3429 42.0144C62.7531 41.7697 63.1466 41.6516 63.5066 42.2844C63.649 42.5375 63.9755 42.5543 64.2685 42.5037C64.6453 42.6978 64.729 43.0184 64.6537 43.4064C63.9336 43.5499 63.2554 43.4739 62.6191 43.0774C62.6777 43.5583 62.5187 43.9464 62.2508 44.3007C62.1921 44.3766 62.1335 44.461 62.0666 44.5369C61.6647 44.5369 61.2712 44.5285 60.8693 44.52C60.7856 44.4188 60.7186 44.2838 60.6097 44.2163C60.4841 44.132 60.3837 44.0391 60.3 43.9379C60.0404 43.6173 60.0739 43.2461 60.3586 42.8327C60.392 42.8158 60.4172 42.7906 60.4507 42.7737C60.5595 42.7062 60.6683 42.6387 60.7688 42.5712C60.6265 42.3012 60.7186 41.9385 60.7856 41.6094V41.5926ZM57.738 21.8931C57.8217 21.7497 57.9138 21.6147 58.0142 21.4797C58.0812 21.3869 58.1482 21.3025 58.2152 21.2097C58.2905 21.1169 58.3408 21.0157 58.3575 20.8976C59.2869 20.2733 59.6469 20.2564 60.0823 20.8385C60.2665 21.0916 60.2748 21.3869 60.0404 21.5809C59.7809 21.7919 59.4543 21.9353 59.1529 22.0956C58.8934 22.2306 58.7343 22.4415 58.6338 22.6946C58.6087 22.7621 58.5836 22.8296 58.5585 22.9055C58.458 22.9308 58.3575 22.9814 58.2822 23.0489C58.098 22.9645 57.9556 22.8971 57.8384 22.8296C57.4365 22.5934 57.4533 22.3993 57.738 21.9015V21.8931ZM57.2021 30.3972C57.2021 30.3972 57.244 30.3972 57.2607 30.3888C57.177 30.1947 57.1435 29.9922 57.4449 29.8319C57.8635 29.6126 58.2654 29.2583 58.7845 29.6295C58.9603 29.756 59.1529 29.8235 59.3539 29.8657C59.3455 29.7307 59.3539 29.6041 59.3873 29.4776C59.6134 29.4354 59.7809 29.3173 59.8562 29.098V29.1148C60.7102 29.5873 60.7688 29.6885 60.3251 30.2875C60.3167 30.296 60.3083 30.3128 60.3 30.3212C60.4255 30.6672 60.3837 31.0637 60.4423 31.4265C60.4841 31.7133 60.1409 31.9833 59.8897 31.8736C59.6134 31.7555 59.3455 31.6289 59.0776 31.5024C58.3826 31.7977 57.7882 31.6711 57.0514 31.0806C56.9677 31.0131 56.9174 30.819 56.9426 30.7009C56.9677 30.5828 57.0849 30.4562 57.1937 30.4056L57.2021 30.3972ZM55.7118 32.1098C55.8458 32.0676 55.9797 32.0002 56.1137 31.9748C56.4486 31.8989 56.8588 31.6374 57.0933 32.0001C57.4198 32.5148 56.9007 32.7172 56.5825 32.9619C56.4904 32.9535 56.4067 32.9366 56.323 32.9197C56.0718 32.8607 55.8709 32.751 55.7704 32.5401C55.7202 32.4304 55.695 32.2954 55.7118 32.1182V32.1098ZM56.0048 43.1955C56.2476 43.1787 56.4235 43.0605 56.5239 42.8412C56.8002 42.858 57.0765 42.8833 57.3528 42.9002C57.3528 43.0943 57.3612 43.2799 57.3696 43.4739C57.3696 43.5414 57.3696 43.6089 57.3696 43.6764C57.244 43.7017 57.1184 43.7185 56.9928 43.727C56.9426 43.7354 56.8923 43.7523 56.8505 43.7692C56.6914 43.8367 56.5909 43.9548 56.5407 44.1404L55.7118 44.1066C55.603 43.7354 55.6783 43.4233 56.0132 43.1955H56.0048ZM54.7322 35.8219C54.3387 36.0582 54.1294 35.8641 54.0373 35.4676C54.0205 35.4001 54.0122 35.3326 54.0038 35.2736H53.9871C54.0457 35.2482 54.121 35.2314 54.1713 35.206C54.481 35.0204 54.7908 34.9023 54.9834 35.3326C55.0839 35.5519 54.908 35.7207 54.7322 35.8219ZM54.682 27.3263C54.7741 27.4191 54.8913 27.5034 54.9666 27.6131C55.1341 27.8578 55.176 28.1446 54.9248 28.3471C54.682 28.5496 54.4308 28.4062 54.2131 28.229C54.2299 27.8493 54.2801 27.495 54.682 27.3263ZM53.9787 33.0716C54.0457 32.6244 54.3387 32.5401 54.7155 32.5654V32.8101C54.7406 33.3922 54.7573 33.9827 54.7825 34.5649C54.6569 34.6239 54.5313 34.6408 54.3889 34.6408C54.1545 34.143 53.8866 33.6621 53.9787 33.0716Z" fill="white"/>
<path d="M62.1263 42.294C62.1263 42.294 62.1263 42.2761 62.1263 42.2671C62.1263 42.2671 62.1084 42.2851 62.1084 42.294C62.1084 42.294 62.1263 42.294 62.1353 42.294H62.1263Z" fill="white"/>
<path d="M73.7045 79.5064C73.5036 79.4052 73.3947 79.2618 73.3361 79.093C73.2943 79.093 73.2524 79.093 73.2105 79.0846C73.2105 79.0846 73.2105 79.0761 73.2105 79.0677C73.1938 78.7724 73.177 78.4856 73.1603 78.1988C73.1603 78.0975 73.1519 78.0047 73.1435 77.9035C73.177 77.9035 73.2022 77.9035 73.2356 77.9035C73.2189 77.7516 73.2022 77.5998 73.1854 77.4479C72.5742 77.102 72.3649 76.6211 72.3565 76.0727C72.3565 75.8196 72.39 75.5496 72.457 75.2628C72.4319 75.1109 72.4068 74.9507 72.3816 74.7988C72.4989 74.6301 72.6161 74.4698 72.7333 74.3011C72.6831 74.2167 72.6831 74.1239 72.7166 74.0395C72.1137 73.0778 72.1305 73.0777 72.8254 72.3606C72.9175 72.2678 72.9845 72.1666 73.0598 72.0569C72.9761 71.8882 72.884 71.711 72.8003 71.5423C72.4403 70.7914 72.3649 70.6227 72.7249 70.454C72.7249 70.2178 72.7249 69.9731 72.7752 69.7284C72.4737 69.4922 72.3482 69.18 72.3649 68.7919C72.2979 68.657 72.2226 68.5304 72.1556 68.3955C71.896 68.3955 71.6281 68.3955 71.3686 68.3955C71.5193 68.193 71.6281 68.0748 71.7118 68.0158C71.7872 67.9652 71.8542 67.9652 71.9295 68.0158C71.9463 68.0242 71.963 68.0495 71.9798 68.0664C71.9546 68.0242 71.9295 67.9736 71.9128 67.9314C71.8793 67.8386 71.8458 67.7458 71.8123 67.653C71.7202 67.3831 71.6365 67.1131 71.5863 66.8346C71.5276 66.5141 71.5109 66.185 71.5863 65.8476C71.5863 65.8223 71.603 65.7969 71.6114 65.7716C71.6867 65.4932 71.8207 65.2823 72.0216 65.122C72.1221 65.0377 72.2309 64.9618 72.3649 64.9111C72.4068 65.1474 72.5658 65.2823 72.7752 65.3582C72.8254 65.8813 72.8756 66.4044 72.9259 66.9274C73.1268 67.054 73.2189 67.2396 73.2105 67.4843C73.3194 67.5855 73.3612 67.7036 73.3277 67.8555C73.5371 67.9567 73.6375 68.1254 73.6459 68.3617L73.6626 68.387C74.1482 68.6064 74.3994 68.9945 74.4413 69.5091C74.4664 69.7453 74.4748 69.99 74.4832 70.2262C74.4999 70.2262 74.4999 70.2346 74.5166 70.2431C74.5418 70.513 74.7008 70.6396 74.952 70.648C75.3539 71.1458 75.4795 71.6435 75.1697 72.1413C75.2534 72.2932 75.3372 72.4534 75.4209 72.6053C75.5716 72.7656 75.7223 72.9259 75.873 73.0862C75.8562 73.1453 75.8479 73.2043 75.8479 73.2718C75.8144 73.5755 75.806 73.8877 75.4292 74.0142V74.0395C75.2702 74.1576 75.1027 74.2589 74.9436 74.3854C74.3408 74.8832 74.3408 75.0097 74.9436 75.8196C75.0776 75.7775 75.2116 75.7268 75.3539 75.6846C75.4879 75.4822 75.6721 75.3809 75.873 75.3134C75.8144 75.2965 75.7474 75.2797 75.6888 75.2544C75.6888 75.1363 75.6637 75.0266 75.6051 74.9254C75.8981 74.3095 76.4842 74.4782 76.9782 74.4107C77.087 74.4614 77.1959 74.4782 77.3047 74.4782C77.3047 74.7482 77.3131 75.0182 77.3214 75.2881C77.0703 75.3809 76.8191 75.4231 76.5679 75.4231C76.5679 75.6424 76.5763 75.8618 76.5847 76.0812C76.4674 76.0812 76.3502 76.1234 76.2498 76.1824C76.2498 76.3174 76.2498 76.444 76.2163 76.5705C76.1995 77.0514 76.4172 77.431 76.7019 77.7938C76.794 77.7938 76.8777 77.7938 76.9698 77.8022C78.4769 76.4524 79.7244 74.8073 80.6202 72.8753C80.9049 72.251 81.1812 71.6266 81.4491 70.9939C81.2314 70.918 81.0389 70.7493 80.8379 70.6143C80.7458 70.5552 80.6788 70.378 80.6788 70.2599C80.6872 70.0237 80.863 69.9056 81.0975 69.8887C81.3068 69.8718 81.5161 69.8803 81.7254 69.8719C81.7589 69.9225 81.7924 69.9731 81.8259 70.0322C82.1859 69.1126 82.504 68.1761 82.772 67.2312C82.638 67.2312 82.5124 67.2312 82.3785 67.2312C81.6584 67.2734 81.2565 66.86 80.863 66.3706C80.9886 65.1726 81.0221 65.1305 82.2026 65.0714C82.3115 65.2992 82.4873 65.4004 82.6882 65.4595C82.772 65.4848 82.8557 65.5017 82.9478 65.5185C82.998 65.527 83.0483 65.5354 83.0985 65.5439C83.0985 65.5439 83.1655 65.5439 83.199 65.5354C83.3413 64.8858 83.4501 64.2362 83.5339 63.5781C83.3329 63.4178 83.1822 63.1816 83.0566 62.9032C83.0483 62.7598 83.0315 62.6164 83.0231 62.4729C83.0566 61.9752 83.0399 61.5027 82.6799 61.1062C82.7134 60.9628 82.7468 60.8278 82.7803 60.6844C82.7385 60.6338 82.6966 60.5916 82.6631 60.5325C82.6296 60.4819 82.6045 60.4229 82.5794 60.3638H82.3868L82.3031 60.3301L82.211 60.2878C82.0938 60.2878 81.9766 60.3047 81.8594 60.3132C81.8342 60.3132 81.8091 60.3132 81.784 60.3132C81.784 60.3469 81.784 60.3722 81.784 60.406C81.784 60.8025 81.8342 61.2075 81.5328 61.4943C81.4742 61.5449 81.4156 61.5955 81.3319 61.6377L81.3068 61.6124C81.2482 61.4099 81.1226 61.2918 80.9133 61.275C80.7793 61.2243 80.637 61.1653 80.503 61.1147C80.503 61.1147 80.5114 61.0809 80.5198 61.064C80.7291 60.3469 80.7625 60.33 81.7589 60.2963C81.7589 60.1782 81.7338 60.0601 81.7003 59.942C81.2733 59.5623 81.3486 59.0477 81.3151 58.5584C82.0101 58.0015 82.705 57.9172 83.4167 58.204C83.3162 57.6556 83.199 57.1073 83.0399 56.5504C80.8881 56.5673 78.7531 56.9385 76.7102 57.6303C75.8562 57.9256 75.0357 58.2378 74.2403 58.5921C74.0729 59.0393 73.8636 59.1068 73.2859 59.0561C71.0086 60.2288 68.9573 61.8739 67.0148 64.6833C66.9227 64.8183 66.8474 64.9533 66.7553 65.0883C67.04 65.0883 67.3246 65.0799 67.6093 65.0714C67.6093 65.0714 67.6093 65.1389 67.6093 65.1811C67.6093 65.4089 67.6093 65.6367 67.6093 65.856C67.5088 65.856 67.4084 65.8391 67.3079 65.8391C67.0232 65.8223 66.7469 65.7969 66.4623 65.7801C66.4623 65.7716 66.4623 65.7548 66.4623 65.7463C66.4623 65.6789 66.4623 65.6114 66.4623 65.5439C65.3906 67.2565 64.545 69.0535 63.9589 70.9011C63.2723 68.7751 62.2927 66.6828 61.0369 64.6749C58.3074 60.3216 54.0458 57.9425 49.5163 57.0144C49.9433 57.1916 50.3033 57.7147 50.1442 58.1281C50.0856 58.2799 49.8344 58.4656 49.6837 58.4571C49.1395 58.4318 48.7292 57.8244 48.8297 57.2507C48.8465 57.141 48.9972 57.0566 49.0809 56.9638C49.1227 56.9554 49.173 56.9638 49.2148 56.9638C47.825 56.6939 46.4184 56.5589 45.0118 56.542C44.8695 57.0313 44.7607 57.5207 44.6686 58.01C44.8862 57.9847 45.1039 57.9678 45.3216 57.9931C45.3886 57.9931 45.4305 58.1956 45.5058 58.3559C45.3551 58.474 45.2211 58.6512 45.0453 58.6934C44.8611 58.7355 44.702 58.6934 44.5681 58.5837C43.9736 62.3295 44.6351 66.0079 45.7067 69.4838C46.4519 71.8966 47.6408 74.0142 49.1646 75.7943C49.24 75.5159 49.3237 75.246 49.399 74.976C49.4409 74.8241 49.5163 74.7229 49.6084 74.6469C49.6167 74.6469 49.6251 74.6385 49.6335 74.6301C49.826 74.4782 50.0856 74.436 50.3451 74.4023H50.3535C50.4707 74.8579 50.8307 75.0772 51.174 75.3134C50.881 76.5705 50.8391 76.7308 49.9349 76.6464C51.2159 77.9625 52.6811 79.0677 54.297 79.9452C54.4561 79.8017 54.6654 79.7173 54.8998 79.7089C54.9668 79.7089 55.0254 79.7511 55.0924 79.7849C55.1175 78.9834 55.151 78.9665 56.3147 78.8062C56.3147 78.8062 56.3147 78.8231 56.3147 78.8315C56.3901 79.5318 56.3901 80.2235 56.3315 80.9238C58.2069 81.6746 60.2247 82.1471 62.3179 82.3327C62.1923 82.1471 62.0583 81.9615 61.9327 81.7759C61.6983 81.7421 61.4639 81.6999 61.2294 81.6662C61.2183 81.0081 61.475 80.7129 61.9997 80.7804C62.276 80.8141 62.5523 80.8563 62.8286 80.8985C62.8453 80.9913 62.8537 81.0841 62.8621 81.1769C62.8621 81.219 62.8788 81.2612 62.8788 81.3034V81.3203C63.1216 81.4216 63.3393 81.5818 63.5654 81.7253C63.6575 81.3541 63.9421 81.1515 64.2854 81.0587C64.5784 80.9744 64.905 81.3287 64.9385 81.8856C64.9217 81.9362 64.905 82.0205 64.8799 82.1218C64.9134 82.1218 64.9468 82.1218 64.9803 82.1049C65.198 81.7843 65.5497 81.7843 65.8846 81.7253C65.8846 82.0037 66.0353 82.1471 66.2948 82.1893C66.3116 82.2146 66.3283 82.2399 66.3367 82.2736C67.8688 82.0964 69.3675 81.7759 70.7825 81.295C70.7071 81.0841 70.816 80.7888 70.8411 80.5273C70.7071 80.2404 70.5732 79.9536 70.4392 79.6667C70.255 79.6414 70.0625 79.6246 69.8783 79.5739C70.2634 79.8692 70.5899 80.2151 70.5481 80.831C69.3089 81.5903 69.0326 81.5059 68.3796 80.1223C68.0698 79.8692 67.9944 79.5233 68.0196 79.1521C67.894 79.1437 67.76 79.1268 67.6344 79.1099C67.5256 78.8399 67.3581 78.5869 67.2744 78.3085C67.2325 78.1566 67.2074 77.9963 67.2409 77.8276C67.1823 77.6926 67.1823 77.566 67.2409 77.431C67.2409 77.3804 67.2242 77.3298 67.2242 77.2792C67.2158 77.2032 67.2074 77.1357 67.199 77.0598C67.199 77.0345 67.199 77.0008 67.1907 76.9755C67.3749 77.0176 67.5674 77.0514 67.7349 77.1358C67.8521 77.1948 67.9526 77.2792 68.0363 77.4142H68.053C68.3042 77.4564 68.4382 77.5913 68.4466 77.8444C68.3126 77.701 68.1786 77.5576 68.053 77.4226C68.2038 77.5491 68.3293 77.6925 68.4466 77.8444C68.5135 77.9372 68.547 78.0385 68.547 78.1566C68.6726 78.3338 68.7898 78.5193 68.9154 78.6965C69.0243 78.823 69.1331 78.9581 69.2419 79.0846C69.2252 79.0087 69.2168 78.9328 69.2336 78.8315C69.3089 78.3928 69.6355 78.3 70.0206 78.3085C70.1629 78.3085 70.3053 78.3337 70.4392 78.3422C70.5983 78.4772 70.749 78.6121 70.9081 78.7556C70.9081 78.8905 70.9248 79.0255 70.9332 79.1605C70.9751 79.1689 71.0169 79.1859 71.0504 79.2027C71.2095 79.2702 71.3183 79.3883 71.3602 79.5823C71.6114 79.6161 71.737 79.7848 71.8207 80.0042C71.9295 80.0463 72.0467 80.0717 72.164 80.0717C72.3063 80.232 72.4486 80.4007 72.591 80.561C72.9677 80.3923 73.3361 80.2066 73.6961 80.0126C73.6794 79.8439 73.6543 79.6667 73.6375 79.4895L73.7045 79.5064ZM79.6658 61.199C79.6658 61.199 79.6658 61.2159 79.6658 61.2243C79.7662 62.1355 79.7662 63.0466 79.6406 63.9578C79.6071 64.2193 79.4899 64.3627 79.3225 64.4302C79.1969 64.4809 79.0546 64.4977 78.8871 64.4893C78.5103 63.8059 78.4099 63.0804 78.435 62.3042C78.4685 61.3677 78.435 61.3677 79.6574 61.199H79.6658ZM77.2545 66.725C77.3131 66.6997 77.3801 66.6659 77.4387 66.6406C77.5643 66.5816 77.6898 66.5225 77.8154 66.4634C77.8405 66.455 77.8573 66.4466 77.8824 66.4382C77.8908 66.6406 77.9075 66.8431 77.9243 67.0371V67.1552C77.6815 67.1806 77.4554 67.1553 77.288 67.0034C77.2293 66.9443 77.1791 66.8768 77.1373 66.7756C77.1791 66.7587 77.221 66.7418 77.2628 66.7165L77.2545 66.725ZM76.4005 59.4105C76.6014 59.3345 76.7772 59.4526 76.8693 59.6635C76.9196 59.9166 76.7856 60.0601 76.5679 60.0769C76.4591 60.0854 76.2916 60.0094 76.2414 59.9166C76.1325 59.7226 76.1995 59.4948 76.4005 59.4105ZM72.9342 63.8397C73.0096 63.6962 73.2356 63.5782 73.4198 63.5444C73.6375 63.5022 73.805 63.6456 73.805 63.9072C73.7129 64.2193 73.5119 64.388 73.1938 64.3121C72.9677 64.2615 72.8421 64.0337 72.9342 63.8397ZM52.2122 62.4645C52.7146 62.4308 53.1332 63.0045 52.9155 63.4432C52.8569 63.5697 52.7815 63.6878 52.6978 63.7975C52.2959 64.3121 51.7936 64.523 51.4754 64.2952C51.241 64.1265 51.1489 63.8565 51.1908 63.5612C51.2745 62.8948 51.6429 62.4982 52.2122 62.4561V62.4645ZM50.1526 67.0709C50.2865 67.0878 50.4289 67.0709 50.5628 67.0962C50.9061 67.1552 51.0233 67.3831 50.9647 67.7036C50.9396 67.8133 50.8224 67.982 50.7303 67.9905C50.387 68.0326 50.2363 67.7964 50.1777 67.4927C50.1526 67.3577 50.1609 67.2228 50.1526 67.0793H50.1442L50.1526 67.0709ZM46.4017 60.0938C46.4017 60.0938 46.3598 60.0685 46.3347 60.0516C46.477 59.6804 46.6277 59.3092 46.7701 58.9465C46.8454 58.938 46.9124 58.9211 46.9794 58.8958C47.0212 58.879 47.0631 58.8705 47.105 58.8452C47.1217 58.7018 47.1301 58.5668 47.1301 58.4234H47.1133L47.5236 57.9678C47.6575 57.9172 47.7831 57.8328 47.9171 57.8159C48.4027 57.7653 48.679 58.0016 48.5116 58.3306C48.2939 58.7693 47.959 59.1574 47.9422 59.6804C47.825 59.6973 47.7078 59.731 47.5906 59.7563C47.5906 59.7563 47.5654 59.7901 47.5487 59.8154C47.0631 60.5072 47.0129 60.5241 46.3933 60.0938H46.4017ZM51.8187 74.9338C51.7685 74.9338 51.7182 74.9422 51.6596 74.9507C51.5508 74.9675 51.4503 74.976 51.3415 74.9929C50.8391 74.6048 50.2865 74.2167 50.1191 73.5755C49.7758 72.31 48.9553 71.3314 48.252 70.2768C48.0176 70.243 47.7831 70.2009 47.5487 70.1671C47.5375 69.5091 47.7943 69.2138 48.319 69.2813C48.4948 69.3066 48.6706 69.3319 48.8464 69.3572C48.8464 69.3319 48.8381 69.2981 48.8381 69.2644C48.8213 69.1294 48.8716 68.986 48.8967 68.8426C48.9218 68.8426 48.9385 68.8341 48.9637 68.8257C49.0139 68.8172 49.0641 68.8004 49.1144 68.7919C49.1479 68.7835 49.1814 68.7751 49.2148 68.7667C49.3488 68.9185 49.4828 69.0788 49.6167 69.2307C49.6167 69.2391 49.6167 69.256 49.6167 69.2644C49.6167 69.3825 49.6335 69.4922 49.667 69.6103C49.5749 69.7453 49.4576 69.855 49.3321 69.9056C49.7842 70.1418 50.1861 70.5299 50.6884 70.6311C50.7051 70.6311 50.7303 70.6311 50.747 70.6311C50.8224 70.5636 51.0149 70.5721 51.174 70.5637C51.1991 70.5637 51.2242 70.5637 51.241 70.5637C51.241 70.5805 51.241 70.5974 51.241 70.6143C51.2577 70.6143 51.2661 70.6143 51.2745 70.6143C51.4922 70.2937 51.8438 70.2937 52.1787 70.2346C52.1787 70.513 52.3294 70.6564 52.589 70.6986C52.656 70.8252 52.7146 70.9517 52.7899 71.0698C54.3556 73.2802 54.1881 72.5462 53.0076 74.9254C52.6057 75.0182 52.1955 75.1531 51.7852 74.9422L51.8187 74.9338ZM53.8867 76.3512C53.6104 76.832 53.1248 77.1864 52.9992 77.76C52.5471 77.836 52.1703 77.6925 51.8606 77.3719C51.9527 77.0345 52.0866 76.7055 52.1285 76.368C52.2289 75.4737 52.4215 75.2291 53.1499 75.2038C53.7862 75.1785 54.2049 75.8112 53.8867 76.3512ZM55.4021 75.6003C55.1007 75.6003 54.9082 75.3303 54.9249 75.0097C54.9417 74.6469 55.2179 74.5457 55.5194 74.5794C55.737 74.6047 55.9045 74.7482 55.9045 75.0182C55.871 75.3134 55.7036 75.5918 55.4105 75.6003H55.4021ZM54.6989 68.6232C54.3807 68.3701 54.3137 68.0242 54.3388 67.6446C54.2132 67.6361 54.0793 67.6193 53.9537 67.6024C53.8449 67.3324 53.6774 67.0793 53.5937 66.8009C53.5518 66.6491 53.5267 66.4888 53.5602 66.32C53.5016 66.185 53.5016 66.0585 53.5602 65.9235C53.5602 65.8729 53.5434 65.8222 53.5434 65.7716C53.5351 65.6957 53.5267 65.6283 53.5183 65.5523C53.5183 65.527 53.5183 65.4932 53.51 65.4679C53.6942 65.5101 53.8867 65.5439 54.0542 65.6282C54.1714 65.6873 54.2719 65.7717 54.3556 65.9066H54.3723C54.6235 65.9488 54.7575 66.0838 54.7658 66.3369C54.6319 66.1935 54.4979 66.0501 54.3723 65.9151C54.523 66.0416 54.6486 66.1851 54.7658 66.3369C54.8328 66.4297 54.8663 66.531 54.8663 66.6491C54.9919 66.8262 55.1091 67.0034 55.2347 67.189C55.3603 67.3409 55.4859 67.4843 55.6115 67.6361C56.1975 68.0833 56.9343 68.4039 56.8757 69.3319C55.6366 70.0912 55.3603 70.0068 54.7072 68.6232H54.6989ZM60.3252 74.571H60.3419V74.5794C60.5848 74.6047 60.7103 74.7651 60.7689 74.9929C61.0536 75.3303 61.2127 75.6931 60.995 76.1402C60.9783 76.174 60.9531 76.1993 60.9364 76.233C61.0285 76.3258 61.0955 76.4355 61.0704 76.6042C61.3466 77.0261 61.3215 77.4394 61.0536 77.8528C60.6768 78.5025 60.568 79.169 60.8945 79.8692C61.1122 80.3332 61.1876 80.8141 61.0787 81.3119C60.3922 81.4384 60.0657 81.0082 59.8145 80.4682L59.781 80.0379C59.8145 79.5402 59.7977 79.0677 59.4377 78.6712C59.4712 78.5278 59.5047 78.3928 59.5382 78.2494C59.4963 78.2072 59.4545 78.1566 59.421 78.0975C59.3875 78.0469 59.3624 77.9878 59.3372 77.9288H59.1447L59.0609 77.895L58.9689 77.8528C58.8516 77.8528 58.7344 77.8697 58.6172 77.8782C58.5921 77.8782 58.567 77.8782 58.5418 77.8782C58.5418 77.9119 58.5418 77.9372 58.5418 77.971C58.5418 78.359 58.5921 78.7724 58.2823 79.0593C58.2321 79.1015 58.1735 79.1437 58.1148 79.1858C58.14 79.304 58.1483 79.4474 58.1567 79.6752C57.6041 79.6752 57.3027 79.4474 57.3613 78.8568C57.6544 78.8737 57.8134 78.899 57.9223 78.9496C57.8553 78.8905 57.7716 78.8484 57.6627 78.84C57.5288 78.7893 57.3864 78.7303 57.2525 78.6797C57.2525 78.6797 57.2608 78.6459 57.2692 78.629C57.4785 77.9119 57.512 77.895 58.5084 77.8613C58.5084 77.7432 58.4832 77.6251 58.4497 77.507C58.0562 77.1526 58.0897 76.6802 58.073 76.2246C57.9893 76.2246 57.8972 76.2246 57.8134 76.2246C57.6711 76.0896 57.4367 75.9715 57.4116 75.8196C57.3362 75.4147 57.4953 74.9085 57.3111 74.5963C56.5994 73.3815 57.4032 72.909 58.2404 72.4112C58.3828 72.2594 58.5167 72.1075 58.6591 71.9472C58.793 71.9472 58.927 71.9388 59.0693 71.9219C59.0693 71.8966 59.0777 71.8797 59.0861 71.8544C59.1112 71.7616 59.1363 71.6688 59.153 71.5676C59.2116 71.5676 59.2703 71.5676 59.3289 71.5676C59.5214 71.5676 59.7056 71.5507 59.8982 71.5423H59.9149C59.9149 71.5423 59.9317 71.5845 59.9401 71.6098C60.074 71.9304 60.3252 72.0063 60.6182 71.9726C60.6768 71.9726 60.7271 71.9557 60.7857 71.9472C60.7857 71.9472 60.8024 71.9472 60.7941 71.9472C61.0201 72.31 61.2378 72.6728 61.1625 73.1199C61.1625 73.1452 61.1624 73.1621 61.1541 73.1874C61.2211 73.2212 61.288 73.2633 61.355 73.3139C61.3048 73.9636 60.6015 74.0817 60.3336 74.5542L60.3252 74.571ZM63.4398 78.4687C62.7197 78.9665 62.0164 78.9665 61.3299 78.4012C61.5141 77.3045 61.5811 77.2033 62.3346 77.102C62.6779 77.0598 63.0295 77.0598 63.3728 77.043C63.4147 77.102 63.4482 77.1526 63.4733 77.2117C63.6826 77.6166 63.6658 78.0385 63.4398 78.4603V78.4687ZM64.6957 74.6217C64.3356 74.7566 64.3608 75.1278 64.2184 75.3978C64.2268 75.6678 64.2435 75.9462 64.2435 76.2161C64.2435 76.2752 64.2435 76.3258 64.2435 76.3764C64.2435 76.7814 64.1849 76.8658 63.7831 76.7898C63.6742 76.7729 63.5403 76.7392 63.3728 76.7055C63.5151 76.2752 63.6156 75.845 63.3644 75.4147C62.6863 74.8579 62.2593 74.1323 62.0499 73.2802C62.0416 73.2127 62.0248 73.1368 62.0165 73.0693C61.983 72.8753 61.9578 72.6812 61.9076 72.4872C61.782 71.9641 61.7569 71.846 62.1337 71.8629C62.2425 71.8629 62.3848 71.8797 62.569 71.8966C63.2221 72.4703 63.6742 73.2549 64.5868 73.5586C65.1227 73.7358 64.7961 74.2504 64.6957 74.6301V74.6217ZM66.7888 73.9467C66.1525 73.9804 65.8176 73.7105 65.7925 73.1284C65.7757 72.7318 66.0688 72.3859 66.412 72.4197C66.5962 72.4703 66.8055 72.5378 67.0065 72.5884C67.4084 72.6897 67.9442 72.7403 67.8019 73.3308C67.693 73.7864 67.2409 73.9214 66.7888 73.9467ZM68.3628 66.6575C68.2958 66.725 68.2372 66.7925 68.1703 66.86L68.0698 66.9612C67.8019 66.8262 67.6009 66.59 67.8437 66.3454C68.0865 66.1007 68.321 66.2863 68.4633 66.5563L68.3545 66.6659L68.3628 66.6575ZM69.7945 76.2415H69.7862C69.5182 76.2077 69.2001 76.2415 69.0326 75.9631C68.8736 75.71 68.8903 75.4147 69.0996 75.1869C69.175 75.1025 69.3508 75.0519 69.468 75.0772C69.7694 75.1278 69.9871 75.305 69.962 75.634C69.9452 75.8365 69.8448 76.039 69.7862 76.233L69.7945 76.2415ZM69.7862 66.7419C69.7862 66.7419 69.7862 66.7419 69.7862 66.7334C69.8113 66.7672 69.8364 66.7925 69.8699 66.8262L69.7862 66.7419ZM70.4225 70.8758C70.2383 70.9771 70.029 70.8505 69.9704 70.6227C69.9118 70.3949 70.0457 70.2262 70.2299 70.1334C70.4643 70.0153 70.5899 70.1587 70.6904 70.4371C70.6234 70.5552 70.5648 70.7914 70.4225 70.8674V70.8758ZM70.6904 65.8729C70.6904 65.8729 70.682 65.8898 70.6737 65.8982C70.5397 65.8898 70.3974 65.8813 70.2634 65.8729C70.1378 65.721 70.0206 65.5692 69.895 65.4173C69.895 65.4089 69.8783 65.4005 69.8699 65.392C69.6941 65.0208 69.3089 64.7339 69.4429 64.2446C69.4848 64.2446 69.535 64.2531 69.5769 64.2531C69.7694 64.2699 69.962 64.2868 70.1545 64.3037C70.5815 64.7424 71.1593 65.1389 70.6737 65.8645L70.6904 65.8729Z" fill="white"/>
<path d="M71.0753 80.4004L70.9077 80.5186C70.9664 80.4848 71.0166 80.4426 71.0753 80.4004Z" fill="white"/>
<path d="M43.0605 97.2735C43.1526 97.2144 43.3535 97.2735 43.454 97.3326C43.5545 97.3916 43.6047 97.5435 43.6801 97.6531C44.0987 97.6531 44.2494 97.3494 44.4001 97.012C44.5089 96.7673 44.7183 96.5732 44.8857 96.3539C44.9611 95.9489 45.1285 95.6368 45.3964 95.4343C44.442 94.4219 43.6047 93.2998 42.9098 92.085L42.6251 93.2408C42.5079 94.7594 42.466 96.278 42.4828 97.7966C42.6251 97.5941 42.8093 97.4085 43.0521 97.265L43.0605 97.2735Z" fill="white"/>
<path d="M85.1743 101.526C85.1659 101.425 85.1826 101.332 85.2245 101.239C84.8226 98.4887 84.4124 95.7468 84.0105 92.9965C83.6672 92.9712 83.3156 92.9965 82.9723 92.988C82.8467 93.2243 82.6374 93.3677 82.4197 93.3002C82.2104 93.2411 82.0346 93.1315 81.9257 92.9712C79.6819 93.0556 77.4548 93.5027 75.3533 94.3041C74.0723 94.7935 72.8499 95.4094 71.6443 96.0674C71.594 96.6242 71.5438 97.181 71.4936 97.7294C71.4936 97.9825 71.4936 98.2441 71.4936 98.4972C71.4601 98.8262 71.2675 99.0371 70.9493 99.0118C70.4219 98.9696 70.2628 98.6068 70.2963 98.1175C70.3716 97.6366 70.447 97.1557 70.5223 96.6833C69.6683 97.1641 68.8143 97.645 67.952 98.1175C67.5668 98.7502 66.9975 99.2649 66.1854 99.6276C65.9426 99.5686 65.7584 99.4336 65.5909 99.2817C64.8458 99.6192 64.0922 99.9229 63.3136 100.168C63.0959 100.235 62.8782 100.286 62.6605 100.345C62.694 100.37 62.7275 100.395 62.761 100.421C62.761 100.547 62.7443 100.657 62.7191 100.767C62.6773 100.944 62.5936 101.104 62.4428 101.239C62.4261 101.332 62.4261 101.425 62.4261 101.517C62.4261 101.56 62.4177 101.602 62.4177 101.644C62.0075 102.032 61.9237 102.521 61.9154 103.028C61.9154 103.129 61.9154 103.23 61.9154 103.34C61.5135 103.331 61.1032 103.323 60.7014 103.314C60.7014 103.314 60.693 103.247 60.6846 103.205C60.6762 103.112 60.6679 103.019 60.6846 102.918C60.6846 102.918 60.6846 102.918 60.6846 102.909C60.6846 102.909 60.6846 102.909 60.6762 102.909C60.5339 102.909 60.3916 102.918 60.2492 102.926C60.2241 102.791 60.2157 102.665 60.2157 102.53C59.8725 102.277 59.5292 102.024 59.4204 101.568C59.2027 101.357 58.9766 101.146 58.7589 100.935C56.3644 101.02 53.9447 100.623 51.7093 99.7458C49.6077 98.9105 47.6821 97.6451 46.0411 96.0674C46.0327 96.0843 46.041 96.1012 46.0243 96.118C45.9071 96.3289 45.9071 96.5989 45.8485 96.8436C45.8485 96.987 45.815 97.1304 45.7564 97.2569C45.8652 97.5185 45.9908 97.7632 46.0745 98.0331C46.1666 98.3284 46.0745 98.5815 45.8234 98.7671C45.5806 98.9443 45.2959 98.9865 45.0531 98.8177C44.7768 98.6153 44.5675 98.3199 44.2744 98.1428C44.1321 98.0584 43.8809 98.1512 43.68 98.1681C43.68 98.5984 43.68 99.0287 43.6549 99.4505C43.6381 99.653 43.5795 99.906 43.2949 99.8892C43.0939 99.8807 42.8595 99.847 42.7088 99.7373C42.6418 99.6782 42.5916 99.6192 42.533 99.5517C42.5999 101.062 42.7172 102.572 42.9097 104.074C43.0269 104.96 43.1776 105.862 43.6465 106.622C44.1991 107.507 45.1368 108.081 46.0662 108.554C49.5408 110.308 53.4926 111.093 57.3775 110.823C57.3607 110.612 57.4026 110.41 57.6119 110.232C57.6035 109.676 57.5114 109.119 57.7207 108.579C57.7961 108.267 58.0221 108.14 58.3152 108.106C58.5831 108.073 58.8092 107.98 58.9682 107.752C58.9766 107.735 58.9934 107.727 59.0017 107.71C59.1189 107.617 59.2278 107.533 59.345 107.448C59.3785 107.423 59.412 107.398 59.4455 107.372C59.6799 107.541 59.9227 107.769 59.8055 108.064C59.4706 108.891 59.3785 109.726 59.4204 110.595C60.4083 110.435 61.3879 110.207 62.3507 109.92C62.2419 109.819 62.1331 109.676 61.9572 109.439C62.3926 109.11 62.401 108.638 62.4177 108.157V108.174C62.828 108.03 63.2299 108.056 63.6401 108.165C63.6234 108.579 63.6066 108.992 63.5899 109.406C63.5062 109.482 63.4141 109.558 63.3303 109.633C66.1016 108.705 68.7474 107.347 71.2508 105.812C73.5365 104.403 75.7887 102.817 78.3841 102.175C80.9796 101.534 84.0942 102.083 85.6515 104.276C85.5343 103.483 85.4171 102.69 85.2999 101.897C85.2329 101.813 85.1743 101.711 85.1575 101.551L85.1743 101.526ZM64.0671 106.782C63.6987 106.765 63.4308 106.622 63.188 106.309C63.054 106.132 62.7861 106.056 62.5601 105.955C62.5349 105.947 62.5098 105.93 62.4847 105.921C62.5433 104.884 62.5517 104.875 63.682 104.673C63.6987 104.715 63.7071 104.766 63.7071 104.808C63.7741 105.238 63.615 105.736 64.042 106.073C64.0253 106.191 64.042 106.301 64.1006 106.402C64.0671 106.529 64.0587 106.655 64.0755 106.79L64.0671 106.782ZM64.8876 102.226C64.5946 102.606 64.1006 102.386 63.6987 102.42L63.5145 102.395C63.481 102.251 63.4224 102.125 63.3303 102.015C63.4057 101.711 63.4894 101.408 63.5648 101.104C63.5983 100.986 63.6234 100.868 63.6569 100.75C64.042 100.581 64.4606 100.362 64.762 100.859C65.0216 101.281 65.2476 101.787 64.896 102.235L64.8876 102.226ZM67.751 103.39C67.592 103.551 67.3492 103.517 67.2068 103.348C66.7128 102.766 66.8803 101.889 67.525 101.551C67.8013 101.408 68.3706 101.636 68.4041 102.108C68.4041 102.496 68.1529 102.985 67.751 103.39ZM70.8489 99.6361C70.7484 99.9229 70.6479 100.21 70.5391 100.497C70.514 100.573 70.4805 100.648 70.4554 100.733C70.2963 100.859 70.1372 100.994 69.9698 101.104C69.7856 101.222 69.4925 101.222 69.4423 101.045C69.2665 100.446 68.7892 99.847 69.2832 99.1974C69.2916 99.1805 69.2999 99.1636 69.3167 99.1467C69.9279 98.9189 70.4972 98.8852 70.8907 99.5433C70.8824 99.577 70.8656 99.6108 70.8572 99.6445L70.8489 99.6361ZM73.436 99.2817C73.1178 99.6614 72.9001 99.2902 72.6992 99.0539C72.8332 98.8852 72.9671 98.7165 73.1011 98.5562C73.3941 98.7249 73.7206 98.9443 73.4276 99.2902L73.436 99.2817ZM76.5171 98.1259C76.065 98.185 75.5794 98.1765 75.2779 98.6237H75.2612C74.9849 98.4718 74.7086 98.3115 74.4323 98.1512C74.4574 98.05 74.4658 97.9488 74.4658 97.8475C74.6165 97.6957 74.7756 97.5438 74.9263 97.3835C75.1775 97.2907 75.437 97.2148 75.6882 97.1135C76.0147 96.987 76.3496 96.8942 76.6092 97.1979C76.8855 97.5185 76.6427 97.8222 76.5254 98.1259H76.5171ZM84.4459 100.573C84.3287 100.606 84.1696 100.665 84.0859 100.615C83.8263 100.454 83.8682 100.168 83.8514 99.9145C84.0524 100.075 84.2533 100.227 84.4375 100.404C84.471 100.429 84.4542 100.573 84.4375 100.573H84.4459Z" fill="white"/>
<path d="M53.5433 43.7184C53.493 43.5496 53.5349 43.3724 53.6186 43.2206C53.9703 42.6216 54.3722 42.0648 54.7573 41.4826C55.3517 41.7695 55.1927 42.3348 55.2345 42.8156C55.042 43.1869 54.908 43.6002 54.6485 43.9039C54.5061 44.0727 54.2968 44.1317 54.0875 44.1064C54.3136 44.2667 54.5396 44.4354 54.774 44.5789C56.4151 45.5659 58.2487 46.1565 60.1325 46.4855C60.0739 46.3252 60.0739 46.1481 60.1743 45.954C60.1994 45.9034 60.2246 45.8613 60.2581 45.8275C60.2329 45.7178 60.2246 45.6081 60.2329 45.4816C60.2413 45.3382 60.2832 45.2032 60.3083 45.0682C60.4506 45.0682 60.6013 45.0851 60.7437 45.0935C60.8609 45.0514 60.9781 45.0429 61.0953 45.0766C61.2544 45.0598 61.4051 45.0513 61.5642 45.0345C61.8237 45.296 62.0498 45.5828 61.8321 45.9625C61.7149 46.165 61.5642 46.2662 61.3967 46.3168C61.5558 46.3843 61.6646 46.5024 61.7233 46.6796C61.7233 46.6796 61.7233 46.7049 61.7233 46.7218C62.2089 46.7724 62.7028 46.8146 63.1884 46.8399C67.1654 47.0339 71.5107 46.2325 74.5918 43.8702C74.6588 43.6256 74.7677 43.4146 75.0021 43.2543C75.0691 43.2796 75.1444 43.2881 75.2114 43.3049C75.9314 42.6553 76.6012 41.9382 77.1287 41.0862C77.765 40.0485 78.1837 38.9095 78.4934 37.7284C78.4934 37.7284 78.4934 37.7284 78.4851 37.7284C78.4851 37.7284 78.4934 37.7199 78.4934 37.7115C78.4934 37.7115 78.4934 37.7199 78.4934 37.7284C78.8953 36.1845 79.0879 34.5646 79.2553 32.9701C79.3726 31.8987 79.473 30.8104 79.5065 29.722C79.3558 29.6714 79.1549 29.5786 78.8702 29.4267C78.8702 29.4267 78.8869 29.3677 78.8953 29.334C79.0544 28.7518 79.1298 28.5747 79.5065 28.5578C79.473 27.132 79.2637 25.74 78.7446 24.4154C78.46 23.6899 78.0748 23.0571 77.6478 22.4581C77.2627 22.5256 76.8775 22.3485 76.7185 21.9604C76.6431 21.7663 76.6599 21.547 76.7436 21.3529C75.4542 20.0031 73.8132 19.0582 71.9796 18.4592C71.787 18.746 71.4689 18.9316 71.2177 18.8726C70.9833 18.8135 70.8075 18.4423 70.8409 18.1386C69.9618 17.9277 69.0576 17.7758 68.145 17.7083C61.246 16.6622 53.6605 19.8765 50.3115 26.0437C47.2136 31.7637 48.57 39.7109 53.5517 43.7268L53.5433 43.7184ZM74.9435 28.1106H74.6923C74.3658 28.0853 74.0392 28.0769 73.7127 28.06C73.7127 27.7985 73.696 27.5454 73.696 27.2839C74.4049 27.2839 74.8207 27.5594 74.9435 28.1106ZM75.3119 26.7861C75.3119 26.7861 75.27 26.7608 75.2533 26.7439C75.0272 26.5752 75.0021 26.3137 75.0105 26.0352C75.1361 25.9931 75.2533 25.9846 75.3789 26.0184C75.3789 26.2884 75.3789 26.5583 75.3872 26.8283C75.3537 26.8199 75.337 26.803 75.3119 26.7861ZM78.1837 25.5122C78.9204 25.4194 78.9204 25.4025 79.2135 26.2968C78.7949 26.4065 78.4516 26.6174 78.1669 26.9464C77.7818 27.3935 77.2878 27.6129 76.7185 27.6719C76.1408 26.9801 76.0235 26.2799 76.7185 25.5881C77.2041 25.5628 77.6897 25.5628 78.1753 25.5037L78.1837 25.5122ZM74.483 21.1758C74.5081 20.9142 74.483 20.6358 74.5751 20.3996C74.7928 19.885 75.1109 19.9356 75.4291 20.3321C75.8896 20.6358 75.9482 21.0914 75.9063 21.5892C76.0319 21.7495 76.1575 21.9097 76.2831 22.07C76.6515 22.1038 76.9362 22.2472 77.0031 22.6522C77.0534 22.9981 77.0785 23.3609 76.8189 23.6224C76.7017 23.7405 76.3919 23.8417 76.2831 23.7742C75.9482 23.5549 75.6719 23.2596 75.3705 22.9896C75.2449 22.9812 75.1277 22.939 75.0188 22.8715C73.8802 22.5847 73.8216 22.4075 74.483 21.1758ZM72.7917 24.9216C73.4281 24.6685 74.0141 25.0313 74.7844 24.9216C74.6505 25.7484 74.2235 26.1196 73.7881 26.4739C73.4029 26.7861 72.8504 26.6849 72.4652 26.2883C72.0215 25.8328 72.2057 25.1578 72.7834 24.9301L72.7917 24.9216ZM71.0084 24.3901C71.0084 24.3901 71.0419 24.4323 71.0586 24.4492C71.7284 25.2253 71.7201 25.2507 71.134 25.9425C70.8242 25.6725 70.5228 25.4025 70.213 25.1325C70.2381 24.6263 70.4307 24.2973 71.0084 24.3901ZM69.6185 29.2243C69.8781 29.1483 70.0121 29.334 70.0958 29.5196C70.3972 30.2282 70.6902 30.9369 70.9833 31.6456C71.2512 31.6456 71.4019 31.7806 71.4438 32.0421C71.628 32.5314 71.4605 33.0123 71.4187 33.4932C71.3852 33.8813 71.6363 34.4128 71.1256 34.5984C70.5144 34.8177 70.3553 34.185 70.0456 33.8475C69.6437 33.5691 69.6855 33.1304 69.6185 32.717C69.4678 31.7721 69.719 30.7766 69.2585 29.857C69.1329 29.6124 69.292 29.3171 69.6102 29.2243H69.6185ZM68.9822 24.0105C68.9822 24.2129 68.932 24.4238 68.9069 24.6263H68.8985C68.639 24.5841 68.3459 24.5842 68.1199 24.4576C67.785 24.2804 67.651 23.9261 67.8268 23.5802C67.8938 23.4452 68.1785 23.3524 68.3543 23.3524C68.7311 23.3609 68.9822 23.5971 68.9822 24.002V24.0105ZM67.1654 22.6522C67.3915 22.5172 67.6008 22.3231 67.8519 22.2556C68.0445 22.1966 68.2455 22.3569 68.279 22.5762C68.2957 22.6943 68.2538 22.8884 68.1785 22.9306C67.9441 23.0656 67.6845 23.1415 67.4333 23.2427C67.4249 23.2427 67.4166 23.2427 67.4082 23.2427C67.3915 23.2427 67.3663 23.2427 67.3412 23.2259C67.2994 23.2174 67.2575 23.2006 67.2156 23.2006C67.2073 23.0487 67.1905 22.8968 67.1822 22.7365C67.1822 22.7112 67.1822 22.6775 67.1822 22.6522H67.1654ZM58.7594 37.1209C58.0561 37.1547 57.4449 36.252 57.7463 35.5264C57.8133 35.3661 58.0142 35.2311 58.1817 35.1636C58.257 35.1299 58.4496 35.2396 58.5166 35.3324C58.8012 35.7204 59.0692 36.1339 59.0859 36.6401C59.0859 36.8594 59.0357 37.0366 58.7594 37.1125V37.1209ZM57.11 34.4971C56.8253 34.3369 56.8086 34.0331 56.9509 33.7885C57.11 33.5185 57.403 33.4932 57.6626 33.645C57.897 33.7716 58.1314 33.9488 57.9891 34.2778C57.7547 34.6237 57.4449 34.6828 57.11 34.4971ZM63.4145 19.5137C63.4145 19.2353 63.4312 18.9485 63.4312 18.6701C63.5485 18.6363 63.6573 18.6195 63.7745 18.6026C64.0341 18.2989 64.3355 18.1555 64.5029 18.6279C64.662 19.0751 64.6285 19.5559 64.2852 19.9525C64.2183 20.2477 64.0592 20.4418 63.8499 20.5683C63.7159 20.6527 63.5736 20.7117 63.4061 20.7539C63.4061 20.3405 63.4061 19.9187 63.4145 19.5053V19.5137ZM63.4564 25.9256C63.448 25.3856 63.4312 24.8457 63.4229 24.3058C63.4229 24.3058 63.4229 24.2973 63.4229 24.2889C63.6741 24.2889 63.9336 24.3058 64.1848 24.3058C64.1848 24.3058 64.1848 24.3142 64.1848 24.3226C64.2015 24.736 64.2434 25.1494 64.235 25.5628C64.235 25.6303 64.235 25.664 64.2266 25.7062C64.4443 25.8328 64.5197 26.1027 64.5113 26.4486C64.4443 26.4739 64.3941 26.4908 64.3355 26.5077C64.2769 26.5246 64.2183 26.5414 64.168 26.5583C63.7745 26.668 63.6992 26.5836 63.6992 26.069C63.6992 26.0437 63.6992 26.0099 63.6992 25.9846C63.6154 25.9678 63.5568 25.9509 63.4396 25.9256H63.4564ZM64.0676 27.8576C64.2099 27.8322 64.3606 27.8154 64.5029 27.79C64.5783 27.8744 64.6285 27.9757 64.6453 28.0938C64.7625 28.2625 64.9969 28.4312 64.9885 28.5915C64.9299 29.6545 65.1225 30.6754 65.3067 31.7131C65.3151 31.7806 65.2983 31.8481 65.2899 31.924C65.2565 32.2362 65.0723 32.4724 64.7792 32.4892C64.6201 32.4977 64.3606 32.3374 64.2936 32.1855C64.1345 31.8059 63.9922 31.3925 63.9838 30.9875C63.9671 30.3463 63.9001 29.7305 63.582 29.1652C63.2638 29.0808 62.9875 28.9459 62.8201 28.6506C62.7028 28.6506 62.594 28.6253 62.4768 28.5915C62.4684 28.33 62.46 28.0685 62.4433 27.8154C62.5689 27.7816 62.6861 27.731 62.7949 27.6719C62.8033 27.7732 62.8284 27.8744 62.8536 27.9757C62.887 27.9588 62.9122 27.9504 62.9456 27.9419C63.3057 27.7732 63.674 27.7647 64.0592 27.8744L64.0676 27.8576ZM63.6657 35.5349C63.6657 35.8554 63.6238 36.1001 63.4061 36.1592C63.3057 36.1845 63.1801 36.1676 63.0042 36.1001C62.8201 36.0326 62.6275 35.9989 62.4349 35.9482C62.2842 35.7205 62.0414 35.4842 62.1837 35.189C62.3596 34.8262 62.7112 34.7249 63.088 34.8515C63.2889 34.919 63.4647 35.0455 63.6573 35.1468V35.383C63.6657 35.4336 63.6657 35.4927 63.6741 35.5433L63.6657 35.5349ZM62.6694 22.1882C62.9708 22.3569 62.954 22.6437 62.7698 22.88C62.6024 23.0909 62.3679 23.2427 62.1586 23.4199L62.1168 23.4452C61.7065 23.3777 61.2125 23.3187 61.3465 22.7365C61.4805 22.1713 62.167 21.9182 62.661 22.1882H62.6694ZM60.7855 41.5923C60.9279 40.909 61.0702 40.234 61.2209 39.5507C61.2376 39.5507 61.2544 39.5338 61.2711 39.5254C61.3465 39.4916 61.4302 39.4579 61.4972 39.4157C61.5893 38.8335 61.4637 38.0996 62.4935 38.3105C62.6107 38.3358 62.728 38.3105 62.8284 38.243C63.0042 38.1333 63.1633 37.9308 63.2805 37.7368C64.1764 37.9815 64.2015 38.0321 64.1011 38.9938C63.9169 39.1204 63.7327 39.2385 63.5568 39.3566C63.1382 39.635 62.7447 39.9388 62.46 40.3775C62.4349 40.909 62.4014 41.4405 62.3679 41.972C62.3679 41.972 62.3679 41.9804 62.3596 41.9888C62.2758 42.0901 62.1921 42.1913 62.1 42.2841C62.3679 42.3854 62.5438 42.6216 62.6107 43.0181C62.6945 43.5327 62.5186 43.9293 62.2507 44.292C62.1921 44.368 62.1335 44.4523 62.0665 44.5282C61.6646 44.5282 61.2711 44.5198 60.8693 44.5114C60.7855 44.4102 60.7185 44.2751 60.6097 44.2077C60.4841 44.1233 60.3837 44.0305 60.2999 43.9293C60.0404 43.6087 60.0739 43.2375 60.3585 42.8241C60.392 42.8072 60.4171 42.7819 60.4506 42.765C60.5595 42.6975 60.6683 42.63 60.7688 42.5626C60.6265 42.2926 60.7186 41.9298 60.7855 41.6008V41.5923ZM57.7379 21.8929C57.8217 21.7495 57.9137 21.6145 58.0142 21.4795C58.0812 21.3867 58.1482 21.3023 58.2152 21.2095C58.2905 21.1167 58.3407 21.0155 58.3575 20.8974C59.2868 20.2731 59.6469 20.2562 60.0822 20.8383C60.2664 21.0914 60.2748 21.3867 60.0404 21.5807C59.7808 21.7916 59.4543 21.935 59.1529 22.0953C58.8933 22.2303 58.7343 22.4413 58.6338 22.6944C58.6087 22.7619 58.5836 22.8293 58.5584 22.9053C58.458 22.9306 58.3575 22.9812 58.2821 23.0487C58.0979 22.9643 57.9556 22.8968 57.8384 22.8293C57.4365 22.5931 57.4533 22.3991 57.7379 21.9013V21.8929ZM57.2021 30.397C57.2021 30.397 57.2439 30.397 57.2607 30.3885C57.177 30.1945 57.1435 29.992 57.4449 29.8317C57.8635 29.6124 58.2654 29.258 58.7845 29.6292C58.9603 29.7558 59.1529 29.8233 59.3538 29.8655C59.3455 29.7305 59.3538 29.6039 59.3873 29.4774C59.6134 29.4352 59.7808 29.3171 59.8562 29.0977V29.1146C60.7102 29.587 60.7688 29.6883 60.325 30.2873C60.3167 30.2957 60.3083 30.3126 60.2999 30.321C60.4255 30.6669 60.3836 31.0635 60.4423 31.4262C60.4841 31.7131 60.1408 31.9831 59.8897 31.8734C59.6134 31.7553 59.3455 31.6287 59.0775 31.5022C58.3826 31.7974 57.7882 31.6709 57.0514 31.0803C56.9677 31.0128 56.9174 30.8188 56.9425 30.7007C56.9676 30.5826 57.0849 30.456 57.1937 30.4054L57.2021 30.397ZM55.7118 32.1096C55.8457 32.0674 55.9797 31.9999 56.1137 31.9746C56.4486 31.8987 56.8588 31.6371 57.0932 31.9999C57.4198 32.5146 56.9007 32.717 56.5825 32.9617C56.4904 32.9532 56.4067 32.9364 56.323 32.9195C56.0718 32.8605 55.8709 32.7508 55.7704 32.5399C55.7201 32.4302 55.695 32.2952 55.7118 32.118V32.1096ZM56.0048 43.1953C56.2476 43.1784 56.4234 43.0603 56.5239 42.8409C56.8002 42.8578 57.0765 42.8831 57.3528 42.9C57.3528 43.094 57.3612 43.2796 57.3695 43.4737C57.3695 43.5412 57.3695 43.6086 57.3695 43.6761C57.2439 43.7015 57.1184 43.7183 56.9928 43.7268C56.9425 43.7352 56.8923 43.7521 56.8504 43.769C56.6914 43.8365 56.5909 43.9546 56.5407 44.1402L55.7118 44.1064C55.6029 43.7352 55.6783 43.4231 56.0132 43.1953H56.0048ZM54.6819 27.326C54.774 27.4188 54.8913 27.5032 54.9666 27.6129C55.1341 27.8575 55.1759 28.1444 54.9248 28.3469C54.682 28.5493 54.4308 28.4059 54.2131 28.2288C54.2298 27.8491 54.2801 27.4948 54.6819 27.326ZM53.9787 33.0714C54.0456 32.6242 54.3387 32.5399 54.7154 32.5652V32.8098C54.7406 33.392 54.7573 33.9825 54.7824 34.5646C54.6568 34.6237 54.5312 34.6406 54.3889 34.6406C54.1545 34.1428 53.8866 33.6619 53.9787 33.0714Z" fill="white"/>
<path d="M62.9792 28.4732C62.9792 28.4732 62.9792 28.4479 62.9792 28.4395C62.9289 28.507 62.8786 28.5661 62.8284 28.6336C62.8786 28.583 62.9373 28.5239 62.9876 28.4732H62.9792Z" fill="white"/>
</svg>
